<svg xmlns="http://www.w3.org/2000/svg" xmlns:xlink="http://www.w3.org/1999/xlink" width="113" height="113" viewBox="0 0 113 113">
  <defs>
    <filter id="Trazado_982547" x="0" y="0" width="113" height="113" filterUnits="userSpaceOnUse">
      <feOffset dy="3" input="SourceAlpha"/>
      <feGaussianBlur stdDeviation="3" result="blur"/>
      <feFlood flood-opacity="0.161"/>
      <feComposite operator="in" in2="blur"/>
      <feComposite in="SourceGraphic"/>
    </filter>
  </defs>
  <g id="Grupo_1226274" data-name="Grupo 1226274" transform="translate(977 -1933.596)">
    <g id="Grupo_1225959" data-name="Grupo 1225959" transform="translate(-968 1939.596)">
      <g id="Grupo_1208028" data-name="Grupo 1208028">
        <g id="Grupo_1177675" data-name="Grupo 1177675" transform="translate(0 0)">
          <g id="Grupo_1176928" data-name="Grupo 1176928">
            <g id="Grupo_1172322" data-name="Grupo 1172322">
              <g id="Grupo_1164700" data-name="Grupo 1164700">
                <g id="Grupo_1160931" data-name="Grupo 1160931">
                  <g id="Grupo_1160749" data-name="Grupo 1160749">
                    <g id="Grupo_1158891" data-name="Grupo 1158891">
                      <g id="Grupo_1157406" data-name="Grupo 1157406">
                        <g id="Grupo_1155793" data-name="Grupo 1155793">
                          <g id="Grupo_1154704" data-name="Grupo 1154704">
                            <g id="Grupo_1150790" data-name="Grupo 1150790">
                              <g id="Grupo_1154214" data-name="Grupo 1154214">
                                <g id="Grupo_1152583" data-name="Grupo 1152583">
                                  <g id="Grupo_1146973" data-name="Grupo 1146973">
                                    <g id="Grupo_1146954" data-name="Grupo 1146954">
                                      <g transform="matrix(1, 0, 0, 1, -9, -6)" filter="url(#Trazado_982547)">
                                        <g id="Trazado_982547-2" data-name="Trazado 982547" transform="translate(9 6)" fill="#f9e3d4">
                                          <path d="M 47.5000114440918 93.49987030029297 C 41.28938293457031 93.49987030029297 35.26534652709961 92.28384399414062 29.5951976776123 89.88558959960938 C 24.11773109436035 87.56881713867188 19.19814491271973 84.25183868408203 14.97310447692871 80.02680206298828 C 10.74805164337158 75.80176544189453 7.43107795715332 70.88218688964844 5.114304542541504 65.40472412109375 C 2.716038227081299 59.73458862304688 1.500011444091797 53.71054840087891 1.500011444091797 47.49993515014648 C 1.500011444091797 41.28932189941406 2.716038227081299 35.26528167724609 5.114304542541504 29.59514808654785 C 7.43107795715332 24.1176815032959 10.74805164337158 19.1981086730957 14.97310447692871 14.97306823730469 C 19.19814491271973 10.74802875518799 24.11773109436035 7.431055068969727 29.5951976776123 5.11428165435791 C 35.26534652709961 2.716028451919556 41.28938293457031 1.500001788139343 47.5000114440918 1.500001788139343 C 53.71063995361328 1.500001788139343 59.73467636108398 2.716028451919556 65.40482330322266 5.11428165435791 C 70.88229370117188 7.431055068969727 75.8018798828125 10.74802875518799 80.02691650390625 14.97306823730469 C 84.25196838378906 19.1981086730957 87.56894683837891 24.1176815032959 89.88571929931641 29.59514808654785 C 92.28398132324219 35.26528167724609 93.50001525878906 41.28932189941406 93.50001525878906 47.49993515014648 C 93.50001525878906 53.71054840087891 92.28398132324219 59.73458862304688 89.88571929931641 65.40472412109375 C 87.56894683837891 70.88218688964844 84.25196838378906 75.80176544189453 80.02691650390625 80.02680206298828 C 75.8018798828125 84.25183868408203 70.88229370117188 87.56881713867188 65.40482330322266 89.88558959960938 C 59.73467636108398 92.28384399414062 53.71063995361328 93.49987030029297 47.5000114440918 93.49987030029297 Z" stroke="none"/>
                                          <path d="M 47.5000114440918 3 C 41.49122619628906 3 35.66378021240234 4.1761474609375 30.17951965332031 6.495796203613281 C 24.880859375 8.7369384765625 20.12153625488281 11.94596862792969 16.03376770019531 16.03373718261719 C 11.94598388671875 20.12149047851562 8.736968994140625 24.88081359863281 6.495811462402344 30.17947387695312 C 4.176162719726562 35.66371917724609 3.000007629394531 41.49116516113281 3.000007629394531 47.49993515014648 C 3.000007629394531 53.50870513916016 4.176162719726562 59.33615112304688 6.495811462402344 64.82039642333984 C 8.736968994140625 70.11905670166016 11.94598388671875 74.87837982177734 16.03376770019531 78.96613311767578 C 20.12153625488281 83.05390167236328 24.880859375 86.26293182373047 30.17951965332031 88.50407409667969 C 35.66378021240234 90.82372283935547 41.49122619628906 91.99987030029297 47.5000114440918 91.99987030029297 C 53.50879669189453 91.99987030029297 59.33624267578125 90.82372283935547 64.82050323486328 88.50407409667969 C 70.11916351318359 86.26293182373047 74.87848663330078 83.05390167236328 78.96625518798828 78.96613311767578 C 83.05403900146484 74.87837982177734 86.2630615234375 70.11905670166016 88.50421142578125 64.82039642333984 C 90.82386016845703 59.33615112304688 92.00001525878906 53.50870513916016 92.00001525878906 47.49993515014648 C 92.00001525878906 41.49116516113281 90.82386016845703 35.66371917724609 88.50421142578125 30.17947387695312 C 86.2630615234375 24.88081359863281 83.05403900146484 20.12149047851562 78.96625518798828 16.03373718261719 C 74.87848663330078 11.94596862792969 70.11916351318359 8.7369384765625 64.82050323486328 6.495796203613281 C 59.33624267578125 4.1761474609375 53.50879669189453 3 47.5000114440918 3 M 47.5000114440918 0 C 73.73353576660156 0 95.00001525878906 21.26644134521484 95.00001525878906 47.49993515014648 C 95.00001525878906 73.73342895507812 73.73353576660156 94.99987030029297 47.5000114440918 94.99987030029297 C 21.26648712158203 94.99987030029297 7.62939453125e-06 73.73342895507812 7.62939453125e-06 47.49993515014648 C 7.62939453125e-06 21.26644134521484 21.26648712158203 0 47.5000114440918 0 Z" stroke="none" fill="#eca675"/>
                                        </g>
                                      </g>
                                    </g>
                                  </g>
                                </g>
                              </g>
                            </g>
                          </g>
                        </g>
                      </g>
                    </g>
                  </g>
                </g>
              </g>
            </g>
          </g>
        </g>
      </g>
    </g>
    <g id="conocimiento_1_" data-name="conocimiento (1)" transform="translate(-951.937 1956.338)">
      <g id="Flat_4_" transform="translate(1.105 0.951)">
        <path id="Trazado_1187567" data-name="Trazado 1187567" d="M11.312,381.725a4.21,4.21,0,0,1,4.21-4.21H67.366v-3.609H15.522a7.819,7.819,0,1,0,0,15.637H67.366v-3.609H15.522A4.21,4.21,0,0,1,11.312,381.725Z" transform="translate(-7.703 -329.88)" fill="#cbdcfb"/>
        <path id="Trazado_1187568" data-name="Trazado 1187568" d="M91.833,403.906H41.913a4.21,4.21,0,1,0,0,8.42h49.92Z" transform="translate(-34.094 -356.272)" fill="#fff"/>
        <path id="Trazado_1187569" data-name="Trazado 1187569" d="M38.109,423.906a4.211,4.211,0,0,0,3.8,6.014h49.92v-3.609H41.913A4.21,4.21,0,0,1,38.109,423.906Z" transform="translate(-34.094 -373.866)" fill="#e4e8ed"/>
        <path id="Trazado_1187570" data-name="Trazado 1187570" d="M59.312,279.92a2.406,2.406,0,0,1,2.406-2.406h42.1v-3.609h-42.1a6.014,6.014,0,1,0,0,12.029h42.1v-3.609h-42.1A2.406,2.406,0,0,1,59.312,279.92Z" transform="translate(-49.929 -241.909)" fill="#f88fa4"/>
        <path id="Trazado_1187571" data-name="Trazado 1187571" d="M128.285,303.906H88.109a2.406,2.406,0,1,0,0,4.812h40.176Z" transform="translate(-76.32 -268.301)" fill="#fff"/>
        <path id="Trazado_1187572" data-name="Trazado 1187572" d="M172.166,68.906V86.949s-3.609,2.406-13.232,2.406S145.7,86.949,145.7,86.949V68.906Z" transform="translate(-129.103 -61.568)" fill="#616161"/>
        <path id="Trazado_1187573" data-name="Trazado 1187573" d="M145.7,188.906v3.609s3.609,2.406,13.232,2.406,13.232-2.406,13.232-2.406v-3.609s-3.609,2.406-13.232,2.406S145.7,188.906,145.7,188.906Z" transform="translate(-129.103 -167.134)" fill="#424242"/>
        <path id="Trazado_1187574" data-name="Trazado 1187574" d="M410.515,164.92H405.7v-3.609a2.406,2.406,0,1,1,4.812,0Z" transform="translate(-357.828 -140.742)" fill="#616161"/>
        <path id="Trazado_1187575" data-name="Trazado 1187575" d="M119.007,15.123,97.355,22.341,75.7,15.123,97.355,7.906Z" transform="translate(-67.523 -7.906)" fill="#616161"/>
        <path id="Trazado_1187576" data-name="Trazado 1187576" d="M113.233,51.906,97.355,57.2,81.477,51.906,75.7,53.831l21.652,7.217,21.652-7.217Z" transform="translate(-67.523 -46.613)" fill="#424242"/>
      </g>
      <g id="Grupo_1226273" data-name="Grupo 1226273" transform="translate(10.728 22.904)">
        <path id="Trazado_1187577" data-name="Trazado 1187577" d="M87.7,436.406h1.8v1.8H87.7Z" transform="translate(-87.703 -406.815)" fill="#fff"/>
        <path id="Trazado_1187578" data-name="Trazado 1187578" d="M295.7,190.406h1.8v1.8h-1.8Z" transform="translate(-270.683 -190.406)" fill="#fff"/>
      </g>
      <g id="Outline_4_" transform="translate(0.203 0)">
        <path id="Trazado_1187579" data-name="Trazado 1187579" d="M61.67,283.848v-5.413H55.9v-3.609H53.972v-3.007H55.9v-5.413H41.5v1.8H54.092v1.8H16.76v1.8H52.167v3.007H12.893a1.5,1.5,0,0,1,0-3.007h2.062v-1.8H12.893a3.308,3.308,0,1,0,0,6.616h41.2v1.8H23v1.8H59.866v1.8H8.924a5.112,5.112,0,0,0,0,10.225h42.5v-1.8H8.924a3.308,3.308,0,0,1,0-6.616H57.941v3.007h-40v1.8h40v1.8H53.224v1.8h6.642v1.8H8.924a6.917,6.917,0,1,1,0-13.833H21.193v-1.8h-8.3a5.112,5.112,0,0,1,0-10.225H39.7v-1.8H12.893A6.913,6.913,0,0,0,8.27,278.462a8.72,8.72,0,0,0,.654,17.415H61.67v-5.413H59.746v-6.616Z" transform="translate(-0.203 -234.36)"/>
        <path id="Trazado_1187580" data-name="Trazado 1187580" d="M117.7,436.406h1.8v1.8h-1.8Z" transform="translate(-103.569 -383.911)"/>
        <path id="Trazado_1187581" data-name="Trazado 1187581" d="M62.357,26.815l.4.268c.157.1,3.948,2.557,13.732,2.557s13.576-2.453,13.732-2.557l.4-.268V11.625l5.413-1.8v8.518a3.313,3.313,0,0,0-2.406,3.182v4.511h6.616V21.52a3.313,3.313,0,0,0-2.406-3.182V9.22L101,8.168,91.521,5.01,90.95,6.722l4.34,1.446-18.8,6.266-18.8-6.266L76.491,1.9,89.239,6.151l.571-1.712L76.491,0l-24.5,8.168,10.371,3.457ZM98.443,21.52v2.706H95.436V21.52a1.5,1.5,0,1,1,3.007,0ZM64.161,12.227l12.33,4.11,12.33-4.11V19.3H86.6v1.8H88.82v1.8H84.911v1.8H88.82V25.8c-1.163.566-4.9,2.04-12.33,2.04S65.318,26.36,64.161,25.8Z" transform="translate(-45.757 0)"/>
      </g>
    </g>
  </g>
</svg>
