<svg xmlns="http://www.w3.org/2000/svg" xmlns:xlink="http://www.w3.org/1999/xlink" width="103" height="103" viewBox="0 0 103 103">
  <defs>
    <filter id="Trazado_978624" x="0" y="0" width="103" height="103" filterUnits="userSpaceOnUse">
      <feOffset dy="3" input="SourceAlpha"/>
      <feGaussianBlur stdDeviation="3" result="blur"/>
      <feFlood flood-opacity="0.161"/>
      <feComposite operator="in" in2="blur"/>
      <feComposite in="SourceGraphic"/>
    </filter>
  </defs>
  <g id="Grupo_1226191" data-name="Grupo 1226191" transform="translate(-171 -771)">
    <g id="Grupo_1225946" data-name="Grupo 1225946" transform="translate(0 -25)">
      <g id="Grupo_1222970" data-name="Grupo 1222970" transform="translate(0 -37)">
        <g id="Grupo_1222589" data-name="Grupo 1222589">
          <g id="Grupo_1203109" data-name="Grupo 1203109" transform="translate(180 839)">
            <g id="Grupo_1176881" data-name="Grupo 1176881">
              <g id="Grupo_1175148" data-name="Grupo 1175148">
                <g id="Grupo_1173798" data-name="Grupo 1173798">
                  <g id="Grupo_1171925" data-name="Grupo 1171925">
                    <g id="Grupo_1164524" data-name="Grupo 1164524">
                      <g id="Grupo_1144123" data-name="Grupo 1144123">
                        <g transform="matrix(1, 0, 0, 1, -9, -6)" filter="url(#Trazado_978624)">
                          <g id="Trazado_978624-2" data-name="Trazado 978624" transform="translate(9 6)" fill="#e7f2f8">
                            <path d="M 42.5 83.5 C 36.96437835693359 83.5 31.59512901306152 82.41617584228516 26.54141235351562 80.27863311767578 C 21.65934181213379 78.21369171142578 17.27447128295898 75.25723266601562 13.50862312316895 71.49137878417969 C 9.742764472961426 67.72553253173828 6.786305904388428 63.34066009521484 4.721364498138428 58.45858764648438 C 2.583823442459106 53.40486907958984 1.5 48.03562164306641 1.5 42.5 C 1.5 36.96437835693359 2.583823442459106 31.59512901306152 4.721364498138428 26.54141235351562 C 6.786305904388428 21.65934181213379 9.742764472961426 17.27447128295898 13.50862312316895 13.50862312316895 C 17.27447128295898 9.742764472961426 21.65934181213379 6.786305904388428 26.54141235351562 4.721364498138428 C 31.59512901306152 2.583823442459106 36.96437835693359 1.5 42.5 1.5 C 48.03562164306641 1.5 53.40486907958984 2.583823442459106 58.45858764648438 4.721364498138428 C 63.34066009521484 6.786305904388428 67.72553253173828 9.742764472961426 71.49137878417969 13.50862312316895 C 75.25723266601562 17.27447128295898 78.21369171142578 21.65934181213379 80.27863311767578 26.54141235351562 C 82.41617584228516 31.59512901306152 83.5 36.96437835693359 83.5 42.5 C 83.5 48.03562164306641 82.41617584228516 53.40486907958984 80.27863311767578 58.45858764648438 C 78.21369171142578 63.34066009521484 75.25723266601562 67.72553253173828 71.49137878417969 71.49137878417969 C 67.72553253173828 75.25723266601562 63.34066009521484 78.21369171142578 58.45858764648438 80.27863311767578 C 53.40486907958984 82.41617584228516 48.03562164306641 83.5 42.5 83.5 Z" stroke="none"/>
                            <path d="M 42.5 3 C 37.16621398925781 3 31.99356079101562 4.043960571289062 27.125732421875 6.102882385253906 C 22.42246627807617 8.092185974121094 18.19785308837891 10.94070434570312 14.56928253173828 14.56928253173828 C 10.94070434570312 18.19785308837891 8.092185974121094 22.42246627807617 6.102882385253906 27.125732421875 C 4.043960571289062 31.99356079101562 3 37.16621398925781 3 42.5 C 3 47.83378601074219 4.043960571289062 53.00643920898438 6.102882385253906 57.87425231933594 C 8.092185974121094 62.57753372192383 10.94070434570312 66.80213165283203 14.56928253173828 70.43071746826172 C 18.19786834716797 74.05929565429688 22.42246627807617 76.90781402587891 27.125732421875 78.89711761474609 C 31.99356079101562 80.95603942871094 37.16621398925781 82 42.5 82 C 47.83378601074219 82 53.00642395019531 80.95603942871094 57.87425231933594 78.89711761474609 C 62.57753372192383 76.90781402587891 66.80213165283203 74.05929565429688 70.43071746826172 70.43071746826172 C 74.05929565429688 66.80213165283203 76.90781402587891 62.57753372192383 78.89711761474609 57.87425231933594 C 80.95603942871094 53.00642395019531 82 47.83378601074219 82 42.5 C 82 37.16621398925781 80.95603942871094 31.99356079101562 78.89711761474609 27.125732421875 C 76.90781402587891 22.42246627807617 74.05929565429688 18.19786834716797 70.43071746826172 14.56928253173828 C 66.80213165283203 10.94070434570312 62.57753372192383 8.092185974121094 57.87425231933594 6.102882385253906 C 53.00643920898438 4.043960571289062 47.83378601074219 3 42.5 3 M 42.5 0 C 65.97209167480469 0 85 19.02789306640625 85 42.5 C 85 65.97209167480469 65.97209167480469 85 42.5 85 C 19.02789306640625 85 0 65.97209167480469 0 42.5 C 0 19.02789306640625 19.02789306640625 0 42.5 0 Z" stroke="none" fill="#248abf"/>
                          </g>
                        </g>
                      </g>
                    </g>
                  </g>
                </g>
              </g>
            </g>
          </g>
        </g>
      </g>
    </g>
    <g id="colegio_2_" data-name="colegio (2)" transform="translate(194.109 761.027)">
      <g id="Grupo_1226189" data-name="Grupo 1226189" transform="translate(0.832 28.889)">
        <path id="Trazado_1187404" data-name="Trazado 1187404" d="M256,35.557h6.223V40H256Z" transform="translate(-228.441 -35.557)" fill="#ff8086"/>
        <path id="Trazado_1187405" data-name="Trazado 1187405" d="M256,35.557h2.667V40H256Z" transform="translate(-228.441 -35.557)" fill="#e5646e"/>
        <path id="Trazado_1187406" data-name="Trazado 1187406" d="M59.063,179.847H11.056l-3.556,8H62.619Z" transform="translate(-7.5 -163.845)" fill="#ff8086"/>
        <path id="Trazado_1187407" data-name="Trazado 1187407" d="M8.685,227.944,7.5,230.611H62.619l-1.185-2.667Z" transform="translate(-7.5 -206.608)" fill="#e5646e"/>
        <path id="Trazado_1187408" data-name="Trazado 1187408" d="M75.095,162.85H23.532V137.958H35.089l14.224-14.224,14.224,14.224H75.095Z" transform="translate(-21.754 -113.955)" fill="#ffc269"/>
        <path id="Trazado_1187409" data-name="Trazado 1187409" d="M207.9,372.234h10.668v9.779H207.9Z" transform="translate(-185.678 -334.896)" fill="#c38c66"/>
        <circle id="Elipse_14619" data-name="Elipse 14619" cx="5.334" cy="5.334" r="5.334" transform="translate(22.225 20.447)" fill="#fff0af"/>
        <circle id="Elipse_14620" data-name="Elipse 14620" cx="2.667" cy="2.667" r="2.667" transform="translate(24.892 23.114)" fill="#fff"/>
        <path id="Trazado_1187410" data-name="Trazado 1187410" d="M191.871,444.379H206.1v3.556H191.871Z" transform="translate(-171.424 -399.04)" fill="#c8c5c9"/>
        <path id="Trazado_1187411" data-name="Trazado 1187411" d="M63.538,137.958,49.313,123.734,35.089,137.958H23.532V162.85H26.2V142.4a1.778,1.778,0,0,1,1.778-1.778h6.876a3.556,3.556,0,0,0,2.528-1.055l11.932-12.064L61.246,139.57a3.556,3.556,0,0,0,2.528,1.055H75.095v-2.667Z" transform="translate(-21.754 -113.955)" fill="#ffa95f"/>
        <path id="Trazado_1187412" data-name="Trazado 1187412" d="M344.177,292.073h12.446v5.334H344.177Z" transform="translate(-306.839 -263.625)" fill="#edf4ff"/>
        <path id="Trazado_1187413" data-name="Trazado 1187413" d="M346.845,292.962v-.889h-2.667v5.334h12.446V294.74h-8A1.778,1.778,0,0,1,346.845,292.962Z" transform="translate(-306.839 -263.625)" fill="#dbeaff"/>
        <path id="Trazado_1187414" data-name="Trazado 1187414" d="M344.177,372.234h12.446v5.334H344.177Z" transform="translate(-306.839 -334.896)" fill="#edf4ff"/>
        <path id="Trazado_1187415" data-name="Trazado 1187415" d="M346.845,373.123v-.889h-2.667v5.334h12.446V374.9h-8A1.778,1.778,0,0,1,346.845,373.123Z" transform="translate(-306.839 -334.896)" fill="#dbeaff"/>
        <path id="Trazado_1187416" data-name="Trazado 1187416" d="M55.6,292.073H68.043v5.334H55.6Z" transform="translate(-50.263 -263.625)" fill="#edf4ff"/>
        <path id="Trazado_1187417" data-name="Trazado 1187417" d="M58.264,292.962v-.889H55.6v5.334H68.043V294.74h-8A1.778,1.778,0,0,1,58.264,292.962Z" transform="translate(-50.263 -263.625)" fill="#dbeaff"/>
        <path id="Trazado_1187418" data-name="Trazado 1187418" d="M55.6,372.234H68.043v3.782H55.6Z" transform="translate(-50.263 -334.896)" fill="#edf4ff"/>
        <path id="Trazado_1187419" data-name="Trazado 1187419" d="M58.264,373.123v-.889H55.6v5.334H68.043V374.9h-8A1.778,1.778,0,0,1,58.264,373.123Z" transform="translate(-50.263 -334.896)" fill="#dbeaff"/>
      </g>
      <g id="Grupo_1226190" data-name="Grupo 1226190" transform="translate(0 28.057)">
        <path id="Trazado_1187420" data-name="Trazado 1187420" d="M55.95,76.952H55V53.724h.946a.832.832,0,0,0,.76-1.17l-3.556-8a.832.832,0,0,0-.76-.494H34.958l-5.736-5.736V34.166h5.391a.832.832,0,0,0,.832-.832V28.889a.832.832,0,0,0-.832-.832H28.391a.832.832,0,0,0-.832.832v9.435l-5.736,5.736H4.388a.832.832,0,0,0-.76.494l-3.556,8a.832.832,0,0,0,.76,1.17h.946V76.953H.832a.832.832,0,1,0,0,1.664H55.95a.832.832,0,0,0,0-1.664ZM33.782,32.5h-4.56V29.721h4.56ZM4.928,45.723H20.16L13.822,52.06H2.112Zm-1.487,8H14.167a.831.831,0,0,0,.588-.244L28.391,39.844,42.027,53.48a.831.831,0,0,0,.588.244h6.223a.832.832,0,0,0,0-1.664H42.96l-6.338-6.338H51.854L54.67,52.06H52.394a.832.832,0,0,0,0,1.664h.946V76.953H36.335V74.228A.832.832,0,0,0,35.5,73.4h-.946V66.227a.832.832,0,0,0-.832-.832H23.057a.832.832,0,0,0-.832.832V73.4h-.946a.832.832,0,0,0-.832.832v2.724H3.441ZM32.893,67.059V73.4H29.223V67.059ZM27.559,73.4H23.889V67.059h3.671Zm7.112,1.664v1.892H22.111V75.06Z" transform="translate(0 -28.057)"/>
        <path id="Trazado_1187421" data-name="Trazado 1187421" d="M206.569,224.759a6.166,6.166,0,1,0-6.166-6.166,6.173,6.173,0,0,0,6.166,6.166Zm0-10.668a4.5,4.5,0,1,1-4.5,4.5,4.507,4.507,0,0,1,4.5-4.5Z" transform="translate(-178.178 -191.98)"/>
        <path id="Trazado_1187422" data-name="Trazado 1187422" d="M249.332,256.838a.832.832,0,0,0,.832-.832v-1.264l1.318-.659a.832.832,0,1,0-.744-1.488l-1.778.889a.832.832,0,0,0-.46.744v1.778A.832.832,0,0,0,249.332,256.838Z" transform="translate(-220.941 -227.615)"/>
        <path id="Trazado_1187423" data-name="Trazado 1187423" d="M61.375,364.734H48.929a.832.832,0,0,0-.832.832V370.9a.832.832,0,0,0,.832.832h1.778a.832.832,0,1,0,0-1.664h-.947V366.4h4.56v3.671h-.057a.832.832,0,0,0,0,1.664h7.112a.832.832,0,0,0,.832-.832v-5.334A.832.832,0,0,0,61.375,364.734Zm-.832,5.334h-4.56V366.4h4.56Z" transform="translate(-42.763 -327.396)"/>
        <path id="Trazado_1187424" data-name="Trazado 1187424" d="M61.375,284.573H48.929a.832.832,0,0,0-.832.832v5.334a.832.832,0,0,0,.832.832H61.375a.832.832,0,0,0,.832-.832V285.4A.832.832,0,0,0,61.375,284.573Zm-11.614,1.664h4.56v3.671h-4.56Zm10.783,3.67h-4.56v-3.671h4.56Z" transform="translate(-42.763 -256.125)"/>
        <path id="Trazado_1187425" data-name="Trazado 1187425" d="M337.509,371.732h12.446a.832.832,0,0,0,.832-.832v-5.334a.832.832,0,0,0-.832-.832H337.509a.832.832,0,0,0-.832.832V370.9A.832.832,0,0,0,337.509,371.732Zm11.614-1.664h-4.56V366.4h4.56ZM338.341,366.4h4.56v3.671h-4.56Z" transform="translate(-299.339 -327.396)"/>
        <path id="Trazado_1187426" data-name="Trazado 1187426" d="M337.509,291.57h12.446a.832.832,0,0,0,.832-.832V285.4a.832.832,0,0,0-.832-.832H337.509a.832.832,0,0,0-.832.832v5.334A.832.832,0,0,0,337.509,291.57Zm11.614-1.664h-4.56v-3.671h4.56Zm-10.783-3.67h4.56v3.671h-4.56Z" transform="translate(-299.339 -256.124)"/>
      </g>
    </g>
  </g>
</svg>
