<svg xmlns="http://www.w3.org/2000/svg" xmlns:xlink="http://www.w3.org/1999/xlink" width="93.934" height="93.934" viewBox="0 0 93.934 93.934">
  <defs>
    <filter id="Trazado_978624" x="0" y="0" width="93.934" height="93.934" filterUnits="userSpaceOnUse">
      <feOffset dy="3" input="SourceAlpha"/>
      <feGaussianBlur stdDeviation="3" result="blur"/>
      <feFlood flood-opacity="0.161"/>
      <feComposite operator="in" in2="blur"/>
      <feComposite in="SourceGraphic"/>
    </filter>
  </defs>
  <g id="Grupo_1226275" data-name="Grupo 1226275" transform="translate(-190 -3995.139)">
    <g id="Grupo_1225961" data-name="Grupo 1225961" transform="translate(0 2131.139)">
      <g id="Grupo_1224945" data-name="Grupo 1224945" transform="translate(0.001 -1279.381)">
        <g id="Grupo_1214679" data-name="Grupo 1214679" transform="translate(-631 2418.347)">
          <g id="Grupo_1212848" data-name="Grupo 1212848" transform="translate(212 -798.5)">
            <g id="Grupo_1210963" data-name="Grupo 1210963" transform="translate(0 -377.186)">
              <g id="Grupo_1208068" data-name="Grupo 1208068" transform="translate(412 470.719)">
                <g id="Grupo_1144123" data-name="Grupo 1144123" transform="translate(206 1436)">
                  <g transform="matrix(1, 0, 0, 1, -9, -6)" filter="url(#Trazado_978624)">
                    <g id="Trazado_978624-2" data-name="Trazado 978624" transform="translate(9 6)" fill="#e7f2f8">
                      <path d="M 37.966796875 74.43359375 C 33.04315185546875 74.43359375 28.26757431030273 73.46962738037109 23.77274131774902 71.56847381591797 C 19.43047523498535 69.73184967041016 15.53040790557861 67.10224914550781 12.18087482452393 63.75271987915039 C 8.831341743469238 60.4031867980957 6.201741218566895 56.50312042236328 4.365118980407715 52.16086196899414 C 2.463963508605957 47.66601943969727 1.499996900558472 42.89044189453125 1.499996900558472 37.966796875 C 1.499996900558472 33.04315185546875 2.463963508605957 28.26757431030273 4.365118980407715 23.77274131774902 C 6.201741218566895 19.43047523498535 8.831341743469238 15.53040790557861 12.18087482452393 12.18087482452393 C 15.53040790557861 8.831341743469238 19.43047523498535 6.201741218566895 23.77274131774902 4.365118980407715 C 28.26757431030273 2.463963508605957 33.04315185546875 1.499996900558472 37.966796875 1.499996900558472 C 42.89044189453125 1.499996900558472 47.66601943969727 2.463963508605957 52.16086196899414 4.365118980407715 C 56.50312042236328 6.201741218566895 60.4031867980957 8.831341743469238 63.75271987915039 12.18087482452393 C 67.10224914550781 15.53040790557861 69.73184967041016 19.43047523498535 71.56847381591797 23.77274131774902 C 73.46962738037109 28.26757431030273 74.43359375 33.04315185546875 74.43359375 37.966796875 C 74.43359375 42.89044189453125 73.46962738037109 47.66601943969727 71.56847381591797 52.16086196899414 C 69.73184967041016 56.50313186645508 67.10224914550781 60.4031867980957 63.75271987915039 63.75271987915039 C 60.4031867980957 67.10224914550781 56.50313186645508 69.73184967041016 52.16086196899414 71.56847381591797 C 47.66601943969727 73.46962738037109 42.89044189453125 74.43359375 37.966796875 74.43359375 Z" stroke="none"/>
                      <path d="M 37.966796875 3 C 33.2449836730957 3 28.66600799560547 3.924095153808594 24.35705947875977 5.746635437011719 C 20.19359588623047 7.507621765136719 16.45379638671875 10.02927398681641 13.24153518676758 13.24153518676758 C 10.02927398681641 16.45379638671875 7.507621765136719 20.19359588623047 5.746635437011719 24.35705947875977 C 3.924095153808594 28.66600799560547 3 33.2449836730957 3 37.966796875 C 3 42.6886100769043 3.924095153808594 47.26758575439453 5.746635437011719 51.57653427124023 C 7.507621765136719 55.73999786376953 10.02927398681641 59.47979736328125 13.24153518676758 62.69205856323242 C 16.45379638671875 65.90431976318359 20.19359588623047 68.42597198486328 24.35705947875977 70.18695831298828 C 28.66600799560547 72.00949859619141 33.2449836730957 72.93359375 37.966796875 72.93359375 C 42.6886100769043 72.93359375 47.26758575439453 72.00949859619141 51.57653427124023 70.18695831298828 C 55.73999786376953 68.42597198486328 59.47979736328125 65.90431976318359 62.69205856323242 62.69205856323242 C 65.90431976318359 59.47979736328125 68.42597198486328 55.73999786376953 70.18695831298828 51.57653427124023 C 72.00949859619141 47.26758575439453 72.93359375 42.6886100769043 72.93359375 37.966796875 C 72.93359375 33.2449836730957 72.00949859619141 28.66600799560547 70.18695831298828 24.35705947875977 C 68.42597198486328 20.19359588623047 65.90431976318359 16.45379638671875 62.69205856323242 13.24153518676758 C 59.47979736328125 10.02927398681641 55.73999786376953 7.507621765136719 51.57653427124023 5.746635437011719 C 47.26758575439453 3.924095153808594 42.6886100769043 3 37.966796875 3 M 37.966796875 0 C 58.93528366088867 0 75.93359375 16.99831008911133 75.93359375 37.966796875 C 75.93359375 58.93528366088867 58.93528366088867 75.93359375 37.966796875 75.93359375 C 16.99831008911133 75.93359375 0 58.93528366088867 0 37.966796875 C 0 16.99831008911133 16.99831008911133 0 37.966796875 0 Z" stroke="none" fill="#248abf"/>
                    </g>
                  </g>
                </g>
              </g>
            </g>
          </g>
        </g>
      </g>
    </g>
    <g id="Filled_outline" data-name="Filled outline" transform="translate(194.535 3995.639)">
      <path id="Trazado_1187582" data-name="Trazado 1187582" d="M172.555,51.346l-.291,2.616-.2,1.762H147.4l-.2-1.762-.291-2.616a13.557,13.557,0,0,1,1.013-6.836A13.57,13.57,0,0,0,149,38.493l-.153-3.049a10.9,10.9,0,1,1,21.765,0l-.153,3.049a13.57,13.57,0,0,0,1.079,6.017A13.55,13.55,0,0,1,172.555,51.346Z" transform="translate(-116.419 -7.123)" fill="#8f4d2e"/>
      <path id="Trazado_1187583" data-name="Trazado 1187583" d="M254.807,51.34l-.291,2.616h-9.888V44.264l1.762-3.524V33.691a9.7,9.7,0,0,0-7.13-9.349,10.908,10.908,0,0,1,13.607,11.1l-.153,3.049a13.57,13.57,0,0,0,1.079,6.017A13.55,13.55,0,0,1,254.807,51.34Z" transform="translate(-198.671 -7.118)" fill="#82462a"/>
      <path id="Trazado_1187584" data-name="Trazado 1187584" d="M218.925,223.049a1.233,1.233,0,0,1-1.234-1.234V216h-7.049v5.815a1.233,1.233,0,0,1-1.234,1.234H208v5.286h12.335v-5.286Z" transform="translate(-170.854 -177.973)" fill="#fec9a3"/>
      <path id="Trazado_1187585" data-name="Trazado 1187585" d="M236.056,220.405a4.834,4.834,0,0,0,2.993-1.08V216H232v3.325a4.834,4.834,0,0,0,2.993,1.08Z" transform="translate(-192.211 -177.973)" fill="#feb784"/>
      <path id="Trazado_1187586" data-name="Trazado 1187586" d="M207.86,85.287v4.405a7.93,7.93,0,0,1-15.86,0V85.287a11.954,11.954,0,0,0,4.064-4.6l.341-.683.5.417a22,22,0,0,0,10.954,4.869Z" transform="translate(-156.616 -56.951)" fill="#fec9a3"/>
      <path id="Trazado_1187587" data-name="Trazado 1187587" d="M284.17,121.5V125.9a7.933,7.933,0,0,1-6.415,7.785,9.657,9.657,0,0,0,2.89-6.9V120.69A21.973,21.973,0,0,0,284.17,121.5Z" transform="translate(-232.927 -93.16)" fill="#fec093"/>
      <path id="Trazado_1187588" data-name="Trazado 1187588" d="M224,312h8.811v6.168H224Z" transform="translate(-185.092 -263.4)" fill="#e0e0de"/>
      <path id="Trazado_1187589" data-name="Trazado 1187589" d="M118.156,302.872a2.674,2.674,0,0,1-2.97-1.774l-5.82-10.918a6.861,6.861,0,0,1-1.229,6.561v7.049H92.278v-7.049a6.872,6.872,0,0,1-1.216-6.642l-5.914,11a2.673,2.673,0,1,1-5.076-1.678l6.469-16.1A5.285,5.285,0,0,1,91.446,280h3.475l5.287,9.692L105.494,280h3.462a5.291,5.291,0,0,1,4.912,3.334l6.4,16.085a2.675,2.675,0,0,1-2.107,3.453Z" transform="translate(-56.894 -234.924)" fill="#ec8c8c"/>
      <path id="Trazado_1187590" data-name="Trazado 1187590" d="M74.159,392.261,74.795,384h5.287v8.489a2.965,2.965,0,1,1-5.922-.227Z" transform="translate(-51.746 -327.47)" fill="#f59898"/>
      <path id="Trazado_1187591" data-name="Trazado 1187591" d="M32.24,266.884a1.714,1.714,0,0,0-1.117,2.429l.807,1.613H28.772a5.286,5.286,0,0,1-2.364-.558l-.878-.439a1.057,1.057,0,0,0-1.53.946v2.487a1.762,1.762,0,0,0,.974,1.576l1.434.717a5.286,5.286,0,0,0,2.364.558h6.682v-5.286l-1.207-3.016A1.714,1.714,0,0,0,32.24,266.884Z" transform="translate(-7.119 -223.207)" fill="#fec9a3"/>
      <path id="Trazado_1187592" data-name="Trazado 1187592" d="M80,352h5.287v3.524H80Z" transform="translate(-56.951 -298.994)" fill="#e0e0de"/>
      <path id="Trazado_1187593" data-name="Trazado 1187593" d="M220.219,306.645a2.674,2.674,0,0,1-2.97-1.774l-5.82-10.918a6.861,6.861,0,0,1-1.229,6.561v7.049H194.63c7.272-4.749,13.408-10.776,18.558-23.322a5.278,5.278,0,0,1,2.742,2.867l6.4,16.085a2.675,2.675,0,0,1-2.107,3.453Z" transform="translate(-158.957 -238.697)" fill="#e07f7f"/>
      <path id="Trazado_1187594" data-name="Trazado 1187594" d="M304.811,350.1,296,348.335V336l8.811,1.762Z" transform="translate(-249.162 -284.757)" fill="#a36548"/>
      <path id="Trazado_1187595" data-name="Trazado 1187595" d="M408,350.1l8.811-1.762V336L408,337.762Z" transform="translate(-348.827 -284.757)" fill="#8f4d2e"/>
      <path id="Trazado_1187596" data-name="Trazado 1187596" d="M376,352h3.524v12.335H376Z" transform="translate(-320.351 -298.994)" fill="#95573a"/>
      <path id="Trazado_1187597" data-name="Trazado 1187597" d="M306.573,316.405a3.12,3.12,0,0,0-2.607-3.078L296,312v2.643l8.811,1.762h1.762a3.12,3.12,0,0,1,2.607-3.078L317.146,312v2.643l-8.811,1.762Z" transform="translate(-249.162 -263.4)" fill="#d4bd81"/>
      <path id="Trazado_1187598" data-name="Trazado 1187598" d="M436.55,421.2l-3.524.587a.881.881,0,0,1-1.026-.869v-3.275a1.147,1.147,0,0,1,.958-1.131l2.993-.5a1.147,1.147,0,0,1,1.336,1.131v3.186a.881.881,0,0,1-.736.869Z" transform="translate(-370.184 -355.947)" fill="#fec9a3"/>
      <path id="Trazado_1187599" data-name="Trazado 1187599" d="M217.322,136a1.322,1.322,0,1,0,1.322,1.322A1.322,1.322,0,0,0,217.322,136Z" transform="translate(-177.973 -106.784)"/>
      <path id="Trazado_1187600" data-name="Trazado 1187600" d="M289.322,136a1.322,1.322,0,1,0,1.322,1.322A1.322,1.322,0,0,0,289.322,136Z" transform="translate(-242.043 -106.784)"/>
      <path id="Trazado_1187601" data-name="Trazado 1187601" d="M242.643,176.881a.882.882,0,0,1-.881-.881H240a2.643,2.643,0,1,0,5.287,0h-1.762a.882.882,0,0,1-.881.881Z" transform="translate(-199.33 -142.378)"/>
      <path id="Trazado_1187602" data-name="Trazado 1187602" d="M68.554,47.928a.882.882,0,0,0-.714-.2l-7.966,1.328a4.009,4.009,0,0,0-1.476.559l-.607-1.533A5.868,5.868,0,0,0,56.779,46.4l.23-2.083a15.263,15.263,0,0,0,.093-1.6,14.38,14.38,0,0,0-1.172-5.677,12.726,12.726,0,0,1-1-5.628l.15-3.05c.009-.192.019-.391.019-.588a11.778,11.778,0,1,0-23.541.589L31.7,31.4c.009.227.017.441.017.653A12.561,12.561,0,0,1,30.7,37.037a14.4,14.4,0,0,0-1.079,7.282l.229,2.055a5.981,5.981,0,0,0-.7,1.009l-1.2-3.007A2.6,2.6,0,1,0,23.216,46.5l.169.337H21.653a4.427,4.427,0,0,1-1.97-.465l-.878-.439A1.938,1.938,0,0,0,16,47.668v2.487a2.629,2.629,0,0,0,1.461,2.364l1.434.717a6.2,6.2,0,0,0,2.758.651h.514V56.5l-.633,8.228a3.846,3.846,0,0,0,3.835,4.141q.1,0,.194,0c.056,0,.112,0,.168,0a3.547,3.547,0,0,0,3.332-2.33l4.022-7.478A7.707,7.707,0,0,0,34.5,62.125v6.74h1.762V61.816a.881.881,0,0,0-.2-.564,6.007,6.007,0,0,1,.768-8.451L35.7,51.448a7.766,7.766,0,0,0-1.095,1.117.906.906,0,0,0-.091.11h0L34.5,52.7l-.011.019a7.715,7.715,0,0,0-1.145,2.141l-4.125,7.67v-10.7l1.252-3.118a4.223,4.223,0,0,1,.927-1.422,4.459,4.459,0,0,1,3.16-1.331H37.5L42.54,55.19a.881.881,0,0,0,1.547,0l1.87-3.428V63.579a.881.881,0,0,0,.708.864l3.7.739v3.683h1.762V65.534l3.371.673c.022,0,.124.014.153.014h1.667l.169.315a3.569,3.569,0,0,0,3.345,2.328,3.317,3.317,0,0,0,.581-.048,3.571,3.571,0,0,0,2.758-2.3l2.343-.391a1.755,1.755,0,0,0,1.468-1.648l.176-.035a.881.881,0,0,0,.709-.864V48.6a.881.881,0,0,0-.312-.672ZM39.412,45.775a2.116,2.116,0,0,0,1.259-1.932v-2.7a8.815,8.815,0,0,0,5.287,0v2.7a2.116,2.116,0,0,0,1.259,1.932l-1.06,1.945H40.472Zm3.9-5.985a7.057,7.057,0,0,1-7.049-7.049V28.8a12.871,12.871,0,0,0,3.813-4.365,22.823,22.823,0,0,0,10.284,4.656v3.654a7.057,7.057,0,0,1-7.049,7.049ZM55.221,47.3l.016.017a4.083,4.083,0,0,1,.914,1.411l.379.956a4.008,4.008,0,0,0-1.581-.628L48.058,47.91l1.065-1.953h2.94A4.365,4.365,0,0,1,55.221,47.3Zm.515,4.821-4.009-.8-4.009-.8V49.64l6.94,1.156a2.232,2.232,0,0,1,1.693,1.328ZM60.163,50.8,67.1,49.64v.881l-4.144.829-3.873.774h-.615A2.232,2.232,0,0,1,60.163,50.8Zm-40.48.862-1.434-.717a.876.876,0,0,1-.487-.788V47.668a.176.176,0,0,1,.255-.158l.878.439a6.2,6.2,0,0,0,2.758.651h3.157a.881.881,0,0,0,.788-1.275l-.807-1.613a.833.833,0,1,1,1.518-.682l1.144,2.859v4.236h-5.8a4.427,4.427,0,0,1-1.97-.465Zm7.771,2.227v1.762H23.93V53.887ZM23.292,64.859l.573-7.448h3.59v7.608A2.086,2.086,0,0,1,25.521,67.1a.9.9,0,0,0-.1,0l-.052,0a2.084,2.084,0,0,1-2.078-2.244ZM34.517,52.676a.88.88,0,0,1,.056-.068l-.053.069ZM31.47,45.027l-.1-.905a12.633,12.633,0,0,1,.947-6.39,14.312,14.312,0,0,0,1.164-5.678c0-.246-.009-.488-.019-.731l-.15-3.049a10.016,10.016,0,1,1,20.019-.5c0,.155-.008.325-.017.5l-.15,3.047A14.5,14.5,0,0,0,54.31,37.73a12.628,12.628,0,0,1,1.031,4.985,13.5,13.5,0,0,1-.083,1.41l-.1.908a6.162,6.162,0,0,0-3.095-.837H48.071a.357.357,0,0,1-.352-.352V40.366a8.814,8.814,0,0,0,4.405-7.625V28.335a.881.881,0,0,0-.757-.872,21.066,21.066,0,0,1-10.514-4.674l-.5-.417A.881.881,0,0,0,39,22.655l-.341.683A11.1,11.1,0,0,1,34.9,27.6a.881.881,0,0,0-.392.733v4.405a8.814,8.814,0,0,0,4.405,7.625v3.476a.357.357,0,0,1-.352.352h-4a6.207,6.207,0,0,0-3.085.832Zm11.843,7.9-1.88-3.446h3.76Zm4.405-.609,7.049,1.41V64.266l-7.049-1.41Zm8.811,1.568h1.762V64.46H56.53Zm4.578,13.194a1.575,1.575,0,0,1-.278.022,1.805,1.805,0,0,1-1.553-.888l.049-.007.019,0h.007l1.811-.362a1.739,1.739,0,0,0,.887.773A1.837,1.837,0,0,1,61.108,67.081Zm5.114-2.693-3.524.587V61.7a.265.265,0,0,1,.222-.262l2.993-.5a.289.289,0,0,1,.045,0,.266.266,0,0,1,.264.266v3.186Zm-.6-5.187-2.993.5a2.022,2.022,0,0,0-1.695,2v2.39l-.881.176V53.728l7.049-1.41V59.53a2.022,2.022,0,0,0-1.48-.329Z"/>
    </g>
  </g>
</svg>
