<svg xmlns="http://www.w3.org/2000/svg" xmlns:xlink="http://www.w3.org/1999/xlink" width="93.934" height="93.934" viewBox="0 0 93.934 93.934">
  <defs>
    <filter id="Trazado_978624" x="0" y="0" width="93.934" height="93.934" filterUnits="userSpaceOnUse">
      <feOffset dy="3" input="SourceAlpha"/>
      <feGaussianBlur stdDeviation="3" result="blur"/>
      <feFlood flood-opacity="0.161"/>
      <feComposite operator="in" in2="blur"/>
      <feComposite in="SourceGraphic"/>
    </filter>
  </defs>
  <g id="Grupo_1226276" data-name="Grupo 1226276" transform="translate(-820 -3995.139)">
    <g id="Grupo_1225962" data-name="Grupo 1225962" transform="translate(0 2131.139)">
      <g id="Grupo_1224946" data-name="Grupo 1224946" transform="translate(0.001 -1280.072)">
        <g id="Grupo_1214678" data-name="Grupo 1214678" transform="translate(629 2419.039)">
          <g id="Grupo_1212847" data-name="Grupo 1212847" transform="translate(-418 -798.5)">
            <g id="Grupo_1210963" data-name="Grupo 1210963" transform="translate(0 -377.186)">
              <g id="Grupo_1208068" data-name="Grupo 1208068" transform="translate(412 470.719)">
                <g id="Grupo_1144123" data-name="Grupo 1144123" transform="translate(206 1436)">
                  <g transform="matrix(1, 0, 0, 1, -9, -6)" filter="url(#Trazado_978624)">
                    <g id="Trazado_978624-2" data-name="Trazado 978624" transform="translate(9 6)" fill="#e7f2f8">
                      <path d="M 37.966796875 74.43359375 C 33.04315185546875 74.43359375 28.26757431030273 73.46962738037109 23.77274131774902 71.56847381591797 C 19.43047523498535 69.73184967041016 15.53040790557861 67.10224914550781 12.18087482452393 63.75271987915039 C 8.831341743469238 60.4031867980957 6.201741218566895 56.50312042236328 4.365118980407715 52.16086196899414 C 2.463963508605957 47.66601943969727 1.499996900558472 42.89044189453125 1.499996900558472 37.966796875 C 1.499996900558472 33.04315185546875 2.463963508605957 28.26757431030273 4.365118980407715 23.77274131774902 C 6.201741218566895 19.43047523498535 8.831341743469238 15.53040790557861 12.18087482452393 12.18087482452393 C 15.53040790557861 8.831341743469238 19.43047523498535 6.201741218566895 23.77274131774902 4.365118980407715 C 28.26757431030273 2.463963508605957 33.04315185546875 1.499996900558472 37.966796875 1.499996900558472 C 42.89044189453125 1.499996900558472 47.66601943969727 2.463963508605957 52.16086196899414 4.365118980407715 C 56.50312042236328 6.201741218566895 60.4031867980957 8.831341743469238 63.75271987915039 12.18087482452393 C 67.10224914550781 15.53040790557861 69.73184967041016 19.43047523498535 71.56847381591797 23.77274131774902 C 73.46962738037109 28.26757431030273 74.43359375 33.04315185546875 74.43359375 37.966796875 C 74.43359375 42.89044189453125 73.46962738037109 47.66601943969727 71.56847381591797 52.16086196899414 C 69.73184967041016 56.50313186645508 67.10224914550781 60.4031867980957 63.75271987915039 63.75271987915039 C 60.4031867980957 67.10224914550781 56.50313186645508 69.73184967041016 52.16086196899414 71.56847381591797 C 47.66601943969727 73.46962738037109 42.89044189453125 74.43359375 37.966796875 74.43359375 Z" stroke="none"/>
                      <path d="M 37.966796875 3 C 33.2449836730957 3 28.66600799560547 3.924095153808594 24.35705947875977 5.746635437011719 C 20.19359588623047 7.507621765136719 16.45379638671875 10.02927398681641 13.24153518676758 13.24153518676758 C 10.02927398681641 16.45379638671875 7.507621765136719 20.19359588623047 5.746635437011719 24.35705947875977 C 3.924095153808594 28.66600799560547 3 33.2449836730957 3 37.966796875 C 3 42.6886100769043 3.924095153808594 47.26758575439453 5.746635437011719 51.57653427124023 C 7.507621765136719 55.73999786376953 10.02927398681641 59.47979736328125 13.24153518676758 62.69205856323242 C 16.45379638671875 65.90431976318359 20.19359588623047 68.42597198486328 24.35705947875977 70.18695831298828 C 28.66600799560547 72.00949859619141 33.2449836730957 72.93359375 37.966796875 72.93359375 C 42.6886100769043 72.93359375 47.26758575439453 72.00949859619141 51.57653427124023 70.18695831298828 C 55.73999786376953 68.42597198486328 59.47979736328125 65.90431976318359 62.69205856323242 62.69205856323242 C 65.90431976318359 59.47979736328125 68.42597198486328 55.73999786376953 70.18695831298828 51.57653427124023 C 72.00949859619141 47.26758575439453 72.93359375 42.6886100769043 72.93359375 37.966796875 C 72.93359375 33.2449836730957 72.00949859619141 28.66600799560547 70.18695831298828 24.35705947875977 C 68.42597198486328 20.19359588623047 65.90431976318359 16.45379638671875 62.69205856323242 13.24153518676758 C 59.47979736328125 10.02927398681641 55.73999786376953 7.507621765136719 51.57653427124023 5.746635437011719 C 47.26758575439453 3.924095153808594 42.6886100769043 3 37.966796875 3 M 37.966796875 0 C 58.93528366088867 0 75.93359375 16.99831008911133 75.93359375 37.966796875 C 75.93359375 58.93528366088867 58.93528366088867 75.93359375 37.966796875 75.93359375 C 16.99831008911133 75.93359375 0 58.93528366088867 0 37.966796875 C 0 16.99831008911133 16.99831008911133 0 37.966796875 0 Z" stroke="none" fill="#248abf"/>
                    </g>
                  </g>
                </g>
              </g>
            </g>
          </g>
        </g>
      </g>
    </g>
    <g id="_11._Book_Stack" data-name="11. Book Stack" transform="translate(841.489 3955.997)">
      <rect id="Rectángulo_422564" data-name="Rectángulo 422564" width="49.666" height="9.675" rx="4.838" transform="translate(0.645 91.735)" fill="#b1da7a"/>
      <path id="Trazado_1187603" data-name="Trazado 1187603" d="M55.771,401.592H9.592A1.592,1.592,0,0,1,8,400v2.389a1.592,1.592,0,0,0,1.592,1.592H55.771a1.592,1.592,0,0,0,1.592-1.592V400A1.592,1.592,0,0,1,55.771,401.592Z" transform="translate(-7.204 -302.56)" fill="#96bf5b"/>
      <path id="Trazado_1187604" data-name="Trazado 1187604" d="M48.567,347.147H9.554a.8.8,0,1,1,0-1.592H48.567a.8.8,0,0,0,.8-.8v-6.369a.8.8,0,0,0-.8-.8H2.389a.8.8,0,0,0-.8.8v6.369a.8.8,0,0,0,.8.8H6.369a.8.8,0,1,1,0,1.592H2.389A2.389,2.389,0,0,1,0,344.758v-6.369A2.389,2.389,0,0,1,2.389,336H48.567a2.389,2.389,0,0,1,2.389,2.389v6.369A2.389,2.389,0,0,1,48.567,347.147Z" transform="translate(0 -244.93)"/>
      <path id="Trazado_1187605" data-name="Trazado 1187605" d="M64,344h38.217v9.554H64Z" transform="translate(-57.631 -252.133)" fill="#73cab2"/>
      <path id="Trazado_1187606" data-name="Trazado 1187606" d="M64,416h38.217v2.389H64Z" transform="translate(-57.631 -316.968)" fill="#64af93"/>
      <path id="Trazado_1187607" data-name="Trazado 1187607" d="M95.013,347.147H59.981a.8.8,0,1,1,0-1.592H94.217v-7.962H57.592v8.758a.8.8,0,0,1-1.592,0V336.8a.8.8,0,0,1,.8-.8H95.013a.8.8,0,0,1,.8.8v9.554A.8.8,0,0,1,95.013,347.147Z" transform="translate(-50.427 -244.93)"/>
      <path id="Trazado_1187608" data-name="Trazado 1187608" d="M27.185,207.166a3.981,3.981,0,0,0,3.981,3.981H68.586a1.592,1.592,0,0,1,0,3.185H31.166a7.166,7.166,0,1,1,0-14.331H68.586a1.592,1.592,0,1,1,0,3.185H31.166A3.981,3.981,0,0,0,27.185,207.166Z" transform="translate(-21.611 -122.465)" fill="#6fc3e2"/>
      <path id="Trazado_1187609" data-name="Trazado 1187609" d="M69.628,265.567a1.586,1.586,0,0,1-1.051.4H31.157a7.166,7.166,0,0,1-7.066-5.972,7.166,7.166,0,0,0,7.066,8.361H68.577a1.591,1.591,0,0,0,1.051-2.787Z" transform="translate(-21.603 -176.487)" fill="#62acc7"/>
      <path id="Trazado_1187610" data-name="Trazado 1187610" d="M61.383,207.924H23.962a7.962,7.962,0,1,1,0-15.924H61.383a2.389,2.389,0,0,1,0,4.777H23.962a3.185,3.185,0,1,0,0,6.369H61.383a2.389,2.389,0,0,1,0,4.777ZM23.962,193.592a6.369,6.369,0,1,0,0,12.739H61.383a.8.8,0,0,0,0-1.592H23.962a4.777,4.777,0,1,1,0-9.554H61.383a.8.8,0,1,0,0-1.592Z" transform="translate(-14.408 -115.261)"/>
      <path id="Trazado_1187611" data-name="Trazado 1187611" d="M59.981,239.962H96.605V232H59.981a3.981,3.981,0,1,0,0,7.962Z" transform="translate(-50.427 -151.28)" fill="#f6edc8"/>
      <path id="Trazado_1187612" data-name="Trazado 1187612" d="M59.969,232a3.981,3.981,0,0,0-3.8,5.175,3.981,3.981,0,0,1,3.8-2.787H96.594V232Z" transform="translate(-50.415 -151.28)" fill="#f4dcb5"/>
      <path id="Trazado_1187613" data-name="Trazado 1187613" d="M89.4,233.554H52.777a4.777,4.777,0,0,1,0-9.554H89.4a.8.8,0,0,1,.8.8v7.962A.8.8,0,0,1,89.4,233.554Zm-36.625-7.962a3.185,3.185,0,1,0,0,6.369H88.605v-6.369Z" transform="translate(-43.223 -144.076)"/>
      <path id="Trazado_1187614" data-name="Trazado 1187614" d="M112,272v10.35l2.389-1.592,2.389,1.592V272Z" transform="translate(-100.853 -187.299)" fill="#e9a648"/>
      <path id="Trazado_1187615" data-name="Trazado 1187615" d="M109.131,275.809l-1.947-1.3-1.947,1.3a.8.8,0,0,1-1.238-.663V264.8a.8.8,0,0,1,.8-.8h4.777a.8.8,0,0,1,.8.8v10.35a.8.8,0,0,1-1.238.663Zm-1.5-2.918,1.15.767v-8.066h-3.185v8.066l1.15-.767A.8.8,0,0,1,107.627,272.891Z" transform="translate(-93.65 -180.095)"/>
      <path id="Trazado_1187616" data-name="Trazado 1187616" d="M110.217,78.369a6.369,6.369,0,0,1-6.369,6.369H73.592a1.592,1.592,0,0,1,0-3.185h30.255a3.185,3.185,0,1,0,0-6.369H73.592a1.592,1.592,0,0,1,0-3.185h30.255A6.369,6.369,0,0,1,110.217,78.369Z" transform="translate(-64.834 -7.204)" fill="#cd4f5f"/>
      <path id="Trazado_1187617" data-name="Trazado 1187617" d="M103.847,129.175H73.592a1.586,1.586,0,0,1-1.051-.4,1.591,1.591,0,0,0,1.051,2.787h30.255A6.369,6.369,0,0,0,110.1,124,6.369,6.369,0,0,1,103.847,129.175Z" transform="translate(-64.834 -54.029)" fill="#b24654"/>
      <path id="Trazado_1187618" data-name="Trazado 1187618" d="M96.644,78.331H66.389a2.389,2.389,0,0,1,0-4.777H96.644a2.389,2.389,0,0,0,0-4.777H66.389a2.389,2.389,0,0,1,0-4.777H92.663a.8.8,0,1,1,0,1.592H66.389a.8.8,0,0,0,0,1.592H96.644a3.981,3.981,0,1,1,0,7.962H66.389a.8.8,0,0,0,0,1.592H96.644a5.573,5.573,0,0,0,0-11.147h-.8a.8.8,0,1,1,0-1.592h.8a7.166,7.166,0,0,1,0,14.331Z" transform="translate(-57.631)"/>
      <path id="Trazado_1187619" data-name="Trazado 1187619" d="M125.459,110.369H96V104h29.459a3.185,3.185,0,0,1,0,6.369Z" transform="translate(-86.446 -36.019)" fill="#f6edc8"/>
      <path id="Trazado_1187620" data-name="Trazado 1187620" d="M125.459,104H96v2.389h29.459a3.185,3.185,0,0,1,2.953,1.991,3.187,3.187,0,0,0-2.953-4.38Z" transform="translate(-86.446 -36.019)" fill="#f4dcb5"/>
      <path id="Trazado_1187621" data-name="Trazado 1187621" d="M118.255,103.962H88.8a.8.8,0,0,1-.8-.8V96.8a.8.8,0,0,1,.8-.8h29.459a3.981,3.981,0,0,1,0,7.962Zm-28.663-1.592h28.663a2.389,2.389,0,1,0,0-4.777H89.592Z" transform="translate(-79.242 -28.815)"/>
      <path id="Trazado_1187622" data-name="Trazado 1187622" d="M125.421,265.592H88.8a.8.8,0,1,1,0-1.592h36.625a.8.8,0,1,1,0,1.592Z" transform="translate(-79.242 -180.095)"/>
      <path id="Trazado_1187623" data-name="Trazado 1187623" d="M117.459,129.592H88.8a.8.8,0,1,1,0-1.592h28.663a.8.8,0,0,1,0,1.592Z" transform="translate(-79.242 -57.631)"/>
    </g>
  </g>
</svg>
