<svg xmlns="http://www.w3.org/2000/svg" xmlns:xlink="http://www.w3.org/1999/xlink" width="108" height="108" viewBox="0 0 108 108">
  <defs>
    <filter id="Trazado_904820" x="0" y="0" width="108" height="108" filterUnits="userSpaceOnUse">
      <feOffset dy="3" input="SourceAlpha"/>
      <feGaussianBlur stdDeviation="3" result="blur"/>
      <feFlood flood-opacity="0.161"/>
      <feComposite operator="in" in2="blur"/>
      <feComposite in="SourceGraphic"/>
    </filter>
  </defs>
  <g id="Grupo_1226322" data-name="Grupo 1226322" transform="translate(-196 -6756.168)">
    <g id="Grupo_1225966" data-name="Grupo 1225966" transform="translate(2 3340.074)">
      <g id="Grupo_1224918" data-name="Grupo 1224918" transform="translate(203 3422.094)">
        <g id="Grupo_1215980" data-name="Grupo 1215980" transform="translate(0 0)">
          <g id="Grupo_1209015" data-name="Grupo 1209015" transform="translate(0 0)">
            <g id="Grupo_1207774" data-name="Grupo 1207774">
              <g id="Grupo_1206630" data-name="Grupo 1206630">
                <g id="Grupo_1185091" data-name="Grupo 1185091">
                  <g id="Grupo_1179560" data-name="Grupo 1179560">
                    <g id="Grupo_1173787" data-name="Grupo 1173787">
                      <g id="Grupo_1171910" data-name="Grupo 1171910">
                        <g id="Grupo_1167341" data-name="Grupo 1167341">
                          <g id="Grupo_1166792" data-name="Grupo 1166792">
                            <g transform="matrix(1, 0, 0, 1, -9, -6)" filter="url(#Trazado_904820)">
                              <g id="Trazado_904820-2" data-name="Trazado 904820" transform="translate(9 6)" fill="#f2f4f0">
                                <path d="M 44.99999618530273 88.50002288818359 C 39.12687301635742 88.50002288818359 33.43022155761719 87.35009765625 28.06829643249512 85.08218383789062 C 22.88852119445801 82.89133453369141 18.23629570007324 79.75460815429688 14.24084663391113 75.7591552734375 C 10.24540901184082 71.76371002197266 7.108683586120605 67.11148071289062 4.917821407318115 61.93170928955078 C 2.649921178817749 56.56978225708008 1.499996185302734 50.87313079833984 1.499996185302734 45.00000762939453 C 1.499996185302734 39.12688446044922 2.649921178817749 33.43023300170898 4.917821407318115 28.06830787658691 C 7.108683586120605 22.8885326385498 10.24540901184082 18.23630714416504 14.24084663391113 14.24085807800293 C 18.23629570007324 10.24542045593262 22.88852119445801 7.108695030212402 28.06829643249512 4.917832851409912 C 33.43022155761719 2.649932622909546 39.12687301635742 1.500007629394531 44.99999618530273 1.500007629394531 C 50.87311935424805 1.500007629394531 56.56977081298828 2.649932622909546 61.93169784545898 4.917832851409912 C 67.11147308349609 7.108695030212402 71.76369476318359 10.24542045593262 75.75914764404297 14.24085807800293 C 79.75458526611328 18.23630714416504 82.89131164550781 22.8885326385498 85.08216857910156 28.06830787658691 C 87.35007476806641 33.43023300170898 88.5 39.12688446044922 88.5 45.00000762939453 C 88.5 50.87313079833984 87.35007476806641 56.56978225708008 85.08216857910156 61.93170928955078 C 82.89131164550781 67.11148071289062 79.75458526611328 71.76371002197266 75.75914764404297 75.7591552734375 C 71.76369476318359 79.75460815429688 67.11147308349609 82.89133453369141 61.93169784545898 85.08218383789062 C 56.56977081298828 87.35009765625 50.87311935424805 88.50002288818359 44.99999618530273 88.50002288818359 Z" stroke="none"/>
                                <path d="M 44.99999618530273 2.999992370605469 C 39.32870864868164 2.999992370605469 33.82865142822266 4.110054016113281 28.65262603759766 6.299339294433594 C 23.65165710449219 8.414566040039062 19.15968322753906 11.44333648681641 15.301513671875 15.30152130126953 C 11.44333648681641 19.15969085693359 8.414566040039062 23.65164947509766 6.299339294433594 28.65263748168945 C 4.110054016113281 33.82866287231445 2.999992370605469 39.32872009277344 2.999992370605469 45.00000762939453 C 2.999992370605469 50.67129516601562 4.110054016113281 56.17135238647461 6.299339294433594 61.34738159179688 C 8.414566040039062 66.34835052490234 11.44333648681641 70.84032440185547 15.301513671875 74.69849395751953 C 19.15968322753906 78.55666351318359 23.65165710449219 81.58543395996094 28.65262603759766 83.70066833496094 C 33.82865142822266 85.88995361328125 39.32870864868164 87.00000762939453 44.99999618530273 87.00000762939453 C 50.67128372192383 87.00000762939453 56.17134094238281 85.88995361328125 61.34736633300781 83.70066833496094 C 66.34834289550781 81.58543395996094 70.84030914306641 78.55666351318359 74.69847869873047 74.69849395751953 C 78.55665588378906 70.84032440185547 81.58542633056641 66.34835052490234 83.70065307617188 61.34738159179688 C 85.88993835449219 56.17135238647461 87 50.67129516601562 87 45.00000762939453 C 87 39.32872009277344 85.88993835449219 33.82866287231445 83.70065307617188 28.65263748168945 C 81.58542633056641 23.65164947509766 78.55665588378906 19.15969085693359 74.69847869873047 15.30152130126953 C 70.84030914306641 11.44333648681641 66.34834289550781 8.414566040039062 61.34736633300781 6.299339294433594 C 56.17134094238281 4.110054016113281 50.67128372192383 2.999992370605469 44.99999618530273 2.999992370605469 M 44.99999618530273 -7.62939453125e-06 C 69.85281372070312 -7.62939453125e-06 90 20.14719390869141 90 45.00000762939453 C 90 69.85282135009766 69.85281372070312 90.00000762939453 44.99999618530273 90.00000762939453 C 20.14717864990234 90.00000762939453 -7.62939453125e-06 69.85282135009766 -7.62939453125e-06 45.00000762939453 C -7.62939453125e-06 20.14719390869141 20.14717864990234 -7.62939453125e-06 44.99999618530273 -7.62939453125e-06 Z" stroke="none" fill="#899e78"/>
                              </g>
                            </g>
                          </g>
                        </g>
                      </g>
                    </g>
                  </g>
                </g>
              </g>
            </g>
          </g>
        </g>
      </g>
    </g>
    <g id="estudio_1_" data-name="estudio (1)" transform="translate(219.272 6750.978)">
      <g id="Grupo_1226321" data-name="Grupo 1226321" transform="translate(0.9 29.836)">
        <g id="Grupo_1226320" data-name="Grupo 1226320" transform="translate(0 0)">
          <path id="Trazado_1187712" data-name="Trazado 1187712" d="M201.212,236.57H214.68v24.887H201.212Z" transform="translate(-177.961 -212.548)" fill="#88a8d8"/>
          <g id="Grupo_1226319" data-name="Grupo 1226319">
            <g id="Grupo_1226311" data-name="Grupo 1226311">
              <g id="Grupo_1226296" data-name="Grupo 1226296" transform="translate(0 4.5)">
                <g id="Grupo_1226295" data-name="Grupo 1226295">
                  <g id="Grupo_1226294" data-name="Grupo 1226294">
                    <g id="Grupo_1226293" data-name="Grupo 1226293">
                      <g id="Grupo_1226292" data-name="Grupo 1226292">
                        <g id="Grupo_1226291" data-name="Grupo 1226291">
                          <path id="Trazado_1187713" data-name="Trazado 1187713" d="M15.375,73.926a6.4,6.4,0,0,0-2.594.55L7.85,76.664a.588.588,0,0,0,0,1.076l4.931,2.188a6.4,6.4,0,0,0,2.594.549H58.943V73.926Z" transform="translate(-7.5 -73.926)" fill="#e07f84"/>
                          <path id="Trazado_1187714" data-name="Trazado 1187714" d="M451.981,73.926H448.54v6.551h3.441a3.276,3.276,0,0,0,0-6.551Z" transform="translate(-395.602 -73.926)" fill="#eac12e"/>
                        </g>
                        <path id="Trazado_1187715" data-name="Trazado 1187715" d="M14.585,80.8V74.351a6.388,6.388,0,0,0-1.8.5L7.85,77.038a.588.588,0,0,0,0,1.076L12.781,80.3A6.4,6.4,0,0,0,14.585,80.8Z" transform="translate(-7.5 -74.3)" fill="#a87f7f"/>
                        <path id="Trazado_1187716" data-name="Trazado 1187716" d="M426.667,73.926h3.822v6.551h-3.822Z" transform="translate(-376.354 -73.926)" fill="#edeaed"/>
                      </g>
                    </g>
                  </g>
                </g>
              </g>
              <g id="Grupo_1226310" data-name="Grupo 1226310" transform="translate(17.9)">
                <g id="Grupo_1226309" data-name="Grupo 1226309">
                  <g id="Grupo_1226308" data-name="Grupo 1226308">
                    <g id="Grupo_1226307" data-name="Grupo 1226307">
                      <g id="Grupo_1226306" data-name="Grupo 1226306">
                        <g id="Grupo_1226305" data-name="Grupo 1226305">
                          <g id="Grupo_1226304" data-name="Grupo 1226304">
                            <g id="Grupo_1226303" data-name="Grupo 1226303">
                              <g id="Grupo_1226302" data-name="Grupo 1226302">
                                <g id="Grupo_1226301" data-name="Grupo 1226301">
                                  <g id="Grupo_1226300" data-name="Grupo 1226300">
                                    <g id="Grupo_1226299" data-name="Grupo 1226299">
                                      <g id="Grupo_1226297" data-name="Grupo 1226297">
                                        <path id="Trazado_1187717" data-name="Trazado 1187717" d="M176.174,38.948H175.1a1.675,1.675,0,0,0-1.675,1.675V39.55a1.675,1.675,0,0,0-1.675-1.675h-1.071a1.675,1.675,0,0,0-1.675,1.675V38.7a1.675,1.675,0,0,0-1.675-1.675H166.26a1.675,1.675,0,0,0-1.675,1.675v-.584a1.675,1.675,0,0,0-1.675-1.675h-1.071a1.675,1.675,0,0,0-1.675,1.675V44.59a2.9,2.9,0,0,1-2.9,2.9h-.637a6.488,6.488,0,0,0,2.365,5.016l1.521,1.2a3.844,3.844,0,0,1,1.466,3.02V57.9h13.468V55.147a3.845,3.845,0,0,1,.273-1.423l1.264-3.173a16.149,16.149,0,0,0,.864-5.211V40.623a1.675,1.675,0,0,0-1.675-1.675Z" transform="translate(-156.628 -36.437)" fill="#ffece4"/>
                                      </g>
                                      <g id="Grupo_1226298" data-name="Grupo 1226298" transform="translate(11.003 1.438)">
                                        <path id="Trazado_1187718" data-name="Trazado 1187718" d="M256.84,49.488h-1.071a1.675,1.675,0,0,0-1.675,1.675V50.089a1.675,1.675,0,0,0-1.675-1.675h-1.071a1.668,1.668,0,0,0-1.16.469,1.669,1.669,0,0,1,.511,1.2V54.8a16.148,16.148,0,0,1-.864,5.211l-1.264,3.173a3.845,3.845,0,0,0-.273,1.423v3.835h7.817V65.686a3.846,3.846,0,0,1,.273-1.423l1.264-3.173a16.149,16.149,0,0,0,.864-5.211V51.163A1.675,1.675,0,0,0,256.84,49.488Z" transform="translate(-248.298 -48.414)" fill="#ffddce"/>
                                      </g>
                                      <path id="Trazado_1187719" data-name="Trazado 1187719" d="M248.3,236.57h7.817v24.887H248.3Z" transform="translate(-237.294 -212.548)" fill="#7296d1"/>
                                    </g>
                                  </g>
                                </g>
                              </g>
                            </g>
                          </g>
                        </g>
                      </g>
                    </g>
                  </g>
                </g>
              </g>
            </g>
            <g id="Grupo_1226318" data-name="Grupo 1226318" transform="translate(0.131 39.871)">
              <g id="Grupo_1226317" data-name="Grupo 1226317">
                <g id="Grupo_1226316" data-name="Grupo 1226316">
                  <g id="Grupo_1226313" data-name="Grupo 1226313" transform="translate(3.952)">
                    <path id="Trazado_1187720" data-name="Trazado 1187720" d="M67.3,373.636c-8.687-7.611-21.868-4.56-25.063-3.666a.979.979,0,0,0-.716.943v6.735H67.3Z" transform="translate(-41.519 -368.61)" fill="#f7f4f7"/>
                    <path id="Trazado_1187721" data-name="Trazado 1187721" d="M256.291,373.636c8.687-7.611,21.867-4.56,25.063-3.666a.979.979,0,0,1,.716.943v6.735H256.291Z" transform="translate(-230.512 -368.61)" fill="#edeaed"/>
                    <g id="Grupo_1226312" data-name="Grupo 1226312" transform="translate(42.832 0.055)">
                      <path id="Trazado_1187722" data-name="Trazado 1187722" d="M406.372,370.372a38.745,38.745,0,0,0-8.01-1.305l.193.053a.979.979,0,0,1,.716.943v7.987h7.817v-6.735A.979.979,0,0,0,406.372,370.372Z" transform="translate(-398.362 -369.067)" fill="#e0dde0"/>
                    </g>
                  </g>
                  <g id="Grupo_1226315" data-name="Grupo 1226315" transform="translate(0 4.049)">
                    <path id="Trazado_1187723" data-name="Trazado 1187723" d="M55.573,407.68c-9.27-8.122-23.359-4.811-26.666-3.88a.978.978,0,0,0-.712.942v5.692H55.573Z" transform="translate(-25.842 -402.342)" fill="#edeaed"/>
                    <path id="Trazado_1187724" data-name="Trazado 1187724" d="M256.291,407.68c9.27-8.122,23.359-4.811,26.666-3.88a.978.978,0,0,1,.712.942v5.692H256.291Z" transform="translate(-226.56 -402.342)" fill="#e0dde0"/>
                    <g id="Grupo_1226314" data-name="Grupo 1226314" transform="translate(48.683 0.114)">
                      <path id="Trazado_1187725" data-name="Trazado 1187725" d="M421.895,404.637a41.042,41.042,0,0,0-7.715-1.344.977.977,0,0,1,.619.91v7.068h7.808v-5.692A.978.978,0,0,0,421.895,404.637Z" transform="translate(-414.18 -403.293)" fill="#d1ccd3"/>
                    </g>
                    <path id="Trazado_1187726" data-name="Trazado 1187726" d="M66.155,447.712H10.491a1.9,1.9,0,1,1,0-3.8H66.155a1.9,1.9,0,1,1,0,3.8Z" transform="translate(-8.592 -438.923)" fill="#eab14d"/>
                    <path id="Trazado_1187727" data-name="Trazado 1187727" d="M430.957,443.913h-7.8a1.9,1.9,0,0,1,1.9,1.9v1.9h5.9a1.9,1.9,0,0,0,0-3.8Z" transform="translate(-373.394 -438.923)" fill="#e8ae4d"/>
                  </g>
                </g>
              </g>
            </g>
          </g>
          <path id="Trazado_1187728" data-name="Trazado 1187728" d="M190.139,206.738V209.3a1.274,1.274,0,0,0,1.274,1.274h13.933a1.274,1.274,0,0,0,1.274-1.274v-2.562a1.274,1.274,0,0,0-1.274-1.274H191.413A1.274,1.274,0,0,0,190.139,206.738Z" transform="translate(-168.217 -185.176)" fill="#5884c9"/>
          <path id="Trazado_1187729" data-name="Trazado 1187729" d="M248.3,210.574h8.227A1.274,1.274,0,0,0,257.8,209.3v-2.562a1.274,1.274,0,0,0-1.274-1.274H248.3Z" transform="translate(-219.394 -185.176)" fill="#4478c1"/>
        </g>
      </g>
      <path id="Trazado_1187730" data-name="Trazado 1187730" d="M59.041,77.882V76.156a1.885,1.885,0,0,0-1.368-1.808l-.231-.064V72.011a1.886,1.886,0,0,0-1.374-1.81,35.029,35.029,0,0,0-17.548-.5V65.171a.9.9,0,1,0-1.8,0v5.088a20.057,20.057,0,0,0-5.957,3.3,20,20,0,0,0-5.711-3.212V56.135H36.72v4.841a.9.9,0,1,0,1.8,0v-4.9A2.177,2.177,0,0,0,40.2,53.961V51.4a2.176,2.176,0,0,0-1.684-2.116v-.737c0-1.466,1.473-3.169,2.126-6.758H57.28a4.176,4.176,0,1,0,0-8.352H40.851a2.578,2.578,0,0,0-2.505-1.989H37.275a2.56,2.56,0,0,0-1.1.248,2.577,2.577,0,0,0-2.249-1.321H32.854a2.559,2.559,0,0,0-1.2.3A2.575,2.575,0,0,0,29.5,29.52H28.433a2.559,2.559,0,0,0-1.343.379,2.572,2.572,0,0,0-2.007-.963H24.011a2.578,2.578,0,0,0-2.575,2.575v1.925H8.775a7.249,7.249,0,0,0-2.959.627L.885,36.251a1.489,1.489,0,0,0,0,2.721l4.932,2.188a7.251,7.251,0,0,0,2.959.627h9.183a7.365,7.365,0,0,0,2.65,4.823c1.042.945,2.212,1.349,2.563,2.824A2.175,2.175,0,0,0,21.922,51.4V53.96a2.177,2.177,0,0,0,1.329,2V69.77c-5.6-1.544-12.3-1.106-17.794.431a1.886,1.886,0,0,0-1.374,1.81v2.274l-.231.064a1.885,1.885,0,0,0-1.368,1.808v1.726a2.8,2.8,0,0,0,.447,5.564H58.594a2.8,2.8,0,0,0,.447-5.563ZM55.935,35.236H57.28a2.375,2.375,0,1,1,0,4.751H55.935Zm-3.822,0h2.021v4.751H52.113Zm-11.192,0h9.392v1.475H40.921Zm0,3.5v-.227h9.392v1.475H40.874q.046-.621.046-1.248Zm-33.836.982c-.477-.155-.383-.148-4.827-2.109C6.7,35.65,6.607,35.657,7.085,35.5Zm50.1,36.36a.077.077,0,0,1,.056.075v1.69H33.989C40.607,73.837,49.882,74.025,57.185,76.081Zm-25.522-.933c6.382-5.335,16.094-5.4,23.92-3.213a.078.078,0,0,1,.058.076v1.832c-8.04-1.77-17.252-1.476-23.979,3.387ZM38.4,53.96a.374.374,0,0,1-.374.374H24.1a.374.374,0,0,1-.374-.374V51.4a.374.374,0,0,1,.374-.374H38.03a.374.374,0,0,1,.374.374V53.96ZM18.8,39.987H8.885V38.512h3.788a.9.9,0,1,0,0-1.8H8.885V35.236h12.55v1.475H16.868a.9.9,0,0,0,0,1.8h4.494a2,2,0,0,1-1.926,1.475ZM21.721,45.2a5.5,5.5,0,0,1-1.95-3.423,3.8,3.8,0,0,0,3.464-3.783c0-1.355,0-5.127,0-6.479a.776.776,0,0,1,.775-.775h1.071a.776.776,0,0,1,.775.775V32.1a.9.9,0,1,0,1.8,0,.776.776,0,0,1,.775-.775H29.5a.776.776,0,0,1,.775.775v.853a.9.9,0,0,0,1.8,0,.776.776,0,0,1,.775-.775h1.071a.776.776,0,0,1,.775.775v1.074a.9.9,0,1,0,1.8,0,.776.776,0,0,1,.775-.775h1.071a.776.776,0,0,1,.775.775V38.74c0,5.126-2.4,7.391-2.4,9.806v.679H24.966c-.459-2.413-2.371-3.189-3.244-4.029ZM5.884,72.01a.078.078,0,0,1,.058-.076c7.835-2.191,17.591-2.077,23.92,3.213V77.23c-6.743-4.875-15.96-5.15-23.979-3.387V72.01Zm-1.6,4.146a.077.077,0,0,1,.056-.075c7.324-2.062,16.591-2.236,23.2,1.765H4.284Zm54.31,5.489H2.931a1,1,0,1,1,0-2H58.595a1,1,0,0,1,0,2Z" transform="translate(0 0)"/>
    </g>
  </g>
</svg>
