<svg xmlns="http://www.w3.org/2000/svg" xmlns:xlink="http://www.w3.org/1999/xlink" width="103" height="103" viewBox="0 0 103 103">
  <defs>
    <filter id="Trazado_978624" x="0" y="0" width="103" height="103" filterUnits="userSpaceOnUse">
      <feOffset dy="3" input="SourceAlpha"/>
      <feGaussianBlur stdDeviation="3" result="blur"/>
      <feFlood flood-opacity="0.161"/>
      <feComposite operator="in" in2="blur"/>
      <feComposite in="SourceGraphic"/>
    </filter>
  </defs>
  <g id="Grupo_1226324" data-name="Grupo 1226324" transform="translate(-171 -8307.968)">
    <g id="Grupo_1225980" data-name="Grupo 1225980" transform="translate(0 7511.968)">
      <g id="Grupo_1222970" data-name="Grupo 1222970" transform="translate(0 -37)">
        <g id="Grupo_1222589" data-name="Grupo 1222589">
          <g id="Grupo_1203109" data-name="Grupo 1203109" transform="translate(180 839)">
            <g id="Grupo_1176881" data-name="Grupo 1176881">
              <g id="Grupo_1175148" data-name="Grupo 1175148">
                <g id="Grupo_1173798" data-name="Grupo 1173798">
                  <g id="Grupo_1171925" data-name="Grupo 1171925">
                    <g id="Grupo_1164524" data-name="Grupo 1164524">
                      <g id="Grupo_1144123" data-name="Grupo 1144123">
                        <g transform="matrix(1, 0, 0, 1, -9, -6)" filter="url(#Trazado_978624)">
                          <g id="Trazado_978624-2" data-name="Trazado 978624" transform="translate(9 6)" fill="#e7f2f8">
                            <path d="M 42.5 83.5 C 36.96437835693359 83.5 31.59512901306152 82.41617584228516 26.54141235351562 80.27863311767578 C 21.65934181213379 78.21369171142578 17.27447128295898 75.25723266601562 13.50862312316895 71.49137878417969 C 9.742764472961426 67.72553253173828 6.786305904388428 63.34066009521484 4.721364498138428 58.45858764648438 C 2.583823442459106 53.40486907958984 1.5 48.03562164306641 1.5 42.5 C 1.5 36.96437835693359 2.583823442459106 31.59512901306152 4.721364498138428 26.54141235351562 C 6.786305904388428 21.65934181213379 9.742764472961426 17.27447128295898 13.50862312316895 13.50862312316895 C 17.27447128295898 9.742764472961426 21.65934181213379 6.786305904388428 26.54141235351562 4.721364498138428 C 31.59512901306152 2.583823442459106 36.96437835693359 1.5 42.5 1.5 C 48.03562164306641 1.5 53.40486907958984 2.583823442459106 58.45858764648438 4.721364498138428 C 63.34066009521484 6.786305904388428 67.72553253173828 9.742764472961426 71.49137878417969 13.50862312316895 C 75.25723266601562 17.27447128295898 78.21369171142578 21.65934181213379 80.27863311767578 26.54141235351562 C 82.41617584228516 31.59512901306152 83.5 36.96437835693359 83.5 42.5 C 83.5 48.03562164306641 82.41617584228516 53.40486907958984 80.27863311767578 58.45858764648438 C 78.21369171142578 63.34066009521484 75.25723266601562 67.72553253173828 71.49137878417969 71.49137878417969 C 67.72553253173828 75.25723266601562 63.34066009521484 78.21369171142578 58.45858764648438 80.27863311767578 C 53.40486907958984 82.41617584228516 48.03562164306641 83.5 42.5 83.5 Z" stroke="none"/>
                            <path d="M 42.5 3 C 37.16621398925781 3 31.99356079101562 4.043960571289062 27.125732421875 6.102882385253906 C 22.42246627807617 8.092185974121094 18.19785308837891 10.94070434570312 14.56928253173828 14.56928253173828 C 10.94070434570312 18.19785308837891 8.092185974121094 22.42246627807617 6.102882385253906 27.125732421875 C 4.043960571289062 31.99356079101562 3 37.16621398925781 3 42.5 C 3 47.83378601074219 4.043960571289062 53.00643920898438 6.102882385253906 57.87425231933594 C 8.092185974121094 62.57753372192383 10.94070434570312 66.80213165283203 14.56928253173828 70.43071746826172 C 18.19786834716797 74.05929565429688 22.42246627807617 76.90781402587891 27.125732421875 78.89711761474609 C 31.99356079101562 80.95603942871094 37.16621398925781 82 42.5 82 C 47.83378601074219 82 53.00642395019531 80.95603942871094 57.87425231933594 78.89711761474609 C 62.57753372192383 76.90781402587891 66.80213165283203 74.05929565429688 70.43071746826172 70.43071746826172 C 74.05929565429688 66.80213165283203 76.90781402587891 62.57753372192383 78.89711761474609 57.87425231933594 C 80.95603942871094 53.00642395019531 82 47.83378601074219 82 42.5 C 82 37.16621398925781 80.95603942871094 31.99356079101562 78.89711761474609 27.125732421875 C 76.90781402587891 22.42246627807617 74.05929565429688 18.19786834716797 70.43071746826172 14.56928253173828 C 66.80213165283203 10.94070434570312 62.57753372192383 8.092185974121094 57.87425231933594 6.102882385253906 C 53.00643920898438 4.043960571289062 47.83378601074219 3 42.5 3 M 42.5 0 C 65.97209167480469 0 85 19.02789306640625 85 42.5 C 85 65.97209167480469 65.97209167480469 85 42.5 85 C 19.02789306640625 85 0 65.97209167480469 0 42.5 C 0 19.02789306640625 19.02789306640625 0 42.5 0 Z" stroke="none" fill="#248abf"/>
                          </g>
                        </g>
                      </g>
                    </g>
                  </g>
                </g>
              </g>
            </g>
          </g>
        </g>
      </g>
    </g>
    <g id="layer1" transform="translate(196.304 8050.205)">
      <path id="path31585" d="M2.5,283.506H48.7a1.707,1.707,0,0,1,1.711,1.711v30.8a1.707,1.707,0,0,1-1.711,1.711H2.5a1.707,1.707,0,0,1-1.711-1.711v-30.8A1.707,1.707,0,0,1,2.5,283.506Z" transform="translate(0.591 6.502)" fill="#e7ebef"/>
      <path id="path31587" d="M1.852,284.565H44.63V308.52H1.852Z" transform="translate(2.955 8.867)" fill="#68b1fc"/>
      <path id="path31591" d="M21.485,300.934s-3.422-3.422-3.422-6.844H9.508c0,3.422-3.422,6.844-3.422,6.844Z" transform="translate(12.41 30.141)" fill="#e7ebef"/>
      <path id="path34069-6" d="M47.16,283.506a2.534,2.534,0,0,1,.675,1.708V314.3a2.581,2.581,0,0,1-2.572,2.563H2.488A2.54,2.54,0,0,1,.8,316.214a1.7,1.7,0,0,0,1.691,1.514h46.2a1.707,1.707,0,0,0,1.711-1.711v-30.8a1.707,1.707,0,0,0-1.711-1.711Z" transform="translate(0.605 6.502)" fill="#dbe1e7"/>
      <path id="path34071-9" d="M1.852,284.565V308.52H4.419s0,0,0,0V286.273a.855.855,0,0,1,.852-.859H44.625l.005,0v-.851Z" transform="translate(2.955 8.867)" fill="#4fa4fb"/>
      <path id="path34425-8-37" d="M7.53,294.09a6.873,6.873,0,0,1-.56,2.563h6.956a26.73,26.73,0,0,0,2.256,4.279h3.325s-3.421-3.421-3.422-6.843H7.53Z" transform="translate(14.388 30.142)" fill="#dbe1e7"/>
      <path id="path31595" d="M2.91,289.856H38.844v3.422H2.91Z" transform="translate(5.319 20.685)" fill="#fcb860"/>
      <path id="path31597" d="M6.085,308.176h7.7V281.654h-7.7Z" transform="translate(12.41 2.365)" fill="#68b1fc"/>
      <path id="path31599" d="M11.4,280.86H3.7v29.089h7.7Z" transform="translate(7.092 0.592)" fill="#fc6067"/>
      <path id="path31603" d="M18.548,309.949h-7.7V280.86h7.7Z" transform="translate(23.048 0.592)" fill="#59e78b"/>
      <path id="path31605" d="M16.167,282.448h-7.7V306.4h7.7Z" transform="translate(17.729 4.139)" fill="#fcb860"/>
      <path id="path35027-4" d="M8.84,280.86v25.668a.855.855,0,0,1-.859.852H4.557a.855.855,0,0,1-.852-.852v3.421h7.7V280.86Z" transform="translate(7.093 0.592)" fill="#fb4f56"/>
      <path id="path35033-9" d="M15.983,280.861v25.67a.855.855,0,0,1-.859.852H11.7a.855.855,0,0,1-.852-.852v3.417h7.7V280.861Z" transform="translate(23.049 0.594)" fill="#41e37a"/>
      <path id="path35035-3" d="M13.6,282.448v20.533a.855.855,0,0,1-.859.852H9.316A.853.853,0,0,1,8.467,303v3.4h7.695V282.448Z" transform="translate(17.729 4.139)" fill="#fbb04f"/>
      <path id="path35037-4" d="M11.22,304.755a.855.855,0,0,1-.859.852H6.938a.855.855,0,0,1-.852-.852v3.421h7.7V281.654l-2.566,0Z" transform="translate(12.41 2.365)" fill="#4fa4fb"/>
      <path id="path35053-2" d="M36.277,289.856v1.708a.856.856,0,0,1-.859.859H2.91v.856H38.844v-3.422Z" transform="translate(5.319 20.685)" fill="#fbb04f"/>
      <g id="Grupo_1226323" data-name="Grupo 1226323" transform="translate(10.796 286.586)">
        <path id="path31601" d="M3.7,285.87h7.7v-3.422H3.7Z" transform="translate(-3.704 -282.448)" fill="#e7ebef"/>
        <path id="path31607" d="M18.548,287.21h-7.7v3.422h7.7Z" transform="translate(12.252 -271.811)" fill="#e7ebef"/>
        <path id="path31609" d="M13.785,287.21h-7.7v3.422h7.7Z" transform="translate(1.615 -271.811)" fill="#e7ebef"/>
        <path id="path31689" d="M16.167,284.035h-7.7v3.422h7.7Z" transform="translate(6.933 -278.902)" fill="#e7ebef"/>
      </g>
      <path id="path35031-9" d="M5.292,282.448v3.422H7.858v-3.422Z" transform="translate(10.638 4.139)" fill="#dbe1e7"/>
      <path id="path35045-4" d="M12.435,287.21v3.422H15V287.21Z" transform="translate(26.594 14.775)" fill="#dbe1e7"/>
      <path id="path35047-6" d="M7.673,287.21v3.422H10.24V287.21Z" transform="translate(15.956 14.775)" fill="#dbe1e7"/>
      <path id="path35049-8" d="M10.054,284.035v3.422h2.567v-3.422Z" transform="translate(21.275 7.684)" fill="#dbe1e7"/>
      <path id="path3032-7" d="M10.794,280.595a.856.856,0,0,0-.852.859v7.7H3.1a2.58,2.58,0,0,0-2.567,2.567v1.711a.856.856,0,1,0,1.711,0v-1.711a.836.836,0,0,1,.856-.856H9.942v1.711H4.807a.856.856,0,0,0-.856.856v23.955a.856.856,0,0,0,.856.856H47.585a.856.856,0,0,0,.856-.856V293.432a.856.856,0,0,0-.856-.856h-5.13v-1.711H49.3a.836.836,0,0,1,.856.856v30.8a.836.836,0,0,1-.856.855H3.1a.836.836,0,0,1-.856-.855V301.132a.856.856,0,1,0-1.711,0v21.389A2.58,2.58,0,0,0,3.1,325.087H20.957a11.224,11.224,0,0,1-2.837,5.132H15.928a.856.856,0,0,0,0,1.711H36.461a.856.856,0,0,0,0-1.711H34.272a11.2,11.2,0,0,1-2.866-5.132H49.3a2.58,2.58,0,0,0,2.567-2.567v-30.8a2.58,2.58,0,0,0-2.567-2.567H42.455v-7.7a.856.856,0,0,0-.859-.859H33.9a.856.856,0,0,0-.861.859v4.276H27.05v-1.711a.859.859,0,0,0-.814-.852H19.352v-1.713a.856.856,0,0,0-.859-.859Zm.859,1.713H17.64v3.422H11.653Zm23.1,0h5.994v18.827H34.75Zm-15.4,2.57h5.987v16.257H19.351Zm-7.7,2.565H17.64v1.711H11.653Zm15.4,0h5.987v3.426H27.05Zm-15.4,3.422H17.64v18.82H11.653Zm15.4,1.715h5.987v1.7H27.05ZM5.663,294.287H9.942v15.4H8.231a.855.855,0,0,0-.861.859v3.424a.856.856,0,0,0,.861.852H44.159a.856.856,0,0,0,.859-.852v-3.424a.856.856,0,0,0-.859-.859h-1.7v-15.4h4.274v22.244H5.662Zm-4.291,1.7a.855.855,0,0,0-.842.867v.856a.856.856,0,1,0,1.711,0v-.856A.855.855,0,0,0,1.371,295.987ZM27.05,296h5.987v13.691H27.05Zm-7.7,6.851h5.987v1.7H19.351Zm15.4,0h5.994v1.7H34.75Zm-15.4,3.415h5.987v3.424H19.351Zm15.4,0h5.994v3.424H34.75ZM9.083,311.4H43.307v1.713H9.083Zm15.4,8.556a.856.856,0,0,0,0,1.711h3.422a.856.856,0,0,0,0-1.711Zm-1.765,5.135H29.68a10.99,10.99,0,0,0,2.371,5.132H20.336a10.8,10.8,0,0,0,2.383-5.132Z" transform="translate(0 0)"/>
    </g>
  </g>
</svg>
