<svg xmlns="http://www.w3.org/2000/svg" xmlns:xlink="http://www.w3.org/1999/xlink" width="113" height="113" viewBox="0 0 113 113">
  <defs>
    <filter id="Trazado_982547" x="0" y="0" width="113" height="113" filterUnits="userSpaceOnUse">
      <feOffset dy="3" input="SourceAlpha"/>
      <feGaussianBlur stdDeviation="3" result="blur"/>
      <feFlood flood-opacity="0.161"/>
      <feComposite operator="in" in2="blur"/>
      <feComposite in="SourceGraphic"/>
    </filter>
  </defs>
  <g id="Grupo_1226216" data-name="Grupo 1226216" transform="translate(-692 -1582.596)">
    <g id="Grupo_1225956" data-name="Grupo 1225956" transform="translate(701 1588.596)">
      <g id="Grupo_1208038" data-name="Grupo 1208038">
        <g id="Grupo_1202104" data-name="Grupo 1202104">
          <g id="Grupo_1201923" data-name="Grupo 1201923" transform="translate(0 0)">
            <g id="Grupo_1176928" data-name="Grupo 1176928">
              <g id="Grupo_1172322" data-name="Grupo 1172322">
                <g id="Grupo_1164700" data-name="Grupo 1164700">
                  <g id="Grupo_1160931" data-name="Grupo 1160931">
                    <g id="Grupo_1160749" data-name="Grupo 1160749">
                      <g id="Grupo_1158891" data-name="Grupo 1158891">
                        <g id="Grupo_1157406" data-name="Grupo 1157406">
                          <g id="Grupo_1155793" data-name="Grupo 1155793">
                            <g id="Grupo_1154704" data-name="Grupo 1154704">
                              <g id="Grupo_1150790" data-name="Grupo 1150790">
                                <g id="Grupo_1154214" data-name="Grupo 1154214">
                                  <g id="Grupo_1152583" data-name="Grupo 1152583">
                                    <g id="Grupo_1146973" data-name="Grupo 1146973">
                                      <g id="Grupo_1146954" data-name="Grupo 1146954">
                                        <g transform="matrix(1, 0, 0, 1, -9, -6)" filter="url(#Trazado_982547)">
                                          <g id="Trazado_982547-2" data-name="Trazado 982547" transform="translate(9 6)" fill="#f9e3d4">
                                            <path d="M 47.5000114440918 93.49987030029297 C 41.28938293457031 93.49987030029297 35.26534652709961 92.28384399414062 29.5951976776123 89.88558959960938 C 24.11773109436035 87.56881713867188 19.19814491271973 84.25183868408203 14.97310447692871 80.02680206298828 C 10.74805164337158 75.80176544189453 7.43107795715332 70.88218688964844 5.114304542541504 65.40472412109375 C 2.716038227081299 59.73458862304688 1.500011444091797 53.71054840087891 1.500011444091797 47.49993515014648 C 1.500011444091797 41.28932189941406 2.716038227081299 35.26528167724609 5.114304542541504 29.59514808654785 C 7.43107795715332 24.1176815032959 10.74805164337158 19.1981086730957 14.97310447692871 14.97306823730469 C 19.19814491271973 10.74802875518799 24.11773109436035 7.431055068969727 29.5951976776123 5.11428165435791 C 35.26534652709961 2.716028451919556 41.28938293457031 1.500001788139343 47.5000114440918 1.500001788139343 C 53.71063995361328 1.500001788139343 59.73467636108398 2.716028451919556 65.40482330322266 5.11428165435791 C 70.88229370117188 7.431055068969727 75.8018798828125 10.74802875518799 80.02691650390625 14.97306823730469 C 84.25196838378906 19.1981086730957 87.56894683837891 24.1176815032959 89.88571929931641 29.59514808654785 C 92.28398132324219 35.26528167724609 93.50001525878906 41.28932189941406 93.50001525878906 47.49993515014648 C 93.50001525878906 53.71054840087891 92.28398132324219 59.73458862304688 89.88571929931641 65.40472412109375 C 87.56894683837891 70.88218688964844 84.25196838378906 75.80176544189453 80.02691650390625 80.02680206298828 C 75.8018798828125 84.25183868408203 70.88229370117188 87.56881713867188 65.40482330322266 89.88558959960938 C 59.73467636108398 92.28384399414062 53.71063995361328 93.49987030029297 47.5000114440918 93.49987030029297 Z" stroke="none"/>
                                            <path d="M 47.5000114440918 3 C 41.49122619628906 3 35.66378021240234 4.1761474609375 30.17951965332031 6.495796203613281 C 24.880859375 8.7369384765625 20.12153625488281 11.94596862792969 16.03376770019531 16.03373718261719 C 11.94598388671875 20.12149047851562 8.736968994140625 24.88081359863281 6.495811462402344 30.17947387695312 C 4.176162719726562 35.66371917724609 3.000007629394531 41.49116516113281 3.000007629394531 47.49993515014648 C 3.000007629394531 53.50870513916016 4.176162719726562 59.33615112304688 6.495811462402344 64.82039642333984 C 8.736968994140625 70.11905670166016 11.94598388671875 74.87837982177734 16.03376770019531 78.96613311767578 C 20.12153625488281 83.05390167236328 24.880859375 86.26293182373047 30.17951965332031 88.50407409667969 C 35.66378021240234 90.82372283935547 41.49122619628906 91.99987030029297 47.5000114440918 91.99987030029297 C 53.50879669189453 91.99987030029297 59.33624267578125 90.82372283935547 64.82050323486328 88.50407409667969 C 70.11916351318359 86.26293182373047 74.87848663330078 83.05390167236328 78.96625518798828 78.96613311767578 C 83.05403900146484 74.87837982177734 86.2630615234375 70.11905670166016 88.50421142578125 64.82039642333984 C 90.82386016845703 59.33615112304688 92.00001525878906 53.50870513916016 92.00001525878906 47.49993515014648 C 92.00001525878906 41.49116516113281 90.82386016845703 35.66371917724609 88.50421142578125 30.17947387695312 C 86.2630615234375 24.88081359863281 83.05403900146484 20.12149047851562 78.96625518798828 16.03373718261719 C 74.87848663330078 11.94596862792969 70.11916351318359 8.7369384765625 64.82050323486328 6.495796203613281 C 59.33624267578125 4.1761474609375 53.50879669189453 3 47.5000114440918 3 M 47.5000114440918 0 C 73.73353576660156 0 95.00001525878906 21.26644134521484 95.00001525878906 47.49993515014648 C 95.00001525878906 73.73342895507812 73.73353576660156 94.99987030029297 47.5000114440918 94.99987030029297 C 21.26648712158203 94.99987030029297 7.62939453125e-06 73.73342895507812 7.62939453125e-06 47.49993515014648 C 7.62939453125e-06 21.26644134521484 21.26648712158203 0 47.5000114440918 0 Z" stroke="none" fill="#eca675"/>
                                          </g>
                                        </g>
                                      </g>
                                    </g>
                                  </g>
                                </g>
                              </g>
                            </g>
                          </g>
                        </g>
                      </g>
                    </g>
                  </g>
                </g>
              </g>
            </g>
          </g>
        </g>
      </g>
    </g>
    <g id="el-pensamiento-de-diseno" transform="translate(716.888 1604.484)">
      <g id="Grupo_1226214" data-name="Grupo 1226214" transform="translate(1.987 1.987)">
        <g id="Grupo_1226200" data-name="Grupo 1226200" transform="translate(41.494 11.85)">
          <path id="Trazado_1187488" data-name="Trazado 1187488" d="M54.863,18.937l-6.982,6.982a16.745,16.745,0,0,0-3.752-5.905l-.109-.109L49.925,14Z" transform="translate(-44.02 -14)" fill="#5cd6b3"/>
        </g>
        <g id="Grupo_1226201" data-name="Grupo 1226201" transform="translate(9.875 40.724)">
          <path id="Trazado_1187489" data-name="Trazado 1187489" d="M25.035,48.73l-8.1,8.1L12,51.89l8.65-8.65A19.421,19.421,0,0,1,25.035,48.73Z" transform="translate(-12 -43.24)" fill="#5cd6b3"/>
        </g>
        <g id="Grupo_1226202" data-name="Grupo 1226202" transform="translate(4.937 35.283)">
          <path id="Trazado_1187490" data-name="Trazado 1187490" d="M20.588,43.171l-8.65,8.65L7,46.884l9.154-9.154A16.733,16.733,0,0,0,19.393,42c.395.395.79.79,1.195,1.175Z" transform="translate(-7 -37.73)" fill="#ff826e"/>
        </g>
        <g id="Grupo_1226203" data-name="Grupo 1226203" transform="translate(35.481 6.912)">
          <path id="Trazado_1187491" data-name="Trazado 1187491" d="M49.849,13.937l-5.905,5.905a16.647,16.647,0,0,0-6.014-3.861L44.912,9Z" transform="translate(-37.93 -9)" fill="#ff826e"/>
        </g>
        <g id="Grupo_1226204" data-name="Grupo 1226204" transform="translate(45.425)">
          <path id="Trazado_1187492" data-name="Trazado 1187492" d="M61.825,8.982a6.964,6.964,0,0,1-2.044,4.937l-1.906,1.906L48,5.95l1.906-1.906A6.982,6.982,0,0,1,61.825,8.982Z" transform="translate(-48 -2)" fill="#aab2bd"/>
        </g>
        <g id="Grupo_1226205" data-name="Grupo 1226205" transform="translate(0 44.437)">
          <path id="Trazado_1187493" data-name="Trazado 1187493" d="M16.812,56.875,4.261,61.7a1.747,1.747,0,0,1-.592.109A1.673,1.673,0,0,1,2,60.144a1.747,1.747,0,0,1,.109-.592L6.937,47l4.937,4.937Z" transform="translate(-2 -47)" fill="#ccd1d9"/>
        </g>
        <g id="Grupo_1226206" data-name="Grupo 1226206" transform="translate(42.462 3.95)">
          <path id="Trazado_1187494" data-name="Trazado 1187494" d="M57.837,15.875l-2.962,2.962L49.937,13.9,45,8.962,47.962,6Z" transform="translate(-45 -6)" fill="#e6e9ed"/>
        </g>
        <g id="Grupo_1226207" data-name="Grupo 1226207" transform="translate(35.718 29.625)">
          <path id="Trazado_1187495" data-name="Trazado 1187495" d="M50.84,33.037A2.875,2.875,0,0,0,52.617,35.7c.01,0,.03.01.04.01a2.871,2.871,0,0,0,3.15-.612l.741-.741,2.795,2.795L58.6,37.9a2.871,2.871,0,0,0-.612,3.15c0,.01.01.03.01.04a2.875,2.875,0,0,0,2.666,1.777H61.7v3.95H60.665A2.875,2.875,0,0,0,58,48.59c0,.01-.01.03-.01.04a2.871,2.871,0,0,0,.612,3.15l.741.741-2.795,2.795-.741-.741a2.871,2.871,0,0,0-3.15-.612c-.01,0-.03.01-.04.01a2.875,2.875,0,0,0-1.777,2.666v1.037H46.89V56.638a2.875,2.875,0,0,0-1.777-2.666c-.01,0-.03-.01-.039-.01a2.871,2.871,0,0,0-3.15.612l-.741.741-2.5-2.5a1.954,1.954,0,0,0,.306-1.066,1.982,1.982,0,0,0-.82-1.6c.958-3.081,2.992-5.086,5.036-7.07a6.109,6.109,0,0,0-.267,1.758,5.925,5.925,0,1,0,5.925-5.925,6.025,6.025,0,0,0-2.281.454A12.073,12.073,0,0,0,48.865,32H50.84Z" transform="translate(-38.17 -32)" fill="#ffc729"/>
        </g>
        <g id="Grupo_1226208" data-name="Grupo 1226208" transform="translate(40.487 36.537)">
          <path id="Trazado_1187496" data-name="Trazado 1187496" d="M48.925,39A5.925,5.925,0,1,1,43,44.925a6.108,6.108,0,0,1,.267-1.758v-.01a27.4,27.4,0,0,0,3.377-3.7A6.025,6.025,0,0,1,48.925,39ZM50.9,44.925A1.975,1.975,0,1,0,48.925,46.9,1.981,1.981,0,0,0,50.9,44.925Z" transform="translate(-43 -39)" fill="#fcd770"/>
        </g>
        <g id="Grupo_1226209" data-name="Grupo 1226209" transform="translate(24.687 55.3)">
          <path id="Trazado_1187497" data-name="Trazado 1187497" d="M31.937,61.95a5.06,5.06,0,0,1-4.908-3.831L27,58h9.875l-.03.118a5.1,5.1,0,0,1-1.8,2.765A5.044,5.044,0,0,1,31.937,61.95Z" transform="translate(-27 -58)" fill="#aab2bd"/>
        </g>
        <g id="Grupo_1226210" data-name="Grupo 1226210" transform="translate(22.712 51.35)">
          <path id="Trazado_1187498" data-name="Trazado 1187498" d="M36.85,54a1.981,1.981,0,0,1,1.975,1.975A1.989,1.989,0,0,1,36.85,57.95H26.975A1.981,1.981,0,0,1,25,55.975,1.989,1.989,0,0,1,26.975,54Z" transform="translate(-25 -54)" fill="#ccd1d9"/>
        </g>
        <g id="Grupo_1226211" data-name="Grupo 1226211" transform="translate(22.712 47.4)">
          <path id="Trazado_1187499" data-name="Trazado 1187499" d="M38.825,51.975a1.954,1.954,0,0,1-.306,1.066,2.193,2.193,0,0,1-.276.326,1.931,1.931,0,0,1-1.392.583H26.975A1.981,1.981,0,0,1,25,51.975a1.931,1.931,0,0,1,.583-1.392,1.191,1.191,0,0,1,.237-.207A1.947,1.947,0,0,1,26.975,50H36.85a1.947,1.947,0,0,1,1.155.375,1.982,1.982,0,0,1,.82,1.6Z" transform="translate(-25 -50)" fill="#ccd1d9"/>
        </g>
        <g id="Grupo_1226212" data-name="Grupo 1226212" transform="translate(12.837 12.837)">
          <path id="Trazado_1187500" data-name="Trazado 1187500" d="M47.518,25.932a16.745,16.745,0,0,0-3.752-5.905l-.109-.109A16.832,16.832,0,0,0,32.113,15H32.1a6.758,6.758,0,0,1,.671,2.962,6.837,6.837,0,0,1-.365,2.212v.01a3.867,3.867,0,0,1,1.353-.247,3.95,3.95,0,1,1,0,7.9h-18.3A16.766,16.766,0,0,0,15,31.787a12.262,12.262,0,0,0,1.254,5.658,16.733,16.733,0,0,0,3.239,4.266c.395.395.79.79,1.195,1.175a19.421,19.421,0,0,1,4.384,5.49,9.518,9.518,0,0,1,.622,1.56,1.947,1.947,0,0,1,1.155-.375h9.875a1.947,1.947,0,0,1,1.155.375c.958-3.081,2.992-5.086,5.036-7.07v-.01a27.4,27.4,0,0,0,3.377-3.7,12.073,12.073,0,0,0,2.281-7.367,16.651,16.651,0,0,0-1.057-5.856Z" transform="translate(-15 -15)" fill="#ffeaa7"/>
        </g>
        <g id="Grupo_1226213" data-name="Grupo 1226213" transform="translate(0 3.95)">
          <path id="Trazado_1187501" data-name="Trazado 1187501" d="M23.034,11.471a6.912,6.912,0,0,1,8.907,3.417,6.759,6.759,0,0,1,.671,2.962,6.837,6.837,0,0,1-.365,2.212v.01a3.867,3.867,0,0,1,1.353-.247,3.95,3.95,0,1,1,0,7.9H6.937a4.934,4.934,0,0,1-.474-9.845v-.01a8.761,8.761,0,0,1-.513-2.982,8.887,8.887,0,0,1,17.074-3.456Z" transform="translate(-2 -6)" fill="#e6e9ed"/>
        </g>
      </g>
      <g id="Grupo_1226215" data-name="Grupo 1226215" transform="translate(1 1)">
        <path id="Trazado_1187502" data-name="Trazado 1187502" d="M48.962,47.925A2.962,2.962,0,1,0,46,44.962,2.966,2.966,0,0,0,48.962,47.925Zm0-3.95a.987.987,0,1,1-.987.987A.988.988,0,0,1,48.962,43.975Z" transform="translate(-1.563 -1.513)"/>
        <path id="Trazado_1187503" data-name="Trazado 1187503" d="M58.433,40.28a1.9,1.9,0,0,1,.4-2.077l1.437-1.438-4.191-4.191-1.439,1.438a1.906,1.906,0,0,1-2.114.387,1.882,1.882,0,0,1-1.167-1.746V30.625H49.337a17.494,17.494,0,0,0-.875-4.591L59.889,14.607A7.97,7.97,0,1,0,48.619,3.334L37.2,14.751a17.542,17.542,0,0,0-4.658-.87A7.859,7.859,0,0,0,23.521,10.2,9.856,9.856,0,0,0,5.212,17.055a5.924,5.924,0,0,0,1.713,11.6h7.163a17.905,17.905,0,0,0-.251,2.962,13.558,13.558,0,0,0,1.051,5.453l-8.809,8.81L1.177,58.62A2.628,2.628,0,0,0,1,59.571a2.653,2.653,0,0,0,3.605,2.477l12.745-4.9L23.791,50.7a2.886,2.886,0,0,0,.691,2.634,2.937,2.937,0,0,0,1.442,4.829,6.015,6.015,0,0,0,11.376,0,2.958,2.958,0,0,0,2.212-2.854c0-.074-.017-.143-.022-.215l1.226,1.226,1.439-1.438a1.934,1.934,0,0,1,3.281,1.36v2.029h5.925V56.245a1.935,1.935,0,0,1,3.282-1.36l1.438,1.438,4.191-4.191-1.437-1.438a1.91,1.91,0,0,1-.388-2.114A1.885,1.885,0,0,1,60.2,47.412h2.029V41.487H60.2a1.9,1.9,0,0,1-1.763-1.207Zm-14.8,2.911a29.47,29.47,0,0,0,3.088-3.368,4.879,4.879,0,0,1,1.676-.311,4.985,4.985,0,1,1-4.764,3.679ZM44.822,19.8l4.565-4.566,3.541,3.541-5.274,5.274A17.921,17.921,0,0,0,44.822,19.8ZM45.846,8.9l1.566-1.566,8.479,8.479-1.566,1.566Zm8.408-5.925a6,6,0,0,1,4.239,10.234l-1.207,1.207L48.808,5.937l1.207-1.207a5.959,5.959,0,0,1,4.239-1.756ZM44.45,10.3l3.541,3.541L43.428,18.4a17.9,17.9,0,0,0-4.247-2.835Zm2.962,21.316c0,5.138-2.587,7.662-5.327,10.333a19.312,19.312,0,0,0-4.951,6.513,2.92,2.92,0,0,0-.585-.059H32.6V43.462A2.966,2.966,0,0,0,29.637,40.5H27.662a.987.987,0,1,1,0-1.975h9.875a2.962,2.962,0,0,0,0-5.925h-7.9a.988.988,0,0,1-.987-.987V28.65h4.937a4.937,4.937,0,1,0,0-9.875c-.028,0-.053.008-.081.008a7.775,7.775,0,0,0,.081-1,7.911,7.911,0,0,0-.233-1.872,15.884,15.884,0,0,1,14.058,15.7ZM25.687,51.362a.988.988,0,0,1,.987-.987H36.55a.987.987,0,1,1,0,1.975H26.675A.988.988,0,0,1,25.687,51.362Zm-12.429,0L20.518,44.1a17.925,17.925,0,0,1,3.174,3.908L16.8,54.9ZM2.975,22.725a3.95,3.95,0,0,1,7.9,0H12.85a5.927,5.927,0,0,0-5.672-5.912,7.892,7.892,0,0,1,14.529-5.838,7.906,7.906,0,0,0-3.87,5.95,3.949,3.949,0,0,0-3.012,3.826H16.8a1.975,1.975,0,0,1,3.95,0h1.975a3.944,3.944,0,0,0-2.9-3.79A5.918,5.918,0,1,1,31.4,19.311a4.927,4.927,0,0,0-2.745,4.4h1.975a2.962,2.962,0,1,1,2.962,2.962H6.925A3.954,3.954,0,0,1,2.975,22.725Zm23.7,5.925v2.962a2.966,2.966,0,0,0,2.962,2.962h7.9a.987.987,0,0,1,0,1.975H27.662a2.962,2.962,0,0,0,0,5.925h1.975a.988.988,0,0,1,.987.987V48.4h-3.95a2.92,2.92,0,0,0-.585.059,19.312,19.312,0,0,0-4.951-6.513c-2.739-2.671-5.327-5.2-5.327-10.333a15.919,15.919,0,0,1,.3-2.962ZM19.108,42.721l-7.245,7.245L8.321,46.425l7.535-7.535a22.214,22.214,0,0,0,3.252,3.83ZM7.3,48.2l7.726,7.726L8.486,58.439l-3.7-3.7ZM3.9,60.2a.679.679,0,0,1-.878-.876l.989-2.573,2.46,2.46Zm27.715.045a4.057,4.057,0,0,1-3.48-1.975h6.96a4.057,4.057,0,0,1-3.48,1.975ZM36.55,56.3H26.675a.987.987,0,1,1,0-1.975H36.55a.987.987,0,1,1,0,1.975Zm23.7-10.862H60.2a3.91,3.91,0,0,0-2.756,6.654l.041.041-1.4,1.4-.041-.041a3.91,3.91,0,0,0-6.654,2.756V56.3H47.412v-.054a3.91,3.91,0,0,0-6.655-2.756l-.041.041-1.338-1.338a2.9,2.9,0,0,0,.134-.83,2.934,2.934,0,0,0-.664-1.846,12.735,12.735,0,0,1,2.7-4.209A6.91,6.91,0,1,0,48.4,37.537c-.1,0-.191.01-.286.014A12.956,12.956,0,0,0,49.356,32.6h.031v.054a3.91,3.91,0,0,0,6.654,2.756l.041-.041,1.4,1.4-.041.041A3.91,3.91,0,0,0,60.2,43.462h.054Z" transform="translate(-1 -1)"/>
      </g>
    </g>
  </g>
</svg>
