<svg xmlns="http://www.w3.org/2000/svg" xmlns:xlink="http://www.w3.org/1999/xlink" width="113" height="113" viewBox="0 0 113 113">
  <defs>
    <filter id="Trazado_982547" x="0" y="0" width="113" height="113" filterUnits="userSpaceOnUse">
      <feOffset dy="3" input="SourceAlpha"/>
      <feGaussianBlur stdDeviation="3" result="blur"/>
      <feFlood flood-opacity="0.161"/>
      <feComposite operator="in" in2="blur"/>
      <feComposite in="SourceGraphic"/>
    </filter>
  </defs>
  <g id="Grupo_1226272" data-name="Grupo 1226272" transform="translate(977 -1574.596)">
    <g id="Grupo_1225958" data-name="Grupo 1225958" transform="translate(-968 1580.596)">
      <g id="Grupo_1208038" data-name="Grupo 1208038">
        <g id="Grupo_1202104" data-name="Grupo 1202104">
          <g id="Grupo_1201923" data-name="Grupo 1201923" transform="translate(0 0)">
            <g id="Grupo_1176928" data-name="Grupo 1176928">
              <g id="Grupo_1172322" data-name="Grupo 1172322">
                <g id="Grupo_1164700" data-name="Grupo 1164700">
                  <g id="Grupo_1160931" data-name="Grupo 1160931">
                    <g id="Grupo_1160749" data-name="Grupo 1160749">
                      <g id="Grupo_1158891" data-name="Grupo 1158891">
                        <g id="Grupo_1157406" data-name="Grupo 1157406">
                          <g id="Grupo_1155793" data-name="Grupo 1155793">
                            <g id="Grupo_1154704" data-name="Grupo 1154704">
                              <g id="Grupo_1150790" data-name="Grupo 1150790">
                                <g id="Grupo_1154214" data-name="Grupo 1154214">
                                  <g id="Grupo_1152583" data-name="Grupo 1152583">
                                    <g id="Grupo_1146973" data-name="Grupo 1146973">
                                      <g id="Grupo_1146954" data-name="Grupo 1146954">
                                        <g transform="matrix(1, 0, 0, 1, -9, -6)" filter="url(#Trazado_982547)">
                                          <g id="Trazado_982547-2" data-name="Trazado 982547" transform="translate(9 6)" fill="#f9e3d4">
                                            <path d="M 47.5000114440918 93.49987030029297 C 41.28938293457031 93.49987030029297 35.26534652709961 92.28384399414062 29.5951976776123 89.88558959960938 C 24.11773109436035 87.56881713867188 19.19814491271973 84.25183868408203 14.97310447692871 80.02680206298828 C 10.74805164337158 75.80176544189453 7.43107795715332 70.88218688964844 5.114304542541504 65.40472412109375 C 2.716038227081299 59.73458862304688 1.500011444091797 53.71054840087891 1.500011444091797 47.49993515014648 C 1.500011444091797 41.28932189941406 2.716038227081299 35.26528167724609 5.114304542541504 29.59514808654785 C 7.43107795715332 24.1176815032959 10.74805164337158 19.1981086730957 14.97310447692871 14.97306823730469 C 19.19814491271973 10.74802875518799 24.11773109436035 7.431055068969727 29.5951976776123 5.11428165435791 C 35.26534652709961 2.716028451919556 41.28938293457031 1.500001788139343 47.5000114440918 1.500001788139343 C 53.71063995361328 1.500001788139343 59.73467636108398 2.716028451919556 65.40482330322266 5.11428165435791 C 70.88229370117188 7.431055068969727 75.8018798828125 10.74802875518799 80.02691650390625 14.97306823730469 C 84.25196838378906 19.1981086730957 87.56894683837891 24.1176815032959 89.88571929931641 29.59514808654785 C 92.28398132324219 35.26528167724609 93.50001525878906 41.28932189941406 93.50001525878906 47.49993515014648 C 93.50001525878906 53.71054840087891 92.28398132324219 59.73458862304688 89.88571929931641 65.40472412109375 C 87.56894683837891 70.88218688964844 84.25196838378906 75.80176544189453 80.02691650390625 80.02680206298828 C 75.8018798828125 84.25183868408203 70.88229370117188 87.56881713867188 65.40482330322266 89.88558959960938 C 59.73467636108398 92.28384399414062 53.71063995361328 93.49987030029297 47.5000114440918 93.49987030029297 Z" stroke="none"/>
                                            <path d="M 47.5000114440918 3 C 41.49122619628906 3 35.66378021240234 4.1761474609375 30.17951965332031 6.495796203613281 C 24.880859375 8.7369384765625 20.12153625488281 11.94596862792969 16.03376770019531 16.03373718261719 C 11.94598388671875 20.12149047851562 8.736968994140625 24.88081359863281 6.495811462402344 30.17947387695312 C 4.176162719726562 35.66371917724609 3.000007629394531 41.49116516113281 3.000007629394531 47.49993515014648 C 3.000007629394531 53.50870513916016 4.176162719726562 59.33615112304688 6.495811462402344 64.82039642333984 C 8.736968994140625 70.11905670166016 11.94598388671875 74.87837982177734 16.03376770019531 78.96613311767578 C 20.12153625488281 83.05390167236328 24.880859375 86.26293182373047 30.17951965332031 88.50407409667969 C 35.66378021240234 90.82372283935547 41.49122619628906 91.99987030029297 47.5000114440918 91.99987030029297 C 53.50879669189453 91.99987030029297 59.33624267578125 90.82372283935547 64.82050323486328 88.50407409667969 C 70.11916351318359 86.26293182373047 74.87848663330078 83.05390167236328 78.96625518798828 78.96613311767578 C 83.05403900146484 74.87837982177734 86.2630615234375 70.11905670166016 88.50421142578125 64.82039642333984 C 90.82386016845703 59.33615112304688 92.00001525878906 53.50870513916016 92.00001525878906 47.49993515014648 C 92.00001525878906 41.49116516113281 90.82386016845703 35.66371917724609 88.50421142578125 30.17947387695312 C 86.2630615234375 24.88081359863281 83.05403900146484 20.12149047851562 78.96625518798828 16.03373718261719 C 74.87848663330078 11.94596862792969 70.11916351318359 8.7369384765625 64.82050323486328 6.495796203613281 C 59.33624267578125 4.1761474609375 53.50879669189453 3 47.5000114440918 3 M 47.5000114440918 0 C 73.73353576660156 0 95.00001525878906 21.26644134521484 95.00001525878906 47.49993515014648 C 95.00001525878906 73.73342895507812 73.73353576660156 94.99987030029297 47.5000114440918 94.99987030029297 C 21.26648712158203 94.99987030029297 7.62939453125e-06 73.73342895507812 7.62939453125e-06 47.49993515014648 C 7.62939453125e-06 21.26644134521484 21.26648712158203 0 47.5000114440918 0 Z" stroke="none" fill="#eca675"/>
                                          </g>
                                        </g>
                                      </g>
                                    </g>
                                  </g>
                                </g>
                              </g>
                            </g>
                          </g>
                        </g>
                      </g>
                    </g>
                  </g>
                </g>
              </g>
            </g>
          </g>
        </g>
      </g>
    </g>
    <g id="colegio_3_" data-name="colegio (3)" transform="translate(-952.133 1584.95)">
      <g id="Grupo_1226237" data-name="Grupo 1226237" transform="translate(37.498 32.927)">
        <path id="Trazado_1187526" data-name="Trazado 1187526" d="M313.374,240.981h16.447a.553.553,0,0,0,.552-.551V205.742h-17l-5.041,18.152Z" transform="translate(-308.333 -205.742)" fill="#b3e59f" fill-rule="evenodd"/>
      </g>
      <g id="Grupo_1226238" data-name="Grupo 1226238" transform="translate(2.725 32.927)">
        <path id="Trazado_1187527" data-name="Trazado 1187527" d="M39.412,240.981H22.965a.554.554,0,0,1-.555-.551V205.742h17L44.1,223.894Z" transform="translate(-22.41 -205.742)" fill="#b3e59f" fill-rule="evenodd"/>
      </g>
      <g id="Grupo_1226239" data-name="Grupo 1226239" transform="translate(2.725 35.629)">
        <path id="Trazado_1187528" data-name="Trazado 1187528" d="M22.41,230.31H37.081V260.5h1.776a.556.556,0,0,0,.555-.551V227.959h-17Z" transform="translate(-22.41 -227.959)" fill="#95d6a4" fill-rule="evenodd"/>
      </g>
      <g id="Grupo_1226240" data-name="Grupo 1226240" transform="translate(0.912 31.8)">
        <path id="Trazado_1187529" data-name="Trazado 1187529" d="M26.316,200.3H7.81a.312.312,0,0,1-.31-.314v-3.2a.312.312,0,0,1,.31-.314H26.316Z" transform="translate(-7.5 -196.475)" fill="#6f6571" fill-rule="evenodd"/>
      </g>
      <g id="Grupo_1226241" data-name="Grupo 1226241" transform="translate(17.518 31.8)">
        <path id="Trazado_1187530" data-name="Trazado 1187530" d="M144.045,200.3h2.21v-3.829h-2.21V200.3Z" transform="translate(-144.045 -196.476)" fill="#5d5360" fill-rule="evenodd"/>
      </g>
      <g id="Grupo_1226242" data-name="Grupo 1226242" transform="translate(19.728 24.545)">
        <path id="Trazado_1187531" data-name="Trazado 1187531" d="M162.215,180.444h22.811V136.823H162.215v43.621Z" transform="translate(-162.215 -136.823)" fill="#eceaec" fill-rule="evenodd"/>
      </g>
      <g id="Grupo_1226243" data-name="Grupo 1226243" transform="translate(17.277 22.609)">
        <path id="Trazado_1187532" data-name="Trazado 1187532" d="M144.512,125.537h24.842a.417.417,0,0,0,.417-.42v-3.8a.419.419,0,0,0-.417-.42H142.482a.422.422,0,0,0-.421.42v3.8a.42.42,0,0,0,.421.42Z" transform="translate(-142.061 -120.898)" fill="#6f6571" fill-rule="evenodd"/>
      </g>
      <g id="Grupo_1226244" data-name="Grupo 1226244" transform="translate(31.132 11.37)">
        <path id="Trazado_1187533" data-name="Trazado 1187533" d="M255.986,35.218h8.143a.738.738,0,0,0,.734-.737V29.224a.738.738,0,0,0-.734-.737h-8.143Z" transform="translate(-255.986 -28.487)" fill="#ff8086" fill-rule="evenodd"/>
      </g>
      <g id="Grupo_1226245" data-name="Grupo 1226245" transform="translate(19.728 27.247)">
        <path id="Trazado_1187534" data-name="Trazado 1187534" d="M162.215,161.305H182.9V199.96h2.127V159.041H162.215Z" transform="translate(-162.215 -159.041)" fill="#dad8db" fill-rule="evenodd"/>
      </g>
      <g id="Grupo_1226246" data-name="Grupo 1226246" transform="translate(40.005 22.609)">
        <path id="Trazado_1187535" data-name="Trazado 1187535" d="M331.484,125.537h2.03a.417.417,0,0,0,.417-.42v-3.8a.419.419,0,0,0-.417-.42H328.95a.422.422,0,0,1,.421.42v3.8a.419.419,0,0,1-.414.42Z" transform="translate(-328.95 -120.898)" fill="#5d5360" fill-rule="evenodd"/>
      </g>
      <g id="Grupo_1226247" data-name="Grupo 1226247" transform="translate(42.539 35.629)">
        <path id="Trazado_1187536" data-name="Trazado 1187536" d="M349.785,230.31h14.671V260.5h1.776a.553.553,0,0,0,.552-.551V227.959h-17Z" transform="translate(-349.785 -227.959)" fill="#95d6a4" fill-rule="evenodd"/>
      </g>
      <g id="Grupo_1226248" data-name="Grupo 1226248" transform="translate(11.296 41.605)">
        <path id="Trazado_1187537" data-name="Trazado 1187537" d="M97.1,282.164H92.88V277.1H97.1a.437.437,0,0,1,.434.434v4.2A.437.437,0,0,1,97.1,282.164Z" transform="translate(-92.88 -277.098)" fill="#9fd4fe" fill-rule="evenodd"/>
      </g>
      <g id="Grupo_1226249" data-name="Grupo 1226249" transform="translate(6.645 41.605)">
        <path id="Trazado_1187538" data-name="Trazado 1187538" d="M59.291,282.163H55.078a.438.438,0,0,1-.438-.434v-4.2a.438.438,0,0,1,.438-.434h4.213Z" transform="translate(-54.64 -277.097)" fill="#9fd4fe" fill-rule="evenodd"/>
      </g>
      <g id="Grupo_1226250" data-name="Grupo 1226250" transform="translate(6.645 50.724)">
        <path id="Trazado_1187539" data-name="Trazado 1187539" d="M59.291,357.151H55.078a.438.438,0,0,1-.438-.438v-4.194a.438.438,0,0,1,.438-.438h4.213Z" transform="translate(-54.64 -352.081)" fill="#9fd4fe" fill-rule="evenodd"/>
      </g>
      <g id="Grupo_1226251" data-name="Grupo 1226251" transform="translate(11.296 50.724)">
        <path id="Trazado_1187540" data-name="Trazado 1187540" d="M97.1,357.151H92.88v-5.07H97.1a.438.438,0,0,1,.434.438v4.194A.438.438,0,0,1,97.1,357.151Z" transform="translate(-92.88 -352.081)" fill="#9fd4fe" fill-rule="evenodd"/>
      </g>
      <g id="Grupo_1226252" data-name="Grupo 1226252" transform="translate(46.317 41.605)">
        <path id="Trazado_1187541" data-name="Trazado 1187541" d="M381.29,282.164H385.5V277.1H381.29a.438.438,0,0,0-.438.434v4.2A.438.438,0,0,0,381.29,282.164Z" transform="translate(-380.852 -277.098)" fill="#9fd4fe" fill-rule="evenodd"/>
      </g>
      <g id="Grupo_1226253" data-name="Grupo 1226253" transform="translate(50.968 41.605)">
        <path id="Trazado_1187542" data-name="Trazado 1187542" d="M419.092,282.163h4.216a.437.437,0,0,0,.434-.434v-4.2a.437.437,0,0,0-.434-.434h-4.216Z" transform="translate(-419.092 -277.097)" fill="#9fd4fe" fill-rule="evenodd"/>
      </g>
      <g id="Grupo_1226254" data-name="Grupo 1226254" transform="translate(50.968 50.724)">
        <path id="Trazado_1187543" data-name="Trazado 1187543" d="M419.092,357.151h4.216a.438.438,0,0,0,.434-.438v-4.194a.438.438,0,0,0-.434-.438h-4.216Z" transform="translate(-419.092 -352.081)" fill="#9fd4fe" fill-rule="evenodd"/>
      </g>
      <g id="Grupo_1226255" data-name="Grupo 1226255" transform="translate(46.317 50.724)">
        <path id="Trazado_1187544" data-name="Trazado 1187544" d="M381.29,357.151H385.5v-5.07H381.29a.438.438,0,0,0-.438.438v4.194A.438.438,0,0,0,381.29,357.151Z" transform="translate(-380.852 -352.081)" fill="#9fd4fe" fill-rule="evenodd"/>
      </g>
      <g id="Grupo_1226256" data-name="Grupo 1226256" transform="translate(25.633 51.689)">
        <path id="Trazado_1187545" data-name="Trazado 1187545" d="M210.773,372.449l5.5.851V360.015h-4.851a.649.649,0,0,0-.648.644Z" transform="translate(-210.773 -360.015)" fill="#9fd4fe" fill-rule="evenodd"/>
      </g>
      <g id="Grupo_1226257" data-name="Grupo 1226257" transform="translate(31.132 51.689)">
        <path id="Trazado_1187546" data-name="Trazado 1187546" d="M255.986,373.058l5.5-.608v-11.79a.646.646,0,0,0-.645-.644h-4.854Z" transform="translate(-255.986 -360.015)" fill="#9fd4fe" fill-rule="evenodd"/>
      </g>
      <g id="Grupo_1226258" data-name="Grupo 1226258" transform="translate(24.416 31.362)">
        <path id="Trazado_1187547" data-name="Trazado 1187547" d="M207.482,206.373a6.748,6.748,0,1,0-6.715-6.748A6.732,6.732,0,0,0,207.482,206.373Z" transform="translate(-200.767 -192.877)" fill="#9fd4fe" fill-rule="evenodd"/>
      </g>
      <g id="Grupo_1226259" data-name="Grupo 1226259" transform="translate(42.539 31.8)">
        <path id="Trazado_1187548" data-name="Trazado 1187548" d="M349.785,200.3h18.5a.315.315,0,0,0,.314-.314v-3.2a.315.315,0,0,0-.314-.314h-18.5Z" transform="translate(-349.785 -196.475)" fill="#6f6571" fill-rule="evenodd"/>
      </g>
      <g id="Grupo_1226260" data-name="Grupo 1226260" transform="translate(57.446 31.8)">
        <path id="Trazado_1187549" data-name="Trazado 1187549" d="M474.448,200.3h1.5a.315.315,0,0,0,.314-.314v-3.2a.315.315,0,0,0-.314-.314h-3.6a.314.314,0,0,1,.31.314v3.2a.314.314,0,0,1-.31.314Z" transform="translate(-472.355 -196.475)" fill="#5d5360" fill-rule="evenodd"/>
      </g>
      <g id="Grupo_1226261" data-name="Grupo 1226261" transform="translate(23.913 64.123)">
        <path id="Trazado_1187550" data-name="Trazado 1187550" d="M196.627,466.3h14.438v-3.25a.83.83,0,0,0-.855-.793H197.485a.831.831,0,0,0-.858.793v3.25Z" transform="translate(-196.627 -462.259)" fill="#b3e59f" fill-rule="evenodd"/>
      </g>
      <g id="Grupo_1226262" data-name="Grupo 1226262" transform="translate(6.645 50.724)">
        <path id="Trazado_1187551" data-name="Trazado 1187551" d="M54.64,354.613h4.651V352.08H55.078a.438.438,0,0,0-.438.434Z" transform="translate(-54.64 -352.08)" fill="#72bffc" fill-rule="evenodd"/>
      </g>
      <g id="Grupo_1226263" data-name="Grupo 1226263" transform="translate(11.296 50.724)">
        <path id="Trazado_1187552" data-name="Trazado 1187552" d="M92.88,354.613h4.65v-2.1a.437.437,0,0,0-.434-.434H92.88Z" transform="translate(-92.88 -352.08)" fill="#72bffc" fill-rule="evenodd"/>
      </g>
      <g id="Grupo_1226264" data-name="Grupo 1226264" transform="translate(46.317 41.605)">
        <path id="Trazado_1187553" data-name="Trazado 1187553" d="M380.852,279.63H385.5V277.1H381.29a.438.438,0,0,0-.438.434v2.1Z" transform="translate(-380.852 -277.097)" fill="#72bffc" fill-rule="evenodd"/>
      </g>
      <g id="Grupo_1226265" data-name="Grupo 1226265" transform="translate(50.968 41.605)">
        <path id="Trazado_1187554" data-name="Trazado 1187554" d="M419.091,279.63h4.65v-2.1a.437.437,0,0,0-.434-.434h-4.216v2.533Z" transform="translate(-419.091 -277.097)" fill="#72bffc" fill-rule="evenodd"/>
      </g>
      <g id="Grupo_1226266" data-name="Grupo 1226266" transform="translate(46.317 50.724)">
        <path id="Trazado_1187555" data-name="Trazado 1187555" d="M380.852,354.613H385.5V352.08H381.29a.438.438,0,0,0-.438.434v2.1Z" transform="translate(-380.852 -352.08)" fill="#72bffc" fill-rule="evenodd"/>
      </g>
      <g id="Grupo_1226267" data-name="Grupo 1226267" transform="translate(50.968 50.724)">
        <path id="Trazado_1187556" data-name="Trazado 1187556" d="M419.091,354.613h4.65v-2.1a.437.437,0,0,0-.434-.434h-4.216v2.533Z" transform="translate(-419.091 -352.08)" fill="#72bffc" fill-rule="evenodd"/>
      </g>
      <g id="Grupo_1226268" data-name="Grupo 1226268" transform="translate(26.092 31.362)">
        <path id="Trazado_1187557" data-name="Trazado 1187557" d="M217.577,194.442a6.752,6.752,0,0,1,5.04,11.2,6.74,6.74,0,1,0-8.074-10.48A6.685,6.685,0,0,1,217.577,194.442Z" transform="translate(-214.543 -192.877)" fill="#72bffc" fill-rule="evenodd"/>
      </g>
      <g id="Grupo_1226269" data-name="Grupo 1226269" transform="translate(34.803 64.123)">
        <path id="Trazado_1187558" data-name="Trazado 1187558" d="M287.03,466.3h2.692v-3.25a.83.83,0,0,0-.855-.793h-2.692a.83.83,0,0,1,.855.793Z" transform="translate(-286.175 -462.259)" fill="#95d6a4" fill-rule="evenodd"/>
      </g>
      <g id="Grupo_1226270" data-name="Grupo 1226270" transform="translate(36.406 11.37)">
        <path id="Trazado_1187559" data-name="Trazado 1187559" d="M299.356,35.218h2.868a.738.738,0,0,0,.734-.737V29.224a.738.738,0,0,0-.734-.737h-2.868a.738.738,0,0,1,.738.737V34.48A.738.738,0,0,1,299.356,35.218Z" transform="translate(-299.356 -28.487)" fill="#f76672" fill-rule="evenodd"/>
      </g>
      <g id="Grupo_1226271" data-name="Grupo 1226271" transform="translate(0 9)">
        <path id="Trazado_1187560" data-name="Trazado 1187560" d="M251.431,223.834h-1.122v-2.462a.912.912,0,0,0-1.824,0v3.374a.912.912,0,0,0,.912.912h2.034a.912.912,0,0,0,0-1.824Z" transform="translate(-218.265 -194.743)"/>
        <path id="Trazado_1187561" data-name="Trazado 1187561" d="M200.894,185.377a7.66,7.66,0,1,0,7.628,7.66,7.653,7.653,0,0,0-7.628-7.66Zm0,13.5a5.836,5.836,0,1,1,5.8-5.836,5.826,5.826,0,0,1-5.8,5.836Z" transform="translate(-169.762 -163.927)"/>
        <path id="Trazado_1187562" data-name="Trazado 1187562" d="M48.49,276.487h8.429a1.348,1.348,0,0,0,1.346-1.346v-4.2a1.348,1.348,0,0,0-1.346-1.346H48.49a1.35,1.35,0,0,0-1.35,1.346v4.2A1.35,1.35,0,0,0,48.49,276.487Zm5.125-5.066h2.826v3.242H53.615Zm-4.65,0h2.826v3.242H48.964Z" transform="translate(-41.407 -237.904)"/>
        <path id="Trazado_1187563" data-name="Trazado 1187563" d="M47.14,350.125a1.351,1.351,0,0,0,1.35,1.35h8.429a1.35,1.35,0,0,0,1.346-1.35v-4.194a1.35,1.35,0,0,0-1.346-1.35H48.49a1.351,1.351,0,0,0-1.35,1.35v4.194Zm6.475-3.72h2.826v3.245H53.615Zm-4.65,0h2.826v3.245H48.964Z" transform="translate(-41.407 -303.769)"/>
        <path id="Trazado_1187564" data-name="Trazado 1187564" d="M374.7,276.487h8.429a1.348,1.348,0,0,0,1.346-1.346v-4.2a1.348,1.348,0,0,0-1.346-1.346H374.7a1.35,1.35,0,0,0-1.35,1.346v4.2a1.35,1.35,0,0,0,1.35,1.346Zm5.125-5.066h2.826v3.242h-2.826Zm-4.65,0H378v3.242h-2.826Z" transform="translate(-327.947 -237.904)"/>
        <path id="Trazado_1187565" data-name="Trazado 1187565" d="M374.7,351.475h8.429a1.35,1.35,0,0,0,1.346-1.35v-4.194a1.35,1.35,0,0,0-1.346-1.35H374.7a1.351,1.351,0,0,0-1.35,1.35v4.194a1.352,1.352,0,0,0,1.35,1.35Zm5.125-5.07h2.826v3.245h-2.826Zm-4.65,0H378v3.245h-2.826Z" transform="translate(-327.947 -303.769)"/>
        <path id="Trazado_1187566" data-name="Trazado 1187566" d="M61.041,30.888H43.451V28.159H44.57A1.333,1.333,0,0,0,45.9,26.827v-3.8A1.332,1.332,0,0,0,44.57,21.7H32.044V19.013h7.231a1.65,1.65,0,0,0,1.646-1.65V12.107a1.65,1.65,0,0,0-1.646-1.65H32.044V9.912a.912.912,0,1,0-1.824,0V21.7H17.7a1.334,1.334,0,0,0-1.333,1.333v3.8A1.334,1.334,0,0,0,17.7,28.16h1.118v2.728H1.222A1.225,1.225,0,0,0,0,32.114v3.2a1.225,1.225,0,0,0,1.222,1.226h.591V48.7a.912.912,0,0,0,1.824,0V36.541H18.816V67.254H3.638V52.909a.912.912,0,1,0-1.824,0V67.614A1.467,1.467,0,0,0,3.28,69.078H58.986a1.465,1.465,0,0,0,1.464-1.464V36.541h.591a1.227,1.227,0,0,0,1.226-1.226v-3.2a1.227,1.227,0,0,0-1.226-1.226Zm-29-18.606H39.1v4.907H32.044ZM18.816,34.717H1.824v-2H18.816Zm41.627-2v2H43.451v-2Zm-23,34.542H24.825V65.035H37.439v2.218ZM26.545,63.211V52.6H30.22v10.61Zm5.5,0V52.6h3.674v10.61Zm5.5,0V52.333a1.558,1.558,0,0,0-1.557-1.557h-9.7a1.56,1.56,0,0,0-1.56,1.557v10.88a1.737,1.737,0,0,0-1.72,1.7v2.338H20.64V28.159h8.272a.912.912,0,1,0,0-1.824H18.189V23.521H44.075v2.815h-11.1a.912.912,0,0,0,0,1.824h8.654V67.254H39.263V64.916A1.736,1.736,0,0,0,37.542,63.213Zm21.084,4.04H43.451V36.541H58.626V67.254Z" transform="translate(0 -9)"/>
      </g>
    </g>
  </g>
</svg>
