<svg xmlns="http://www.w3.org/2000/svg" xmlns:xlink="http://www.w3.org/1999/xlink" width="93.934" height="93.934" viewBox="0 0 93.934 93.934">
  <defs>
    <filter id="Trazado_978624" x="0" y="0" width="93.934" height="93.934" filterUnits="userSpaceOnUse">
      <feOffset dy="3" input="SourceAlpha"/>
      <feGaussianBlur stdDeviation="3" result="blur"/>
      <feFlood flood-opacity="0.161"/>
      <feComposite operator="in" in2="blur"/>
      <feComposite in="SourceGraphic"/>
    </filter>
  </defs>
  <g id="Grupo_1226286" data-name="Grupo 1226286" transform="translate(-190 -4141.139)">
    <g id="Grupo_1225964" data-name="Grupo 1225964" transform="translate(0 2277.139)">
      <g id="Grupo_1224945" data-name="Grupo 1224945" transform="translate(0.001 -1279.381)">
        <g id="Grupo_1214679" data-name="Grupo 1214679" transform="translate(-631 2418.347)">
          <g id="Grupo_1212848" data-name="Grupo 1212848" transform="translate(212 -798.5)">
            <g id="Grupo_1210963" data-name="Grupo 1210963" transform="translate(0 -377.186)">
              <g id="Grupo_1208068" data-name="Grupo 1208068" transform="translate(412 470.719)">
                <g id="Grupo_1144123" data-name="Grupo 1144123" transform="translate(206 1436)">
                  <g transform="matrix(1, 0, 0, 1, -9, -6)" filter="url(#Trazado_978624)">
                    <g id="Trazado_978624-2" data-name="Trazado 978624" transform="translate(9 6)" fill="#e7f2f8">
                      <path d="M 37.966796875 74.43359375 C 33.04315185546875 74.43359375 28.26757431030273 73.46962738037109 23.77274131774902 71.56847381591797 C 19.43047523498535 69.73184967041016 15.53040790557861 67.10224914550781 12.18087482452393 63.75271987915039 C 8.831341743469238 60.4031867980957 6.201741218566895 56.50312042236328 4.365118980407715 52.16086196899414 C 2.463963508605957 47.66601943969727 1.499996900558472 42.89044189453125 1.499996900558472 37.966796875 C 1.499996900558472 33.04315185546875 2.463963508605957 28.26757431030273 4.365118980407715 23.77274131774902 C 6.201741218566895 19.43047523498535 8.831341743469238 15.53040790557861 12.18087482452393 12.18087482452393 C 15.53040790557861 8.831341743469238 19.43047523498535 6.201741218566895 23.77274131774902 4.365118980407715 C 28.26757431030273 2.463963508605957 33.04315185546875 1.499996900558472 37.966796875 1.499996900558472 C 42.89044189453125 1.499996900558472 47.66601943969727 2.463963508605957 52.16086196899414 4.365118980407715 C 56.50312042236328 6.201741218566895 60.4031867980957 8.831341743469238 63.75271987915039 12.18087482452393 C 67.10224914550781 15.53040790557861 69.73184967041016 19.43047523498535 71.56847381591797 23.77274131774902 C 73.46962738037109 28.26757431030273 74.43359375 33.04315185546875 74.43359375 37.966796875 C 74.43359375 42.89044189453125 73.46962738037109 47.66601943969727 71.56847381591797 52.16086196899414 C 69.73184967041016 56.50313186645508 67.10224914550781 60.4031867980957 63.75271987915039 63.75271987915039 C 60.4031867980957 67.10224914550781 56.50313186645508 69.73184967041016 52.16086196899414 71.56847381591797 C 47.66601943969727 73.46962738037109 42.89044189453125 74.43359375 37.966796875 74.43359375 Z" stroke="none"/>
                      <path d="M 37.966796875 3 C 33.2449836730957 3 28.66600799560547 3.924095153808594 24.35705947875977 5.746635437011719 C 20.19359588623047 7.507621765136719 16.45379638671875 10.02927398681641 13.24153518676758 13.24153518676758 C 10.02927398681641 16.45379638671875 7.507621765136719 20.19359588623047 5.746635437011719 24.35705947875977 C 3.924095153808594 28.66600799560547 3 33.2449836730957 3 37.966796875 C 3 42.6886100769043 3.924095153808594 47.26758575439453 5.746635437011719 51.57653427124023 C 7.507621765136719 55.73999786376953 10.02927398681641 59.47979736328125 13.24153518676758 62.69205856323242 C 16.45379638671875 65.90431976318359 20.19359588623047 68.42597198486328 24.35705947875977 70.18695831298828 C 28.66600799560547 72.00949859619141 33.2449836730957 72.93359375 37.966796875 72.93359375 C 42.6886100769043 72.93359375 47.26758575439453 72.00949859619141 51.57653427124023 70.18695831298828 C 55.73999786376953 68.42597198486328 59.47979736328125 65.90431976318359 62.69205856323242 62.69205856323242 C 65.90431976318359 59.47979736328125 68.42597198486328 55.73999786376953 70.18695831298828 51.57653427124023 C 72.00949859619141 47.26758575439453 72.93359375 42.6886100769043 72.93359375 37.966796875 C 72.93359375 33.2449836730957 72.00949859619141 28.66600799560547 70.18695831298828 24.35705947875977 C 68.42597198486328 20.19359588623047 65.90431976318359 16.45379638671875 62.69205856323242 13.24153518676758 C 59.47979736328125 10.02927398681641 55.73999786376953 7.507621765136719 51.57653427124023 5.746635437011719 C 47.26758575439453 3.924095153808594 42.6886100769043 3 37.966796875 3 M 37.966796875 0 C 58.93528366088867 0 75.93359375 16.99831008911133 75.93359375 37.966796875 C 75.93359375 58.93528366088867 58.93528366088867 75.93359375 37.966796875 75.93359375 C 16.99831008911133 75.93359375 0 58.93528366088867 0 37.966796875 C 0 16.99831008911133 16.99831008911133 0 37.966796875 0 Z" stroke="none" fill="#248abf"/>
                    </g>
                  </g>
                </g>
              </g>
            </g>
          </g>
        </g>
      </g>
    </g>
    <g id="sociedad" transform="translate(203.411 4148.638)">
      <g id="Grupo_1226284" data-name="Grupo 1226284" transform="translate(9.697 9.697)">
        <g id="Grupo_1226282" data-name="Grupo 1226282" transform="translate(0 27.165)">
          <g id="Grupo_1226277" data-name="Grupo 1226277" transform="translate(19 7.895)">
            <path id="Trazado_1187624" data-name="Trazado 1187624" d="M216.833,431.724c0,2.684-9.721,2.684-9.721,0a4.86,4.86,0,0,1,9.721,0Z" transform="translate(-207.112 -421.077)" fill="#fdcd56" fill-rule="evenodd"/>
            <path id="Trazado_1187625" data-name="Trazado 1187625" d="M233.406,370.9a2.246,2.246,0,1,0,2.246-2.246A2.246,2.246,0,0,0,233.406,370.9Z" transform="translate(-230.792 -368.655)" fill="#efc7a4" fill-rule="evenodd"/>
          </g>
          <g id="Grupo_1226278" data-name="Grupo 1226278" transform="translate(0 7.895)">
            <path id="Trazado_1187626" data-name="Trazado 1187626" d="M25.721,431.724c0,2.684-9.721,2.684-9.721,0a4.86,4.86,0,0,1,9.721,0Z" transform="translate(-16 -421.077)" fill="#f76c82" fill-rule="evenodd"/>
            <path id="Trazado_1187627" data-name="Trazado 1187627" d="M42.295,370.9a2.246,2.246,0,1,0,2.246-2.246A2.246,2.246,0,0,0,42.295,370.9Z" transform="translate(-39.681 -368.655)" fill="#efc7a4" fill-rule="evenodd"/>
          </g>
          <g id="Grupo_1226279" data-name="Grupo 1226279" transform="translate(37.999 7.895)">
            <path id="Trazado_1187628" data-name="Trazado 1187628" d="M407.944,431.724c0,2.684-9.721,2.684-9.721,0a4.86,4.86,0,0,1,9.721,0Z" transform="translate(-398.223 -421.077)" fill="#c6ea94" fill-rule="evenodd"/>
            <path id="Trazado_1187629" data-name="Trazado 1187629" d="M424.518,370.9a2.246,2.246,0,1,0,2.246-2.246A2.246,2.246,0,0,0,424.518,370.9Z" transform="translate(-421.904 -368.655)" fill="#efc7a4" fill-rule="evenodd"/>
          </g>
          <g id="Grupo_1226280" data-name="Grupo 1226280" transform="translate(9.5)">
            <path id="Trazado_1187630" data-name="Trazado 1187630" d="M137.851,291.488a2.246,2.246,0,1,0,2.246-2.246A2.246,2.246,0,0,0,137.851,291.488Z" transform="translate(-135.237 -289.242)" fill="#efc7a4" fill-rule="evenodd"/>
            <path id="Trazado_1187631" data-name="Trazado 1187631" d="M121.277,352.311c0,2.684-9.721,2.684-9.721,0a4.86,4.86,0,0,1,9.721,0Z" transform="translate(-111.556 -341.664)" fill="#b3a4ee" fill-rule="evenodd"/>
          </g>
          <g id="Grupo_1226281" data-name="Grupo 1226281" transform="translate(28.499)">
            <path id="Trazado_1187632" data-name="Trazado 1187632" d="M328.962,291.488a2.246,2.246,0,1,0,2.246-2.246A2.246,2.246,0,0,0,328.962,291.488Z" transform="translate(-326.348 -289.242)" fill="#efc7a4" fill-rule="evenodd"/>
            <path id="Trazado_1187633" data-name="Trazado 1187633" d="M312.388,352.311c0,2.684-9.721,2.684-9.721,0a4.86,4.86,0,0,1,9.721,0Z" transform="translate(-302.667 -341.664)" fill="#66d4f1" fill-rule="evenodd"/>
          </g>
        </g>
        <g id="Grupo_1226283" data-name="Grupo 1226283" transform="translate(0 0)">
          <path id="Trazado_1187634" data-name="Trazado 1187634" d="M16,39.86H63.72a23.86,23.86,0,1,0-47.72,0Z" transform="translate(-16 -16)" fill="#66d4f1" fill-rule="evenodd"/>
        </g>
      </g>
      <g id="Grupo_1226285" data-name="Grupo 1226285" transform="translate(9.001 9.001)">
        <path id="Trazado_1187635" data-name="Trazado 1187635" d="M11.609,43.625a.7.7,0,0,1-.64-.422,24.556,24.556,0,1,1,45.177,0,.7.7,0,0,1-1.281-.548,23.164,23.164,0,1,0-42.616,0,.7.7,0,0,1-.367.914.684.684,0,0,1-.273.057Z" transform="translate(-9.001 -9.001)" fill-rule="evenodd"/>
        <path id="Trazado_1187636" data-name="Trazado 1187636" d="M93.588,92.779a42.566,42.566,0,0,1-17.929-3.571l.6-1.255a41.158,41.158,0,0,0,17.327,3.435,41.161,41.161,0,0,0,17.327-3.435l.6,1.255A42.567,42.567,0,0,1,93.588,92.779Z" transform="translate(-69.032 -80.103)" fill-rule="evenodd"/>
        <path id="Trazado_1187637" data-name="Trazado 1187637" d="M153.5,40.971H152.1A35.3,35.3,0,0,0,148.662,25c-2.146-4.11-4.945-6.374-7.885-6.374s-5.74,2.264-7.885,6.374a35.3,35.3,0,0,0-3.443,15.971h-1.392a36.683,36.683,0,0,1,3.6-16.615c2.4-4.593,5.635-7.123,9.118-7.123s6.721,2.53,9.119,7.123A36.683,36.683,0,0,1,153.5,40.971Z" transform="translate(-116.222 -16.416)" fill-rule="evenodd"/>
        <path id="Trazado_1187638" data-name="Trazado 1187638" d="M16,249h47.72v1.392H16Z" transform="translate(-15.301 -225.14)" fill-rule="evenodd"/>
        <path id="Trazado_1187639" data-name="Trazado 1187639" d="M249,16h1.392V39.86H249Z" transform="translate(-225.139 -15.304)" fill-rule="evenodd"/>
        <path id="Trazado_1187640" data-name="Trazado 1187640" d="M14.557,363.043a1.551,1.551,0,1,0,1.551,1.551A1.553,1.553,0,0,0,14.557,363.043Zm0,5.787a4.169,4.169,0,0,0-4.165,4.165c0,.623,1.71,1.317,4.165,1.317s4.164-.694,4.164-1.317A4.169,4.169,0,0,0,14.557,368.83Zm0,6.873a10.765,10.765,0,0,1-3.582-.545C9.344,374.556,9,373.649,9,372.995a5.564,5.564,0,0,1,4.945-5.523,2.943,2.943,0,1,1,1.223,0,5.564,5.564,0,0,1,4.945,5.523C20.113,374.994,17.12,375.7,14.557,375.7Zm19-12.661a1.551,1.551,0,1,0,1.551,1.551,1.552,1.552,0,0,0-1.551-1.551Zm0,5.787a4.169,4.169,0,0,0-4.165,4.165c0,.623,1.71,1.317,4.165,1.317s4.164-.694,4.164-1.317A4.169,4.169,0,0,0,33.557,368.83Zm0,6.873c-2.563,0-5.556-.71-5.556-2.709a5.564,5.564,0,0,1,4.945-5.523,2.943,2.943,0,1,1,1.223,0,5.564,5.564,0,0,1,4.945,5.523c0,2-2.994,2.709-5.556,2.709Zm19-12.661a1.551,1.551,0,1,0,1.55,1.551A1.552,1.552,0,0,0,52.556,363.043Zm0,5.787a4.169,4.169,0,0,0-4.165,4.165c0,.623,1.711,1.317,4.165,1.317s4.164-.694,4.164-1.317A4.169,4.169,0,0,0,52.556,368.83Zm0,6.873c-2.563,0-5.557-.71-5.557-2.709a5.564,5.564,0,0,1,4.945-5.523,2.943,2.943,0,1,1,1.223,0,5.563,5.563,0,0,1,4.945,5.523c0,2-2.993,2.709-5.556,2.709Z" transform="translate(-9.001 -326.592)" fill-rule="evenodd"/>
        <path id="Trazado_1187641" data-name="Trazado 1187641" d="M133.79,283.635a1.551,1.551,0,1,0,1.55,1.55A1.553,1.553,0,0,0,133.79,283.635Zm0,4.493a2.942,2.942,0,1,1,2.942-2.943A2.946,2.946,0,0,1,133.79,288.128Z" transform="translate(-118.734 -255.079)" fill-rule="evenodd"/>
        <path id="Trazado_1187642" data-name="Trazado 1187642" d="M110.117,341.843a4.169,4.169,0,0,0-4.165,4.164c0,.623,1.71,1.317,4.164,1.317s4.164-.695,4.164-1.317A4.168,4.168,0,0,0,110.117,341.843Zm0,6.873a10.734,10.734,0,0,1-3.581-.547c-1.632-.6-1.974-1.507-1.974-2.162a5.556,5.556,0,1,1,11.112,0C115.673,348.006,112.68,348.716,110.116,348.716Z" transform="translate(-95.061 -307.499)" fill-rule="evenodd"/>
        <path id="Trazado_1187643" data-name="Trazado 1187643" d="M324.9,283.635a1.551,1.551,0,1,0,1.55,1.55A1.553,1.553,0,0,0,324.9,283.635Zm0,4.493a2.942,2.942,0,1,1,2.942-2.943A2.946,2.946,0,0,1,324.9,288.128Z" transform="translate(-290.844 -255.079)" fill-rule="evenodd"/>
        <path id="Trazado_1187644" data-name="Trazado 1187644" d="M301.223,341.843a4.169,4.169,0,0,0-4.165,4.164c0,.623,1.71,1.317,4.165,1.317s4.163-.695,4.163-1.317A4.168,4.168,0,0,0,301.223,341.843Zm0,6.873a10.735,10.735,0,0,1-3.582-.547c-1.632-.6-1.975-1.507-1.975-2.162a5.556,5.556,0,1,1,11.112,0C306.778,348.006,303.786,348.716,301.223,348.716Z" transform="translate(-267.167 -307.499)" fill-rule="evenodd"/>
      </g>
    </g>
  </g>
</svg>
