<svg xmlns="http://www.w3.org/2000/svg" xmlns:xlink="http://www.w3.org/1999/xlink" width="93.934" height="93.934" viewBox="0 0 93.934 93.934">
  <defs>
    <filter id="Trazado_978624" x="0" y="0" width="93.934" height="93.934" filterUnits="userSpaceOnUse">
      <feOffset dy="3" input="SourceAlpha"/>
      <feGaussianBlur stdDeviation="3" result="blur"/>
      <feFlood flood-opacity="0.161"/>
      <feComposite operator="in" in2="blur"/>
      <feComposite in="SourceGraphic"/>
    </filter>
  </defs>
  <g id="Grupo_1226288" data-name="Grupo 1226288" transform="translate(-820 -4141.139)">
    <g id="Grupo_1225963" data-name="Grupo 1225963" transform="translate(0 2277.139)">
      <g id="Grupo_1224946" data-name="Grupo 1224946" transform="translate(0.001 -1280.072)">
        <g id="Grupo_1214678" data-name="Grupo 1214678" transform="translate(629 2419.039)">
          <g id="Grupo_1212847" data-name="Grupo 1212847" transform="translate(-418 -798.5)">
            <g id="Grupo_1210963" data-name="Grupo 1210963" transform="translate(0 -377.186)">
              <g id="Grupo_1208068" data-name="Grupo 1208068" transform="translate(412 470.719)">
                <g id="Grupo_1144123" data-name="Grupo 1144123" transform="translate(206 1436)">
                  <g transform="matrix(1, 0, 0, 1, -9, -6)" filter="url(#Trazado_978624)">
                    <g id="Trazado_978624-2" data-name="Trazado 978624" transform="translate(9 6)" fill="#e7f2f8">
                      <path d="M 37.966796875 74.43359375 C 33.04315185546875 74.43359375 28.26757431030273 73.46962738037109 23.77274131774902 71.56847381591797 C 19.43047523498535 69.73184967041016 15.53040790557861 67.10224914550781 12.18087482452393 63.75271987915039 C 8.831341743469238 60.4031867980957 6.201741218566895 56.50312042236328 4.365118980407715 52.16086196899414 C 2.463963508605957 47.66601943969727 1.499996900558472 42.89044189453125 1.499996900558472 37.966796875 C 1.499996900558472 33.04315185546875 2.463963508605957 28.26757431030273 4.365118980407715 23.77274131774902 C 6.201741218566895 19.43047523498535 8.831341743469238 15.53040790557861 12.18087482452393 12.18087482452393 C 15.53040790557861 8.831341743469238 19.43047523498535 6.201741218566895 23.77274131774902 4.365118980407715 C 28.26757431030273 2.463963508605957 33.04315185546875 1.499996900558472 37.966796875 1.499996900558472 C 42.89044189453125 1.499996900558472 47.66601943969727 2.463963508605957 52.16086196899414 4.365118980407715 C 56.50312042236328 6.201741218566895 60.4031867980957 8.831341743469238 63.75271987915039 12.18087482452393 C 67.10224914550781 15.53040790557861 69.73184967041016 19.43047523498535 71.56847381591797 23.77274131774902 C 73.46962738037109 28.26757431030273 74.43359375 33.04315185546875 74.43359375 37.966796875 C 74.43359375 42.89044189453125 73.46962738037109 47.66601943969727 71.56847381591797 52.16086196899414 C 69.73184967041016 56.50313186645508 67.10224914550781 60.4031867980957 63.75271987915039 63.75271987915039 C 60.4031867980957 67.10224914550781 56.50313186645508 69.73184967041016 52.16086196899414 71.56847381591797 C 47.66601943969727 73.46962738037109 42.89044189453125 74.43359375 37.966796875 74.43359375 Z" stroke="none"/>
                      <path d="M 37.966796875 3 C 33.2449836730957 3 28.66600799560547 3.924095153808594 24.35705947875977 5.746635437011719 C 20.19359588623047 7.507621765136719 16.45379638671875 10.02927398681641 13.24153518676758 13.24153518676758 C 10.02927398681641 16.45379638671875 7.507621765136719 20.19359588623047 5.746635437011719 24.35705947875977 C 3.924095153808594 28.66600799560547 3 33.2449836730957 3 37.966796875 C 3 42.6886100769043 3.924095153808594 47.26758575439453 5.746635437011719 51.57653427124023 C 7.507621765136719 55.73999786376953 10.02927398681641 59.47979736328125 13.24153518676758 62.69205856323242 C 16.45379638671875 65.90431976318359 20.19359588623047 68.42597198486328 24.35705947875977 70.18695831298828 C 28.66600799560547 72.00949859619141 33.2449836730957 72.93359375 37.966796875 72.93359375 C 42.6886100769043 72.93359375 47.26758575439453 72.00949859619141 51.57653427124023 70.18695831298828 C 55.73999786376953 68.42597198486328 59.47979736328125 65.90431976318359 62.69205856323242 62.69205856323242 C 65.90431976318359 59.47979736328125 68.42597198486328 55.73999786376953 70.18695831298828 51.57653427124023 C 72.00949859619141 47.26758575439453 72.93359375 42.6886100769043 72.93359375 37.966796875 C 72.93359375 33.2449836730957 72.00949859619141 28.66600799560547 70.18695831298828 24.35705947875977 C 68.42597198486328 20.19359588623047 65.90431976318359 16.45379638671875 62.69205856323242 13.24153518676758 C 59.47979736328125 10.02927398681641 55.73999786376953 7.507621765136719 51.57653427124023 5.746635437011719 C 47.26758575439453 3.924095153808594 42.6886100769043 3 37.966796875 3 M 37.966796875 0 C 58.93528366088867 0 75.93359375 16.99831008911133 75.93359375 37.966796875 C 75.93359375 58.93528366088867 58.93528366088867 75.93359375 37.966796875 75.93359375 C 16.99831008911133 75.93359375 0 58.93528366088867 0 37.966796875 C 0 16.99831008911133 16.99831008911133 0 37.966796875 0 Z" stroke="none" fill="#248abf"/>
                    </g>
                  </g>
                </g>
              </g>
            </g>
          </g>
        </g>
      </g>
    </g>
    <g id="_03-online_education" data-name="03-online education" transform="translate(843.76 4160.309)">
      <path id="Trazado_1187645" data-name="Trazado 1187645" d="M36.405,49l1.45,4.351H19L20.45,49Z" transform="translate(-5.221 -12.365)" fill="#848484"/>
      <path id="Trazado_1187646" data-name="Trazado 1187646" d="M22.744,51.176H34.112a3.182,3.182,0,0,1,3.018,2.176h.725L36.405,49H20.45L19,53.351h.725A3.182,3.182,0,0,1,22.744,51.176Z" transform="translate(-5.221 -12.365)" fill="#6e6e6e"/>
      <path id="Trazado_1187647" data-name="Trazado 1187647" d="M39.658,57.9H15A2.9,2.9,0,0,1,17.9,55H36.757A2.9,2.9,0,0,1,39.658,57.9Z" transform="translate(-4.122 -14.013)" fill="#9c9c9c"/>
      <path id="Trazado_1187648" data-name="Trazado 1187648" d="M21.5,41H36.73a2.841,2.841,0,0,1-2.9,2.9H24.4A2.841,2.841,0,0,1,21.5,41Z" transform="translate(-5.908 -10.167)" fill="#cfcfcf"/>
      <path id="Trazado_1187649" data-name="Trazado 1187649" d="M33.829,42.45H24.4A2.611,2.611,0,0,1,21.863,41H21.5a2.841,2.841,0,0,0,2.9,2.9h9.428a2.841,2.841,0,0,0,2.9-2.9H36.4A3.094,3.094,0,0,1,33.829,42.45Z" transform="translate(-5.908 -10.167)" fill="#adadad"/>
      <path id="Trazado_1187650" data-name="Trazado 1187650" d="M45.964,41v5.8H1V41H15.867a2.841,2.841,0,0,0,2.9,2.9H28.2A2.841,2.841,0,0,0,31.1,41Z" transform="translate(-0.275 -10.167)" fill="#e4e4e4"/>
      <path id="Trazado_1187651" data-name="Trazado 1187651" d="M40.888,20.23a2.176,2.176,0,0,0,0-4.351H36.536V9.351h-2.9V7.9h-8.7l-1.45,1.45L22.032,7.9h-8.7v1.45h-2.9V26.757h11.6l1.45,1.45,1.45-1.45h11.6V20.23ZM45.964,5V31.108H1V5Z" transform="translate(-0.275 -0.275)" fill="#80dbff"/>
      <path id="Trazado_1187652" data-name="Trazado 1187652" d="M25.6,36.45l1.45,1.45,1.45-1.45h11.6V35H28.5l-1.45,1.45L25.6,35H14v1.45Z" transform="translate(-3.847 -8.518)" fill="#19cffc"/>
      <path id="Trazado_1187653" data-name="Trazado 1187653" d="M54.351,26.9A2.156,2.156,0,0,0,56.394,24a2.149,2.149,0,0,1-2.042,1.45H50V26.9Z" transform="translate(-13.739 -5.495)" fill="#19cffc"/>
      <path id="Trazado_1187654" data-name="Trazado 1187654" d="M55.45,20a2.176,2.176,0,0,1,0,4.351H54V20Z" transform="translate(-14.838 -4.396)" fill="#f0f0f0"/>
      <path id="Trazado_1187655" data-name="Trazado 1187655" d="M55.45,20H54a2.176,2.176,0,0,1,0,4.351h1.45a2.176,2.176,0,0,0,0-4.351Z" transform="translate(-14.838 -4.396)" fill="#d9d9d9"/>
      <path id="Trazado_1187656" data-name="Trazado 1187656" d="M27.054,26.955,28.5,25.5h8.7V21.878h2.9v6.527H28.5l-1.45,1.45-1.45-1.45H14V11h2.9V25.5h8.7Z" transform="translate(-3.847 -1.923)" fill="#ffac5a"/>
      <path id="Trazado_1187657" data-name="Trazado 1187657" d="M14,11h2.9v1.45H14Z" transform="translate(-3.847 -1.923)" fill="#ff873c"/>
      <path id="Trazado_1187658" data-name="Trazado 1187658" d="M18,32.45h8.7l1.45,1.45,1.45-1.45h8.7V31H29.6l-1.45,1.45L26.7,31H18Z" transform="translate(-4.946 -7.419)" fill="#ff873c"/>
      <path id="Trazado_1187659" data-name="Trazado 1187659" d="M46,26h2.9v1.45H46Z" transform="translate(-12.639 -6.045)" fill="#ff873c"/>
      <path id="Trazado_1187660" data-name="Trazado 1187660" d="M46,11h2.9v6.527H46Z" transform="translate(-12.639 -1.923)" fill="#ffac5a"/>
      <path id="Trazado_1187661" data-name="Trazado 1187661" d="M46,18h2.9v1.45H46Z" transform="translate(-12.639 -3.847)" fill="#ff873c"/>
      <path id="Trazado_1187662" data-name="Trazado 1187662" d="M28.153,10.45V26.405l-1.45-1.45H18V9h8.7Z" transform="translate(-4.946 -1.374)" fill="#f0f0f0"/>
      <path id="Trazado_1187663" data-name="Trazado 1187663" d="M42.153,21.329v3.626h-8.7L32,26.405V10.45L33.45,9h8.7v7.978H38.527L34.9,19.153l3.626,2.176Z" transform="translate(-8.793 -1.374)" fill="#e4e4e4"/>
      <path id="Trazado_1187664" data-name="Trazado 1187664" d="M1,5H3.9V31.108H1Z" transform="translate(-0.275 -0.275)" fill="#19cffc"/>
      <path id="Trazado_1187665" data-name="Trazado 1187665" d="M1,41H3.9v5.8H1Z" transform="translate(-0.275 -10.167)" fill="#cfcfcf"/>
      <path id="Trazado_1187666" data-name="Trazado 1187666" d="M59,5h2.9V31.108H59Z" transform="translate(-16.212 -0.275)" fill="#19cffc"/>
      <path id="Trazado_1187667" data-name="Trazado 1187667" d="M59,41h2.9v5.8H59Z" transform="translate(-16.212 -10.167)" fill="#cfcfcf"/>
      <path id="Trazado_1187668" data-name="Trazado 1187668" d="M4,36H5.45v1.45H4Z" transform="translate(-1.099 -8.793)" fill="#cff9ff"/>
      <path id="Trazado_1187669" data-name="Trazado 1187669" d="M4,18H5.45V29.6H4Z" transform="translate(-1.099 -3.847)" fill="#cff9ff"/>
      <path id="Trazado_1187670" data-name="Trazado 1187670" d="M58.626,11.626h-1.45V9.45H55V8h2.9a.725.725,0,0,1,.725.725Z" transform="translate(-15.112 -1.099)" fill="#cff9ff"/>
      <path id="Trazado_1187671" data-name="Trazado 1187671" d="M58,15h1.45v1.45H58Z" transform="translate(-15.937 -3.022)" fill="#cff9ff"/>
      <g id="Grupo_1226287" data-name="Grupo 1226287" transform="translate(15.23 10.527)">
        <path id="Trazado_1187672" data-name="Trazado 1187672" d="M21,13h1.45v1.45H21Z" transform="translate(-21 -13)" fill="#848484"/>
        <path id="Trazado_1187673" data-name="Trazado 1187673" d="M25,13h2.9v1.45H25Z" transform="translate(-22.099 -13)" fill="#848484"/>
        <path id="Trazado_1187674" data-name="Trazado 1187674" d="M21,17h5.8v1.45H21Z" transform="translate(-21 -14.099)" fill="#848484"/>
        <path id="Trazado_1187675" data-name="Trazado 1187675" d="M21,21h5.8v1.45H21Z" transform="translate(-21 -15.198)" fill="#848484"/>
        <path id="Trazado_1187676" data-name="Trazado 1187676" d="M21,25h5.8v1.45H21Z" transform="translate(-21 -16.297)" fill="#848484"/>
      </g>
      <path id="Trazado_1187677" data-name="Trazado 1187677" d="M39.626,24.176V22L36,24.176l3.626,2.176h3.626V24.176Z" transform="translate(-9.892 -4.946)" fill="#cfcfcf"/>
      <path id="Trazado_1187678" data-name="Trazado 1187678" d="M39.626,22.176v2.176L36,22.176,39.626,20Z" transform="translate(-9.892 -4.396)" fill="#ffc9c9"/>
      <path id="Trazado_1187679" data-name="Trazado 1187679" d="M50.428,23v2.176H41V23Z" transform="translate(-11.266 -5.221)" fill="#bf947a"/>
      <path id="Trazado_1187680" data-name="Trazado 1187680" d="M50.428,20v2.176H41V20h9.428Z" transform="translate(-11.266 -4.396)" fill="#a37862"/>
      <path id="Trazado_1187681" data-name="Trazado 1187681" d="M45.689,4H.725A.725.725,0,0,0,0,4.725v31.91a.725.725,0,0,0,.725.725h13.5l-.985,2.955a3.622,3.622,0,0,0-3.085,3.572.725.725,0,0,0,.725.725H35.536a.725.725,0,0,0,.725-.725,3.622,3.622,0,0,0-3.085-3.572l-.985-2.955h13.5a.725.725,0,0,0,.725-.725V4.725A.725.725,0,0,0,45.689,4Zm-.725,1.45V30.108H1.45V5.45ZM30,31.559a2.112,2.112,0,0,1-2.083,1.45H18.493a1.945,1.945,0,0,1-2.063-1.45Zm4.683,11.6H11.728a2.18,2.18,0,0,1,2.052-1.45H32.635a2.18,2.18,0,0,1,2.052,1.45Zm-3.058-2.9H14.785l.967-2.9H30.662Zm-.445-4.351H1.45V31.559H14.94a3.4,3.4,0,0,0,3.554,2.9h9.428a3.509,3.509,0,0,0,3.564-2.9H44.964V35.91Z" transform="translate(0)"/>
      <path id="Trazado_1187682" data-name="Trazado 1187682" d="M13.725,28.306h11.3l1.238,1.238a.725.725,0,0,0,1.025,0l1.238-1.238h11.3a.725.725,0,0,0,.725-.725V22.5h-1.45v4.351H28.23a.725.725,0,0,0-.513.212l-.938.938-.938-.938a.725.725,0,0,0-.513-.212H14.45V10.9H15.9V24.68a.725.725,0,0,0,.725.725h8.4l1.238,1.238a.706.706,0,0,0,1.02-.005l0,0,1.239-1.237h8.4a.725.725,0,0,0,.725-.725V22.5h-1.45v1.45H28.23a.725.725,0,0,0-.513.212l-.213.213v-13.9L28.53,9.45h7.677v5.8h1.45V10.9h1.45v4.351h1.45V10.176a.725.725,0,0,0-.725-.725H37.658V8.725A.725.725,0,0,0,36.933,8h-8.7a.725.725,0,0,0-.513.212l-.938.938-.938-.938A.725.725,0,0,0,25.329,8h-8.7a.725.725,0,0,0-.725.725V9.45H13.725a.725.725,0,0,0-.725.725V27.581A.725.725,0,0,0,13.725,28.306ZM17.351,9.45h7.677l1.025,1.025v13.9l-.212-.212a.725.725,0,0,0-.513-.212H17.351Z" transform="translate(-3.572 -1.099)"/>
      <path id="Trazado_1187683" data-name="Trazado 1187683" d="M50.23,19H39.351a.7.7,0,0,0-.367.114l-.007-.01-3.626,2.176a.725.725,0,0,0,0,1.243L38.978,24.7l.007-.01a.7.7,0,0,0,.367.114H50.23a2.9,2.9,0,1,0,0-5.8Zm-2.176,1.45v.725H40.077V20.45Zm-9.428.556V22.8L37.135,21.9Zm1.45,1.62h7.978v.725H40.077Zm10.153.725H49.5v-2.9h.725a1.45,1.45,0,0,1,0,2.9Z" transform="translate(-9.617 -4.122)"/>
      <path id="Trazado_1187684" data-name="Trazado 1187684" d="M21,13h1.45v1.45H21Z" transform="translate(-5.77 -2.473)"/>
      <path id="Trazado_1187685" data-name="Trazado 1187685" d="M25,13h2.9v1.45H25Z" transform="translate(-6.869 -2.473)"/>
      <path id="Trazado_1187686" data-name="Trazado 1187686" d="M21,17h5.8v1.45H21Z" transform="translate(-5.77 -3.572)"/>
      <path id="Trazado_1187687" data-name="Trazado 1187687" d="M21,21h5.8v1.45H21Z" transform="translate(-5.77 -4.671)"/>
      <path id="Trazado_1187688" data-name="Trazado 1187688" d="M21,25h5.8v1.45H21Z" transform="translate(-5.77 -5.77)"/>
      <path id="Trazado_1187689" data-name="Trazado 1187689" d="M4,36H5.45v1.45H4Z" transform="translate(-1.099 -8.793)"/>
      <path id="Trazado_1187690" data-name="Trazado 1187690" d="M4,18H5.45V29.6H4Z" transform="translate(-1.099 -3.847)"/>
      <path id="Trazado_1187691" data-name="Trazado 1187691" d="M57.176,11.626h1.45v-2.9A.725.725,0,0,0,57.9,8H55V9.45h2.176Z" transform="translate(-15.112 -1.099)"/>
      <path id="Trazado_1187692" data-name="Trazado 1187692" d="M58,15h1.45v1.45H58Z" transform="translate(-15.937 -3.022)"/>
    </g>
  </g>
</svg>
