<svg xmlns="http://www.w3.org/2000/svg" width="59.936" height="59.936" viewBox="0 0 59.936 59.936">
  <g id="ley_4_" data-name="ley (4)" transform="translate(0)">
    <path id="Trazado_1187693" data-name="Trazado 1187693" d="M425.115,374.892l-9.819-.322v-13.5h10.442Z" transform="translate(-414.418 -318.803)" fill="#ffc39c"/>
    <path id="Trazado_1187694" data-name="Trazado 1187694" d="M424.083,361.07v7.5a6.03,6.03,0,0,0,4.853,5.911l1.464.292-.005.115-9.819-.322v-13.5Z" transform="translate(-419.698 -318.803)" fill="#fdaa8e"/>
    <path id="Trazado_1187695" data-name="Trazado 1187695" d="M255,274.713a2.5,2.5,0,0,0,2.087-.982l4.509-5.967a3.172,3.172,0,1,1,5.064,3.821l-4.935,6.5-4.268,5.624c-3.52,4.635-6.652,3.653-10.83,3.225l-1.707-4.023c0-7.621,7.72-8.281,10.079-8.2Z" transform="translate(-236.044 -235.303)" fill="#ffc39c"/>
    <path id="Trazado_1187696" data-name="Trazado 1187696" d="M262.991,274.713a2.5,2.5,0,0,0,2.087-.982l4.509-5.967a3.174,3.174,0,0,1,4.775-.342,3.165,3.165,0,0,0-1.268,1l-4.509,5.967a2.5,2.5,0,0,1-2.087.982c-2.359-.08-10.079.58-10.079,8.2L258,287.3c-1.063-.068-2.179-.237-3.381-.36l-1.706-4.023C252.912,275.293,260.632,274.633,262.991,274.713Z" transform="translate(-244.033 -235.303)" fill="#fdaa8e"/>
    <path id="Trazado_1187697" data-name="Trazado 1187697" d="M20.122,326.645l12.641-6.595a3.506,3.506,0,0,1,3.25,6.214l-12.641,6.595a3.506,3.506,0,0,1-3.25-6.214Z" transform="translate(19.907 -282.234)" fill="#fdaa8e"/>
    <path id="Trazado_1187698" data-name="Trazado 1187698" d="M7.826,232.173a.347.347,0,0,0-.323.4c.316,2.746,3.825,4.91,8.107,4.91s7.792-2.164,8.107-4.91a.347.347,0,0,0-.323-.4H7.826Z" transform="translate(35.337 -204.994)" fill="#ffd54f"/>
    <path id="Trazado_1187699" data-name="Trazado 1187699" d="M62.105,232.173h3.512a.348.348,0,0,0-.323.4c.271,2.359,2.9,4.287,6.351,4.784a12.343,12.343,0,0,1-1.756.126c-4.282,0-7.792-2.164-8.107-4.91A.348.348,0,0,1,62.105,232.173Z" transform="translate(-18.942 -204.994)" fill="#ffc328"/>
    <path id="Trazado_1187700" data-name="Trazado 1187700" d="M317.966,232.173a.347.347,0,0,0-.323.4c.316,2.746,3.825,4.91,8.107,4.91s7.792-2.164,8.107-4.91a.347.347,0,0,0-.323-.4Z" transform="translate(-311.108 -204.994)" fill="#ffd54f"/>
    <path id="Trazado_1187701" data-name="Trazado 1187701" d="M372.246,232.173h3.512a.347.347,0,0,0-.323.4c.271,2.359,2.9,4.287,6.351,4.784a12.343,12.343,0,0,1-1.756.126c-4.282,0-7.792-2.164-8.107-4.91A.347.347,0,0,1,372.246,232.173Z" transform="translate(-365.388 -204.994)" fill="#ffc328"/>
    <path id="Trazado_1187702" data-name="Trazado 1187702" d="M41.014,28.481H83.162a1.987,1.987,0,0,0,1.987-1.987v-.005A1.987,1.987,0,0,0,83.162,24.5H41.014a1.987,1.987,0,0,0-1.987,1.987v.005A1.987,1.987,0,0,0,41.014,28.481Z" transform="translate(-29.782 -21.633)" fill="#ffd54f"/>
    <path id="Trazado_1187703" data-name="Trazado 1187703" d="M151.828,368.054H163.6a4.5,4.5,0,0,0,0-8.991H151.828a4.5,4.5,0,0,0,0,8.991Z" transform="translate(-125.41 -317.03)" fill="#ffd54f"/>
    <path id="Trazado_1187704" data-name="Trazado 1187704" d="M260.813,359.063h3.512a4.5,4.5,0,1,0,0,8.991h-3.512a4.5,4.5,0,0,1,0-8.991Z" transform="translate(-234.395 -317.03)" fill="#ffc328"/>
    <path id="Trazado_1187705" data-name="Trazado 1187705" d="M213.051,58.5h-7.024V93.684h7.024Z" transform="translate(-177.233 -51.652)" fill="#ffc328"/>
    <path id="Trazado_1187706" data-name="Trazado 1187706" d="M239.539,58.5h-3.512V93.684h3.512Z" transform="translate(-207.233 -51.652)" fill="#ffb200"/>
    <ellipse id="Elipse_14621" data-name="Elipse 14621" cx="3.98" cy="3.98" rx="3.98" ry="3.98" transform="translate(28.326 0.878)" fill="#5297ba"/>
    <path id="Trazado_1187707" data-name="Trazado 1187707" d="M225.007,7.5a3.962,3.962,0,0,1,1.756.408,3.98,3.98,0,0,0,0,7.144A3.98,3.98,0,1,1,225.007,7.5Z" transform="translate(-192.701 -6.622)" fill="#43809f"/>
    <path id="Trazado_1187708" data-name="Trazado 1187708" d="M66.5,340.873c0-5.675,4.383-9.069,10.35-8.608S91.461,338.6,91.461,338.6l13.775-10.808a3.5,3.5,0,1,1,4.333,5.508L92.022,347.069a3.512,3.512,0,0,1-2.678.711l-13.333-1.965-6.555-.966C67.54,344.566,66.5,342.807,66.5,340.873Z" transform="translate(-58.759 -288.76)" fill="#ffc39c"/>
    <g id="Grupo_1226289" data-name="Grupo 1226289" transform="translate(7.74 43.505)">
      <path id="Trazado_1187709" data-name="Trazado 1187709" d="M230.983,371.641a8.089,8.089,0,0,0-4.338,7.521c0,1.934,1.041,3.694,2.957,3.976l6.555.966,12.68,1.869-.6.472a3.512,3.512,0,0,1-2.678.711l-13.333-1.965-6.555-.966c-1.916-.282-2.957-2.042-2.957-3.976C222.713,375.257,226.105,372.031,230.983,371.641Z" transform="translate(-222.713 -371.641)" fill="#fdaa8e"/>
    </g>
    <g id="Grupo_1226290" data-name="Grupo 1226290" transform="translate(0)">
      <path id="Trazado_1187710" data-name="Trazado 1187710" d="M.878,41.389h9.54a9.565,9.565,0,0,1,3.847-2.2,14.9,14.9,0,0,1,4.723-.653,1.637,1.637,0,0,0,1.357-.634l4.51-5.966a4.065,4.065,0,0,1,3.062-1.606V7.726H16L22.09,26.3h.337a1.191,1.191,0,0,1,.887.4,1.259,1.259,0,0,1,.308.982c-.373,3.242-4.233,5.687-8.98,5.687s-8.607-2.445-8.98-5.687A1.259,1.259,0,0,1,5.97,26.7a1.191,1.191,0,0,1,.887-.4h.327L13,7.726H11.232a2.868,2.868,0,0,1,0-5.736H28.388a4.852,4.852,0,0,1,7.836,0H44.8a.878.878,0,1,1,0,1.756H37.034a4.824,4.824,0,0,1,0,2.224H53.379a1.112,1.112,0,0,0,0-2.224H48.761a.878.878,0,1,1,0-1.756h4.618a2.868,2.868,0,0,1,0,5.736H52.306L58.4,26.3h.335a1.191,1.191,0,0,1,.887.4,1.258,1.258,0,0,1,.308.982c-.373,3.242-4.233,5.687-8.98,5.687s-8.607-2.445-8.98-5.687a1.259,1.259,0,0,1,.308-.982,1.192,1.192,0,0,1,.887-.4h.327L49.307,7.726H36.7V41.154h1.5a5.367,5.367,0,0,1,3,.912l4.747-3.725a4.393,4.393,0,0,1,4.7-.455l1.626-.849a4.387,4.387,0,0,1,6.213,5.2,4.347,4.347,0,0,1-2.151,2.57l-12.643,6.6a4.527,4.527,0,0,1-.456.2l-3.775,2.962a.878.878,0,1,1-1.084-1.381l11.9-9.338a2.622,2.622,0,0,0,.443-3.684,2.635,2.635,0,0,0-3.692-.443l-5.3,4.159,0,0-8.47,6.646a.878.878,0,0,1-1.035.036,52.6,52.6,0,0,0-10.1-5.228l-.014,0a16.449,16.449,0,0,0-4.074-.954,9.267,9.267,0,0,0-7.124,2.1,7.436,7.436,0,0,0-2.28,5.635.878.878,0,0,1-1.756,0A9.147,9.147,0,0,1,9.7,45.19a10.986,10.986,0,0,1,8.452-2.56,17.137,17.137,0,0,1,3.853.823,5.335,5.335,0,0,1,3.781-2.262l2.124-2.8V32.083a2.309,2.309,0,0,0-1.661.908l-4.51,5.966a3.385,3.385,0,0,1-2.817,1.331c-.623-.022-6.155-.1-8.3,3.668a.877.877,0,0,1-1.555-.811H1.756v5.549a.878.878,0,0,1-1.756,0V42.267a.878.878,0,0,1,.878-.878ZM50.625,45.8l4.888-2.55a2.622,2.622,0,0,0,1.109-3.542A2.633,2.633,0,0,0,53.076,38.6l-.969.506a4.377,4.377,0,0,1-.755,6.131ZM14.642,31.614c3.409,0,6.415-1.55,7.1-3.558H7.538C8.228,30.064,11.234,31.614,14.642,31.614Zm5.6-5.313L14.5,8.8,9.025,26.3ZM11.232,3.746a1.112,1.112,0,0,0,0,2.224H27.578a4.824,4.824,0,0,1,0-2.224Zm21.074-1.99a3.1,3.1,0,1,0,3.1,3.1A3.106,3.106,0,0,0,32.306,1.756ZM50.948,31.614c3.409,0,6.414-1.55,7.1-3.558H43.844C44.533,30.064,47.539,31.614,50.948,31.614Zm5.6-5.313L50.81,8.8l-5.48,17.5ZM34.94,8.937a4.841,4.841,0,0,1-5.268,0V41.154H34.94ZM23.753,44.079a54.259,54.259,0,0,1,8.9,4.681L39.7,43.238a3.614,3.614,0,0,0-1.5-.328H26.419A3.6,3.6,0,0,0,23.753,44.079Z" transform="translate(0 0)"/>
      <path id="Trazado_1187711" data-name="Trazado 1187711" d="M198.161,440.475a.878.878,0,0,1,.878.878v2.477l8.97.294a.894.894,0,0,1,.1.009h0L228,447.064a2.633,2.633,0,0,0,2.008-.533l2.7-2.119a.878.878,0,0,1,1.084,1.381l-2.7,2.119a4.39,4.39,0,0,1-3.348.889L207.9,445.877l-2.418-.079h0l-7.349-.241a.878.878,0,0,1-.849-.877v-3.326A.878.878,0,0,1,198.161,440.475Z" transform="translate(-197.283 -388.912)"/>
    </g>
  </g>
</svg>
