<svg xmlns="http://www.w3.org/2000/svg" xmlns:xlink="http://www.w3.org/1999/xlink" width="103" height="103" viewBox="0 0 103 103">
  <defs>
    <filter id="Trazado_978624" x="0" y="0" width="103" height="103" filterUnits="userSpaceOnUse">
      <feOffset dy="3" input="SourceAlpha"/>
      <feGaussianBlur stdDeviation="3" result="blur"/>
      <feFlood flood-opacity="0.161"/>
      <feComposite operator="in" in2="blur"/>
      <feComposite in="SourceGraphic"/>
    </filter>
  </defs>
  <g id="Grupo_1226327" data-name="Grupo 1226327" transform="translate(-171 -1175)">
    <g id="Grupo_1226008" data-name="Grupo 1226008" transform="translate(0 379)">
      <g id="Grupo_1222970" data-name="Grupo 1222970" transform="translate(0 -37)">
        <g id="Grupo_1222589" data-name="Grupo 1222589">
          <g id="Grupo_1203109" data-name="Grupo 1203109" transform="translate(180 839)">
            <g id="Grupo_1176881" data-name="Grupo 1176881">
              <g id="Grupo_1175148" data-name="Grupo 1175148">
                <g id="Grupo_1173798" data-name="Grupo 1173798">
                  <g id="Grupo_1171925" data-name="Grupo 1171925">
                    <g id="Grupo_1164524" data-name="Grupo 1164524">
                      <g id="Grupo_1144123" data-name="Grupo 1144123">
                        <g transform="matrix(1, 0, 0, 1, -9, -6)" filter="url(#Trazado_978624)">
                          <g id="Trazado_978624-2" data-name="Trazado 978624" transform="translate(9 6)" fill="#e7f2f8">
                            <path d="M 42.5 83.5 C 36.96437835693359 83.5 31.59512901306152 82.41617584228516 26.54141235351562 80.27863311767578 C 21.65934181213379 78.21369171142578 17.27447128295898 75.25723266601562 13.50862312316895 71.49137878417969 C 9.742764472961426 67.72553253173828 6.786305904388428 63.34066009521484 4.721364498138428 58.45858764648438 C 2.583823442459106 53.40486907958984 1.5 48.03562164306641 1.5 42.5 C 1.5 36.96437835693359 2.583823442459106 31.59512901306152 4.721364498138428 26.54141235351562 C 6.786305904388428 21.65934181213379 9.742764472961426 17.27447128295898 13.50862312316895 13.50862312316895 C 17.27447128295898 9.742764472961426 21.65934181213379 6.786305904388428 26.54141235351562 4.721364498138428 C 31.59512901306152 2.583823442459106 36.96437835693359 1.5 42.5 1.5 C 48.03562164306641 1.5 53.40486907958984 2.583823442459106 58.45858764648438 4.721364498138428 C 63.34066009521484 6.786305904388428 67.72553253173828 9.742764472961426 71.49137878417969 13.50862312316895 C 75.25723266601562 17.27447128295898 78.21369171142578 21.65934181213379 80.27863311767578 26.54141235351562 C 82.41617584228516 31.59512901306152 83.5 36.96437835693359 83.5 42.5 C 83.5 48.03562164306641 82.41617584228516 53.40486907958984 80.27863311767578 58.45858764648438 C 78.21369171142578 63.34066009521484 75.25723266601562 67.72553253173828 71.49137878417969 71.49137878417969 C 67.72553253173828 75.25723266601562 63.34066009521484 78.21369171142578 58.45858764648438 80.27863311767578 C 53.40486907958984 82.41617584228516 48.03562164306641 83.5 42.5 83.5 Z" stroke="none"/>
                            <path d="M 42.5 3 C 37.16621398925781 3 31.99356079101562 4.043960571289062 27.125732421875 6.102882385253906 C 22.42246627807617 8.092185974121094 18.19785308837891 10.94070434570312 14.56928253173828 14.56928253173828 C 10.94070434570312 18.19785308837891 8.092185974121094 22.42246627807617 6.102882385253906 27.125732421875 C 4.043960571289062 31.99356079101562 3 37.16621398925781 3 42.5 C 3 47.83378601074219 4.043960571289062 53.00643920898438 6.102882385253906 57.87425231933594 C 8.092185974121094 62.57753372192383 10.94070434570312 66.80213165283203 14.56928253173828 70.43071746826172 C 18.19786834716797 74.05929565429688 22.42246627807617 76.90781402587891 27.125732421875 78.89711761474609 C 31.99356079101562 80.95603942871094 37.16621398925781 82 42.5 82 C 47.83378601074219 82 53.00642395019531 80.95603942871094 57.87425231933594 78.89711761474609 C 62.57753372192383 76.90781402587891 66.80213165283203 74.05929565429688 70.43071746826172 70.43071746826172 C 74.05929565429688 66.80213165283203 76.90781402587891 62.57753372192383 78.89711761474609 57.87425231933594 C 80.95603942871094 53.00642395019531 82 47.83378601074219 82 42.5 C 82 37.16621398925781 80.95603942871094 31.99356079101562 78.89711761474609 27.125732421875 C 76.90781402587891 22.42246627807617 74.05929565429688 18.19786834716797 70.43071746826172 14.56928253173828 C 66.80213165283203 10.94070434570312 62.57753372192383 8.092185974121094 57.87425231933594 6.102882385253906 C 53.00643920898438 4.043960571289062 47.83378601074219 3 42.5 3 M 42.5 0 C 65.97209167480469 0 85 19.02789306640625 85 42.5 C 85 65.97209167480469 65.97209167480469 85 42.5 85 C 19.02789306640625 85 0 65.97209167480469 0 42.5 C 0 19.02789306640625 19.02789306640625 0 42.5 0 Z" stroke="none" fill="#248abf"/>
                          </g>
                        </g>
                      </g>
                    </g>
                  </g>
                </g>
              </g>
            </g>
          </g>
        </g>
      </g>
    </g>
    <g id="international-literacy-day" transform="translate(195.437 1193.66)">
      <g id="Grupo_1226325" data-name="Grupo 1226325" transform="translate(1.057 1.06)">
        <path id="Trazado_1187731" data-name="Trazado 1187731" d="M36,384.249c7.682-2.582,16.331-5.195,23.258.15,6.927-5.345,15.576-2.732,23.258-.15v-4.982c-7.329-1.964-16.871-6.387-23.258,0-6.387-6.387-15.929-1.964-23.258,0Z" transform="translate(-33.253 -337.253)" fill="#e8eaf0" fill-rule="evenodd"/>
        <path id="Trazado_1187732" data-name="Trazado 1187732" d="M36.009,429.6c-6.927-5.345-15.576-2.732-23.258-.15-.932.313-1.85.626-2.749.924l1.094,4.094c7.079-1.9,17.358-6.6,23.413-.547h3c6.055-6.055,16.333-1.35,23.413.547l1.094-4.094c-.9-.3-1.817-.611-2.749-.924C51.585,426.867,42.936,424.254,36.009,429.6Z" transform="translate(-10.002 -382.453)" fill="#b278d3" fill-rule="evenodd"/>
        <path id="Trazado_1187733" data-name="Trazado 1187733" d="M274.233,28.8a17.444,17.444,0,0,0-16.6-18.622V10.2c.732,1.679-2.444,4.226.756,6.111,1.646.97,1.576,2.01-.033,2.441a1.632,1.632,0,0,0,.028,3.238c4.014,0,2.276,3.766,3.855,5.881.857,1.148,2.932,1.531,3.184-.089.413-2.654,1.541-1.6,2.764-2.106,1.781-.742,1.206,2.21,2.914,3.2a3.352,3.352,0,0,0,2.977-.035Z" transform="translate(-230.824 -10.157)" fill="#cbe558" fill-rule="evenodd"/>
        <path id="Trazado_1187734" data-name="Trazado 1187734" d="M110.372,21.837a1.632,1.632,0,0,1-.028-3.238c1.61-.431,1.68-1.471.033-2.441-3.2-1.885-.024-4.432-.756-6.111V10.02a17.444,17.444,0,0,0-18.2,16.18H91.7c1.971-.5,2.586.69,3.63-.778.557-.784,1.47-1.841,2.472-1.576a1.474,1.474,0,0,1,.951,1.918c-.253,1.243-.237,2.621.99,2.856,1.337.256,1.958-1.4,3.115-2.56a1.773,1.773,0,0,1,3.072,1.481c-.083,1.354-.791,2.166-2.162,3.347a8.076,8.076,0,0,0-2.586,3.107c-.818,2.085-2.762,5.079-4.167,5.891l-.208.208a17.444,17.444,0,0,0,29.418-11.449l-.157.042a3.352,3.352,0,0,1-2.977.035c-1.708-.986-1.133-3.938-2.914-3.2-1.223.51-2.352-.548-2.764,2.106-.252,1.62-2.327,1.237-3.184.089-1.579-2.115.159-5.881-3.855-5.881Z" transform="translate(-82.814 -10.002)" fill="#66e0f7" fill-rule="evenodd"/>
        <path id="Trazado_1187735" data-name="Trazado 1187735" d="M105.552,144.294a1.773,1.773,0,0,0-3.072-1.481c-1.157,1.157-1.779,2.815-3.115,2.56-1.227-.235-1.243-1.612-.99-2.856a1.474,1.474,0,0,0-.951-1.918c-1-.265-1.915.792-2.472,1.576-1.044,1.469-1.658.277-3.63.778h-.277a17.4,17.4,0,0,0,5.065,13.58q.158.158.32.312l.208-.208c1.4-.811,3.349-3.806,4.167-5.891a8.076,8.076,0,0,1,2.586-3.107C104.761,146.46,105.469,145.648,105.552,144.294Z" transform="translate(-82.438 -126.755)" fill="#cbe558" fill-rule="evenodd"/>
      </g>
      <g id="Grupo_1226326" data-name="Grupo 1226326" transform="translate(-0.001 0.003)">
        <path id="Trazado_1187736" data-name="Trazado 1187736" d="M53.4,375.227c-.589-.2-1.185-.4-1.789-.6l-.236-.079v-4.222A1.057,1.057,0,0,0,50.6,369.3c-1.107-.3-2.257-.648-3.474-1.019a45.15,45.15,0,0,0-10.607-2.322,12.919,12.919,0,0,0-9.45,2.923,12.917,12.917,0,0,0-9.45-2.923,45.158,45.158,0,0,0-10.607,2.322c-1.218.372-2.368.723-3.474,1.019a1.057,1.057,0,0,0-.784,1.021v4.222l-.24.081c-.6.2-1.2.4-1.784.6A1.057,1.057,0,0,0,.035,376.5L1.129,380.6a1.057,1.057,0,0,0,1.295.748c1.162-.311,2.387-.69,3.684-1.092a47.79,47.79,0,0,1,10.232-2.363c3.672-.259,6.445.6,8.476,2.634a1.057,1.057,0,0,0,.748.31h3a1.058,1.058,0,0,0,.748-.31c2.031-2.031,4.8-2.893,8.476-2.634a47.784,47.784,0,0,1,10.232,2.363c1.3.4,2.522.78,3.684,1.092A1.057,1.057,0,0,0,53,380.6l1.094-4.094a1.057,1.057,0,0,0-.688-1.276Zm-6.9-4.92c.955.291,1.868.57,2.761.823v2.711a48.216,48.216,0,0,0-10.254-2.44,17.556,17.556,0,0,0-10.89,2.069v-2.694h0C33.07,366.206,40.2,368.382,46.5,370.307Zm4.728,8.712c-.824-.239-1.688-.506-2.587-.784-6.685-2.068-14.973-4.632-20.506.486H25.989c-5.533-5.118-13.821-2.554-20.506-.486-.9.278-1.763.546-2.587.784l-.561-2.1.85-.286c2.139-.722,4.35-1.469,6.578-2.063a1.057,1.057,0,1,0-.545-2.043c-1.474.393-2.927.847-4.354,1.315V371.13c.893-.253,1.806-.532,2.761-.823,6.3-1.925,13.434-4.1,18.383.468h0v2.692a15.992,15.992,0,0,0-7.025-2.126,1.057,1.057,0,0,0-.159,2.108,13.736,13.736,0,0,1,7.6,2.844,1.058,1.058,0,0,0,1.292,0c6.768-5.222,15.513-2.269,23.229.336l.854.288Z" transform="translate(0.001 -327.254)"/>
        <path id="Trazado_1187737" data-name="Trazado 1187737" d="M124.891,418.733h0a1.057,1.057,0,1,0,1.058,1.057A1.057,1.057,0,0,0,124.89,418.733Z" transform="translate(-110.741 -374.465)"/>
        <path id="Trazado_1187738" data-name="Trazado 1187738" d="M99.5,37A18.5,18.5,0,0,0,112.585,5.422,18.5,18.5,0,0,0,86.421,31.586,18.38,18.38,0,0,0,99.5,37Zm16.386-18.5q0,.211-.005.422a1.836,1.836,0,0,1-1.584-.064,2.7,2.7,0,0,1-.873-1.446,2.863,2.863,0,0,0-1.354-1.864,2.013,2.013,0,0,0-1.623.054,2.023,2.023,0,0,1-.677.1c-1.113.044-2.334.3-2.726,2.823-.025.16-.057.168-.1.178a1.418,1.418,0,0,1-1.194-.559,4.872,4.872,0,0,1-.64-2.2c-.23-1.636-.578-4.109-4.062-4.109-.143,0-.345-.222-.382-.5-.016-.118-.063-.477.627-.662,1.587-.425,1.938-1.326,2.006-1.825.089-.651-.136-1.621-1.709-2.548-1.2-.709-1.086-1.249-.567-2.706a8.1,8.1,0,0,0,.4-1.372A16.391,16.391,0,0,1,115.889,18.5ZM87.916,6.917a16.275,16.275,0,0,1,11.372-4.8c-.065.246-.164.524-.252.772-.48,1.348-1.284,3.605,1.486,5.237a2.989,2.989,0,0,1,.55.4,2.276,2.276,0,0,1-.321.109,2.708,2.708,0,0,0-2.176,2.98,2.594,2.594,0,0,0,2.478,2.336c1.576,0,1.718.512,1.968,2.29a6.571,6.571,0,0,0,1.04,3.166,3.485,3.485,0,0,0,3.4,1.346,2.233,2.233,0,0,0,1.677-1.906,2.19,2.19,0,0,1,.3-1,2.363,2.363,0,0,1,.42-.038,3.947,3.947,0,0,0,1.359-.239c.075.159.162.4.226.57a4.425,4.425,0,0,0,1.8,2.547,3.633,3.633,0,0,0,1.844.5,4.056,4.056,0,0,0,.592-.044A16.392,16.392,0,0,1,89.115,31.179a18.047,18.047,0,0,0,3.731-5.741A6.521,6.521,0,0,1,94.9,22.951l.241-.2c1.315-1.133,2.413-2.222,2.528-4.083a2.917,2.917,0,0,0-1.64-2.95,2.884,2.884,0,0,0-3.235.656,11.777,11.777,0,0,0-1.013,1.2c-.6.791-.9,1.114-1.156,1.064-.115-.022-.136-.054-.15-.075a2.465,2.465,0,0,1,0-1.532,2.527,2.527,0,0,0-1.717-3.15c-1.225-.324-2.437.344-3.6,1.986-.2.277-.293.315-.294.315a2.193,2.193,0,0,1-.476-.036,6.633,6.633,0,0,0-1.083-.077,16.263,16.263,0,0,1,4.621-9.152ZM83.119,18.2a3.97,3.97,0,0,1,.978.045,2.5,2.5,0,0,0,2.774-1.15c.718-1.011,1.181-1.208,1.34-1.167.254.067.241.41.185.685a4.059,4.059,0,0,0,.318,3.131,2.285,2.285,0,0,0,1.509.974c1.582.3,2.5-.895,3.233-1.857a10,10,0,0,1,.829-.994.776.776,0,0,1,.871-.223.845.845,0,0,1,.4.892c-.054.881-.441,1.442-1.8,2.61l-.224.19a8.408,8.408,0,0,0-2.656,3.332,15.508,15.508,0,0,1-3.311,5.066A16.271,16.271,0,0,1,83.116,18.5q0-.153,0-.306Z" transform="translate(-72.439 -0.003)"/>
      </g>
    </g>
  </g>
</svg>
