<svg xmlns="http://www.w3.org/2000/svg" xmlns:xlink="http://www.w3.org/1999/xlink" width="733.963" height="287" viewBox="0 0 733.963 287">
  <defs>
    <filter id="Trazado_1188849" x="39.495" y="0" width="278" height="84" filterUnits="userSpaceOnUse">
      <feOffset dy="3" input="SourceAlpha"/>
      <feGaussianBlur stdDeviation="3" result="blur"/>
      <feFlood flood-opacity="0.161"/>
      <feComposite operator="in" in2="blur"/>
      <feComposite in="SourceGraphic"/>
    </filter>
    <filter id="Trazado_1188852" x="239.495" y="217" width="251" height="70" filterUnits="userSpaceOnUse">
      <feOffset dy="3" input="SourceAlpha"/>
      <feGaussianBlur stdDeviation="3" result="blur-2"/>
      <feFlood flood-opacity="0.161"/>
      <feComposite operator="in" in2="blur-2"/>
      <feComposite in="SourceGraphic"/>
    </filter>
    <filter id="Trazado_1188855" x="428.495" y="16" width="254" height="68" filterUnits="userSpaceOnUse">
      <feOffset dy="3" input="SourceAlpha"/>
      <feGaussianBlur stdDeviation="3" result="blur-3"/>
      <feFlood flood-opacity="0.161"/>
      <feComposite operator="in" in2="blur-3"/>
      <feComposite in="SourceGraphic"/>
    </filter>
  </defs>
  <g id="Grupo_1226903" data-name="Grupo 1226903" transform="translate(-433 -1857)">
    <path id="Trazado_1186973" data-name="Trazado 1186973" d="M0,0H733.963V13H0Z" transform="translate(433 1998)" fill="#248abf"/>
    <path id="Trazado_1001064" data-name="Trazado 1001064" d="M-118.476,3617.395v76.339" transform="translate(729.471 -1688)" fill="none" stroke="#eca675" stroke-linecap="round" stroke-width="5" stroke-dasharray="9"/>
    <g id="Trazado_1188845" data-name="Trazado 1188845" transform="translate(606.495 1999)" fill="#fff">
      <path d="M 5 9 C 2.794389963150024 9 1 7.205609798431396 1 5 C 1 2.794389963150024 2.794389963150024 1 5 1 C 7.205609798431396 1 9 2.794389963150024 9 5 C 9 7.205609798431396 7.205609798431396 9 5 9 Z" stroke="none"/>
      <path d="M 5 2 C 3.345789909362793 2 2 3.345789909362793 2 5 C 2 6.654210090637207 3.345789909362793 8 5 8 C 6.654210090637207 8 8 6.654210090637207 8 5 C 8 3.345789909362793 6.654210090637207 2 5 2 M 5 0 C 7.761420249938965 0 10 2.238580226898193 10 5 C 10 7.761420249938965 7.761420249938965 10 5 10 C 2.238580226898193 10 0 7.761420249938965 0 5 C 0 2.238580226898193 2.238580226898193 0 5 0 Z" stroke="none" fill="#eca675"/>
    </g>
    <path id="Trazado_1188846" data-name="Trazado 1188846" d="M7.313-12.885V0H4.544V-9.756A3.315,3.315,0,0,1,4-9.374a5.58,5.58,0,0,1-.664.325A5.925,5.925,0,0,1,2.61-8.8a5.328,5.328,0,0,1-.747.145V-11A11.549,11.549,0,0,0,3.9-11.8a11.6,11.6,0,0,0,1.731-1.081Zm12.6,5.977a11.18,11.18,0,0,1-.369,3A6.438,6.438,0,0,1,18.463-1.67a4.755,4.755,0,0,1-1.727,1.4A5.291,5.291,0,0,1,14.425.22a6.568,6.568,0,0,1-2.663-.492V-2.558a4.267,4.267,0,0,0,2.391.65,2.752,2.752,0,0,0,2.241-.976A4.352,4.352,0,0,0,17.211-5.7l-.053-.018a2.854,2.854,0,0,1-2.54,1.239,3.487,3.487,0,0,1-1.428-.29,3.431,3.431,0,0,1-1.134-.8A3.675,3.675,0,0,1,11.309-6.8a4.407,4.407,0,0,1-.268-1.564,4.857,4.857,0,0,1,.325-1.811,4.145,4.145,0,0,1,.91-1.406,4.014,4.014,0,0,1,1.4-.91,4.917,4.917,0,0,1,1.811-.321,4.145,4.145,0,0,1,1.846.4,3.878,3.878,0,0,1,1.393,1.156A5.4,5.4,0,0,1,19.606-9.4,9.4,9.4,0,0,1,19.909-6.908Zm-2.8-1.477a3.266,3.266,0,0,0-.123-.91,2.394,2.394,0,0,0-.343-.734,1.669,1.669,0,0,0-.536-.488,1.379,1.379,0,0,0-.694-.18,1.413,1.413,0,0,0-.664.158,1.618,1.618,0,0,0-.523.435,2.061,2.061,0,0,0-.343.664,2.739,2.739,0,0,0-.123.835,2.853,2.853,0,0,0,.123.875,1.867,1.867,0,0,0,.347.646,1.456,1.456,0,0,0,.541.4,1.76,1.76,0,0,0,.7.136,1.51,1.51,0,0,0,.668-.145,1.609,1.609,0,0,0,.514-.391,1.77,1.77,0,0,0,.334-.58A2.138,2.138,0,0,0,17.105-8.385ZM30.264-6.908a11.18,11.18,0,0,1-.369,3A6.438,6.438,0,0,1,28.819-1.67a4.755,4.755,0,0,1-1.727,1.4A5.291,5.291,0,0,1,24.78.22a6.568,6.568,0,0,1-2.663-.492V-2.558a4.267,4.267,0,0,0,2.391.65,2.752,2.752,0,0,0,2.241-.976A4.352,4.352,0,0,0,27.566-5.7l-.053-.018a2.854,2.854,0,0,1-2.54,1.239,3.487,3.487,0,0,1-1.428-.29,3.431,3.431,0,0,1-1.134-.8A3.675,3.675,0,0,1,21.664-6.8,4.407,4.407,0,0,1,21.4-8.367a4.857,4.857,0,0,1,.325-1.811,4.145,4.145,0,0,1,.91-1.406,4.014,4.014,0,0,1,1.4-.91,4.917,4.917,0,0,1,1.811-.321,4.145,4.145,0,0,1,1.846.4,3.878,3.878,0,0,1,1.393,1.156A5.4,5.4,0,0,1,29.961-9.4,9.4,9.4,0,0,1,30.264-6.908Zm-2.8-1.477a3.266,3.266,0,0,0-.123-.91,2.394,2.394,0,0,0-.343-.734,1.669,1.669,0,0,0-.536-.488,1.379,1.379,0,0,0-.694-.18,1.413,1.413,0,0,0-.664.158,1.618,1.618,0,0,0-.523.435,2.061,2.061,0,0,0-.343.664,2.74,2.74,0,0,0-.123.835,2.853,2.853,0,0,0,.123.875,1.867,1.867,0,0,0,.347.646,1.456,1.456,0,0,0,.541.4,1.76,1.76,0,0,0,.7.136,1.51,1.51,0,0,0,.668-.145,1.609,1.609,0,0,0,.514-.391,1.77,1.77,0,0,0,.334-.58A2.138,2.138,0,0,0,27.461-8.385ZM39.433-12.6v7.945h1.512v2.074H39.433V0H36.9V-2.584H31.409V-4.755q.729-.817,1.512-1.789t1.512-2q.729-1.028,1.358-2.07A20.749,20.749,0,0,0,36.858-12.6ZM33.9-4.658H36.9v-4.4q-.308.571-.668,1.156t-.756,1.151q-.4.567-.8,1.1T33.9-4.658Z" transform="translate(590.495 2040)" fill="#212429"/>
    <path id="Trazado_1188847" data-name="Trazado 1188847" d="M3.771-2.3H9.114V0H.729V-.949a4.418,4.418,0,0,1,.325-1.736,5.76,5.76,0,0,1,.817-1.38A7.09,7.09,0,0,1,2.949-5.146q.584-.47,1.112-.848.554-.4.971-.756a5.534,5.534,0,0,0,.7-.716,2.723,2.723,0,0,0,.426-.721A2.143,2.143,0,0,0,6.3-8.965a1.563,1.563,0,0,0-.457-1.222,2.032,2.032,0,0,0-1.4-.413A4.694,4.694,0,0,0,1.336-9.308v-2.443a6.679,6.679,0,0,1,3.709-1.063,5.478,5.478,0,0,1,1.718.25,3.635,3.635,0,0,1,1.288.716,3.055,3.055,0,0,1,.8,1.129,3.811,3.811,0,0,1,.277,1.481A4.176,4.176,0,0,1,8.864-7.69a4.753,4.753,0,0,1-.712,1.23A6.458,6.458,0,0,1,7.128-5.445q-.58.461-1.2.892-.422.3-.813.593a7.707,7.707,0,0,0-.69.58,3.149,3.149,0,0,0-.475.558A.963.963,0,0,0,3.771-2.3ZM15.462.22q-4.5,0-4.5-6.319a8.6,8.6,0,0,1,1.217-5,4.056,4.056,0,0,1,3.529-1.718q4.395,0,4.395,6.425a8.466,8.466,0,0,1-1.2,4.9A3.952,3.952,0,0,1,15.462.22ZM15.585-10.7q-1.8,0-1.8,4.526,0,4.263,1.767,4.263,1.723,0,1.723-4.395T15.585-10.7Zm12.438-2.188V0H25.255V-9.756a3.315,3.315,0,0,1-.541.382,5.58,5.58,0,0,1-.664.325,5.925,5.925,0,0,1-.729.246,5.328,5.328,0,0,1-.747.145V-11a11.549,11.549,0,0,0,2.039-.809,11.6,11.6,0,0,0,1.731-1.081ZM32.314-.325V-2.7a5.181,5.181,0,0,0,2.751.791,2.584,2.584,0,0,0,1.718-.523A1.76,1.76,0,0,0,37.4-3.85q0-1.872-2.646-1.872a19.59,19.59,0,0,0-2.25.149l.475-7.031h6.671v2.268H35.1l-.176,2.522q.677-.053,1.169-.053a4.3,4.3,0,0,1,3.041,1.02,3.56,3.56,0,0,1,1.1,2.742,4.048,4.048,0,0,1-1.31,3.116A5.032,5.032,0,0,1,35.373.22,7.6,7.6,0,0,1,32.314-.325Z" transform="translate(966.495 2040)" fill="#212429"/>
    <path id="Trazado_1188848" data-name="Trazado 1188848" d="M7.313-12.885V0H4.544V-9.756A3.315,3.315,0,0,1,4-9.374a5.58,5.58,0,0,1-.664.325A5.925,5.925,0,0,1,2.61-8.8a5.328,5.328,0,0,1-.747.145V-11A11.549,11.549,0,0,0,3.9-11.8a11.6,11.6,0,0,0,1.731-1.081Zm12.6,5.977a11.18,11.18,0,0,1-.369,3A6.438,6.438,0,0,1,18.463-1.67a4.755,4.755,0,0,1-1.727,1.4A5.291,5.291,0,0,1,14.425.22a6.568,6.568,0,0,1-2.663-.492V-2.558a4.267,4.267,0,0,0,2.391.65,2.752,2.752,0,0,0,2.241-.976A4.352,4.352,0,0,0,17.211-5.7l-.053-.018a2.854,2.854,0,0,1-2.54,1.239,3.487,3.487,0,0,1-1.428-.29,3.431,3.431,0,0,1-1.134-.8A3.675,3.675,0,0,1,11.309-6.8a4.407,4.407,0,0,1-.268-1.564,4.857,4.857,0,0,1,.325-1.811,4.145,4.145,0,0,1,.91-1.406,4.014,4.014,0,0,1,1.4-.91,4.917,4.917,0,0,1,1.811-.321,4.145,4.145,0,0,1,1.846.4,3.878,3.878,0,0,1,1.393,1.156A5.4,5.4,0,0,1,19.606-9.4,9.4,9.4,0,0,1,19.909-6.908Zm-2.8-1.477a3.266,3.266,0,0,0-.123-.91,2.394,2.394,0,0,0-.343-.734,1.669,1.669,0,0,0-.536-.488,1.379,1.379,0,0,0-.694-.18,1.413,1.413,0,0,0-.664.158,1.618,1.618,0,0,0-.523.435,2.061,2.061,0,0,0-.343.664,2.739,2.739,0,0,0-.123.835,2.853,2.853,0,0,0,.123.875,1.867,1.867,0,0,0,.347.646,1.456,1.456,0,0,0,.541.4,1.76,1.76,0,0,0,.7.136,1.51,1.51,0,0,0,.668-.145,1.609,1.609,0,0,0,.514-.391,1.77,1.77,0,0,0,.334-.58A2.138,2.138,0,0,0,17.105-8.385ZM30.264-6.908a11.18,11.18,0,0,1-.369,3A6.438,6.438,0,0,1,28.819-1.67a4.755,4.755,0,0,1-1.727,1.4A5.291,5.291,0,0,1,24.78.22a6.568,6.568,0,0,1-2.663-.492V-2.558a4.267,4.267,0,0,0,2.391.65,2.752,2.752,0,0,0,2.241-.976A4.352,4.352,0,0,0,27.566-5.7l-.053-.018a2.854,2.854,0,0,1-2.54,1.239,3.487,3.487,0,0,1-1.428-.29,3.431,3.431,0,0,1-1.134-.8A3.675,3.675,0,0,1,21.664-6.8,4.407,4.407,0,0,1,21.4-8.367a4.857,4.857,0,0,1,.325-1.811,4.145,4.145,0,0,1,.91-1.406,4.014,4.014,0,0,1,1.4-.91,4.917,4.917,0,0,1,1.811-.321,4.145,4.145,0,0,1,1.846.4,3.878,3.878,0,0,1,1.393,1.156A5.4,5.4,0,0,1,29.961-9.4,9.4,9.4,0,0,1,30.264-6.908Zm-2.8-1.477a3.266,3.266,0,0,0-.123-.91,2.394,2.394,0,0,0-.343-.734,1.669,1.669,0,0,0-.536-.488,1.379,1.379,0,0,0-.694-.18,1.413,1.413,0,0,0-.664.158,1.618,1.618,0,0,0-.523.435,2.061,2.061,0,0,0-.343.664,2.74,2.74,0,0,0-.123.835,2.853,2.853,0,0,0,.123.875,1.867,1.867,0,0,0,.347.646,1.456,1.456,0,0,0,.541.4,1.76,1.76,0,0,0,.7.136,1.51,1.51,0,0,0,.668-.145,1.609,1.609,0,0,0,.514-.391,1.77,1.77,0,0,0,.334-.58A2.138,2.138,0,0,0,27.461-8.385ZM39.433-12.6v7.945h1.512v2.074H39.433V0H36.9V-2.584H31.409V-4.755q.729-.817,1.512-1.789t1.512-2q.729-1.028,1.358-2.07A20.749,20.749,0,0,0,36.858-12.6ZM33.9-4.658H36.9v-4.4q-.308.571-.668,1.156t-.756,1.151q-.4.567-.8,1.1T33.9-4.658Z" transform="translate(776.495 1982)" fill="#212429"/>
    <g transform="matrix(1, 0, 0, 1, 433, 1857)" filter="url(#Trazado_1188849)">
      <g id="Trazado_1188849-2" data-name="Trazado 1188849" transform="translate(48.49 6)" fill="#fff">
        <path d="M 227 63.5 L 33 63.5 C 28.88142776489258 63.5 24.88735771179199 62.69392776489258 21.12878608703613 61.10417938232422 C 17.49717903137207 59.56814193725586 14.235107421875 57.36864471435547 11.43325042724609 54.56674957275391 C 8.631357192993164 51.764892578125 6.431857109069824 48.50282287597656 4.895821571350098 44.8712158203125 C 3.306071519851685 41.11264419555664 2.5 37.11857223510742 2.5 33 C 2.5 28.88142776489258 3.306071519851685 24.88735771179199 4.895821571350098 21.12878608703613 C 6.431857109069824 17.49717903137207 8.631357192993164 14.235107421875 11.43325042724609 11.43325042724609 C 14.235107421875 8.631357192993164 17.49717903137207 6.431857109069824 21.12878608703613 4.895821571350098 C 24.88735771179199 3.306071519851685 28.88142776489258 2.5 33 2.5 L 227 2.5 C 231.1185760498047 2.5 235.1126403808594 3.306071519851685 238.8712158203125 4.895821571350098 C 242.5028228759766 6.431857109069824 245.764892578125 8.631357192993164 248.5667572021484 11.43325042724609 C 251.3686370849609 14.235107421875 253.5681457519531 17.49717903137207 255.1041717529297 21.12878608703613 C 256.6939392089844 24.88735771179199 257.5 28.88142776489258 257.5 33 C 257.5 37.11857223510742 256.6939392089844 41.11264419555664 255.1041717529297 44.8712158203125 C 253.5681457519531 48.50282287597656 251.3686370849609 51.764892578125 248.5667572021484 54.56674957275391 C 245.764892578125 57.36864471435547 242.5028228759766 59.56814193725586 238.8712158203125 61.10417938232422 C 235.1126403808594 62.69392776489258 231.1185760498047 63.5 227 63.5 Z" stroke="none"/>
        <path d="M 33 5 C 29.21780395507812 5 25.55142211914062 5.739616394042969 22.1026611328125 7.198345184326172 C 18.76904296875 8.608345031738281 15.77407836914062 10.62792205810547 13.20100402832031 13.20100021362305 C 10.6279296875 15.77411651611328 8.608306884765625 18.76903915405273 7.19830322265625 22.10269165039062 C 5.739608764648438 25.55142211914062 5 29.21780776977539 5 33 C 5 36.78219223022461 5.739608764648438 40.44857788085938 7.19830322265625 43.89730834960938 C 8.608306884765625 47.23096084594727 10.6279296875 50.22588348388672 13.20100402832031 52.79899978637695 C 15.77407836914062 55.37207794189453 18.76904296875 57.39165496826172 22.1026611328125 58.80165481567383 C 25.55142211914062 60.26038360595703 29.21780395507812 61 33 61 L 227 61 C 230.7821960449219 61 234.4485778808594 60.26038360595703 237.8973083496094 58.80165481567383 C 241.23095703125 57.39165496826172 244.2258911132812 55.37207794189453 246.7989959716797 52.79899978637695 C 249.3720703125 50.22588348388672 251.3916473388672 47.23096084594727 252.8016510009766 43.89730834960938 C 254.2603912353516 40.44857788085938 255 36.78219223022461 255 33 C 255 29.21780776977539 254.2603912353516 25.55142211914062 252.8016510009766 22.10269165039062 C 251.3916473388672 18.76903915405273 249.3720703125 15.77411651611328 246.7989959716797 13.20100021362305 C 244.2258911132812 10.62792205810547 241.23095703125 8.608345031738281 237.8973083496094 7.198345184326172 C 234.4485778808594 5.739616394042969 230.7821960449219 5 227 5 L 33 5 M 33 0 L 227 0 C 245.2253875732422 0 260 14.77461624145508 260 33 C 260 51.22538375854492 245.2253875732422 66 227 66 L 33 66 C 14.77458190917969 66 0 51.22538375854492 0 33 C 0 14.77461624145508 14.77458190917969 0 33 0 Z" stroke="none" fill="#eca675"/>
      </g>
    </g>
    <path id="Trazado_1188850" data-name="Trazado 1188850" d="M8.191,19H1.652V6.4H3.129V17.664H8.191Zm8.975-4.14H10.812a3.366,3.366,0,0,0,.809,2.32A2.788,2.788,0,0,0,13.748,18a4.422,4.422,0,0,0,2.795-1V18.35a5.224,5.224,0,0,1-3.138.861,3.8,3.8,0,0,1-3-1.226,5.018,5.018,0,0,1-1.09-3.45,4.921,4.921,0,0,1,1.191-3.423,3.819,3.819,0,0,1,2.958-1.323A3.384,3.384,0,0,1,16.2,10.932a4.764,4.764,0,0,1,.967,3.173ZM15.69,13.639a2.933,2.933,0,0,0-.6-1.942A2.051,2.051,0,0,0,13.44,11a2.328,2.328,0,0,0-1.731.729,3.31,3.31,0,0,0-.879,1.907ZM26.511,10l-4.14,10.441q-1.107,2.795-3.111,2.795a3.3,3.3,0,0,1-.94-.114V21.83a2.672,2.672,0,0,0,.853.158,1.767,1.767,0,0,0,1.635-1.3l.721-1.705L18.012,10h1.6l2.435,6.926q.044.132.185.686h.053q.044-.211.176-.668L25.017,10Zm16.1,8.139a8.428,8.428,0,0,1-4.219,1.072,5.765,5.765,0,0,1-4.364-1.74,6.383,6.383,0,0,1-1.666-4.605,6.554,6.554,0,0,1,1.85-4.8A6.307,6.307,0,0,1,38.9,6.186a7.979,7.979,0,0,1,3.454.668V8.488a6.634,6.634,0,0,0-3.621-.967A4.524,4.524,0,0,0,35.26,8.98a5.336,5.336,0,0,0-1.354,3.779,5.339,5.339,0,0,0,1.257,3.757,4.405,4.405,0,0,0,3.41,1.367,5.269,5.269,0,0,0,2.558-.589V13.762h-2.76V12.426h4.236Zm9.969-3.278H46.222a3.366,3.366,0,0,0,.809,2.32A2.788,2.788,0,0,0,49.157,18a4.422,4.422,0,0,0,2.795-1V18.35a5.224,5.224,0,0,1-3.138.861,3.8,3.8,0,0,1-3-1.226,5.018,5.018,0,0,1-1.09-3.45,4.921,4.921,0,0,1,1.191-3.423,3.819,3.819,0,0,1,2.958-1.323,3.384,3.384,0,0,1,2.733,1.143,4.764,4.764,0,0,1,.967,3.173ZM51.1,13.639a2.933,2.933,0,0,0-.6-1.942A2.051,2.051,0,0,0,48.85,11a2.328,2.328,0,0,0-1.731.729,3.31,3.31,0,0,0-.879,1.907ZM62.229,19H60.787V13.867Q60.787,11,58.7,11a2.269,2.269,0,0,0-1.789.813,3.013,3.013,0,0,0-.708,2.052V19H54.758V10H56.2v1.494h.035a3.248,3.248,0,0,1,2.953-1.705,2.753,2.753,0,0,1,2.259.954,4.248,4.248,0,0,1,.782,2.755Zm9.951-4.14H65.825a3.366,3.366,0,0,0,.809,2.32A2.788,2.788,0,0,0,68.761,18a4.422,4.422,0,0,0,2.795-1V18.35a5.224,5.224,0,0,1-3.138.861,3.8,3.8,0,0,1-3-1.226,5.018,5.018,0,0,1-1.09-3.45,4.921,4.921,0,0,1,1.191-3.423,3.819,3.819,0,0,1,2.958-1.323,3.384,3.384,0,0,1,2.733,1.143A4.764,4.764,0,0,1,72.18,14.1ZM70.7,13.639a2.933,2.933,0,0,0-.6-1.942A2.051,2.051,0,0,0,68.453,11a2.328,2.328,0,0,0-1.731.729,3.31,3.31,0,0,0-.879,1.907Zm8.351-2.18a1.763,1.763,0,0,0-1.09-.29,1.839,1.839,0,0,0-1.542.87,4.023,4.023,0,0,0-.62,2.373V19H74.361V10H75.8v1.854h.035a3.143,3.143,0,0,1,.94-1.481,2.144,2.144,0,0,1,1.415-.532,2.353,2.353,0,0,1,.861.123ZM87.063,19H85.622V17.594h-.035a3.018,3.018,0,0,1-2.769,1.617,2.959,2.959,0,0,1-2.1-.712,2.466,2.466,0,0,1-.76-1.89q0-2.522,2.971-2.936l2.7-.378Q85.622,11,83.767,11a4.431,4.431,0,0,0-2.936,1.107V10.633a5.577,5.577,0,0,1,3.059-.844q3.173,0,3.173,3.357Zm-1.441-4.553-2.171.3a3.525,3.525,0,0,0-1.512.5,1.432,1.432,0,0,0-.51,1.261,1.374,1.374,0,0,0,.47,1.077A1.817,1.817,0,0,0,83.152,18a2.314,2.314,0,0,0,1.771-.751,2.685,2.685,0,0,0,.7-1.9ZM91.222,19H89.781V5.676h1.441Zm15.534,0h-1.441V17.471h-.035a3.327,3.327,0,0,1-3.094,1.74A3.362,3.362,0,0,1,99.474,18a4.958,4.958,0,0,1-1.015-3.292,5.394,5.394,0,0,1,1.125-3.577,3.71,3.71,0,0,1,3-1.345,2.885,2.885,0,0,1,2.7,1.459h.035V5.676h1.441Zm-1.441-4.069V13.6a2.575,2.575,0,0,0-.721-1.846A2.417,2.417,0,0,0,102.766,11a2.489,2.489,0,0,0-2.074.967,4.237,4.237,0,0,0-.756,2.672,3.81,3.81,0,0,0,.725,2.457,2.37,2.37,0,0,0,1.947.9,2.462,2.462,0,0,0,1.956-.87A3.242,3.242,0,0,0,105.315,14.931Zm11.595-.07h-6.354a3.366,3.366,0,0,0,.809,2.32A2.788,2.788,0,0,0,113.49,18a4.422,4.422,0,0,0,2.795-1V18.35a5.224,5.224,0,0,1-3.138.861,3.8,3.8,0,0,1-3-1.226,5.018,5.018,0,0,1-1.09-3.45,4.921,4.921,0,0,1,1.191-3.423,3.819,3.819,0,0,1,2.958-1.323,3.384,3.384,0,0,1,2.733,1.143,4.764,4.764,0,0,1,.967,3.173Zm-1.477-1.222a2.933,2.933,0,0,0-.6-1.942A2.051,2.051,0,0,0,113.183,11a2.328,2.328,0,0,0-1.731.729,3.31,3.31,0,0,0-.879,1.907ZM130.9,19h-6.68V6.4h6.4V7.732h-4.922v4.192h4.553v1.327h-4.553v4.412h5.2Zm9.916,0h-1.441V17.471h-.035a3.327,3.327,0,0,1-3.094,1.74A3.362,3.362,0,0,1,133.53,18a4.958,4.958,0,0,1-1.015-3.292,5.394,5.394,0,0,1,1.125-3.577,3.71,3.71,0,0,1,3-1.345,2.885,2.885,0,0,1,2.7,1.459h.035V5.676h1.441Zm-1.441-4.069V13.6a2.575,2.575,0,0,0-.721-1.846A2.417,2.417,0,0,0,136.822,11a2.489,2.489,0,0,0-2.074.967,4.237,4.237,0,0,0-.756,2.672,3.81,3.81,0,0,0,.725,2.457,2.37,2.37,0,0,0,1.947.9,2.462,2.462,0,0,0,1.956-.87A3.242,3.242,0,0,0,139.371,14.931ZM151.009,19h-1.441V17.576h-.035a2.96,2.96,0,0,1-2.777,1.635q-3.217,0-3.217-3.832V10h1.433v5.15q0,2.848,2.18,2.848a2.205,2.205,0,0,0,1.736-.778,2.976,2.976,0,0,0,.681-2.035V10h1.441Zm9.046-.413a4.684,4.684,0,0,1-2.461.624,4.074,4.074,0,0,1-3.107-1.252,4.539,4.539,0,0,1-1.182-3.248,4.99,4.99,0,0,1,1.274-3.573,4.458,4.458,0,0,1,3.4-1.349,4.735,4.735,0,0,1,2.092.439v1.477a3.665,3.665,0,0,0-2.145-.7,2.9,2.9,0,0,0-2.263.989,3.752,3.752,0,0,0-.883,2.6,3.573,3.573,0,0,0,.831,2.5A2.863,2.863,0,0,0,157.84,18a3.613,3.613,0,0,0,2.215-.782Zm8.624.413h-1.441V17.594H167.2a3.018,3.018,0,0,1-2.769,1.617,2.959,2.959,0,0,1-2.1-.712,2.466,2.466,0,0,1-.76-1.89q0-2.522,2.971-2.936l2.7-.378q0-2.294-1.854-2.294a4.431,4.431,0,0,0-2.936,1.107V10.633a5.577,5.577,0,0,1,3.059-.844q3.173,0,3.173,3.357Zm-1.441-4.553-2.171.3a3.525,3.525,0,0,0-1.512.5,1.432,1.432,0,0,0-.51,1.261,1.374,1.374,0,0,0,.47,1.077,1.817,1.817,0,0,0,1.252.417,2.314,2.314,0,0,0,1.771-.751,2.685,2.685,0,0,0,.7-1.9Zm10.294,4.14a4.684,4.684,0,0,1-2.461.624,4.074,4.074,0,0,1-3.107-1.252,4.539,4.539,0,0,1-1.182-3.248,4.99,4.99,0,0,1,1.274-3.573,4.458,4.458,0,0,1,3.4-1.349,4.735,4.735,0,0,1,2.092.439v1.477A3.665,3.665,0,0,0,175.4,11a2.9,2.9,0,0,0-2.263.989,3.752,3.752,0,0,0-.883,2.6,3.573,3.573,0,0,0,.831,2.5,2.863,2.863,0,0,0,2.228.914,3.613,3.613,0,0,0,2.215-.782Zm2.92-10.872a.913.913,0,0,1-.659-.264.89.89,0,0,1-.272-.668.923.923,0,0,1,.932-.94.931.931,0,0,1,.672.268.939.939,0,0,1,0,1.332A.923.923,0,0,1,180.451,7.715Zm.7,11.285h-1.441V10h1.441Zm6.681.211a4.175,4.175,0,0,1-3.186-1.261,4.672,4.672,0,0,1-1.191-3.344,4.867,4.867,0,0,1,1.239-3.542,4.455,4.455,0,0,1,3.349-1.274,4.037,4.037,0,0,1,3.142,1.239,4.914,4.914,0,0,1,1.129,3.437,4.835,4.835,0,0,1-1.217,3.45A4.265,4.265,0,0,1,187.835,19.211ZM187.941,11a2.742,2.742,0,0,0-2.2.945,3.88,3.88,0,0,0-.809,2.606,3.67,3.67,0,0,0,.817,2.522,2.778,2.778,0,0,0,2.188.923,2.635,2.635,0,0,0,2.149-.905,3.928,3.928,0,0,0,.751-2.575,4,4,0,0,0-.751-2.6A2.623,2.623,0,0,0,187.941,11Zm2.109-5.59-2.3,2.883h-1.116l1.96-2.883ZM202.093,19h-1.441V13.867q0-2.865-2.092-2.865a2.269,2.269,0,0,0-1.789.813,3.013,3.013,0,0,0-.708,2.052V19h-1.441V10h1.441v1.494h.035a3.248,3.248,0,0,1,2.953-1.705,2.753,2.753,0,0,1,2.259.954,4.248,4.248,0,0,1,.782,2.755ZM5.238,43.865H3.955A11.232,11.232,0,0,1,1.23,36.192a11.658,11.658,0,0,1,2.725-7.8h1.3A11.845,11.845,0,0,0,2.5,36.175,11.638,11.638,0,0,0,5.238,43.865ZM13.625,41H7.086V28.4H8.562V39.664h5.063ZM22.6,36.86H16.246a3.366,3.366,0,0,0,.809,2.32A2.788,2.788,0,0,0,19.181,40a4.422,4.422,0,0,0,2.795-1V40.35a5.224,5.224,0,0,1-3.138.861,3.8,3.8,0,0,1-3-1.226,5.018,5.018,0,0,1-1.09-3.45,4.921,4.921,0,0,1,1.191-3.423A3.819,3.819,0,0,1,18.9,31.789a3.384,3.384,0,0,1,2.733,1.143A4.764,4.764,0,0,1,22.6,36.1Zm-1.477-1.222a2.933,2.933,0,0,0-.6-1.942A2.051,2.051,0,0,0,18.874,33a2.328,2.328,0,0,0-1.731.729,3.31,3.31,0,0,0-.879,1.907ZM31.945,32l-4.14,10.441q-1.107,2.795-3.111,2.795a3.3,3.3,0,0,1-.94-.114V43.83a2.672,2.672,0,0,0,.853.158,1.767,1.767,0,0,0,1.635-1.3l.721-1.705L23.446,32h1.6l2.435,6.926q.044.132.185.686h.053q.044-.211.176-.668L30.451,32ZM43.33,41H41.889V30.11a3.336,3.336,0,0,1-.488.382,7.951,7.951,0,0,1-.721.426q-.4.211-.844.4a6.132,6.132,0,0,1-.866.29V30.146a8.379,8.379,0,0,0,1.006-.356q.532-.224,1.046-.5t.971-.58a7.71,7.71,0,0,0,.791-.593h.545Zm9.7,0H51.594V30.11a3.336,3.336,0,0,1-.488.382,7.951,7.951,0,0,1-.721.426q-.4.211-.844.4a6.132,6.132,0,0,1-.866.29V30.146a8.379,8.379,0,0,0,1.006-.356q.532-.224,1.046-.5t.971-.58a7.71,7.71,0,0,0,.791-.593h.545Zm11.858-3.85a4.242,4.242,0,0,1-.316,1.67,3.651,3.651,0,0,1-.9,1.283,4.034,4.034,0,0,1-1.411.826,5.517,5.517,0,0,1-1.837.29,5.074,5.074,0,0,1-2.61-.527V39.163a4.8,4.8,0,0,0,2.628.826,3.556,3.556,0,0,0,1.235-.2,2.744,2.744,0,0,0,.936-.562,2.408,2.408,0,0,0,.593-.87,2.945,2.945,0,0,0,.207-1.116,2.391,2.391,0,0,0-.826-1.929,3.623,3.623,0,0,0-2.4-.7q-.255,0-.536.009t-.562.022q-.281.013-.549.031t-.488.044l.431-6.319h5.827v1.3H59.734l-.255,3.7q.281-.018.6-.031t.563-.013a5.656,5.656,0,0,1,1.793.264,3.8,3.8,0,0,1,1.34.751,3.151,3.151,0,0,1,.835,1.2A4.2,4.2,0,0,1,64.893,37.15ZM80.155,41H78.713V39.471h-.035a3.327,3.327,0,0,1-3.094,1.74A3.362,3.362,0,0,1,72.873,40a4.958,4.958,0,0,1-1.015-3.292,5.394,5.394,0,0,1,1.125-3.577,3.71,3.71,0,0,1,3-1.345,2.885,2.885,0,0,1,2.7,1.459h.035V27.676h1.441Zm-1.441-4.069V35.6a2.575,2.575,0,0,0-.721-1.846A2.417,2.417,0,0,0,76.165,33a2.489,2.489,0,0,0-2.074.967,4.237,4.237,0,0,0-.756,2.672A3.81,3.81,0,0,0,74.06,39.1a2.37,2.37,0,0,0,1.947.9,2.462,2.462,0,0,0,1.956-.87A3.242,3.242,0,0,0,78.713,36.931Zm11.595-.07H83.954a3.366,3.366,0,0,0,.809,2.32A2.788,2.788,0,0,0,86.889,40a4.422,4.422,0,0,0,2.795-1V40.35a5.224,5.224,0,0,1-3.138.861,3.8,3.8,0,0,1-3-1.226,5.018,5.018,0,0,1-1.09-3.45,4.921,4.921,0,0,1,1.191-3.423,3.819,3.819,0,0,1,2.958-1.323,3.384,3.384,0,0,1,2.733,1.143,4.764,4.764,0,0,1,.967,3.173Zm-1.477-1.222a2.933,2.933,0,0,0-.6-1.942A2.051,2.051,0,0,0,86.581,33a2.328,2.328,0,0,0-1.731.729,3.31,3.31,0,0,0-.879,1.907ZM102.326,41h-1.441V30.11a3.336,3.336,0,0,1-.488.382,7.951,7.951,0,0,1-.721.426q-.4.211-.844.4a6.132,6.132,0,0,1-.866.29V30.146a8.379,8.379,0,0,0,1.006-.356q.532-.224,1.046-.5t.971-.58a7.71,7.71,0,0,0,.791-.593h.545Zm12.166-7.058a12.554,12.554,0,0,1-.343,3.081,6.872,6.872,0,0,1-1,2.285,4.435,4.435,0,0,1-1.608,1.424,4.663,4.663,0,0,1-2.162.488,5.179,5.179,0,0,1-2.2-.439V39.4a4.479,4.479,0,0,0,2.232.589,3.242,3.242,0,0,0,1.525-.352,3.158,3.158,0,0,0,1.138-1.024,5.027,5.027,0,0,0,.712-1.657,9.354,9.354,0,0,0,.246-2.259H113a2.879,2.879,0,0,1-2.812,1.626,3.782,3.782,0,0,1-1.485-.286,3.4,3.4,0,0,1-1.169-.809,3.7,3.7,0,0,1-.765-1.244,4.466,4.466,0,0,1-.272-1.591,4.634,4.634,0,0,1,.3-1.705,3.974,3.974,0,0,1,.844-1.332,3.775,3.775,0,0,1,1.283-.866,4.2,4.2,0,0,1,1.622-.308,3.59,3.59,0,0,1,1.683.382,3.373,3.373,0,0,1,1.235,1.116,5.515,5.515,0,0,1,.765,1.806A10.312,10.312,0,0,1,114.492,33.942Zm-1.556-1.292a4.388,4.388,0,0,0-.189-1.327,3.213,3.213,0,0,0-.523-1.024,2.346,2.346,0,0,0-.8-.659,2.2,2.2,0,0,0-1.006-.233,2.282,2.282,0,0,0-.967.207,2.324,2.324,0,0,0-.778.58,2.77,2.77,0,0,0-.519.888,3.225,3.225,0,0,0-.189,1.121,3.686,3.686,0,0,0,.18,1.2,2.5,2.5,0,0,0,.514.892,2.22,2.22,0,0,0,.8.558,2.714,2.714,0,0,0,1.042.193,2.387,2.387,0,0,0,.945-.189,2.5,2.5,0,0,0,.773-.51,2.349,2.349,0,0,0,.519-.756A2.324,2.324,0,0,0,112.936,32.65ZM124.2,33.942a12.554,12.554,0,0,1-.343,3.081,6.872,6.872,0,0,1-1,2.285,4.435,4.435,0,0,1-1.608,1.424,4.663,4.663,0,0,1-2.162.488,5.179,5.179,0,0,1-2.2-.439V39.4a4.479,4.479,0,0,0,2.232.589,3.242,3.242,0,0,0,1.525-.352,3.158,3.158,0,0,0,1.138-1.024,5.027,5.027,0,0,0,.712-1.657,9.354,9.354,0,0,0,.246-2.259H122.7a2.879,2.879,0,0,1-2.812,1.626,3.782,3.782,0,0,1-1.485-.286,3.4,3.4,0,0,1-1.169-.809,3.7,3.7,0,0,1-.765-1.244A4.466,4.466,0,0,1,116.2,32.4a4.634,4.634,0,0,1,.3-1.705,3.974,3.974,0,0,1,.844-1.332,3.775,3.775,0,0,1,1.283-.866,4.2,4.2,0,0,1,1.622-.308,3.59,3.59,0,0,1,1.683.382,3.373,3.373,0,0,1,1.235,1.116,5.515,5.515,0,0,1,.765,1.806A10.312,10.312,0,0,1,124.2,33.942Zm-1.556-1.292a4.388,4.388,0,0,0-.189-1.327,3.213,3.213,0,0,0-.523-1.024,2.346,2.346,0,0,0-.8-.659,2.2,2.2,0,0,0-1.006-.233,2.282,2.282,0,0,0-.967.207,2.324,2.324,0,0,0-.778.58,2.77,2.77,0,0,0-.519.888,3.225,3.225,0,0,0-.189,1.121,3.686,3.686,0,0,0,.18,1.2,2.5,2.5,0,0,0,.514.892,2.22,2.22,0,0,0,.8.558,2.714,2.714,0,0,0,1.042.193,2.387,2.387,0,0,0,.945-.189,2.5,2.5,0,0,0,.773-.51,2.349,2.349,0,0,0,.519-.756A2.324,2.324,0,0,0,122.641,32.65Zm9.907-4.254V36.72h1.617v1.318h-1.617V41h-1.424V38.038H125.2V36.79q.826-.932,1.67-1.991t1.613-2.149q.769-1.09,1.424-2.175a19.886,19.886,0,0,0,1.1-2.079Zm-5.722,8.323h4.3V30.55q-.659,1.151-1.248,2.057t-1.121,1.644q-.532.738-1.015,1.336T126.827,36.72Zm9.45,7.146h-1.283a11.638,11.638,0,0,0,2.742-7.69,11.845,11.845,0,0,0-2.76-7.778h1.3a11.611,11.611,0,0,1,2.742,7.8A11.188,11.188,0,0,1,136.277,43.865Z" transform="translate(505.495 1874)" fill="#212429"/>
    <path id="Trazado_1001064-2" data-name="Trazado 1001064" d="M-118.476,3693.733v-76.339" transform="translate(915.971 -1614.128)" fill="none" stroke="#899e78" stroke-linecap="round" stroke-width="5" stroke-dasharray="9"/>
    <g id="Trazado_1188851" data-name="Trazado 1188851" transform="translate(792.995 2000)" fill="#fff">
      <path d="M 5 9 C 2.794389963150024 9 1 7.205609798431396 1 5 C 1 2.794389963150024 2.794389963150024 1 5 1 C 7.205609798431396 1 9 2.794389963150024 9 5 C 9 7.205609798431396 7.205609798431396 9 5 9 Z" stroke="none"/>
      <path d="M 5 2 C 3.345789909362793 2 2 3.345789909362793 2 5 C 2 6.654210090637207 3.345789909362793 8 5 8 C 6.654210090637207 8 8 6.654210090637207 8 5 C 8 3.345789909362793 6.654210090637207 2 5 2 M 5 0 C 7.761420249938965 0 10 2.238580226898193 10 5 C 10 7.761420249938965 7.761420249938965 10 5 10 C 2.238580226898193 10 0 7.761420249938965 0 5 C 0 2.238580226898193 2.238580226898193 0 5 0 Z" stroke="none" fill="#899e78"/>
    </g>
    <g transform="matrix(1, 0, 0, 1, 433, 1857)" filter="url(#Trazado_1188852)">
      <g id="Trazado_1188852-2" data-name="Trazado 1188852" transform="translate(248.49 223)" fill="#fff">
        <path d="M 207 49.5 L 26 49.5 C 22.82640647888184 49.5 19.74909400939941 48.87900161743164 16.85350036621094 47.65428161621094 C 14.0554370880127 46.4708137512207 11.54199981689453 44.77603149414062 9.383000373840332 42.61700057983398 C 7.223968982696533 40.45800018310547 5.529187679290771 37.94456100463867 4.345718860626221 35.14649963378906 C 3.121000051498413 32.25090789794922 2.5 29.17359352111816 2.5 26 C 2.5 22.82640647888184 3.121000051498413 19.74909400939941 4.345718860626221 16.85350036621094 C 5.529187679290771 14.0554370880127 7.223968982696533 11.54199981689453 9.383000373840332 9.383000373840332 C 11.54199981689453 7.223968982696533 14.0554370880127 5.529187679290771 16.85350036621094 4.345718860626221 C 19.74909400939941 3.121000051498413 22.82640647888184 2.5 26 2.5 L 207 2.5 C 210.1735992431641 2.5 213.2509002685547 3.121000051498413 216.1464996337891 4.345718860626221 C 218.9445648193359 5.529187679290771 221.4579925537109 7.223968982696533 223.6170043945312 9.383000373840332 C 225.7760314941406 11.54199981689453 227.4708099365234 14.0554370880127 228.6542816162109 16.85350036621094 C 229.8789978027344 19.74909400939941 230.5 22.82640647888184 230.5 26 C 230.5 29.17359352111816 229.8789978027344 32.25090789794922 228.6542816162109 35.14649963378906 C 227.4708099365234 37.94456100463867 225.7760314941406 40.45800018310547 223.6170043945312 42.61700057983398 C 221.4579925537109 44.77603149414062 218.9445648193359 46.4708137512207 216.1464996337891 47.65428161621094 C 213.2509002685547 48.87900161743164 210.1735992431641 49.5 207 49.5 Z" stroke="none"/>
        <path d="M 26 5 C 20.39070129394531 5 15.11712646484375 7.184368133544922 11.15077209472656 11.1507682800293 C 7.184371948242188 15.11713409423828 5 20.39069938659668 5 26 C 5 31.60930061340332 7.184371948242188 36.88286590576172 11.15077209472656 40.84923553466797 C 15.11712646484375 44.81563186645508 20.39070129394531 47 26 47 L 207 47 C 212.6092987060547 47 217.8828735351562 44.81563186645508 221.8492279052734 40.84923553466797 C 225.8156280517578 36.88286590576172 228 31.60930061340332 228 26 C 228 20.39069938659668 225.8156280517578 15.11713409423828 221.8492279052734 11.1507682800293 C 217.8828735351562 7.184368133544922 212.6092987060547 5 207 5 L 26 5 M 26 0 L 207 0 C 221.3594055175781 0 233 11.64059829711914 233 26 C 233 40.35939788818359 221.3594055175781 52 207 52 L 26 52 C 11.64059448242188 52 0 40.35939788818359 0 26 C 0 11.64059829711914 11.64059448242188 0 26 0 Z" stroke="none" fill="#899e78"/>
      </g>
    </g>
    <path id="Trazado_1188853" data-name="Trazado 1188853" d="M1.652,19V6.4h3.48q6.662,0,6.662,6.144a6.191,6.191,0,0,1-1.85,4.689A6.863,6.863,0,0,1,4.992,19ZM3.129,7.732v9.932H5.01a5.338,5.338,0,0,0,3.858-1.327,4.975,4.975,0,0,0,1.38-3.762q0-4.843-5.15-4.843ZM21.315,14.86H14.961a3.366,3.366,0,0,0,.809,2.32A2.788,2.788,0,0,0,17.9,18a4.422,4.422,0,0,0,2.795-1V18.35a5.224,5.224,0,0,1-3.138.861,3.8,3.8,0,0,1-3-1.226,5.018,5.018,0,0,1-1.09-3.45,4.921,4.921,0,0,1,1.191-3.423,3.819,3.819,0,0,1,2.958-1.323,3.384,3.384,0,0,1,2.733,1.143,4.764,4.764,0,0,1,.967,3.173Zm-1.477-1.222a2.933,2.933,0,0,0-.6-1.942A2.051,2.051,0,0,0,17.589,11a2.328,2.328,0,0,0-1.731.729,3.31,3.31,0,0,0-.879,1.907Zm9.793,4.948a4.684,4.684,0,0,1-2.461.624,4.074,4.074,0,0,1-3.107-1.252,4.539,4.539,0,0,1-1.182-3.248,4.99,4.99,0,0,1,1.274-3.573,4.458,4.458,0,0,1,3.4-1.349,4.735,4.735,0,0,1,2.092.439v1.477A3.665,3.665,0,0,0,27.5,11a2.9,2.9,0,0,0-2.263.989,3.752,3.752,0,0,0-.883,2.6,3.573,3.573,0,0,0,.831,2.5A2.863,2.863,0,0,0,27.417,18a3.613,3.613,0,0,0,2.215-.782Zm6.875-7.128a1.763,1.763,0,0,0-1.09-.29,1.839,1.839,0,0,0-1.542.87,4.023,4.023,0,0,0-.62,2.373V19H31.813V10h1.441v1.854h.035a3.143,3.143,0,0,1,.94-1.481,2.144,2.144,0,0,1,1.415-.532,2.353,2.353,0,0,1,.861.123Zm8.8,3.4H38.952a3.366,3.366,0,0,0,.809,2.32A2.788,2.788,0,0,0,41.887,18a4.422,4.422,0,0,0,2.795-1V18.35a5.224,5.224,0,0,1-3.138.861,3.8,3.8,0,0,1-3-1.226,5.018,5.018,0,0,1-1.09-3.45,4.921,4.921,0,0,1,1.191-3.423,3.819,3.819,0,0,1,2.958-1.323,3.384,3.384,0,0,1,2.733,1.143,4.764,4.764,0,0,1,.967,3.173Zm-1.477-1.222a2.933,2.933,0,0,0-.6-1.942A2.051,2.051,0,0,0,41.579,11a2.328,2.328,0,0,0-1.731.729,3.31,3.31,0,0,0-.879,1.907Zm7.833,5.273a2.779,2.779,0,0,1-1.345.281q-2.364,0-2.364-2.637V11.23H46.406V10h1.547V7.8l1.441-.466V10h2.268v1.23H49.395V16.3a2.1,2.1,0,0,0,.308,1.292,1.228,1.228,0,0,0,1.02.387,1.515,1.515,0,0,0,.94-.3Zm5.688.3a4.175,4.175,0,0,1-3.186-1.261,4.672,4.672,0,0,1-1.191-3.344,4.867,4.867,0,0,1,1.239-3.542,4.455,4.455,0,0,1,3.349-1.274A4.037,4.037,0,0,1,60.7,11.028a4.914,4.914,0,0,1,1.129,3.437,4.835,4.835,0,0,1-1.217,3.45A4.265,4.265,0,0,1,57.351,19.211ZM57.456,11a2.742,2.742,0,0,0-2.2.945,3.88,3.88,0,0,0-.809,2.606,3.67,3.67,0,0,0,.817,2.522A2.778,2.778,0,0,0,57.456,18a2.635,2.635,0,0,0,2.149-.905,3.928,3.928,0,0,0,.751-2.575,4,4,0,0,0-.751-2.6A2.623,2.623,0,0,0,57.456,11Zm16.518,8H72.533V8.11a3.336,3.336,0,0,1-.488.382,7.951,7.951,0,0,1-.721.426q-.4.211-.844.4a6.132,6.132,0,0,1-.866.29V8.146a8.379,8.379,0,0,0,1.006-.356q.532-.224,1.046-.5t.971-.58a7.71,7.71,0,0,0,.791-.593h.545Zm4.133-3.516a3.353,3.353,0,0,1,.158-1.006,3.645,3.645,0,0,1,.453-.945,3.746,3.746,0,0,1,.729-.8,3.478,3.478,0,0,1,.989-.571,3.737,3.737,0,0,1-1.3-1.173A2.775,2.775,0,0,1,78.652,9.4a3.059,3.059,0,0,1,1.011-2.3,3.433,3.433,0,0,1,1.125-.672,4.2,4.2,0,0,1,2.821,0,3.494,3.494,0,0,1,1.125.677,3.038,3.038,0,0,1,.738,1.02A3.082,3.082,0,0,1,85.736,9.4a2.775,2.775,0,0,1-.483,1.586,3.783,3.783,0,0,1-1.283,1.173,3.446,3.446,0,0,1,.976.571,3.8,3.8,0,0,1,.725.8,3.645,3.645,0,0,1,.453.945,3.353,3.353,0,0,1,.158,1.006,3.743,3.743,0,0,1-.3,1.512,3.378,3.378,0,0,1-.839,1.173,3.875,3.875,0,0,1-1.292.76,4.829,4.829,0,0,1-1.657.272,4.765,4.765,0,0,1-1.644-.272,3.934,3.934,0,0,1-1.292-.76A3.4,3.4,0,0,1,78.41,17,3.7,3.7,0,0,1,78.107,15.484Zm1.564-.123a2.977,2.977,0,0,0,.18,1.063,2.293,2.293,0,0,0,.51.809,2.225,2.225,0,0,0,.8.514,2.889,2.889,0,0,0,1.042.18,2.744,2.744,0,0,0,1.02-.185,2.376,2.376,0,0,0,.8-.519,2.332,2.332,0,0,0,.527-.809,2.828,2.828,0,0,0,.189-1.055,2.694,2.694,0,0,0-.18-.989,2.475,2.475,0,0,0-.514-.813,2.415,2.415,0,0,0-.8-.554,2.6,2.6,0,0,0-1.046-.2,2.63,2.63,0,0,0-1.006.189,2.408,2.408,0,0,0-.8.527,2.442,2.442,0,0,0-.532.809A2.69,2.69,0,0,0,79.671,15.361Zm.448-5.845a2.092,2.092,0,0,0,1.274,1.947,2.077,2.077,0,0,0,1.622,0,2.1,2.1,0,0,0,.664-.453,2.194,2.194,0,0,0,.448-.668,2.03,2.03,0,0,0,.167-.822,2.155,2.155,0,0,0-.163-.844A2.072,2.072,0,0,0,82.2,7.4a2.1,2.1,0,0,0-.848.167,2.049,2.049,0,0,0-.659.453,1.979,1.979,0,0,0-.426.672A2.272,2.272,0,0,0,80.12,9.517ZM96,15a4.669,4.669,0,0,1-.3,1.7,4.078,4.078,0,0,1-.826,1.336,3.691,3.691,0,0,1-1.257.875,3.98,3.98,0,0,1-1.582.312,3.488,3.488,0,0,1-2.975-1.534,5.459,5.459,0,0,1-.8-1.815A9.833,9.833,0,0,1,88,13.454a11.358,11.358,0,0,1,.365-2.984A7.249,7.249,0,0,1,89.4,8.176,4.781,4.781,0,0,1,91.02,6.7a4.345,4.345,0,0,1,2.118-.519,5.1,5.1,0,0,1,2.092.36V7.908a4.442,4.442,0,0,0-2.057-.5,3.065,3.065,0,0,0-1.521.378,3.492,3.492,0,0,0-1.16,1.068,5.209,5.209,0,0,0-.743,1.666,8.45,8.45,0,0,0-.259,2.171h.035A3.027,3.027,0,0,1,92.4,11.116a3.783,3.783,0,0,1,1.49.281,3.216,3.216,0,0,1,1.134.8,3.581,3.581,0,0,1,.725,1.226A4.667,4.667,0,0,1,96,15Zm-1.477.185A3.922,3.922,0,0,0,94.36,14a2.574,2.574,0,0,0-.479-.9,2.065,2.065,0,0,0-.769-.567,2.588,2.588,0,0,0-1.037-.2,2.428,2.428,0,0,0-.993.2,2.473,2.473,0,0,0-.791.549,2.572,2.572,0,0,0-.712,1.789,3.909,3.909,0,0,0,.185,1.217,3.144,3.144,0,0,0,.519.989,2.466,2.466,0,0,0,.8.664,2.173,2.173,0,0,0,1.024.242,2.345,2.345,0,0,0,.993-.207,2.216,2.216,0,0,0,.765-.576,2.665,2.665,0,0,0,.492-.883A3.5,3.5,0,0,0,94.527,15.186Zm11.164-2.54a12.381,12.381,0,0,1-.286,2.8,6.533,6.533,0,0,1-.826,2.061,3.718,3.718,0,0,1-1.327,1.274,3.633,3.633,0,0,1-1.789.435,3.393,3.393,0,0,1-1.692-.417,3.546,3.546,0,0,1-1.252-1.217,6.17,6.17,0,0,1-.773-1.964,12.146,12.146,0,0,1-.264-2.667,13.749,13.749,0,0,1,.277-2.918,6.674,6.674,0,0,1,.813-2.123A3.619,3.619,0,0,1,99.9,6.621a3.739,3.739,0,0,1,1.824-.435Q105.691,6.186,105.691,12.646Zm-1.477.141q0-5.379-2.558-5.379-2.7,0-2.7,5.476,0,5.106,2.646,5.106Q104.214,17.989,104.214,12.786ZM120.5,19h-1.441V17.471h-.035a3.327,3.327,0,0,1-3.094,1.74A3.362,3.362,0,0,1,113.222,18a4.958,4.958,0,0,1-1.015-3.292,5.394,5.394,0,0,1,1.125-3.577,3.71,3.71,0,0,1,3-1.345,2.885,2.885,0,0,1,2.7,1.459h.035V5.676H120.5Zm-1.441-4.069V13.6a2.575,2.575,0,0,0-.721-1.846A2.417,2.417,0,0,0,116.514,11a2.489,2.489,0,0,0-2.074.967,4.237,4.237,0,0,0-.756,2.672,3.81,3.81,0,0,0,.725,2.457,2.37,2.37,0,0,0,1.947.9,2.462,2.462,0,0,0,1.956-.87A3.242,3.242,0,0,0,119.062,14.931Zm11.595-.07H124.3a3.366,3.366,0,0,0,.809,2.32,2.788,2.788,0,0,0,2.127.817,4.422,4.422,0,0,0,2.795-1V18.35a5.224,5.224,0,0,1-3.138.861,3.8,3.8,0,0,1-3-1.226,5.018,5.018,0,0,1-1.09-3.45A4.921,4.921,0,0,1,124,11.112a3.819,3.819,0,0,1,2.958-1.323,3.384,3.384,0,0,1,2.733,1.143,4.764,4.764,0,0,1,.967,3.173Zm-1.477-1.222a2.933,2.933,0,0,0-.6-1.942A2.051,2.051,0,0,0,126.93,11a2.328,2.328,0,0,0-1.731.729,3.31,3.31,0,0,0-.879,1.907ZM142.675,19h-1.441V8.11a3.336,3.336,0,0,1-.488.382,7.951,7.951,0,0,1-.721.426q-.4.211-.844.4a6.132,6.132,0,0,1-.866.29V8.146a8.379,8.379,0,0,0,1.006-.356q.532-.224,1.046-.5t.971-.58a7.71,7.71,0,0,0,.791-.593h.545Zm12.166-7.058a12.554,12.554,0,0,1-.343,3.081,6.872,6.872,0,0,1-1,2.285,4.435,4.435,0,0,1-1.608,1.424,4.663,4.663,0,0,1-2.162.488,5.179,5.179,0,0,1-2.2-.439V17.4a4.479,4.479,0,0,0,2.232.589,3.242,3.242,0,0,0,1.525-.352,3.158,3.158,0,0,0,1.138-1.024,5.027,5.027,0,0,0,.712-1.657,9.354,9.354,0,0,0,.246-2.259h-.035a2.879,2.879,0,0,1-2.812,1.626,3.782,3.782,0,0,1-1.485-.286,3.4,3.4,0,0,1-1.169-.809,3.7,3.7,0,0,1-.765-1.244,4.466,4.466,0,0,1-.272-1.591,4.634,4.634,0,0,1,.3-1.705,3.974,3.974,0,0,1,.844-1.332,3.775,3.775,0,0,1,1.283-.866,4.2,4.2,0,0,1,1.622-.308,3.59,3.59,0,0,1,1.683.382,3.373,3.373,0,0,1,1.235,1.116,5.515,5.515,0,0,1,.765,1.806A10.312,10.312,0,0,1,154.841,11.942Zm-1.556-1.292a4.388,4.388,0,0,0-.189-1.327,3.213,3.213,0,0,0-.523-1.024,2.346,2.346,0,0,0-.8-.659,2.2,2.2,0,0,0-1.006-.233,2.282,2.282,0,0,0-.967.207,2.324,2.324,0,0,0-.778.58,2.77,2.77,0,0,0-.519.888,3.225,3.225,0,0,0-.189,1.121,3.686,3.686,0,0,0,.18,1.2,2.5,2.5,0,0,0,.514.892,2.22,2.22,0,0,0,.8.558,2.714,2.714,0,0,0,1.042.193,2.387,2.387,0,0,0,.945-.189,2.5,2.5,0,0,0,.773-.51,2.349,2.349,0,0,0,.519-.756A2.324,2.324,0,0,0,153.285,10.65Zm11.261,1.292a12.554,12.554,0,0,1-.343,3.081,6.872,6.872,0,0,1-1,2.285,4.435,4.435,0,0,1-1.608,1.424,4.663,4.663,0,0,1-2.162.488,5.179,5.179,0,0,1-2.2-.439V17.4a4.479,4.479,0,0,0,2.232.589,3.242,3.242,0,0,0,1.525-.352,3.158,3.158,0,0,0,1.138-1.024,5.027,5.027,0,0,0,.712-1.657,9.354,9.354,0,0,0,.246-2.259h-.035a2.879,2.879,0,0,1-2.812,1.626,3.782,3.782,0,0,1-1.485-.286,3.4,3.4,0,0,1-1.169-.809,3.7,3.7,0,0,1-.765-1.244,4.466,4.466,0,0,1-.272-1.591,4.634,4.634,0,0,1,.3-1.705,3.974,3.974,0,0,1,.844-1.332,3.775,3.775,0,0,1,1.283-.866,4.2,4.2,0,0,1,1.622-.308,3.59,3.59,0,0,1,1.683.382,3.373,3.373,0,0,1,1.235,1.116,5.515,5.515,0,0,1,.765,1.806A10.312,10.312,0,0,1,164.546,11.942ZM162.99,10.65a4.388,4.388,0,0,0-.189-1.327,3.213,3.213,0,0,0-.523-1.024,2.346,2.346,0,0,0-.8-.659,2.2,2.2,0,0,0-1.006-.233,2.282,2.282,0,0,0-.967.207,2.324,2.324,0,0,0-.778.58,2.77,2.77,0,0,0-.519.888,3.225,3.225,0,0,0-.189,1.121,3.686,3.686,0,0,0,.18,1.2,2.5,2.5,0,0,0,.514.892,2.22,2.22,0,0,0,.8.558,2.714,2.714,0,0,0,1.042.193,2.387,2.387,0,0,0,.945-.189,2.5,2.5,0,0,0,.773-.51,2.349,2.349,0,0,0,.519-.756A2.324,2.324,0,0,0,162.99,10.65ZM172.9,6.4V14.72h1.617v1.318H172.9V19h-1.424V16.038H165.55V14.79q.826-.932,1.67-1.991t1.613-2.149q.769-1.09,1.424-2.175a19.88,19.88,0,0,0,1.1-2.079Zm-5.722,8.323h4.3V8.55q-.659,1.151-1.248,2.057T169.1,12.25q-.532.738-1.015,1.336T167.176,14.72Z" transform="translate(705.495 2095)" fill="#212429"/>
    <path id="Trazado_1001064-3" data-name="Trazado 1001064" d="M-118.476,3617.395v76.339" transform="translate(1106.471 -1688)" fill="none" stroke="#bca78f" stroke-linecap="round" stroke-width="5" stroke-dasharray="9"/>
    <g id="Trazado_1188854" data-name="Trazado 1188854" transform="translate(983.495 1999)" fill="#fff">
      <path d="M 5 9 C 2.794389963150024 9 1 7.205609798431396 1 5 C 1 2.794389963150024 2.794389963150024 1 5 1 C 7.205609798431396 1 9 2.794389963150024 9 5 C 9 7.205609798431396 7.205609798431396 9 5 9 Z" stroke="none"/>
      <path d="M 5 2 C 3.345789909362793 2 2 3.345789909362793 2 5 C 2 6.654210090637207 3.345789909362793 8 5 8 C 6.654210090637207 8 8 6.654210090637207 8 5 C 8 3.345789909362793 6.654210090637207 2 5 2 M 5 0 C 7.761420249938965 0 10 2.238580226898193 10 5 C 10 7.761420249938965 7.761420249938965 10 5 10 C 2.238580226898193 10 0 7.761420249938965 0 5 C 0 2.238580226898193 2.238580226898193 0 5 0 Z" stroke="none" fill="#bca78f"/>
    </g>
    <g transform="matrix(1, 0, 0, 1, 433, 1857)" filter="url(#Trazado_1188855)">
      <g id="Trazado_1188855-2" data-name="Trazado 1188855" transform="translate(437.49 22)" fill="#fff">
        <path d="M 211 47.5 L 25 47.5 C 21.96140670776367 47.5 19.01506233215332 46.90543746948242 16.24275016784668 45.73287582397461 C 13.56375026702881 44.59975051879883 11.15725040435791 42.9770622253418 9.090093612670898 40.90990447998047 C 7.022937297821045 38.84275054931641 5.40024995803833 36.43624877929688 4.267125129699707 33.75725173950195 C 3.094562530517578 30.98493766784668 2.5 28.03859329223633 2.5 25 C 2.5 21.96140670776367 3.094562530517578 19.01506233215332 4.267125129699707 16.24275016784668 C 5.40024995803833 13.56375026702881 7.022937297821045 11.15725040435791 9.090093612670898 9.090093612670898 C 11.15725040435791 7.022937297821045 13.56375026702881 5.40024995803833 16.24275016784668 4.267125129699707 C 19.01506233215332 3.094562530517578 21.96140670776367 2.5 25 2.5 L 211 2.5 C 214.0385894775391 2.5 216.9849395751953 3.094562530517578 219.7572479248047 4.267125129699707 C 222.4362487792969 5.40024995803833 224.8427429199219 7.022937297821045 226.909912109375 9.090093612670898 C 228.9770660400391 11.15725040435791 230.5997467041016 13.56375026702881 231.7328796386719 16.24275016784668 C 232.9054412841797 19.01506233215332 233.5 21.96140670776367 233.5 25 C 233.5 28.03859329223633 232.9054412841797 30.98493766784668 231.7328796386719 33.75725173950195 C 230.5997467041016 36.43624877929688 228.9770660400391 38.84275054931641 226.909912109375 40.90990447998047 C 224.8427429199219 42.9770622253418 222.4362487792969 44.59975051879883 219.7572479248047 45.73287582397461 C 216.9849395751953 46.90543746948242 214.0385894775391 47.5 211 47.5 Z" stroke="none"/>
        <path d="M 25 5 C 19.65780639648438 5 14.63536071777344 7.080368041992188 10.85786437988281 10.85786819458008 C 7.080368041992188 14.63536834716797 5 19.65780067443848 5 25 C 5 30.34219932556152 7.080368041992188 35.36463165283203 10.85786437988281 39.14213562011719 C 14.63536071777344 42.91963195800781 19.65780639648438 45 25 45 L 211 45 C 216.3421936035156 45 221.3646392822266 42.91963195800781 225.1421356201172 39.14213562011719 C 228.9196319580078 35.36463165283203 231 30.34219932556152 231 25 C 231 19.65780067443848 228.9196319580078 14.63536834716797 225.1421356201172 10.85786819458008 C 221.3646392822266 7.080368041992188 216.3421936035156 5 211 5 L 25 5 M 25 0 L 211 0 C 224.8070983886719 0 236 11.19286727905273 236 25 C 236 38.80713272094727 224.8070983886719 50 211 50 L 25 50 C 11.19287109375 50 0 38.80713272094727 0 25 C 0 11.19286727905273 11.19287109375 0 25 0 Z" stroke="none" fill="#bca78f"/>
      </g>
    </g>
    <path id="Trazado_1188856" data-name="Trazado 1188856" d="M1.652,19V6.4h3.48q6.662,0,6.662,6.144a6.191,6.191,0,0,1-1.85,4.689A6.863,6.863,0,0,1,4.992,19ZM3.129,7.732v9.932H5.01a5.338,5.338,0,0,0,3.858-1.327,4.975,4.975,0,0,0,1.38-3.762q0-4.843-5.15-4.843ZM21.315,14.86H14.961a3.366,3.366,0,0,0,.809,2.32A2.788,2.788,0,0,0,17.9,18a4.422,4.422,0,0,0,2.795-1V18.35a5.224,5.224,0,0,1-3.138.861,3.8,3.8,0,0,1-3-1.226,5.018,5.018,0,0,1-1.09-3.45,4.921,4.921,0,0,1,1.191-3.423,3.819,3.819,0,0,1,2.958-1.323,3.384,3.384,0,0,1,2.733,1.143,4.764,4.764,0,0,1,.967,3.173Zm-1.477-1.222a2.933,2.933,0,0,0-.6-1.942A2.051,2.051,0,0,0,17.589,11a2.328,2.328,0,0,0-1.731.729,3.31,3.31,0,0,0-.879,1.907Zm9.793,4.948a4.684,4.684,0,0,1-2.461.624,4.074,4.074,0,0,1-3.107-1.252,4.539,4.539,0,0,1-1.182-3.248,4.99,4.99,0,0,1,1.274-3.573,4.458,4.458,0,0,1,3.4-1.349,4.735,4.735,0,0,1,2.092.439v1.477A3.665,3.665,0,0,0,27.5,11a2.9,2.9,0,0,0-2.263.989,3.752,3.752,0,0,0-.883,2.6,3.573,3.573,0,0,0,.831,2.5A2.863,2.863,0,0,0,27.417,18a3.613,3.613,0,0,0,2.215-.782Zm6.875-7.128a1.763,1.763,0,0,0-1.09-.29,1.839,1.839,0,0,0-1.542.87,4.023,4.023,0,0,0-.62,2.373V19H31.813V10h1.441v1.854h.035a3.143,3.143,0,0,1,.94-1.481,2.144,2.144,0,0,1,1.415-.532,2.353,2.353,0,0,1,.861.123Zm8.8,3.4H38.952a3.366,3.366,0,0,0,.809,2.32A2.788,2.788,0,0,0,41.887,18a4.422,4.422,0,0,0,2.795-1V18.35a5.224,5.224,0,0,1-3.138.861,3.8,3.8,0,0,1-3-1.226,5.018,5.018,0,0,1-1.09-3.45,4.921,4.921,0,0,1,1.191-3.423,3.819,3.819,0,0,1,2.958-1.323,3.384,3.384,0,0,1,2.733,1.143,4.764,4.764,0,0,1,.967,3.173Zm-1.477-1.222a2.933,2.933,0,0,0-.6-1.942A2.051,2.051,0,0,0,41.579,11a2.328,2.328,0,0,0-1.731.729,3.31,3.31,0,0,0-.879,1.907Zm7.833,5.273a2.779,2.779,0,0,1-1.345.281q-2.364,0-2.364-2.637V11.23H46.406V10h1.547V7.8l1.441-.466V10h2.268v1.23H49.395V16.3a2.1,2.1,0,0,0,.308,1.292,1.228,1.228,0,0,0,1.02.387,1.515,1.515,0,0,0,.94-.3Zm5.688.3a4.175,4.175,0,0,1-3.186-1.261,4.672,4.672,0,0,1-1.191-3.344,4.867,4.867,0,0,1,1.239-3.542,4.455,4.455,0,0,1,3.349-1.274A4.037,4.037,0,0,1,60.7,11.028a4.914,4.914,0,0,1,1.129,3.437,4.835,4.835,0,0,1-1.217,3.45A4.265,4.265,0,0,1,57.351,19.211ZM57.456,11a2.742,2.742,0,0,0-2.2.945,3.88,3.88,0,0,0-.809,2.606,3.67,3.67,0,0,0,.817,2.522A2.778,2.778,0,0,0,57.456,18a2.635,2.635,0,0,0,2.149-.905,3.928,3.928,0,0,0,.751-2.575,4,4,0,0,0-.751-2.6A2.623,2.623,0,0,0,57.456,11Zm16.518,8H72.533V8.11a3.336,3.336,0,0,1-.488.382,7.951,7.951,0,0,1-.721.426q-.4.211-.844.4a6.132,6.132,0,0,1-.866.29V8.146a8.379,8.379,0,0,0,1.006-.356q.532-.224,1.046-.5t.971-.58a7.71,7.71,0,0,0,.791-.593h.545Zm12.306-6.354a12.381,12.381,0,0,1-.286,2.8,6.533,6.533,0,0,1-.826,2.061,3.718,3.718,0,0,1-1.327,1.274,3.633,3.633,0,0,1-1.789.435,3.393,3.393,0,0,1-1.692-.417,3.546,3.546,0,0,1-1.252-1.217,6.17,6.17,0,0,1-.773-1.964,12.146,12.146,0,0,1-.264-2.667,13.749,13.749,0,0,1,.277-2.918,6.674,6.674,0,0,1,.813-2.123,3.619,3.619,0,0,1,1.332-1.292,3.739,3.739,0,0,1,1.824-.435Q86.281,6.186,86.281,12.646Zm-1.477.141q0-5.379-2.558-5.379-2.7,0-2.7,5.476,0,5.106,2.646,5.106Q84.8,17.989,84.8,12.786ZM95.9,7.231q-.29.5-.7,1.248t-.866,1.679q-.457.932-.932,2t-.888,2.215q-.413,1.143-.725,2.316A17.229,17.229,0,0,0,91.336,19H89.789a17.526,17.526,0,0,1,.488-2.3q.33-1.173.747-2.3t.883-2.175q.466-1.046.905-1.925t.8-1.551q.365-.672.584-1.05H87.882V6.4H95.9Zm9.345,7.919a4.242,4.242,0,0,1-.316,1.67,3.651,3.651,0,0,1-.9,1.283,4.034,4.034,0,0,1-1.411.826,5.517,5.517,0,0,1-1.837.29,5.074,5.074,0,0,1-2.61-.527V17.163a4.8,4.8,0,0,0,2.628.826,3.556,3.556,0,0,0,1.235-.2,2.744,2.744,0,0,0,.936-.562,2.408,2.408,0,0,0,.593-.87,2.945,2.945,0,0,0,.207-1.116,2.391,2.391,0,0,0-.826-1.929,3.623,3.623,0,0,0-2.4-.7q-.255,0-.536.009t-.562.022q-.281.013-.549.031t-.488.044L98.835,6.4h5.827V7.7h-4.579l-.255,3.7q.281-.018.6-.031t.563-.013a5.657,5.657,0,0,1,1.793.264,3.8,3.8,0,0,1,1.34.751,3.151,3.151,0,0,1,.835,1.2A4.2,4.2,0,0,1,105.242,15.15ZM120.5,19h-1.441V17.471h-.035a3.327,3.327,0,0,1-3.094,1.74A3.362,3.362,0,0,1,113.222,18a4.958,4.958,0,0,1-1.015-3.292,5.394,5.394,0,0,1,1.125-3.577,3.71,3.71,0,0,1,3-1.345,2.885,2.885,0,0,1,2.7,1.459h.035V5.676H120.5Zm-1.441-4.069V13.6a2.575,2.575,0,0,0-.721-1.846A2.417,2.417,0,0,0,116.514,11a2.489,2.489,0,0,0-2.074.967,4.237,4.237,0,0,0-.756,2.672,3.81,3.81,0,0,0,.725,2.457,2.37,2.37,0,0,0,1.947.9,2.462,2.462,0,0,0,1.956-.87A3.242,3.242,0,0,0,119.062,14.931Zm11.595-.07H124.3a3.366,3.366,0,0,0,.809,2.32,2.788,2.788,0,0,0,2.127.817,4.422,4.422,0,0,0,2.795-1V18.35a5.224,5.224,0,0,1-3.138.861,3.8,3.8,0,0,1-3-1.226,5.018,5.018,0,0,1-1.09-3.45A4.921,4.921,0,0,1,124,11.112a3.819,3.819,0,0,1,2.958-1.323,3.384,3.384,0,0,1,2.733,1.143,4.764,4.764,0,0,1,.967,3.173Zm-1.477-1.222a2.933,2.933,0,0,0-.6-1.942A2.051,2.051,0,0,0,126.93,11a2.328,2.328,0,0,0-1.731.729,3.31,3.31,0,0,0-.879,1.907ZM134.28,19h-1.441V5.676h1.441Zm13.178-9.3a2.606,2.606,0,0,0-.18-1.011,1.957,1.957,0,0,0-1.226-1.143,2.874,2.874,0,0,0-.914-.141,3.023,3.023,0,0,0-.826.114,4.016,4.016,0,0,0-.787.316,4.839,4.839,0,0,0-.738.483,5.333,5.333,0,0,0-.664.624V7.4a4.309,4.309,0,0,1,1.358-.9,4.781,4.781,0,0,1,1.833-.312,4.424,4.424,0,0,1,1.433.224,3.285,3.285,0,0,1,1.143.655,3.027,3.027,0,0,1,.76,1.063,3.587,3.587,0,0,1,.277,1.45,4.973,4.973,0,0,1-.171,1.354,4.186,4.186,0,0,1-.519,1.143,5.513,5.513,0,0,1-.875,1.028,12.388,12.388,0,0,1-1.239,1q-.888.633-1.463,1.081a6.469,6.469,0,0,0-.914.839,2.436,2.436,0,0,0-.475.782,2.734,2.734,0,0,0-.136.9h6.275V19h-7.778v-.624a5.2,5.2,0,0,1,.176-1.424,3.7,3.7,0,0,1,.58-1.169,6.487,6.487,0,0,1,1.059-1.107q.655-.554,1.6-1.248a10.141,10.141,0,0,0,1.147-.94,4.889,4.889,0,0,0,.743-.9,3.22,3.22,0,0,0,.4-.91A3.922,3.922,0,0,0,147.458,9.7Zm11.885,2.944a12.381,12.381,0,0,1-.286,2.8,6.533,6.533,0,0,1-.826,2.061,3.718,3.718,0,0,1-1.327,1.274,3.633,3.633,0,0,1-1.789.435,3.393,3.393,0,0,1-1.692-.417,3.546,3.546,0,0,1-1.252-1.217,6.17,6.17,0,0,1-.773-1.964,12.146,12.146,0,0,1-.264-2.667,13.749,13.749,0,0,1,.277-2.918,6.674,6.674,0,0,1,.813-2.123,3.619,3.619,0,0,1,1.332-1.292,3.739,3.739,0,0,1,1.824-.435Q159.343,6.186,159.343,12.646Zm-1.477.141q0-5.379-2.558-5.379-2.7,0-2.7,5.476,0,5.106,2.646,5.106Q157.866,17.989,157.866,12.786ZM166.446,19H165V8.11a3.336,3.336,0,0,1-.488.382,7.951,7.951,0,0,1-.721.426q-.4.211-.844.4a6.132,6.132,0,0,1-.866.29V8.146a8.379,8.379,0,0,0,1.006-.356q.532-.224,1.046-.5t.971-.58a7.71,7.71,0,0,0,.791-.593h.545ZM178.3,15.15a4.242,4.242,0,0,1-.316,1.67,3.651,3.651,0,0,1-.9,1.283,4.034,4.034,0,0,1-1.411.826,5.517,5.517,0,0,1-1.837.29,5.074,5.074,0,0,1-2.61-.527V17.163a4.8,4.8,0,0,0,2.628.826,3.556,3.556,0,0,0,1.235-.2,2.744,2.744,0,0,0,.936-.562,2.408,2.408,0,0,0,.593-.87,2.945,2.945,0,0,0,.207-1.116A2.391,2.391,0,0,0,176,13.309a3.623,3.623,0,0,0-2.4-.7q-.255,0-.536.009t-.562.022q-.281.013-.549.031t-.488.044L171.9,6.4h5.827V7.7h-4.579l-.255,3.7q.281-.018.6-.031t.563-.013a5.657,5.657,0,0,1,1.793.264,3.8,3.8,0,0,1,1.34.751,3.151,3.151,0,0,1,.835,1.2A4.2,4.2,0,0,1,178.3,15.15Z" transform="translate(894.495 1893)" fill="#212429"/>
  </g>
</svg>
