<svg xmlns="http://www.w3.org/2000/svg" xmlns:xlink="http://www.w3.org/1999/xlink" width="103" height="103" viewBox="0 0 103 103">
  <defs>
    <filter id="Trazado_978624" x="0" y="0" width="103" height="103" filterUnits="userSpaceOnUse">
      <feOffset dy="3" input="SourceAlpha"/>
      <feGaussianBlur stdDeviation="3" result="blur"/>
      <feFlood flood-opacity="0.161"/>
      <feComposite operator="in" in2="blur"/>
      <feComposite in="SourceGraphic"/>
    </filter>
  </defs>
  <g id="Grupo_1226195" data-name="Grupo 1226195" transform="translate(-196 -575.404)">
    <g id="Grupo_1225947" data-name="Grupo 1225947" transform="translate(-420 -251.596)">
      <g id="Grupo_1224934" data-name="Grupo 1224934" transform="translate(445 -6)">
        <g id="Grupo_1222589" data-name="Grupo 1222589">
          <g id="Grupo_1203109" data-name="Grupo 1203109" transform="translate(180 839)">
            <g id="Grupo_1176881" data-name="Grupo 1176881">
              <g id="Grupo_1175148" data-name="Grupo 1175148">
                <g id="Grupo_1173798" data-name="Grupo 1173798">
                  <g id="Grupo_1171925" data-name="Grupo 1171925">
                    <g id="Grupo_1164524" data-name="Grupo 1164524">
                      <g id="Grupo_1144123" data-name="Grupo 1144123">
                        <g transform="matrix(1, 0, 0, 1, -9, -6)" filter="url(#Trazado_978624)">
                          <g id="Trazado_978624-2" data-name="Trazado 978624" transform="translate(9 6)" fill="#fcf5f0">
                            <path d="M 42.5 83.5 C 36.96437835693359 83.5 31.59512901306152 82.41617584228516 26.54141235351562 80.27863311767578 C 21.65934181213379 78.21369171142578 17.27447128295898 75.25723266601562 13.50862312316895 71.49137878417969 C 9.742764472961426 67.72553253173828 6.786305904388428 63.34066009521484 4.721364498138428 58.45858764648438 C 2.583823442459106 53.40486907958984 1.5 48.03562164306641 1.5 42.5 C 1.5 36.96437835693359 2.583823442459106 31.59512901306152 4.721364498138428 26.54141235351562 C 6.786305904388428 21.65934181213379 9.742764472961426 17.27447128295898 13.50862312316895 13.50862312316895 C 17.27447128295898 9.742764472961426 21.65934181213379 6.786305904388428 26.54141235351562 4.721364498138428 C 31.59512901306152 2.583823442459106 36.96437835693359 1.5 42.5 1.5 C 48.03562164306641 1.5 53.40486907958984 2.583823442459106 58.45858764648438 4.721364498138428 C 63.34066009521484 6.786305904388428 67.72553253173828 9.742764472961426 71.49137878417969 13.50862312316895 C 75.25723266601562 17.27447128295898 78.21369171142578 21.65934181213379 80.27863311767578 26.54141235351562 C 82.41617584228516 31.59512901306152 83.5 36.96437835693359 83.5 42.5 C 83.5 48.03562164306641 82.41617584228516 53.40486907958984 80.27863311767578 58.45858764648438 C 78.21369171142578 63.34066009521484 75.25723266601562 67.72553253173828 71.49137878417969 71.49137878417969 C 67.72553253173828 75.25723266601562 63.34066009521484 78.21369171142578 58.45858764648438 80.27863311767578 C 53.40486907958984 82.41617584228516 48.03562164306641 83.5 42.5 83.5 Z" stroke="none"/>
                            <path d="M 42.5 3 C 37.16621398925781 3 31.99356079101562 4.043960571289062 27.125732421875 6.102882385253906 C 22.42246627807617 8.092185974121094 18.19785308837891 10.94070434570312 14.56928253173828 14.56928253173828 C 10.94070434570312 18.19785308837891 8.092185974121094 22.42246627807617 6.102882385253906 27.125732421875 C 4.043960571289062 31.99356079101562 3 37.16621398925781 3 42.5 C 3 47.83378601074219 4.043960571289062 53.00643920898438 6.102882385253906 57.87425231933594 C 8.092185974121094 62.57753372192383 10.94070434570312 66.80213165283203 14.56928253173828 70.43071746826172 C 18.19786834716797 74.05929565429688 22.42246627807617 76.90781402587891 27.125732421875 78.89711761474609 C 31.99356079101562 80.95603942871094 37.16621398925781 82 42.5 82 C 47.83378601074219 82 53.00642395019531 80.95603942871094 57.87425231933594 78.89711761474609 C 62.57753372192383 76.90781402587891 66.80213165283203 74.05929565429688 70.43071746826172 70.43071746826172 C 74.05929565429688 66.80213165283203 76.90781402587891 62.57753372192383 78.89711761474609 57.87425231933594 C 80.95603942871094 53.00642395019531 82 47.83378601074219 82 42.5 C 82 37.16621398925781 80.95603942871094 31.99356079101562 78.89711761474609 27.125732421875 C 76.90781402587891 22.42246627807617 74.05929565429688 18.19786834716797 70.43071746826172 14.56928253173828 C 66.80213165283203 10.94070434570312 62.57753372192383 8.092185974121094 57.87425231933594 6.102882385253906 C 53.00643920898438 4.043960571289062 47.83378601074219 3 42.5 3 M 42.5 0 C 65.97209167480469 0 85 19.02789306640625 85 42.5 C 85 65.97209167480469 65.97209167480469 85 42.5 85 C 19.02789306640625 85 0 65.97209167480469 0 42.5 C 0 19.02789306640625 19.02789306640625 0 42.5 0 Z" stroke="none" fill="#eca675"/>
                          </g>
                        </g>
                      </g>
                    </g>
                  </g>
                </g>
              </g>
            </g>
          </g>
        </g>
      </g>
    </g>
    <g id="companeros-de-clase" transform="translate(218.184 555.51)">
      <g id="Grupo_1226193" data-name="Grupo 1226193" transform="translate(0.858 44.985)">
        <path id="Trazado_1187427" data-name="Trazado 1187427" d="M107.307,273.524l-3.99,4.258a6.174,6.174,0,0,0-1.377,3.414c0,2.256.635,5.484,2.083,9.957a48.635,48.635,0,0,0,6.112.523c6.2,0,9.422-2.529,9.422-2.529l.009-.007V274l-3.492-3.015Z" transform="translate(-91.135 -245.888)" fill="#94ccd4"/>
        <path id="Trazado_1187428" data-name="Trazado 1187428" d="M20.14,277.783a5.537,5.537,0,0,0,2.784.813c2.318,0,4.234-2.244,4.234-4.746,3.879,5.7,7.057,3.749,7.057,1.866a8.464,8.464,0,0,0-1.776-4.731H11.782A9.9,9.9,0,0,0,7.5,279.463a10.606,10.606,0,0,0,4.5,8.506.789.789,0,0,0,.963-.029l.05-.042,3.241,3.1a32.437,32.437,0,0,0,10.705,1.712c6.289,0,8.973-1.712,8.973-1.712v-1.853l-.009.007s-2.764,1.842-8.964,1.842a48.641,48.641,0,0,1-6.112-.523c-1.448-4.473-2.083-7.015-2.083-9.271a6.173,6.173,0,0,1,1.377-3.414Z" transform="translate(-7.5 -245.888)" fill="#61aab8"/>
        <path id="Trazado_1187429" data-name="Trazado 1187429" d="M28.816,285.984a2.733,2.733,0,0,1-5.329.857A14.276,14.276,0,0,0,22.5,292.3a9.489,9.489,0,0,0,4.072,7.942.739.739,0,0,0,.9-.027l2.93-2.412a.786.786,0,0,0,.263-.8,9.045,9.045,0,0,1-.224-3.093,5.976,5.976,0,0,1,1.051-2.982c.15-.271.345-.573.546-.862A16.055,16.055,0,0,1,28.816,285.984Z" transform="translate(-20.784 -259.172)" fill="#94ccd4"/>
        <path id="Trazado_1187430" data-name="Trazado 1187430" d="M287.775,283.419l.05.042a.789.789,0,0,0,.963.029,10.606,10.606,0,0,0,4.5-8.506A9.9,9.9,0,0,0,289,266.5l-2.207-.579L266,268.208v17.237a23.2,23.2,0,0,0,7.829,1.639,48.641,48.641,0,0,0,6.112-.523Z" transform="translate(-236.425 -241.409)" fill="#94ccd4"/>
        <path id="Trazado_1187431" data-name="Trazado 1187431" d="M247.513,234.707a9.044,9.044,0,0,0,.224-3.093,5.976,5.976,0,0,0-1.051-2.982.84.84,0,1,0-1.427.884,5.26,5.26,0,0,1,.877,2.67c0,2.257-.635,4.8-2.083,9.271a48.644,48.644,0,0,1-6.112.523,22.112,22.112,0,0,1-7.257-1.067V228.306a9.36,9.36,0,0,0,3.625-3.467c0,2.5,1.916,4.746,4.234,4.746,4.29,0,7.391-5.9,7.391-5.9a2.733,2.733,0,0,0,5.466,0,5.288,5.288,0,0,0-.491-2.295l-21.942-5.753-3.492,6.332,3.492,3.015v17s2.684,1.712,8.973,1.712a32.437,32.437,0,0,0,10.705-1.712l3.241-3.1-4.11-3.384A.785.785,0,0,1,247.513,234.707Z" transform="translate(-200.537 -196.878)" fill="#61aab8"/>
        <path id="Trazado_1187432" data-name="Trazado 1187432" d="M274.682,226.217s-3.1,5.9-7.391,5.9c-2.318,0-4.234-2.244-4.234-4.746-3.879,5.7-7.057,3.749-7.057,1.866a7.021,7.021,0,0,1,2.106-4.694l17.357-4.1Z" transform="translate(-227.569 -201.121)" fill="#ffd064"/>
        <path id="Trazado_1187433" data-name="Trazado 1187433" d="M86.665,226.217s3.1,5.9,7.391,5.9c2.318,0,4.234-2.244,4.234-4.746,3.879,5.7,7.057,3.749,7.057,1.866a7.021,7.021,0,0,0-2.106-4.694l-17.357-4.1Z" transform="translate(-76.917 -201.121)" fill="#ffd064"/>
        <path id="Trazado_1187434" data-name="Trazado 1187434" d="M419.294,134.162c1.212,4.247,6.782,4.944,9.4,4.067a.388.388,0,0,0,.138-.65c-3.078-2.923.2-5.228.261-10.409a5.276,5.276,0,0,0-5.226-5.373,5.18,5.18,0,0,0-2.836.854Z" transform="translate(-372.181 -113.769)" fill="#4e5a61"/>
        <path id="Trazado_1187435" data-name="Trazado 1187435" d="M60.36,183.867a1.364,1.364,0,0,0-1.6-1.074,2.015,2.015,0,0,0-1.439,2.568,3.508,3.508,0,0,0,4.243,2.8Z" transform="translate(-51.564 -167.764)" fill="#c7865b"/>
        <path id="Trazado_1187436" data-name="Trazado 1187436" d="M418.324,183.867a1.364,1.364,0,0,1,1.6-1.074,2.015,2.015,0,0,1,1.439,2.568,3.508,3.508,0,0,1-4.243,2.8Z" transform="translate(-370.259 -167.764)" fill="#c7865b"/>
        <path id="Trazado_1187437" data-name="Trazado 1187437" d="M109.2,81.815c-2.76-6.011-17.147-5.665-17.147-5.665L90.23,84.512s.466,4.552.774,6.107c1.305,6.6,7.842,8.907,12.164,8.052a11.094,11.094,0,0,0,4.277-2.325,7.131,7.131,0,0,0,1.751-4.24Z" transform="translate(-80.765 -73.341)" fill="#d8ab8c"/>
        <path id="Trazado_1187438" data-name="Trazado 1187438" d="M80.65,154.919l-1.117-5.649L78.151,150.6l1.126,5.7c1.305,6.6,7.841,8.907,12.164,8.052a9.187,9.187,0,0,0,5.307-3.241,8.991,8.991,0,0,1-3.934,1.868C88.492,163.826,81.955,161.519,80.65,154.919Z" transform="translate(-70.068 -138.099)" fill="#c7865b"/>
        <path id="Trazado_1187439" data-name="Trazado 1187439" d="M123.272,60.107a81.013,81.013,0,0,0-2.577-8.361s-6.8-.357-9.609.2a10.33,10.33,0,0,0-4.954,2.486l-.008.01C108.881,58.846,118.95,55.1,123.272,60.107Z" transform="translate(-94.841 -51.633)" fill="#ffd064"/>
        <path id="Trazado_1187440" data-name="Trazado 1187440" d="M86.808,84.495a.376.376,0,0,1,.009.046,9.425,9.425,0,0,0,1.819-8.362C87.066,78.412,85.631,81.018,86.808,84.495Z" transform="translate(-77.352 -73.37)" fill="#ffd064"/>
        <path id="Trazado_1187441" data-name="Trazado 1187441" d="M77.989,84.462l-.009-.046A11.24,11.24,0,0,1,79.808,76.1l.008-.01a10.36,10.36,0,0,0-3.208,9.7A7.492,7.492,0,0,0,77.989,84.462Z" transform="translate(-68.524 -73.291)" fill="#ebb044"/>
        <path id="Trazado_1187442" data-name="Trazado 1187442" d="M283.6,93.9s-3.259-12.723-8.507-12.723-9.754,8.227-9.754,8.227c0,2.451-.343,5.459-.343,6.128,0,2.693,2.735,6.626,7.057,7.48a10.765,10.765,0,0,0,9.1-2.62,9.913,9.913,0,0,0,2.033-4.4Z" transform="translate(-235.54 -77.799)" fill="#d8ab8c"/>
        <path id="Trazado_1187443" data-name="Trazado 1187443" d="M264.43,166.349c-4.323-.855-7.057-4.787-7.057-7.48v-5.784c-1.373.253-1.373,2.167-1.373,3.764v3.393c0,2.693,2.735,6.626,7.057,7.48a10.88,10.88,0,0,0,10.131-3.65,11.015,11.015,0,0,1-8.758,2.277Z" transform="translate(-227.569 -141.477)" fill="#c7865b"/>
        <path id="Trazado_1187444" data-name="Trazado 1187444" d="M263.988,64.112c2.209-2.58,6.621-3.92,9.754-8.227,1.178,5.027,6.619,9.827,8.507,12.723L282.963,65a10.37,10.37,0,0,0-16.8-9.992,9.65,9.65,0,0,0-2.671,4.814A11.625,11.625,0,0,0,263.988,64.112Z" transform="translate(-234.184 -52.505)" fill="#5f6c75"/>
        <path id="Trazado_1187445" data-name="Trazado 1187445" d="M257.373,78.126a10.324,10.324,0,0,1,2.178-4.6A10.328,10.328,0,0,0,256,79.5v6.9a5.5,5.5,0,0,1,1.373-3.764Z" transform="translate(-227.569 -71.026)" fill="#4e5a61"/>
        <path id="Trazado_1187446" data-name="Trazado 1187446" d="M59.25,228.118l-2.028-.227a4.894,4.894,0,0,0-1,.491,7.65,7.65,0,0,0-1.293,3.3,2.733,2.733,0,0,0,2.733,2.733c.306,0,1.171-.623,1.446-.716a2.727,2.727,0,0,0,.143-.874Z" transform="translate(-49.502 -207.725)" fill="#d8ab8c"/>
        <path id="Trazado_1187447" data-name="Trazado 1187447" d="M46.644,234.9a5.158,5.158,0,0,1,.721-2.724,5.031,5.031,0,0,0-2.437,4.44,2.733,2.733,0,0,0,5.323.874,2.733,2.733,0,0,1-3.607-2.59Z" transform="translate(-40.646 -211.522)" fill="#c7865b"/>
        <path id="Trazado_1187448" data-name="Trazado 1187448" d="M430.178,227.891l-.312.035c0,1.034-.572,2.929-.572,3.751a2.733,2.733,0,0,0,2.733,2.733c.306,0,1.171-.623,1.446-.716a2.726,2.726,0,0,0,.143-.874A5.171,5.171,0,0,0,430.178,227.891Z" transform="translate(-381.037 -207.725)" fill="#d8ab8c"/>
        <path id="Trazado_1187449" data-name="Trazado 1187449" d="M421.01,231.374v-3.179l-1.716.192v4.7s1.224,2.733,2.733,2.733a2.734,2.734,0,0,0,2.59-1.86,2.733,2.733,0,0,1-3.607-2.59Z" transform="translate(-372.181 -207.995)" fill="#c7865b"/>
        <path id="Trazado_1187450" data-name="Trazado 1187450" d="M70.458,389.977l-2.617,2.155c.186,1.615.985,3.555,2.65,3.555.542,0,1.625-.82,2.075-1.056a3.244,3.244,0,0,0-2.107-4.655Z" transform="translate(-60.937 -351.267)" fill="#d8ab8c"/>
        <path id="Trazado_1187451" data-name="Trazado 1187451" d="M408.316,389.977a3.223,3.223,0,0,0-.732.277,2.488,2.488,0,0,0-.943,2.189,3.245,3.245,0,0,0,3.245,3.245,3.54,3.54,0,0,0,2.075-1.055,3.228,3.228,0,0,0,.365-1.355Z" transform="translate(-360.975 -351.267)" fill="#d8ab8c"/>
        <g id="Grupo_1226192" data-name="Grupo 1226192" transform="translate(5.512 38.986)">
          <path id="Trazado_1187452" data-name="Trazado 1187452" d="M57.066,408.811l-1.392,1.146a3.244,3.244,0,0,0,6.116,1.354,3.243,3.243,0,0,1-4.724-2.5Z" transform="translate(-55.674 -406.933)" fill="#c7865b"/>
          <path id="Trazado_1187453" data-name="Trazado 1187453" d="M401.014,393.9a3.225,3.225,0,0,1,.371-1.5,3.244,3.244,0,1,0,4.376,4.379,3.245,3.245,0,0,1-4.747-2.876Z" transform="translate(-360.288 -392.395)" fill="#c7865b"/>
        </g>
      </g>
      <g id="Grupo_1226194" data-name="Grupo 1226194" transform="translate(0 44.126)">
        <path id="Trazado_1187454" data-name="Trazado 1187454" d="M62.152,323.485a.858.858,0,0,0-.858.858,9.706,9.706,0,0,1-4.1,7.78L53.11,328.76a9.962,9.962,0,0,0,.234-3.349,6.73,6.73,0,0,0-1.241-3.434.858.858,0,0,0-1.331,1.083,5.3,5.3,0,0,1,.866,2.536,8.2,8.2,0,0,1-.2,2.792,1.632,1.632,0,0,0-.028.655,4.1,4.1,0,0,0-.651,6.721,34.287,34.287,0,0,1-8.061.964,20.343,20.343,0,0,1-8.115-1.366v-5.308a.858.858,0,0,0-1.716,0v5.307a20.34,20.34,0,0,1-8.115,1.367,34.116,34.116,0,0,1-8.066-.96,4.1,4.1,0,0,0-.646-6.726,1.632,1.632,0,0,0-.028-.654,8.2,8.2,0,0,1-.2-2.792,5.311,5.311,0,0,1,.861-2.53.858.858,0,1,0-1.326-1.089,6.73,6.73,0,0,0-1.241,3.435,9.968,9.968,0,0,0,.234,3.349l-4.084,3.362a10.357,10.357,0,0,1-3.577-4.7.858.858,0,1,0-1.617.576,11.928,11.928,0,0,0,4.231,5.551,1.648,1.648,0,0,0,.839.307,4.112,4.112,0,0,0,3.755,2.877,33.854,33.854,0,0,0,10.867,1.715c5.079,0,7.928-1.093,8.973-1.6,1.045.505,3.894,1.6,8.973,1.6a33.691,33.691,0,0,0,10.867-1.715,4.112,4.112,0,0,0,3.755-2.877,1.648,1.648,0,0,0,.839-.307,11.421,11.421,0,0,0,4.854-9.2A.858.858,0,0,0,62.152,323.485ZM14.043,335.016a2.39,2.39,0,0,1-2.332-1.875l3.282-2.7a2.387,2.387,0,0,1-.951,4.577Zm39.357,0a2.387,2.387,0,0,1-.95-4.577l3.282,2.7A2.391,2.391,0,0,1,53.4,335.016Z" transform="translate(-4.432 -289.909)"/>
        <path id="Trazado_1187455" data-name="Trazado 1187455" d="M1.716,78.56a9.273,9.273,0,0,1,2.892-6.983,3.59,3.59,0,0,0,6.244.506c1.334,1.889,3.893,4.751,7.145,4.751a5.223,5.223,0,0,0,4.724-3.558c2.536,2.9,4.587,2.706,5.423,2.447a2.923,2.923,0,0,0,.287-.106v5.222a.858.858,0,1,0,1.716,0V75.617a2.924,2.924,0,0,0,.288.106,3.878,3.878,0,0,0,3.111-.482,9.007,9.007,0,0,0,2.31-1.964,5.222,5.222,0,0,0,4.724,3.557c3.267,0,5.815-2.851,7.147-4.746a3.59,3.59,0,0,0,6.24-.507,9.037,9.037,0,0,1,2.46,3.968.858.858,0,0,0,1.641-.5,10.8,10.8,0,0,0-2.632-4.42,8.029,8.029,0,0,0,2.212-.368,1.246,1.246,0,0,0,.456-2.086c-1.494-1.419-1.153-2.48-.474-4.593a16.735,16.735,0,0,0,1-5.184,6.268,6.268,0,0,0-1.808-4.457,5.96,5.96,0,0,0-4.255-1.784h-.025a6.041,6.041,0,0,0-3.3,1,.858.858,0,0,0-.376.849,9.478,9.478,0,0,1-.069,3.317l-.34,1.717c-.407-.5-.861-1.032-1.346-1.6-2.265-2.654-5.083-5.957-5.857-9.264a.858.858,0,0,0-1.529-.309,21.212,21.212,0,0,1-5.9,5.147,18.91,18.91,0,0,0-3.675,2.877v-2.34a9.513,9.513,0,0,1,17.679-2.607.858.858,0,1,0,1.508-.819,11.23,11.23,0,0,0-19.931.361c-.786-2.649-1.825-5.51-1.885-5.675a.858.858,0,0,0-.761-.563c-.282-.015-6.939-.356-9.82.214a11.2,11.2,0,0,0-7.693,5.663.858.858,0,1,0,1.508.819,9.614,9.614,0,0,1,.8-1.234A8.276,8.276,0,0,1,9.6,55.693,9.426,9.426,0,0,1,9.714,54a.858.858,0,0,0-1.7-.266A11.2,11.2,0,0,0,8.1,57.649l.293,1.482a2.207,2.207,0,0,0-.508.041,2.724,2.724,0,0,0-1.643,1.065,3.091,3.091,0,0,0-.471,2.511A4.522,4.522,0,0,0,6.949,65.03,5.82,5.82,0,0,0,4.3,69.616,10.887,10.887,0,0,0,0,78.56a.858.858,0,1,0,1.716,0ZM50.478,57.649a11.21,11.21,0,0,0,.157-3.326,4.332,4.332,0,0,1,1.916-.453h.017a4.257,4.257,0,0,1,3.037,1.277,4.539,4.539,0,0,1,1.309,3.229A15.071,15.071,0,0,1,56,63.054c-.629,1.959-1.228,3.819.363,5.761a8.243,8.243,0,0,1-2.167.062,5.776,5.776,0,0,0-2.561-3.852,4.5,4.5,0,0,0,1.176-2.275,3.09,3.09,0,0,0-.471-2.511,2.724,2.724,0,0,0-1.644-1.065,2.178,2.178,0,0,0-.508-.041Zm-1.126,5.7.413-2.086v0a.507.507,0,0,1,.595-.4c.042.008,1.029.22.764,1.56a2.59,2.59,0,0,1-2.076,2.136A12.015,12.015,0,0,0,49.352,63.344ZM48.829,66.3A4.131,4.131,0,0,0,50,66.071a4.242,4.242,0,0,1,2.581,4.01,1.875,1.875,0,1,1-3.75,0ZM18,75.118c-3.337,0-6.013-4.354-6.533-5.26v-1.69A10.939,10.939,0,0,0,14.6,70.75a12.113,12.113,0,0,0,6.647,1.478A3.621,3.621,0,0,1,18,75.118Zm9.638-1.034c-.846.262-2.29-.257-3.972-2.355a10.086,10.086,0,0,0,3.477-2.073,5.872,5.872,0,0,1,1.29,3.441,1.077,1.077,0,0,1-.795.988Zm3.306,0a1.077,1.077,0,0,1-.8-.988,5.875,5.875,0,0,1,1.29-3.441,10.09,10.09,0,0,0,3.477,2.073C33.233,73.827,31.789,74.346,30.942,74.084Zm16.171-4.226a16.25,16.25,0,0,1-1.967,2.709c-1.058,1.164-2.71,2.551-4.565,2.551a3.619,3.619,0,0,1-3.252-2.89,12.112,12.112,0,0,0,6.648-1.478,10.935,10.935,0,0,0,3.138-2.581v1.69Zm-16.966-9.5c0-2.32,1.277-3.6,3.192-4.952a2.766,2.766,0,0,1,3.169.7.858.858,0,1,0,1.349-1.061A4.209,4.209,0,0,0,35.876,53.7a22.176,22.176,0,0,0,4.2-3.551,21.661,21.661,0,0,0,2.98,5.046,4.045,4.045,0,0,0-1.949.493.858.858,0,0,0,.843,1.495,2.691,2.691,0,0,1,3.186.584q.338.4.665.781c.887,1.04,1.667,1.954,2.209,2.726l-.344,1.738a8.9,8.9,0,0,1-4.525,6.237,10.1,10.1,0,0,1-6.631,1.139c-3.944-.78-6.366-4.392-6.366-6.639V60.356Zm.107,8.026a8.431,8.431,0,0,0-.97,1.458,8.829,8.829,0,0,0-.962-1.455,9.741,9.741,0,0,0,.967-1.5A9.727,9.727,0,0,0,30.254,68.382ZM17.269,46.139a52.588,52.588,0,0,1,8.828-.21c.357,1.006,1.137,3.253,1.729,5.273-2.333-1.286-5.26-1.491-7.919-1.677-2.687-.188-5.241-.367-6.568-1.616A9.5,9.5,0,0,1,17.269,46.139Zm-3.99,3.829c1.729.934,4.071,1.1,6.508,1.269,3.26.228,6.627.464,8.644,2.554v9.958c0,2.246-2.422,5.859-6.366,6.639a10.1,10.1,0,0,1-6.631-1.139,8.9,8.9,0,0,1-4.525-6.237L9.885,57.83a9.933,9.933,0,0,0,3.394-7.862ZM8.217,60.856a.507.507,0,0,1,.6.4v.005l.412,2.084a12,12,0,0,0,.3,1.207,2.4,2.4,0,0,1-1-.416,2.745,2.745,0,0,1-1.075-1.719C7.188,61.076,8.175,60.865,8.217,60.856Zm.359,5.218a4.106,4.106,0,0,0,1.172.224v3.783a1.875,1.875,0,1,1-3.75,0A4.275,4.275,0,0,1,8.576,66.074Z" transform="translate(0 -44.126)"/>
        <path id="Trazado_1187456" data-name="Trazado 1187456" d="M357.106,180.825a.716.716,0,0,1,.969.192.858.858,0,0,0,1.337-1.076,2.423,2.423,0,0,0-3.133-.62.858.858,0,1,0,.827,1.5Z" transform="translate(-315.123 -163.567)"/>
        <path id="Trazado_1187457" data-name="Trazado 1187457" d="M105.269,148.609a.858.858,0,0,0,1.2-.152,2.714,2.714,0,0,1,3.2-.6.858.858,0,0,0,.843-1.495,4.457,4.457,0,0,0-5.4,1.046A.858.858,0,0,0,105.269,148.609Z" transform="translate(-92.931 -134.226)"/>
        <path id="Trazado_1187458" data-name="Trazado 1187458" d="M197.118,165.365a2.422,2.422,0,0,0-3.133.62.858.858,0,1,0,1.337,1.076.716.716,0,0,1,.969-.192.858.858,0,1,0,.827-1.5Z" transform="translate(-171.624 -151.207)"/>
        <path id="Trazado_1187459" data-name="Trazado 1187459" d="M126.9,180.484a.858.858,0,0,0-.338-1.165,2.422,2.422,0,0,0-3.133.62.858.858,0,0,0,1.337,1.076.716.716,0,0,1,.969-.192A.858.858,0,0,0,126.9,180.484Z" transform="translate(-109.137 -163.564)"/>
        <path id="Trazado_1187460" data-name="Trazado 1187460" d="M147.228,218.884a.858.858,0,0,0,.151,1.2,5.077,5.077,0,0,0,3.11.969,6.5,6.5,0,0,0,1.261-.125,5.474,5.474,0,0,0,3.72-2.445.858.858,0,1,0-1.489-.853,4.227,4.227,0,0,1-5.55,1.1A.858.858,0,0,0,147.228,218.884Z" transform="translate(-130.224 -197.402)"/>
        <path id="Trazado_1187461" data-name="Trazado 1187461" d="M180.829,133.6a.858.858,0,0,0,1.2-.144,2.714,2.714,0,0,1,3.186-.659.858.858,0,1,0,.853-1.489,4.457,4.457,0,0,0-5.388,1.087A.858.858,0,0,0,180.829,133.6Z" transform="translate(-159.85 -120.905)"/>
        <path id="Trazado_1187462" data-name="Trazado 1187462" d="M294.505,219.248a3.756,3.756,0,0,1-2.564-1.614.858.858,0,1,0-1.489.853,5.473,5.473,0,0,0,3.72,2.445,6.508,6.508,0,0,0,1.261.125,5.077,5.077,0,0,0,3.11-.969.858.858,0,0,0-1.052-1.355,3.758,3.758,0,0,1-2.986.516Z" transform="translate(-257.121 -197.401)"/>
        <path id="Trazado_1187463" data-name="Trazado 1187463" d="M317.071,191.659a.858.858,0,0,0,1.165.338.716.716,0,0,1,.969.192.858.858,0,1,0,1.337-1.076,2.422,2.422,0,0,0-3.133-.62A.858.858,0,0,0,317.071,191.659Z" transform="translate(-280.701 -173.461)"/>
        <path id="Trazado_1187464" data-name="Trazado 1187464" d="M162.426,192.319a.858.858,0,0,0,1.206-.131A.716.716,0,0,1,164.6,192a.858.858,0,1,0,.827-1.5,2.422,2.422,0,0,0-3.133.62A.858.858,0,0,0,162.426,192.319Z" transform="translate(-143.559 -173.46)"/>
        <path id="Trazado_1187465" data-name="Trazado 1187465" d="M286.548,166.87a.716.716,0,0,1,.969.192.858.858,0,1,0,1.337-1.076,2.422,2.422,0,0,0-3.133-.62.858.858,0,1,0,.827,1.5Z" transform="translate(-252.638 -151.208)"/>
      </g>
    </g>
  </g>
</svg>
