<svg xmlns="http://www.w3.org/2000/svg" xmlns:xlink="http://www.w3.org/1999/xlink" width="103" height="103" viewBox="0 0 103 103">
  <defs>
    <filter id="Trazado_978624" x="0" y="0" width="103" height="103" filterUnits="userSpaceOnUse">
      <feOffset dy="3" input="SourceAlpha"/>
      <feGaussianBlur stdDeviation="3" result="blur"/>
      <feFlood flood-opacity="0.161"/>
      <feComposite operator="in" in2="blur"/>
      <feComposite in="SourceGraphic"/>
    </filter>
  </defs>
  <g id="Grupo_1226335" data-name="Grupo 1226335" transform="translate(-195 -3047)">
    <g id="Grupo_1226078" data-name="Grupo 1226078" transform="translate(4 -5248.644)">
      <g id="Grupo_1224953" data-name="Grupo 1224953" transform="translate(20 7462.644)">
        <g id="Grupo_1222589" data-name="Grupo 1222589">
          <g id="Grupo_1203109" data-name="Grupo 1203109" transform="translate(180 839)">
            <g id="Grupo_1176881" data-name="Grupo 1176881">
              <g id="Grupo_1175148" data-name="Grupo 1175148">
                <g id="Grupo_1173798" data-name="Grupo 1173798">
                  <g id="Grupo_1171925" data-name="Grupo 1171925">
                    <g id="Grupo_1164524" data-name="Grupo 1164524">
                      <g id="Grupo_1144123" data-name="Grupo 1144123">
                        <g transform="matrix(1, 0, 0, 1, -9, -6)" filter="url(#Trazado_978624)">
                          <g id="Trazado_978624-2" data-name="Trazado 978624" transform="translate(9 6)" fill="#fcf5f0">
                            <path d="M 42.5 83.5 C 36.96437835693359 83.5 31.59512901306152 82.41617584228516 26.54141235351562 80.27863311767578 C 21.65934181213379 78.21369171142578 17.27447128295898 75.25723266601562 13.50862312316895 71.49137878417969 C 9.742764472961426 67.72553253173828 6.786305904388428 63.34066009521484 4.721364498138428 58.45858764648438 C 2.583823442459106 53.40486907958984 1.5 48.03562164306641 1.5 42.5 C 1.5 36.96437835693359 2.583823442459106 31.59512901306152 4.721364498138428 26.54141235351562 C 6.786305904388428 21.65934181213379 9.742764472961426 17.27447128295898 13.50862312316895 13.50862312316895 C 17.27447128295898 9.742764472961426 21.65934181213379 6.786305904388428 26.54141235351562 4.721364498138428 C 31.59512901306152 2.583823442459106 36.96437835693359 1.5 42.5 1.5 C 48.03562164306641 1.5 53.40486907958984 2.583823442459106 58.45858764648438 4.721364498138428 C 63.34066009521484 6.786305904388428 67.72553253173828 9.742764472961426 71.49137878417969 13.50862312316895 C 75.25723266601562 17.27447128295898 78.21369171142578 21.65934181213379 80.27863311767578 26.54141235351562 C 82.41617584228516 31.59512901306152 83.5 36.96437835693359 83.5 42.5 C 83.5 48.03562164306641 82.41617584228516 53.40486907958984 80.27863311767578 58.45858764648438 C 78.21369171142578 63.34066009521484 75.25723266601562 67.72553253173828 71.49137878417969 71.49137878417969 C 67.72553253173828 75.25723266601562 63.34066009521484 78.21369171142578 58.45858764648438 80.27863311767578 C 53.40486907958984 82.41617584228516 48.03562164306641 83.5 42.5 83.5 Z" stroke="none"/>
                            <path d="M 42.5 3 C 37.16621398925781 3 31.99356079101562 4.043960571289062 27.125732421875 6.102882385253906 C 22.42246627807617 8.092185974121094 18.19785308837891 10.94070434570312 14.56928253173828 14.56928253173828 C 10.94070434570312 18.19785308837891 8.092185974121094 22.42246627807617 6.102882385253906 27.125732421875 C 4.043960571289062 31.99356079101562 3 37.16621398925781 3 42.5 C 3 47.83378601074219 4.043960571289062 53.00643920898438 6.102882385253906 57.87425231933594 C 8.092185974121094 62.57753372192383 10.94070434570312 66.80213165283203 14.56928253173828 70.43071746826172 C 18.19786834716797 74.05929565429688 22.42246627807617 76.90781402587891 27.125732421875 78.89711761474609 C 31.99356079101562 80.95603942871094 37.16621398925781 82 42.5 82 C 47.83378601074219 82 53.00642395019531 80.95603942871094 57.87425231933594 78.89711761474609 C 62.57753372192383 76.90781402587891 66.80213165283203 74.05929565429688 70.43071746826172 70.43071746826172 C 74.05929565429688 66.80213165283203 76.90781402587891 62.57753372192383 78.89711761474609 57.87425231933594 C 80.95603942871094 53.00642395019531 82 47.83378601074219 82 42.5 C 82 37.16621398925781 80.95603942871094 31.99356079101562 78.89711761474609 27.125732421875 C 76.90781402587891 22.42246627807617 74.05929565429688 18.19786834716797 70.43071746826172 14.56928253173828 C 66.80213165283203 10.94070434570312 62.57753372192383 8.092185974121094 57.87425231933594 6.102882385253906 C 53.00643920898438 4.043960571289062 47.83378601074219 3 42.5 3 M 42.5 0 C 65.97209167480469 0 85 19.02789306640625 85 42.5 C 85 65.97209167480469 65.97209167480469 85 42.5 85 C 19.02789306640625 85 0 65.97209167480469 0 42.5 C 0 19.02789306640625 19.02789306640625 0 42.5 0 Z" stroke="none" fill="#eca675"/>
                          </g>
                        </g>
                      </g>
                    </g>
                  </g>
                </g>
              </g>
            </g>
          </g>
        </g>
      </g>
    </g>
    <g id="leer" transform="translate(193.233 3066.25)">
      <g id="Grupo_1226333" data-name="Grupo 1226333" transform="translate(27.972 0.857)">
        <g id="Grupo_1226329" data-name="Grupo 1226329" transform="translate(6.462)">
          <path id="Trazado_1187739" data-name="Trazado 1187739" d="M128.834,26.588a18.835,18.835,0,1,0-37.667,0c0,10.542,8.432,11.337,18.833,11.337S128.834,37.129,128.834,26.588Z" transform="translate(-91.167 -7.5)" fill="#665e66"/>
          <path id="Trazado_1187740" data-name="Trazado 1187740" d="M109.753,37.927c-10.287-.013-18.586-.878-18.586-11.336A18.962,18.962,0,0,1,110,7.5c-5.294,0-9.585,8.546-9.585,19.087C100.416,36.969,104.574,37.9,109.753,37.927Z" transform="translate(-91.167 -7.504)" fill="#454045"/>
          <path id="Trazado_1187741" data-name="Trazado 1187741" d="M164.209,84.079A7.571,7.571,0,0,1,157,91.256q-5.011.237-10.022.1h-.006q-1.271-.035-2.541-.1a7.57,7.57,0,0,1-7.21-7.177q-.221-4.287-.036-8.576h0q.056-1.336.153-2.671c.618-2.933,3.035-5.441,6.412-6.911.1-.043.2-.086.3-.128a17.066,17.066,0,0,1,4.493-1.141,18.556,18.556,0,0,1,6.842.472h0c4.557,1.212,7.963,4.148,8.707,7.716a0,0,0,0,0,0,0A91.329,91.329,0,0,1,164.209,84.079Z" transform="translate(-131.851 -58.009)" fill="#f1d0a5"/>
          <path id="Trazado_1187742" data-name="Trazado 1187742" d="M146.977,101.176h-.006q-1.271-.035-2.541-.1a7.57,7.57,0,0,1-7.21-7.177,91.2,91.2,0,0,1,.117-11.248c.618-2.933,3.035-5.441,6.412-6.911.1-.043.2-.086.3-.128-.231,5.645-.286,13.824-.168,18.447C143.973,97.616,145.272,100.514,146.977,101.176Z" transform="translate(-131.852 -67.833)" fill="#f1b986"/>
          <path id="Trazado_1187743" data-name="Trazado 1187743" d="M156.039,65.123h0c-2.244,3.848-7.624,8.907-9.765,7.7-.783-.443-.681-1.354-.239-2.335a17.385,17.385,0,0,1-3.342,4.105c-1.44,1.213-3.175,1.967-4.855.909h0q.056-1.336.153-2.671c.618-2.933,3.035-5.441,6.412-6.911.1-.043.2-.086.3-.128a17.066,17.066,0,0,1,4.493-1.141,18.557,18.557,0,0,1,6.842.472Z" transform="translate(-132.505 -58.009)" fill="#665e66"/>
          <path id="Trazado_1187744" data-name="Trazado 1187744" d="M142.693,74.593c-1.44,1.213-3.175,1.967-4.855.909h0q.056-1.336.153-2.671c.618-2.933,3.035-5.441,6.412-6.911.1-.043.2-.086.3-.128a17.066,17.066,0,0,1,4.493-1.141,18.3,18.3,0,0,1,2.171-.127C146.666,66.165,136.957,74.593,142.693,74.593Z" transform="translate(-132.505 -58.009)" fill="#454045"/>
          <g id="Grupo_1226328" data-name="Grupo 1226328" transform="translate(8.131 24.338)">
            <ellipse id="Elipse_14622" data-name="Elipse 14622" cx="2.304" cy="1.461" rx="2.304" ry="1.461" fill="#df9380"/>
            <ellipse id="Elipse_14623" data-name="Elipse 14623" cx="2.304" cy="1.461" rx="2.304" ry="1.461" transform="translate(16.857)" fill="#f9a58e"/>
          </g>
          <path id="Trazado_1187745" data-name="Trazado 1187745" d="M164.9,50.431a7.229,7.229,0,0,1-.13,1.369c-.914-4.763-6.565-8.43-13.4-8.43a18.287,18.287,0,0,0-2.171.127,17.08,17.08,0,0,0-4.229,1.036q-.286.11-.565.232c-3.422,1.49-5.861,4.046-6.436,7.031a7.244,7.244,0,0,1-.128-1.364c0-3.564,2.631-6.683,6.565-8.395q.611-.266,1.262-.485a17.254,17.254,0,0,1,3.532-.785,18.285,18.285,0,0,1,2.171-.126c7.473,0,13.531,4.383,13.531,9.79Z" transform="translate(-132.505 -36.854)" fill="#da4a54"/>
          <path id="Trazado_1187746" data-name="Trazado 1187746" d="M145.666,48.612l-.7,2.981q-.286.11-.565.232c-3.422,1.49-5.861,4.046-6.436,7.031a7.244,7.244,0,0,1-.128-1.364c0-3.564,2.631-6.683,6.565-8.395Q145.014,48.831,145.666,48.612Z" transform="translate(-132.506 -43.915)" fill="#c32430"/>
        </g>
        <path id="Trazado_1187747" data-name="Trazado 1187747" d="M278.16,260.085V279.4a2.627,2.627,0,0,1-2.07,2.567l-17.156,3.718H256.72V261h2.214l16.043-3.477a2.627,2.627,0,0,1,3.183,2.566Z" transform="translate(-231.343 -228.898)" fill="#80b4fb"/>
        <path id="Trazado_1187748" data-name="Trazado 1187748" d="M89.235,261v24.689H86.856L69.7,281.967a2.627,2.627,0,0,1-2.07-2.567V260.085a2.627,2.627,0,0,1,3.183-2.566L86.856,261Z" transform="translate(-63.858 -228.898)" fill="#5490f9"/>
        <path id="Trazado_1187749" data-name="Trazado 1187749" d="M235.9,313.108V288.419h4.593v24.689" transform="translate(-212.903 -256.322)" fill="#bed8fb"/>
        <g id="Grupo_1226332" data-name="Grupo 1226332" transform="translate(0 33.558)">
          <g id="Grupo_1226330" data-name="Grupo 1226330">
            <path id="Trazado_1187750" data-name="Trazado 1187750" d="M37.915,308.161h-.9a2.4,2.4,0,0,1-2.4-2.4V303.6a2.4,2.4,0,0,1,2.4-2.4h.9a2.4,2.4,0,0,1,2.4,2.4v2.156A2.4,2.4,0,0,1,37.915,308.161Z" transform="translate(-34.614 -301.2)" fill="#f1d0a5"/>
            <path id="Trazado_1187751" data-name="Trazado 1187751" d="M38.378,308.116a2.275,2.275,0,0,1-.462.046h-.9a2.4,2.4,0,0,1-2.4-2.4V303.6a2.4,2.4,0,0,1,2.4-2.4h.9a2.275,2.275,0,0,1,.462.046,2.4,2.4,0,0,0-1.939,2.357v2.156A2.4,2.4,0,0,0,38.378,308.116Z" transform="translate(-34.615 -301.2)" fill="#f1b986"/>
          </g>
          <g id="Grupo_1226331" data-name="Grupo 1226331" transform="translate(44.887)">
            <path id="Trazado_1187752" data-name="Trazado 1187752" d="M430.77,308.161h-.9a2.4,2.4,0,0,1-2.4-2.4V303.6a2.4,2.4,0,0,1,2.4-2.4h.9a2.4,2.4,0,0,1,2.4,2.4v2.156A2.4,2.4,0,0,1,430.77,308.161Z" transform="translate(-427.469 -301.2)" fill="#f1d0a5"/>
            <path id="Trazado_1187753" data-name="Trazado 1187753" d="M431.233,308.116a2.275,2.275,0,0,1-.462.046h-.9a2.4,2.4,0,0,1-2.4-2.4V303.6a2.4,2.4,0,0,1,2.4-2.4h.9a2.275,2.275,0,0,1,.462.046,2.4,2.4,0,0,0-1.939,2.357v2.156A2.4,2.4,0,0,0,431.233,308.116Z" transform="translate(-427.47 -301.2)" fill="#f1b986"/>
          </g>
        </g>
      </g>
      <g id="Grupo_1226334" data-name="Grupo 1226334" transform="translate(27.115 0)">
        <path id="Trazado_1187754" data-name="Trazado 1187754" d="M231.3,230.761a.857.857,0,0,0-1.142.407,2.206,2.206,0,0,1-3.986,0,.857.857,0,1,0-1.548.735,3.92,3.92,0,0,0,7.083,0A.857.857,0,0,0,231.3,230.761Z" transform="translate(-201.98 -204.321)"/>
        <path id="Trazado_1187755" data-name="Trazado 1187755" d="M298.688,181.364a6.577,6.577,0,0,0-1.25-.12,2.563,2.563,0,0,0,.139-.843c0-1.011-.552-1.833-1.232-1.833s-1.232.822-1.232,1.833a2.407,2.407,0,0,0,.3,1.188,3.73,3.73,0,0,0-.576.256.858.858,0,0,0,.43,1.6.847.847,0,0,0,.43-.117,4.151,4.151,0,0,1,2.671-.281.857.857,0,0,0,.324-1.683Z" transform="translate(-263.867 -158.165)"/>
        <path id="Trazado_1187756" data-name="Trazado 1187756" d="M179.107,181.844a3.738,3.738,0,0,0-.576-.256,2.407,2.407,0,0,0,.3-1.188c0-1.011-.552-1.833-1.232-1.833s-1.232.822-1.232,1.833a2.56,2.56,0,0,0,.139.843,6.578,6.578,0,0,0-1.25.12.857.857,0,1,0,.324,1.683,4.157,4.157,0,0,1,2.67.28.857.857,0,0,0,.861-1.482Z" transform="translate(-157.711 -158.164)"/>
        <path id="Trazado_1187757" data-name="Trazado 1187757" d="M329.463,312.6l-9.489,2.057a.857.857,0,1,0,.363,1.675l9.489-2.057a.857.857,0,1,0-.363-1.675Z" transform="translate(-285.914 -276.864)"/>
        <path id="Trazado_1187758" data-name="Trazado 1187758" d="M329.463,340.468l-9.489,2.057a.857.857,0,1,0,.363,1.675l9.489-2.057a.857.857,0,1,0-.363-1.675Z" transform="translate(-285.914 -301.549)"/>
        <path id="Trazado_1187759" data-name="Trazado 1187759" d="M76.16,33.558h-.513V32.044a3.484,3.484,0,0,0-4.222-3.4l-2.442.529c2.668-1.961,3.974-5,3.974-9.224a19.692,19.692,0,1,0-39.38,0c0,4.22,1.307,7.263,3.976,9.225l-2.444-.53a3.484,3.484,0,0,0-4.222,3.4v1.514h-.513a3.263,3.263,0,0,0-3.259,3.259v2.156a3.263,3.263,0,0,0,3.259,3.259h.513v9.125a3.5,3.5,0,0,0,2.746,3.4l17.156,3.718a.857.857,0,0,0,.181.019h4.593a.857.857,0,0,0,.181-.019L72.9,54.763a3.5,3.5,0,0,0,2.746-3.4V42.233h.513a3.263,3.263,0,0,0,3.259-3.259V36.817A3.263,3.263,0,0,0,76.16,33.558ZM35.291,19.945a17.978,17.978,0,1,1,35.952,0c0,3.886-1.2,6.522-3.73,8.15a8.477,8.477,0,0,0,.134-1.124c.024-.463.042-.886.058-1.293a.857.857,0,1,0-1.713-.064c-.015.4-.033.815-.057,1.27a6.718,6.718,0,0,1-.976,3.158L55.472,32.1h-4.41l-9.42-2.042a6.7,6.7,0,0,1-.985-3.173c-.124-2.408-.149-4.841-.078-7.27a3.823,3.823,0,0,0,.866.1,4.274,4.274,0,0,0,1.043-.133c1.886-.474,3.577-2.184,4.719-3.63a2.093,2.093,0,0,0,.573.469c1.678.947,4.089-.589,5.817-2.044a25.275,25.275,0,0,0,4.757-5.4c3.886,1.2,6.8,3.745,7.47,6.842.151,2.128.229,4.284.23,6.411a.857.857,0,0,0,.857.856h0a.857.857,0,0,0,.856-.857c0-2.1-.076-4.224-.22-6.325a8.08,8.08,0,0,0,.136-1.47,9.457,9.457,0,0,0-4.317-7.617A17.254,17.254,0,0,0,53.3,3.786a19.188,19.188,0,0,0-2.27.132,17.744,17.744,0,0,0-5.038,1.335A13.225,13.225,0,0,0,40.9,9.007a8.67,8.67,0,0,0-1.995,5.427,8.147,8.147,0,0,0,.137,1.479,92.424,92.424,0,0,0-.1,11.058,8.448,8.448,0,0,0,.141,1.166c-2.579-1.625-3.8-4.274-3.8-8.192ZM53.3,6.516a19.182,19.182,0,0,0-2.27.132,17.751,17.751,0,0,0-5.038,1.334,13.834,13.834,0,0,0-4.245,2.811,10.951,10.951,0,0,1,4.929-3.968,16.034,16.034,0,0,1,4.554-1.2A17.488,17.488,0,0,1,53.3,5.5c5.193,0,9.667,2.213,11.623,5.371a12.746,12.746,0,0,0-2.243-1.794A17.677,17.677,0,0,0,53.3,6.516ZM46.672,9.553a16.042,16.042,0,0,1,4.555-1.2,17.75,17.75,0,0,1,5.363.189,24.145,24.145,0,0,1-4.1,4.524c-2.844,2.4-3.83,1.885-3.87,1.863-.3-.172-.054-.85.122-1.239a.857.857,0,0,0-1.526-.777c-.686,1.206-2.949,4.456-5.151,5.008a2.263,2.263,0,0,1-1.42-.075c.033-.68.072-1.36.12-2.038.565-2.587,2.706-4.859,5.9-6.251ZM28.829,38.973V36.817a1.547,1.547,0,0,1,1.545-1.545h.9a1.547,1.547,0,0,1,1.545,1.545v2.156a1.547,1.547,0,0,1-1.545,1.545h-.9A1.547,1.547,0,0,1,28.829,38.973ZM32.6,51.358V41.949a3.263,3.263,0,0,0,1.931-2.975V36.817A3.263,3.263,0,0,0,32.6,33.842v-1.8a1.77,1.77,0,0,1,2.145-1.729l15.367,3.331V39.07a.857.857,0,0,0,1.714,0V33.811h2.879V56.786H51.827V42.5a.857.857,0,0,0-1.714,0V56.581L34,53.088a1.78,1.78,0,0,1-1.395-1.73Zm39.937,1.73L56.42,56.581V33.645l15.368-3.331a1.77,1.77,0,0,1,2.145,1.729v1.8A3.263,3.263,0,0,0,72,36.817v2.156a3.263,3.263,0,0,0,1.931,2.975v9.409A1.78,1.78,0,0,1,72.538,53.088ZM77.7,38.973a1.547,1.547,0,0,1-1.545,1.545h-.9a1.547,1.547,0,0,1-1.545-1.545V36.817a1.547,1.547,0,0,1,1.545-1.545h.9A1.547,1.547,0,0,1,77.7,36.817Z" transform="translate(-27.115 0)"/>
      </g>
    </g>
  </g>
</svg>
