<svg xmlns="http://www.w3.org/2000/svg" xmlns:xlink="http://www.w3.org/1999/xlink" width="103" height="103" viewBox="0 0 103 103">
  <defs>
    <filter id="Trazado_978624" x="0" y="0" width="103" height="103" filterUnits="userSpaceOnUse">
      <feOffset dy="3" input="SourceAlpha"/>
      <feGaussianBlur stdDeviation="3" result="blur"/>
      <feFlood flood-opacity="0.161"/>
      <feComposite operator="in" in2="blur"/>
      <feComposite in="SourceGraphic"/>
    </filter>
  </defs>
  <g id="Grupo_1226366" data-name="Grupo 1226366" transform="translate(-171 -5411)">
    <g id="Grupo_1226079" data-name="Grupo 1226079" transform="translate(0 4615)">
      <g id="Grupo_1222970" data-name="Grupo 1222970" transform="translate(0 -37)">
        <g id="Grupo_1222589" data-name="Grupo 1222589">
          <g id="Grupo_1203109" data-name="Grupo 1203109" transform="translate(180 839)">
            <g id="Grupo_1176881" data-name="Grupo 1176881">
              <g id="Grupo_1175148" data-name="Grupo 1175148">
                <g id="Grupo_1173798" data-name="Grupo 1173798">
                  <g id="Grupo_1171925" data-name="Grupo 1171925">
                    <g id="Grupo_1164524" data-name="Grupo 1164524">
                      <g id="Grupo_1144123" data-name="Grupo 1144123">
                        <g transform="matrix(1, 0, 0, 1, -9, -6)" filter="url(#Trazado_978624)">
                          <g id="Trazado_978624-2" data-name="Trazado 978624" transform="translate(9 6)" fill="#e7f2f8">
                            <path d="M 42.5 83.5 C 36.96437835693359 83.5 31.59512901306152 82.41617584228516 26.54141235351562 80.27863311767578 C 21.65934181213379 78.21369171142578 17.27447128295898 75.25723266601562 13.50862312316895 71.49137878417969 C 9.742764472961426 67.72553253173828 6.786305904388428 63.34066009521484 4.721364498138428 58.45858764648438 C 2.583823442459106 53.40486907958984 1.5 48.03562164306641 1.5 42.5 C 1.5 36.96437835693359 2.583823442459106 31.59512901306152 4.721364498138428 26.54141235351562 C 6.786305904388428 21.65934181213379 9.742764472961426 17.27447128295898 13.50862312316895 13.50862312316895 C 17.27447128295898 9.742764472961426 21.65934181213379 6.786305904388428 26.54141235351562 4.721364498138428 C 31.59512901306152 2.583823442459106 36.96437835693359 1.5 42.5 1.5 C 48.03562164306641 1.5 53.40486907958984 2.583823442459106 58.45858764648438 4.721364498138428 C 63.34066009521484 6.786305904388428 67.72553253173828 9.742764472961426 71.49137878417969 13.50862312316895 C 75.25723266601562 17.27447128295898 78.21369171142578 21.65934181213379 80.27863311767578 26.54141235351562 C 82.41617584228516 31.59512901306152 83.5 36.96437835693359 83.5 42.5 C 83.5 48.03562164306641 82.41617584228516 53.40486907958984 80.27863311767578 58.45858764648438 C 78.21369171142578 63.34066009521484 75.25723266601562 67.72553253173828 71.49137878417969 71.49137878417969 C 67.72553253173828 75.25723266601562 63.34066009521484 78.21369171142578 58.45858764648438 80.27863311767578 C 53.40486907958984 82.41617584228516 48.03562164306641 83.5 42.5 83.5 Z" stroke="none"/>
                            <path d="M 42.5 3 C 37.16621398925781 3 31.99356079101562 4.043960571289062 27.125732421875 6.102882385253906 C 22.42246627807617 8.092185974121094 18.19785308837891 10.94070434570312 14.56928253173828 14.56928253173828 C 10.94070434570312 18.19785308837891 8.092185974121094 22.42246627807617 6.102882385253906 27.125732421875 C 4.043960571289062 31.99356079101562 3 37.16621398925781 3 42.5 C 3 47.83378601074219 4.043960571289062 53.00643920898438 6.102882385253906 57.87425231933594 C 8.092185974121094 62.57753372192383 10.94070434570312 66.80213165283203 14.56928253173828 70.43071746826172 C 18.19786834716797 74.05929565429688 22.42246627807617 76.90781402587891 27.125732421875 78.89711761474609 C 31.99356079101562 80.95603942871094 37.16621398925781 82 42.5 82 C 47.83378601074219 82 53.00642395019531 80.95603942871094 57.87425231933594 78.89711761474609 C 62.57753372192383 76.90781402587891 66.80213165283203 74.05929565429688 70.43071746826172 70.43071746826172 C 74.05929565429688 66.80213165283203 76.90781402587891 62.57753372192383 78.89711761474609 57.87425231933594 C 80.95603942871094 53.00642395019531 82 47.83378601074219 82 42.5 C 82 37.16621398925781 80.95603942871094 31.99356079101562 78.89711761474609 27.125732421875 C 76.90781402587891 22.42246627807617 74.05929565429688 18.19786834716797 70.43071746826172 14.56928253173828 C 66.80213165283203 10.94070434570312 62.57753372192383 8.092185974121094 57.87425231933594 6.102882385253906 C 53.00643920898438 4.043960571289062 47.83378601074219 3 42.5 3 M 42.5 0 C 65.97209167480469 0 85 19.02789306640625 85 42.5 C 85 65.97209167480469 65.97209167480469 85 42.5 85 C 19.02789306640625 85 0 65.97209167480469 0 42.5 C 0 19.02789306640625 19.02789306640625 0 42.5 0 Z" stroke="none" fill="#248abf"/>
                          </g>
                        </g>
                      </g>
                    </g>
                  </g>
                </g>
              </g>
            </g>
          </g>
        </g>
      </g>
    </g>
    <g id="justicia" transform="translate(195.802 5429.802)">
      <g id="Grupo_1226364" data-name="Grupo 1226364" transform="translate(0.861 0.861)">
        <g id="Grupo_1226336" data-name="Grupo 1226336" transform="translate(20.669 3.445)">
          <path id="Trazado_1187760" data-name="Trazado 1187760" d="M30.167,5A5.167,5.167,0,1,1,25,10.167,5.171,5.171,0,0,1,30.167,5Zm1.722,5.167a1.722,1.722,0,1,0-1.722,1.722A1.728,1.728,0,0,0,31.89,10.167Z" transform="translate(-25 -5)" fill="#ef7385"/>
        </g>
        <g id="Grupo_1226337" data-name="Grupo 1226337" transform="translate(17.225)">
          <path id="Trazado_1187761" data-name="Trazado 1187761" d="M34.78,9.612a5.167,5.167,0,1,0-5.167,5.167A5.171,5.171,0,0,0,34.78,9.612ZM21.293,7.89a1.722,1.722,0,0,0,1.223-2.937L22.3,4.738,24.738,2.3l.215.215A1.722,1.722,0,0,0,27.89,1.293V1h3.445v.293a1.722,1.722,0,0,0,2.937,1.223l.215-.215,2.437,2.437-.215.215A1.722,1.722,0,0,0,37.932,7.89h.293v3.445h-.293a1.722,1.722,0,0,0-1.223,2.937l.215.215-2.437,2.437-.215-.215a1.722,1.722,0,0,0-2.937,1.223v.293H27.89v-.293a1.722,1.722,0,0,0-2.937-1.223l-.215.215L22.3,14.487l.215-.215a1.722,1.722,0,0,0-1.223-2.937H21V7.89Z" transform="translate(-21 -1)" fill="#ef7385"/>
        </g>
        <g id="Grupo_1226338" data-name="Grupo 1226338" transform="translate(34.449 18.947)">
          <path id="Trazado_1187762" data-name="Trazado 1187762" d="M41,23H53.057a5.175,5.175,0,0,1-5.167,5.167H46.167A5.171,5.171,0,0,1,41,23Z" transform="translate(-41 -23)" fill="#dfb28b"/>
        </g>
        <g id="Grupo_1226339" data-name="Grupo 1226339" transform="translate(5.167 18.947)">
          <path id="Trazado_1187763" data-name="Trazado 1187763" d="M7,23H19.057a5.175,5.175,0,0,1-5.167,5.167H12.167A5.171,5.171,0,0,1,7,23Z" transform="translate(-7 -23)" fill="#dfb28b"/>
        </g>
        <g id="Grupo_1226340" data-name="Grupo 1226340" transform="translate(34.449 6.89)">
          <path id="Trazado_1187764" data-name="Trazado 1187764" d="M53.057,9.861v1.722a.864.864,0,0,1-.861.861H41V9H52.2A.864.864,0,0,1,53.057,9.861Z" transform="translate(-41 -9)" fill="#b27946"/>
        </g>
        <g id="Grupo_1226341" data-name="Grupo 1226341" transform="translate(5.167 6.89)">
          <path id="Trazado_1187765" data-name="Trazado 1187765" d="M19.057,9v3.445H7.861A.864.864,0,0,1,7,11.584V9.861A.864.864,0,0,1,7.861,9Z" transform="translate(-7 -9)" fill="#b27946"/>
        </g>
        <g id="Grupo_1226342" data-name="Grupo 1226342" transform="translate(24.114 17.225)">
          <path id="Trazado_1187766" data-name="Trazado 1187766" d="M32.445,21V31.292a6.5,6.5,0,0,1-.715.043H29V21Z" transform="translate(-29 -21)" fill="#b27946"/>
        </g>
        <g id="Grupo_1226343" data-name="Grupo 1226343" transform="translate(18.947 25.837)">
          <path id="Trazado_1187767" data-name="Trazado 1187767" d="M23,41.335V37.029a4.308,4.308,0,0,1,4.306-4.306H30.9a6.5,6.5,0,0,0,.715-.043A5.911,5.911,0,0,0,35.057,31a10.286,10.286,0,0,1,1.722,5.693v4.642H35.057v-.2a1.729,1.729,0,0,0-1.507-1.714l-2.678-.336a4.312,4.312,0,0,1-2.067-.844v.009l-2.9.965a1.731,1.731,0,0,0-1.18,1.636v.482Z" transform="translate(-23 -31)" fill="#fcd770"/>
        </g>
        <g id="Grupo_1226344" data-name="Grupo 1226344" transform="translate(34.449 27.559)">
          <path id="Trazado_1187768" data-name="Trazado 1187768" d="M48.527,38.52v.009l-2.9.965a1.731,1.731,0,0,0-1.18,1.636v2.2a5.162,5.162,0,0,0,3.273,4.806v.009l-.689,2.076a4.4,4.4,0,0,0-1.989,1.352,4.114,4.114,0,0,0-.491.723A8.863,8.863,0,0,1,41,45.2V41.612a8.612,8.612,0,0,1,17.225,0V45.2a8.863,8.863,0,0,1-3.548,7.1,4.114,4.114,0,0,0-.491-.723A4.4,4.4,0,0,0,52.2,50.225l-.689-2.076V48.14a5.029,5.029,0,0,0,1.757-1.154,5.119,5.119,0,0,0,1.516-3.652V41.414A1.729,1.729,0,0,0,53.272,39.7l-2.678-.336A4.312,4.312,0,0,1,48.527,38.52Z" transform="translate(-41 -33)" fill="#b27946"/>
        </g>
        <g id="Grupo_1226345" data-name="Grupo 1226345" transform="translate(1.722 27.559)">
          <path id="Trazado_1187769" data-name="Trazado 1187769" d="M8.8,38.529l-2.9.965a1.731,1.731,0,0,0-1.18,1.636v.482H3V39.89a6.89,6.89,0,1,1,13.78,0v1.722H15.057v-.2A1.729,1.729,0,0,0,13.55,39.7l-2.678-.336A4.312,4.312,0,0,1,8.8,38.52Z" transform="translate(-3 -33)" fill="#b27946"/>
        </g>
        <g id="Grupo_1226346" data-name="Grupo 1226346" transform="translate(43.061 44.784)">
          <path id="Trazado_1187770" data-name="Trazado 1187770" d="M56.555,56.557l.474,3.333H51V54.722L53.584,53a4.4,4.4,0,0,1,1.989,1.352,4.114,4.114,0,0,1,.491.723A4.418,4.418,0,0,1,56.555,56.557Z" transform="translate(-51 -53)" fill="#ef7385"/>
        </g>
        <g id="Grupo_1226347" data-name="Grupo 1226347" transform="translate(37.033 44.784)">
          <path id="Trazado_1187771" data-name="Trazado 1187771" d="M50.029,54.722V59.89H44l.474-3.333a4.418,4.418,0,0,1,.491-1.481,4.114,4.114,0,0,1,.491-.723A4.4,4.4,0,0,1,47.445,53Z" transform="translate(-44 -53)" fill="#ef7385"/>
        </g>
        <g id="Grupo_1226348" data-name="Grupo 1226348" transform="translate(26.698 44.784)">
          <path id="Trazado_1187772" data-name="Trazado 1187772" d="M33.722,53a4.4,4.4,0,0,1,2.971,3.557l.474,3.333H32.861L32,54.722Z" transform="translate(-32 -53)" fill="#e6e9ed"/>
        </g>
        <g id="Grupo_1226349" data-name="Grupo 1226349" transform="translate(19.808 44.784)">
          <path id="Trazado_1187773" data-name="Trazado 1187773" d="M29.167,54.722l-.861,5.167H24l.474-3.333A4.4,4.4,0,0,1,27.445,53Z" transform="translate(-24 -53)" fill="#e6e9ed"/>
        </g>
        <g id="Grupo_1226350" data-name="Grupo 1226350" transform="translate(9.473 44.784)">
          <path id="Trazado_1187774" data-name="Trazado 1187774" d="M13.722,53a4.4,4.4,0,0,1,2.971,3.557l.474,3.333H12.861L12,54.722Z" transform="translate(-12 -53)" fill="#e6e9ed"/>
        </g>
        <g id="Grupo_1226351" data-name="Grupo 1226351" transform="translate(2.584 44.784)">
          <path id="Trazado_1187775" data-name="Trazado 1187775" d="M9.167,54.722,8.306,59.89H4l.474-3.333A4.41,4.41,0,0,1,7.445,53Z" transform="translate(-4 -53)" fill="#e6e9ed"/>
        </g>
        <g id="Grupo_1226352" data-name="Grupo 1226352" transform="translate(24.114 46.506)">
          <path id="Trazado_1187776" data-name="Trazado 1187776" d="M31.584,55l.861,5.167H29L29.861,55Z" transform="translate(-29 -55)" fill="#ef7385"/>
        </g>
        <g id="Grupo_1226353" data-name="Grupo 1226353" transform="translate(6.89 46.506)">
          <path id="Trazado_1187777" data-name="Trazado 1187777" d="M11.584,55l.861,5.167H9L9.861,55Z" transform="translate(-9 -55)" fill="#ef7385"/>
        </g>
        <g id="Grupo_1226354" data-name="Grupo 1226354" transform="translate(40.478 42.7)">
          <path id="Trazado_1187778" data-name="Trazado 1187778" d="M53.167,52.664l-2.584,1.722L48,52.664l.689-2.076V50.58a5.116,5.116,0,0,0,1.895.362l1.895-.362v.009Z" transform="translate(-48 -50.58)" fill="#f5e0cd"/>
        </g>
        <g id="Grupo_1226355" data-name="Grupo 1226355" transform="translate(37.894 33.08)">
          <path id="Trazado_1187779" data-name="Trazado 1187779" d="M55.335,42.3v1.921a5.119,5.119,0,0,1-1.516,3.652,5.029,5.029,0,0,1-1.757,1.154l-1.895.362A5.173,5.173,0,0,1,45,44.224v-2.2a1.731,1.731,0,0,1,1.18-1.636l2.9-.965V39.41a4.312,4.312,0,0,0,2.067.844l2.678.336A1.729,1.729,0,0,1,55.335,42.3Z" transform="translate(-45 -39.41)" fill="#f5e0cd"/>
        </g>
        <g id="Grupo_1226356" data-name="Grupo 1226356" transform="translate(20.669 33.08)">
          <path id="Trazado_1187780" data-name="Trazado 1187780" d="M35.335,42.5v1.722a5.118,5.118,0,0,1-1.516,3.652,5.029,5.029,0,0,1-1.757,1.154,5.172,5.172,0,0,1-6.769-3.083A5.2,5.2,0,0,1,25,44.224v-2.2a1.731,1.731,0,0,1,1.18-1.636l2.9-.965V39.41a4.312,4.312,0,0,0,2.067.844l2.678.336A1.729,1.729,0,0,1,35.335,42.3Z" transform="translate(-25 -39.41)" fill="#f5e0cd"/>
        </g>
        <g id="Grupo_1226357" data-name="Grupo 1226357" transform="translate(23.253 42.7)">
          <path id="Trazado_1187781" data-name="Trazado 1187781" d="M32.478,50.589l.689,2.076-1.722,1.722H29.722L28,52.664l.689-2.076V50.58a5.143,5.143,0,0,0,3.789,0Z" transform="translate(-28 -50.58)" fill="#f5e0cd"/>
        </g>
        <g id="Grupo_1226358" data-name="Grupo 1226358" transform="translate(30.711 36.171)">
          <path id="Trazado_1187782" data-name="Trazado 1187782" d="M39.89,45.937a1.684,1.684,0,0,1-1.214.508H36.66a5.2,5.2,0,0,0,.293-1.722V43h1.722A1.728,1.728,0,0,1,40.4,44.722,1.684,1.684,0,0,1,39.89,45.937Z" transform="translate(-36.66 -43)" fill="#f5e0cd"/>
        </g>
        <g id="Grupo_1226359" data-name="Grupo 1226359" transform="translate(17.225 36.171)">
          <path id="Trazado_1187783" data-name="Trazado 1187783" d="M24.738,46.445H22.722A1.735,1.735,0,0,1,21,44.722,1.728,1.728,0,0,1,22.722,43h1.722v1.722A5.2,5.2,0,0,0,24.738,46.445Z" transform="translate(-21 -43)" fill="#f5e0cd"/>
        </g>
        <g id="Grupo_1226360" data-name="Grupo 1226360" transform="translate(13.487 36.171)">
          <path id="Trazado_1187784" data-name="Trazado 1187784" d="M18.675,43A1.728,1.728,0,0,1,20.4,44.722a1.735,1.735,0,0,1-1.722,1.722H16.66a5.2,5.2,0,0,0,.293-1.722V43Z" transform="translate(-16.66 -43)" fill="#f5e0cd"/>
        </g>
        <g id="Grupo_1226361" data-name="Grupo 1226361" transform="translate(3.445 33.08)">
          <path id="Trazado_1187785" data-name="Trazado 1187785" d="M15.335,42.5v1.722a5.118,5.118,0,0,1-1.516,3.652A5.138,5.138,0,0,1,8.281,49.03,5.142,5.142,0,0,1,5,44.224v-2.2a1.731,1.731,0,0,1,1.18-1.636l2.9-.965V39.41a4.312,4.312,0,0,0,2.067.844l2.678.336A1.729,1.729,0,0,1,15.335,42.3Z" transform="translate(-5 -39.41)" fill="#f5e0cd"/>
        </g>
        <g id="Grupo_1226362" data-name="Grupo 1226362" transform="translate(6.029 42.7)">
          <path id="Trazado_1187786" data-name="Trazado 1187786" d="M12.47,50.58l.7,2.084-1.722,1.722H9.722L8,52.664l.7-2.084a5.1,5.1,0,0,0,3.772,0Z" transform="translate(-8 -50.58)" fill="#f5e0cd"/>
        </g>
        <g id="Grupo_1226363" data-name="Grupo 1226363" transform="translate(0 36.171)">
          <path id="Trazado_1187787" data-name="Trazado 1187787" d="M4.445,44.722a5.2,5.2,0,0,0,.293,1.722H2.722a1.684,1.684,0,0,1-1.214-.508A1.684,1.684,0,0,1,1,44.722,1.728,1.728,0,0,1,2.722,43H4.445Z" transform="translate(-1 -43)" fill="#f5e0cd"/>
        </g>
      </g>
      <g id="Grupo_1226365" data-name="Grupo 1226365" transform="translate(0 0)">
        <path id="Trazado_1187788" data-name="Trazado 1187788" d="M51.486,45.545a1.249,1.249,0,0,1-1.722,0l-.252-.252-1.218,1.218.252.252a2.94,2.94,0,0,0,4.158,0l.252-.252-1.218-1.218Z" transform="translate(-6.702 -6.286)"/>
        <path id="Trazado_1187789" data-name="Trazado 1187789" d="M31.486,45.545a1.249,1.249,0,0,1-1.722,0l-.252-.252-1.218,1.218.252.252a2.94,2.94,0,0,0,4.158,0l.252-.252-1.218-1.218Z" transform="translate(-3.926 -6.286)"/>
        <path id="Trazado_1187790" data-name="Trazado 1187790" d="M12.7,46.763l.252-.252-1.218-1.218-.252.252a1.249,1.249,0,0,1-1.722,0l-.252-.252L8.293,46.511l.252.252a2.94,2.94,0,0,0,4.158,0Z" transform="translate(-1.151 -6.286)"/>
        <path id="Trazado_1187791" data-name="Trazado 1187791" d="M53.4,40.623V37.032a9.468,9.468,0,0,0-18.912-.691l-.035-.011V32.386a11.084,11.084,0,0,0-1.867-6.166L32,25.346l-.742.742A5.029,5.029,0,0,1,29.282,27.3V17.79a.861.861,0,0,1,1.47-.61L31.57,18l3.653-3.653-.818-.818a.861.861,0,0,1,.61-1.47h3.208L34.449,19.6v.2a6.036,6.036,0,0,0,6.029,6.029H42.2a6.036,6.036,0,0,0,6.029-6.029v-.2l-3.774-7.548h2.051a1.724,1.724,0,0,0,1.722-1.722V8.612A1.724,1.724,0,0,0,46.506,6.89H35.015a.861.861,0,0,1-.61-1.47l.818-.818L31.57.948l-.818.818a.861.861,0,0,1-1.47-.61V0H24.114V1.157a.848.848,0,0,1-.531.8.843.843,0,0,1-.939-.187L21.826.948,18.173,4.6l.818.818a.861.861,0,0,1-.61,1.47H6.89A1.724,1.724,0,0,0,5.167,8.612v1.722A1.724,1.724,0,0,0,6.89,12.057H8.941L5.167,19.6v.2A6.036,6.036,0,0,0,11.2,25.837h1.722a6.036,6.036,0,0,0,6.029-6.029v-.2l-3.774-7.548h3.208a.861.861,0,0,1,.61,1.47l-.818.818L21.826,18l.818-.818a.861.861,0,0,1,1.47.61v9.769a5.173,5.173,0,0,0-5.167,5.167v3.6a2.574,2.574,0,0,0-.861.513,2.56,2.56,0,0,0-.861-.513V35.31a7.751,7.751,0,1,0-15.5,0v1.02a2.577,2.577,0,0,0,.861,5.009H4.035a6.067,6.067,0,0,0,2.492,2.671l-.326.977a5.239,5.239,0,0,0-3.134,4.1L2.452,53.4H50.945l-.617-4.316a5.328,5.328,0,0,0-.3-1.12A9.77,9.77,0,0,0,53.4,40.623ZM42.2,24.114H40.478a4.3,4.3,0,0,1-4.206-3.445H46.406A4.3,4.3,0,0,1,42.2,24.114Zm3.774-5.167H36.7l3.445-6.89h2.38Zm.532-10.335v1.722H36.171V8.612Zm-33.588,15.5H11.2A4.3,4.3,0,0,1,6.99,20.669H17.125A4.3,4.3,0,0,1,12.918,24.114Zm3.774-5.167H7.422l3.445-6.89h2.38Zm-9.8-8.612V8.612H17.225v1.722ZM43.923,43.061a4.311,4.311,0,0,1-4.306-4.306v-2.2a.859.859,0,0,1,.589-.817l2.5-.835a5.166,5.166,0,0,0,2.086.742l2.678.335a.864.864,0,0,1,.754.855v1.924A4.311,4.311,0,0,1,43.923,43.061Zm0,1.722a6.008,6.008,0,0,0,1.337-.155l.221.664-1.559,1.04-1.559-1.039.221-.664A6.058,6.058,0,0,0,43.923,44.784Zm-2.682,1.831,1.821,1.213v3.845H38.887l.336-2.349a3.52,3.52,0,0,1,2.018-2.709ZM37.518,49.08l-.371,2.593H33.473L33.1,49.08a5.239,5.239,0,0,0-3.134-4.1l-.326-.977a6.063,6.063,0,0,0,2.492-2.671h1.452a2.552,2.552,0,0,0,.894-.169,9.762,9.762,0,0,0,3.331,6.791,5.311,5.311,0,0,0-.3,1.12ZM9.342,48.229h.264l.574,3.445H8.767Zm1.915-.566,1-1a3.527,3.527,0,0,1,1.914,2.665l.335,2.349H11.925Zm4.622,1.418a5.239,5.239,0,0,0-3.134-4.1l-.326-.977a6.063,6.063,0,0,0,2.492-2.671h1.451a2.567,2.567,0,0,0,1.722-.672,2.563,2.563,0,0,0,1.722.672h1.451a6.067,6.067,0,0,0,2.492,2.671l-.326.977a5.239,5.239,0,0,0-3.134,4.1l-.37,2.593H16.249ZM15.5,38.755v-.861h.861a.861.861,0,1,1,0,1.722h-.93A6.051,6.051,0,0,0,15.5,38.755ZM28.3,45.412,27.2,46.506H26.193L25.1,45.412l.261-.784a5.847,5.847,0,0,0,2.675,0Zm-1.6-2.351a4.311,4.311,0,0,1-4.306-4.306v-2.2a.859.859,0,0,1,.589-.817l2.5-.835a5.161,5.161,0,0,0,2.086.742l2.678.335a.864.864,0,0,1,.754.855v1.924A4.311,4.311,0,0,1,26.7,43.061ZM22,49.324a3.523,3.523,0,0,1,1.914-2.665l1,1-.669,4.011H21.662Zm4.568-1.1h.264l.574,3.445H25.992Zm1.915-.566,1-1A3.527,3.527,0,0,1,31.4,49.324l.335,2.349H29.15Zm4.245-8.908v-.861h.861a.861.861,0,0,1,0,1.722h-.93A6.051,6.051,0,0,0,32.727,38.755ZM21.868,15.605l-1.3-1.3a2.591,2.591,0,0,0-1.619-3.909V8.553a2.591,2.591,0,0,0,1.619-3.909l1.3-1.3a2.541,2.541,0,0,0,2.374.2,2.537,2.537,0,0,0,1.536-1.821H27.62a2.537,2.537,0,0,0,1.536,1.821,2.536,2.536,0,0,0,2.374-.2l1.3,1.3a2.591,2.591,0,0,0,1.618,3.909v1.842A2.591,2.591,0,0,0,32.83,14.3l-1.3,1.3a2.591,2.591,0,0,0-3.909,1.619H25.776a2.591,2.591,0,0,0-3.908-1.62Zm3.969,3.342h1.722v8.612H25.837ZM24.114,29.282h3.593a6.789,6.789,0,0,0,3.938-1.272,9.366,9.366,0,0,1,1.082,4.377v3.785h-.1a2.58,2.58,0,0,0-2.167-1.9l-2.678-.335a3.481,3.481,0,0,1-2.853-2.34l-1.633.545a5.108,5.108,0,0,0,.742,1.428l-1.6.535a2.579,2.579,0,0,0-1.736,2.07h-.031V32.726A3.448,3.448,0,0,1,24.114,29.282Zm-4.306,8.612h.861v.861a6.051,6.051,0,0,0,.069.861h-.93a.861.861,0,0,1,0-1.722ZM9.473,29.282A6.036,6.036,0,0,1,15.5,35.31v.861h-.1a2.58,2.58,0,0,0-2.167-1.9l-2.678-.335a3.481,3.481,0,0,1-2.853-2.34l-1.633.545a5.108,5.108,0,0,0,.742,1.428l-1.6.535a2.58,2.58,0,0,0-1.737,2.071h-.03V35.31a6.036,6.036,0,0,1,6.029-6.029ZM2.584,39.616a.861.861,0,1,1,0-1.722h.861v.861a6.051,6.051,0,0,0,.069.861Zm2.584-.861v-2.2a.859.859,0,0,1,.589-.817l2.5-.835a5.161,5.161,0,0,0,2.086.742l2.678.335a.864.864,0,0,1,.754.855v1.924a4.306,4.306,0,1,1-8.612,0Zm4.306,6.029a6.008,6.008,0,0,0,1.337-.155l.261.784L9.978,46.506H8.969L7.875,45.412l.261-.784a6.008,6.008,0,0,0,1.337.155Zm-4.7,4.54a3.523,3.523,0,0,1,1.914-2.665l1,1-.669,4.011H4.438Zm40.01,2.349V47.828L46.6,46.615a3.52,3.52,0,0,1,2.018,2.71l.336,2.349Zm2.411-6.688-.326-.977a6.028,6.028,0,0,0,3.082-5.253V36.831a2.588,2.588,0,0,0-2.263-2.564l-2.678-.335a3.481,3.481,0,0,1-2.853-2.34l-1.633.545a5.108,5.108,0,0,0,.742,1.428l-1.6.535a2.581,2.581,0,0,0-1.767,2.451v2.2a6.03,6.03,0,0,0,3.082,5.254l-.326.977a5.231,5.231,0,0,0-1.959,1.467,8.052,8.052,0,0,1-2.52-5.83V37.032a7.751,7.751,0,1,1,15.5,0v3.591a8.046,8.046,0,0,1-2.521,5.829,5.247,5.247,0,0,0-1.958-1.467Z" transform="translate(0 0)"/>
        <path id="Trazado_1187792" data-name="Trazado 1187792" d="M33.167,10.584a2.584,2.584,0,1,0-2.584,2.584A2.587,2.587,0,0,0,33.167,10.584Zm-3.445,0a.861.861,0,1,1,.861.861A.862.862,0,0,1,29.722,10.584Z" transform="translate(-3.886 -1.11)"/>
        <path id="Trazado_1187793" data-name="Trazado 1187793" d="M36.057,10.029a6.029,6.029,0,1,0-6.029,6.029A6.036,6.036,0,0,0,36.057,10.029Zm-10.335,0a4.306,4.306,0,1,1,4.306,4.306A4.311,4.311,0,0,1,25.722,10.029Z" transform="translate(-3.331 -0.555)"/>
      </g>
    </g>
  </g>
</svg>
