<svg xmlns="http://www.w3.org/2000/svg" xmlns:xlink="http://www.w3.org/1999/xlink" width="103" height="103" viewBox="0 0 103 103">
  <defs>
    <filter id="Trazado_978624" x="0" y="0" width="103" height="103" filterUnits="userSpaceOnUse">
      <feOffset dy="3" input="SourceAlpha"/>
      <feGaussianBlur stdDeviation="3" result="blur"/>
      <feFlood flood-opacity="0.161"/>
      <feComposite operator="in" in2="blur"/>
      <feComposite in="SourceGraphic"/>
    </filter>
  </defs>
  <g id="Grupo_1226392" data-name="Grupo 1226392" transform="translate(-196.5 -7064)">
    <g id="Grupo_1226082" data-name="Grupo 1226082" transform="translate(25.5 6268)">
      <g id="Grupo_1222970" data-name="Grupo 1222970" transform="translate(0 -37)">
        <g id="Grupo_1222589" data-name="Grupo 1222589">
          <g id="Grupo_1203109" data-name="Grupo 1203109" transform="translate(180 839)">
            <g id="Grupo_1176881" data-name="Grupo 1176881">
              <g id="Grupo_1175148" data-name="Grupo 1175148">
                <g id="Grupo_1173798" data-name="Grupo 1173798">
                  <g id="Grupo_1171925" data-name="Grupo 1171925">
                    <g id="Grupo_1164524" data-name="Grupo 1164524">
                      <g id="Grupo_1144123" data-name="Grupo 1144123">
                        <g transform="matrix(1, 0, 0, 1, -9, -6)" filter="url(#Trazado_978624)">
                          <g id="Trazado_978624-2" data-name="Trazado 978624" transform="translate(9 6)" fill="#fcf5f0">
                            <path d="M 42.5 83.5 C 36.96437835693359 83.5 31.59512901306152 82.41617584228516 26.54141235351562 80.27863311767578 C 21.65934181213379 78.21369171142578 17.27447128295898 75.25723266601562 13.50862312316895 71.49137878417969 C 9.742764472961426 67.72553253173828 6.786305904388428 63.34066009521484 4.721364498138428 58.45858764648438 C 2.583823442459106 53.40486907958984 1.5 48.03562164306641 1.5 42.5 C 1.5 36.96437835693359 2.583823442459106 31.59512901306152 4.721364498138428 26.54141235351562 C 6.786305904388428 21.65934181213379 9.742764472961426 17.27447128295898 13.50862312316895 13.50862312316895 C 17.27447128295898 9.742764472961426 21.65934181213379 6.786305904388428 26.54141235351562 4.721364498138428 C 31.59512901306152 2.583823442459106 36.96437835693359 1.5 42.5 1.5 C 48.03562164306641 1.5 53.40486907958984 2.583823442459106 58.45858764648438 4.721364498138428 C 63.34066009521484 6.786305904388428 67.72553253173828 9.742764472961426 71.49137878417969 13.50862312316895 C 75.25723266601562 17.27447128295898 78.21369171142578 21.65934181213379 80.27863311767578 26.54141235351562 C 82.41617584228516 31.59512901306152 83.5 36.96437835693359 83.5 42.5 C 83.5 48.03562164306641 82.41617584228516 53.40486907958984 80.27863311767578 58.45858764648438 C 78.21369171142578 63.34066009521484 75.25723266601562 67.72553253173828 71.49137878417969 71.49137878417969 C 67.72553253173828 75.25723266601562 63.34066009521484 78.21369171142578 58.45858764648438 80.27863311767578 C 53.40486907958984 82.41617584228516 48.03562164306641 83.5 42.5 83.5 Z" stroke="none"/>
                            <path d="M 42.5 3 C 37.16621398925781 3 31.99356079101562 4.043960571289062 27.125732421875 6.102882385253906 C 22.42246627807617 8.092185974121094 18.19785308837891 10.94070434570312 14.56928253173828 14.56928253173828 C 10.94070434570312 18.19785308837891 8.092185974121094 22.42246627807617 6.102882385253906 27.125732421875 C 4.043960571289062 31.99356079101562 3 37.16621398925781 3 42.5 C 3 47.83378601074219 4.043960571289062 53.00643920898438 6.102882385253906 57.87425231933594 C 8.092185974121094 62.57753372192383 10.94070434570312 66.80213165283203 14.56928253173828 70.43071746826172 C 18.19786834716797 74.05929565429688 22.42246627807617 76.90781402587891 27.125732421875 78.89711761474609 C 31.99356079101562 80.95603942871094 37.16621398925781 82 42.5 82 C 47.83378601074219 82 53.00642395019531 80.95603942871094 57.87425231933594 78.89711761474609 C 62.57753372192383 76.90781402587891 66.80213165283203 74.05929565429688 70.43071746826172 70.43071746826172 C 74.05929565429688 66.80213165283203 76.90781402587891 62.57753372192383 78.89711761474609 57.87425231933594 C 80.95603942871094 53.00642395019531 82 47.83378601074219 82 42.5 C 82 37.16621398925781 80.95603942871094 31.99356079101562 78.89711761474609 27.125732421875 C 76.90781402587891 22.42246627807617 74.05929565429688 18.19786834716797 70.43071746826172 14.56928253173828 C 66.80213165283203 10.94070434570312 62.57753372192383 8.092185974121094 57.87425231933594 6.102882385253906 C 53.00643920898438 4.043960571289062 47.83378601074219 3 42.5 3 M 42.5 0 C 65.97209167480469 0 85 19.02789306640625 85 42.5 C 85 65.97209167480469 65.97209167480469 85 42.5 85 C 19.02789306640625 85 0 65.97209167480469 0 42.5 C 0 19.02789306640625 19.02789306640625 0 42.5 0 Z" stroke="none" fill="#eca675"/>
                          </g>
                        </g>
                      </g>
                    </g>
                  </g>
                </g>
              </g>
            </g>
          </g>
        </g>
      </g>
    </g>
    <g id="leer_1_" data-name="leer (1)" transform="translate(219.497 7080.975)">
      <g id="Grupo_1226390" data-name="Grupo 1226390" transform="translate(0.833 0.851)">
        <g id="Grupo_1226386" data-name="Grupo 1226386" transform="translate(5.555)">
          <g id="Grupo_1226375" data-name="Grupo 1226375">
            <g id="Grupo_1226374" data-name="Grupo 1226374">
              <g id="Grupo_1226372" data-name="Grupo 1226372" transform="translate(0.534)">
                <g id="Grupo_1226371" data-name="Grupo 1226371">
                  <path id="Trazado_1187794" data-name="Trazado 1187794" d="M88.9,290.61H62.165v-8.7A13.365,13.365,0,0,1,75.53,268.543h0A13.365,13.365,0,0,1,88.9,281.908v8.7Z" transform="translate(-62.165 -239.47)" fill="#bbf49b"/>
                  <path id="Trazado_1187795" data-name="Trazado 1187795" d="M150.216,308.32h0a4.008,4.008,0,0,1-4.008-4.008v-1.856h8.016v1.856A4.008,4.008,0,0,1,150.216,308.32Z" transform="translate(-136.85 -269.608)" fill="#ffe5d8"/>
                  <g id="Grupo_1226370" data-name="Grupo 1226370" transform="translate(0.635)">
                    <g id="Grupo_1226367" data-name="Grupo 1226367" transform="translate(2.526 8.722)">
                      <path id="Trazado_1187796" data-name="Trazado 1187796" d="M100.753,110.736h0a10.205,10.205,0,0,1-10.205-10.205V85.778h20.411v14.753A10.2,10.2,0,0,1,100.753,110.736Z" transform="translate(-90.547 -85.778)" fill="#ffe5d8"/>
                    </g>
                    <g id="Grupo_1226369" data-name="Grupo 1226369">
                      <path id="Trazado_1187797" data-name="Trazado 1187797" d="M219.536,25.66l-1.209,9.408a6.559,6.559,0,0,1,6.169,6.559l2.54.965V33.319C227.036,25.66,219.536,25.66,219.536,25.66Z" transform="translate(-201.573 -23.631)" fill="#025f80"/>
                      <path id="Trazado_1187798" data-name="Trazado 1187798" d="M85.082,8.592C80.61,6.1,67.864,7.113,67.864,17.13V26.4l2.54-.965c0-2.353.659-3.846,1.664-4.766a4.544,4.544,0,0,1,4.242-1.187c3.477.606,8.8.868,11.2-3.32A5.512,5.512,0,0,0,85.082,8.592Z" transform="translate(-67.864 -7.442)" fill="#025f80"/>
                      <g id="Grupo_1226368" data-name="Grupo 1226368" transform="translate(9.507 0)">
                        <path id="Trazado_1187799" data-name="Trazado 1187799" d="M160.96,8.6a13.353,13.353,0,0,0-7.71-1,9.647,9.647,0,0,1,3.256,1,5.512,5.512,0,0,1,2.424,7.572,7.257,7.257,0,0,1-5.487,3.508c3.4.42,7.819.2,9.941-3.508A5.512,5.512,0,0,0,160.96,8.6Z" transform="translate(-153.25 -7.446)" fill="#024c67"/>
                      </g>
                    </g>
                  </g>
                </g>
              </g>
              <g id="Grupo_1226373" data-name="Grupo 1226373" transform="translate(0 17.996)">
                <path id="Trazado_1187800" data-name="Trazado 1187800" d="M61.061,173.3H59.486a2.12,2.12,0,1,1,0-4.239h1.575Z" transform="translate(-57.366 -169.062)" fill="#ffe5d8"/>
              </g>
            </g>
          </g>
          <g id="Grupo_1226385" data-name="Grupo 1226385" transform="translate(15.414 12.102)">
            <g id="Grupo_1226378" data-name="Grupo 1226378" transform="translate(0 17.426)">
              <g id="Grupo_1226376" data-name="Grupo 1226376" transform="translate(19.597)">
                <path id="Trazado_1187801" data-name="Trazado 1187801" d="M371.8,273.38l1.1,2.262a7.546,7.546,0,0,0,8.6,3.947,1.214,1.214,0,0,0,.778-1.709l-.513-1.056A7.456,7.456,0,0,0,371.8,273.38Z" transform="translate(-371.797 -272.628)" fill="#025f80"/>
              </g>
              <g id="Grupo_1226377" data-name="Grupo 1226377">
                <path id="Trazado_1187802" data-name="Trazado 1187802" d="M206.4,273.38l-1.1,2.262a7.546,7.546,0,0,1-8.6,3.947,1.214,1.214,0,0,1-.778-1.709l.513-1.056A7.456,7.456,0,0,1,206.4,273.38Z" transform="translate(-195.797 -272.628)" fill="#025f80"/>
              </g>
            </g>
            <g id="Grupo_1226384" data-name="Grupo 1226384" transform="translate(4.357)">
              <g id="Grupo_1226382" data-name="Grupo 1226382" transform="translate(0.413)">
                <g id="Grupo_1226381" data-name="Grupo 1226381">
                  <path id="Trazado_1187803" data-name="Trazado 1187803" d="M259.294,341.867H238.633V337.68a10.33,10.33,0,0,1,10.33-10.33h0a10.33,10.33,0,0,1,10.33,10.33v4.188Z" transform="translate(-238.633 -303.831)" fill="#fe93d3"/>
                  <path id="Trazado_1187804" data-name="Trazado 1187804" d="M306.687,356.687h0a3.1,3.1,0,0,1-3.1-3.1v-1.434h6.2v1.434A3.1,3.1,0,0,1,306.687,356.687Z" transform="translate(-296.356 -325.874)" fill="#ffe5d8"/>
                  <g id="Grupo_1226380" data-name="Grupo 1226380" transform="translate(0.248)">
                    <g id="Grupo_1226379" data-name="Grupo 1226379" transform="translate(2.195 7.79)">
                      <path id="Trazado_1187805" data-name="Trazado 1187805" d="M268.458,205.383h0a7.887,7.887,0,0,1-7.887-7.887v-11.4h15.776v11.4A7.887,7.887,0,0,1,268.458,205.383Z" transform="translate(-260.57 -186.093)" fill="#ffe5d8"/>
                      <path id="Trazado_1187806" data-name="Trazado 1187806" d="M317.07,186.093v11.4a7.889,7.889,0,0,1-5.661,7.567,7.883,7.883,0,0,0,2.226.321h0a7.887,7.887,0,0,0,7.887-7.887v-11.4Z" transform="translate(-305.748 -186.093)" fill="#ffd8ca"/>
                    </g>
                    <path id="Trazado_1187807" data-name="Trazado 1187807" d="M240.857,124.665v7.167l2.206-.746c0-2.648,1.567-3.191,4.421-3.392a10.476,10.476,0,0,0,6.549-2.4,1.112,1.112,0,0,1,1.723.223,11.682,11.682,0,0,0,1.915,2.351,5.05,5.05,0,0,1,1.145,3.214l2.206.746v-7.913C261.022,113.772,240.857,113.043,240.857,124.665Z" transform="translate(-240.857 -116.129)" fill="#025f80"/>
                  </g>
                </g>
              </g>
              <g id="Grupo_1226383" data-name="Grupo 1226383" transform="translate(0 14.957)">
                <path id="Trazado_1187808" data-name="Trazado 1187808" d="M237.779,253.737h-1.217a1.638,1.638,0,1,1,0-3.276h1.217Z" transform="translate(-234.923 -250.461)" fill="#ffe5d8"/>
                <path id="Trazado_1187809" data-name="Trazado 1187809" d="M402.25,250.462h1.217a1.638,1.638,0,0,1,0,3.276H402.25Z" transform="translate(-383.619 -250.462)" fill="#ffe5d8"/>
              </g>
            </g>
          </g>
        </g>
        <path id="Trazado_1187810" data-name="Trazado 1187810" d="M69.608,372.541a1.8,1.8,0,0,0,1.739-1.325L74.1,361.2l-1.239-1.25a4.581,4.581,0,0,0-4.568-1.164l-10.807,3.236c-2.575.817-5.732,2.038-7.581,3.969a2.338,2.338,0,0,1-3.695,0c-1.886-1.9-5.073-3.169-7.6-3.971l-11.844-3.546a2.777,2.777,0,0,0-2.77.706l-2,2.019,2.75,10.015a1.8,1.8,0,0,0,1.739,1.325Z" transform="translate(-20.374 -319.286)" fill="#f7f9fa"/>
        <g id="Grupo_1226387" data-name="Grupo 1226387" transform="translate(45.336 39.308)">
          <path id="Trazado_1187811" data-name="Trazado 1187811" d="M423.023,363.072l-1.239-1.25a4.581,4.581,0,0,0-4.568-1.164l-.707.212a4.574,4.574,0,0,1,1.378.952l1.239,1.25,1.509,1.678-4.26,8.337a1.8,1.8,0,0,1-1.739,1.325h3.9a1.8,1.8,0,0,0,1.739-1.325Z" transform="translate(-414.637 -360.465)" fill="#d8ecfe"/>
        </g>
        <g id="Grupo_1226388" data-name="Grupo 1226388" transform="translate(20.969 47.982)">
          <path id="Trazado_1187812" data-name="Trazado 1187812" d="M205.872,445.721l2.915-7.207-2.274.708a1.12,1.12,0,0,0-.5.322,4.692,4.692,0,0,1-6.963,0,1.12,1.12,0,0,0-.5-.322l-2.757-.859,3.4,7.358Z" transform="translate(-195.796 -438.363)" fill="#ffe177"/>
        </g>
        <g id="Grupo_1226389" data-name="Grupo 1226389" transform="translate(0 41.705)">
          <path id="Trazado_1187813" data-name="Trazado 1187813" d="M306.585,395.808l3.962-12.682a.715.715,0,0,0-.895-.9l-22.292,6.945a1.113,1.113,0,0,0-.781,1.005l-.293,5.629Z" transform="translate(-255.241 -382.173)" fill="#b98080"/>
          <path id="Trazado_1187814" data-name="Trazado 1187814" d="M436.109,382.229l-3.633,1.132-3.888,12.447h4.454L437,383.125a.715.715,0,0,0-.895-.9Z" transform="translate(-381.698 -382.173)" fill="#ae6c6c"/>
          <path id="Trazado_1187815" data-name="Trazado 1187815" d="M31.84,395.628,31.547,390a1.114,1.114,0,0,0-.781-1.005L8.4,382.027a.715.715,0,0,0-.9.863l3.316,12.738Z" transform="translate(-7.473 -381.994)" fill="#b98080"/>
        </g>
      </g>
      <g id="Grupo_1226391" data-name="Grupo 1226391" transform="translate(0.001 0.025)">
        <path id="Trazado_1187816" data-name="Trazado 1187816" d="M153.293,238.9a.835.835,0,0,0,0,1.181,4.25,4.25,0,0,0,6,0,.835.835,0,1,0-1.181-1.181,2.578,2.578,0,0,1-3.641,0A.835.835,0,0,0,153.293,238.9Z" transform="translate(-136.007 -212.087)"/>
        <path id="Trazado_1187817" data-name="Trazado 1187817" d="M117.718,168.023a1.225,1.225,0,0,1,2.45,0,.835.835,0,0,0,1.67,0,2.9,2.9,0,0,0-5.79,0,.835.835,0,0,0,1.67,0Z" transform="translate(-103.127 -146.744)"/>
        <path id="Trazado_1187818" data-name="Trazado 1187818" d="M312.325,303.975a.835.835,0,0,0-1.181-1.181,1.8,1.8,0,0,1-2.546,0,.835.835,0,1,0-1.181,1.181,3.475,3.475,0,0,0,4.908,0Z" transform="translate(-272.97 -268.865)"/>
        <path id="Trazado_1187819" data-name="Trazado 1187819" d="M282.594,248.98a.835.835,0,0,0,.835-.835,2.427,2.427,0,0,0-4.854,0,.835.835,0,1,0,1.67,0,.757.757,0,0,1,1.514,0A.835.835,0,0,0,282.594,248.98Z" transform="translate(-247.557 -218.361)"/>
        <path id="Trazado_1187820" data-name="Trazado 1187820" d="M341.482,248.98a.835.835,0,0,0,.835-.835.757.757,0,0,1,1.514,0,.835.835,0,1,0,1.67,0,2.427,2.427,0,0,0-4.854,0A.835.835,0,0,0,341.482,248.98Z" transform="translate(-302.717 -218.361)"/>
        <path id="Trazado_1187821" data-name="Trazado 1187821" d="M56.552,42.2a1.7,1.7,0,0,0-1.715-.335c-1.681-1.8-3.761-3.081-6.328-2.312l-2.524.756a11.3,11.3,0,0,0-2.458-2.493,8.775,8.775,0,0,0,.76-1.03,8.464,8.464,0,0,0,7.022,1.365,2.089,2.089,0,0,0,1.32-2.883,9.425,9.425,0,0,0-4.3-4.866,2.471,2.471,0,0,0-.51-2.533V20.743a7.662,7.662,0,0,0-3.507-6.483,13.054,13.054,0,0,0-7.4-2.143,14.327,14.327,0,0,0-3.053.323v-1.9c0-6.875-5.543-8.183-7.461-8.427a7.52,7.52,0,0,0-1.213-.839C22.467-.241,16.853-.6,12.514,1.459a.835.835,0,0,0,.716,1.509c3.736-1.773,8.775-1.554,11.138-.237a4.772,4.772,0,0,1,2.106,6.428c-1.625,2.842-5.1,3.822-10.328,2.912-3.863-.673-6.584,2.209-6.853,5.9-.041.118-.729.04-.9.046V10.539a7.85,7.85,0,0,1,2.277-5.813A.835.835,0,1,0,9.5,3.538a9.462,9.462,0,0,0-2.773,7v8.075a2.954,2.954,0,0,0,1.786,5.307h.74a11.225,11.225,0,0,0,2.83,7.779,14.1,14.1,0,0,0-5.362,7.4c-2.017-.166-3.261,1.464-4.531,2.746A1.59,1.59,0,0,0,.048,43.663L3.364,56.4a.887.887,0,0,0,1.019.6.835.835,0,0,0,.6-1.019L1.719,43.451l22.158,6.9a.279.279,0,0,1,.2.251l.293,5.629a.835.835,0,1,0,1.668-.087L25.8,51.669a5.529,5.529,0,0,0,5.476,0l-.233,4.478a.835.835,0,0,0,.791.877.9.9,0,0,0,.877-.791L33,50.605a.28.28,0,0,1,.2-.251l14.033-4.372a.835.835,0,1,0-.5-1.595L32.7,48.759a2.7,2.7,0,0,0-1.3.7,3.893,3.893,0,0,1-5.721,0,2.7,2.7,0,0,0-1.3-.7L3.981,42.406c.817-.824,1.663-1.965,3-1.565l11.837,3.544c3.418,1.085,5.859,2.351,7.255,3.761a3.25,3.25,0,0,0,4.891-.013c1.753-1.831,4.841-2.984,7.076-3.7,3.647-1.1,7.3-2.188,10.949-3.281a3.9,3.9,0,0,1,4.052,1.272l-3.286,1.024a.835.835,0,1,0,.5,1.595l5.021-1.564L51.379,55.941a.835.835,0,0,0,.548,1.046.882.882,0,0,0,1.046-.548l3.962-12.682a1.546,1.546,0,0,0-.383-1.558Zm-12.277-1.38-3.641,1.09a3.917,3.917,0,0,0,.2-1.242v-.737a8.748,8.748,0,0,0,1.468-.94A9.615,9.615,0,0,1,44.275,40.819Zm-6.72,2.015a2.324,2.324,0,0,1-2.916-2.263,8.752,8.752,0,0,0,4.525,0,2.345,2.345,0,0,1-1.609,2.263ZM17.115,34.9a11.009,11.009,0,0,0,3.173.465l.854-.033a2.07,2.07,0,0,0,1.089,2.727,3.171,3.171,0,0,1-5.116-2.506Zm5.8,1.629A.38.38,0,0,1,22.676,36a7.752,7.752,0,0,1,3.935-4.278,2.829,2.829,0,0,0,1.568.3,8.976,8.976,0,0,0,.576,3.243,6.747,6.747,0,0,1-5.844,1.266Zm5.268-6.18H27.8a.8.8,0,0,1,0-1.606h.382Zm2.4,4.921a11.57,11.57,0,0,1-.732-3.127v-4.1c.368-2.257,1.333-2.531,3.656-2.694a11.222,11.222,0,0,0,7.068-2.626.277.277,0,0,1,.431.051,12.564,12.564,0,0,0,2.05,2.521,4.146,4.146,0,0,1,.891,2.609c-.007,1.412.011,2.827.011,4.24a7.052,7.052,0,0,1-13.374,3.127ZM46.81,29.549a.8.8,0,0,1-.8.8h-.382V28.745h.382a.8.8,0,0,1,.8.8Zm3.8,5.392L51.127,36a.379.379,0,0,1-.235.535,6.748,6.748,0,0,1-5.844-1.266,9.076,9.076,0,0,0,.576-3.243,2.83,2.83,0,0,0,1.568-.3,6.586,6.586,0,0,1,3.422,3.222Zm-4.464-14.2V27.08c-.2-.011-.4-.006-.6,0A5.192,5.192,0,0,0,44.214,24.1a10.907,10.907,0,0,1-1.779-2.181,1.985,1.985,0,0,0-3.016-.4,9.623,9.623,0,0,1-6.03,2.167c-2.409.169-4.765.585-5.145,3.39-.195,0-.394-.007-.589,0v-5.59c0-5.083,4.652-7.7,9.254-7.7,6.067,0,9.242,3.5,9.242,6.955ZM27.924,9.988a6.169,6.169,0,0,0,.134-5.771c1.923.7,4.126,2.372,4.126,6.322v2.386a10.843,10.843,0,0,0-2.5,1.291,7.078,7.078,0,0,0-3.251-2.366A7.561,7.561,0,0,0,27.924,9.988ZM8.508,22.251a1.284,1.284,0,1,1,0-2.569h.74v2.569ZM10.918,19c0-2.654,1.137-5.947,4.942-5.285,2.821.491,5.953.644,8.62-.583a5.4,5.4,0,0,1,3.932,2.161,8.245,8.245,0,0,0-2.079,3.58A2.894,2.894,0,0,0,21.864,21.3a.835.835,0,0,0,1.67,0,1.226,1.226,0,0,1,1.225-1.225,1.3,1.3,0,0,1,1.225,1.41v6.378a2.471,2.471,0,0,0-.51,2.533,8.211,8.211,0,0,0-3.416,3.13,9.38,9.38,0,0,1-11.14-9.2V19ZM19.3,42.787,8.339,39.5a12.666,12.666,0,0,1,4.973-6.627,11.07,11.07,0,0,0,2.133,1.369v1.308A4.843,4.843,0,0,0,24.208,38.4a8.526,8.526,0,0,0,5.309-1.616,8.768,8.768,0,0,0,.758,1.029,11.059,11.059,0,0,0-4.49,7.931,24.045,24.045,0,0,0-6.47-2.952l-.013,0Zm10.454,4.191a1.769,1.769,0,0,1-1.221.649,1.731,1.731,0,0,1-1.129-.515A9.612,9.612,0,0,1,31.5,38.991a8.751,8.751,0,0,0,1.468.94v.737A3.931,3.931,0,0,0,34.65,43.89a14.687,14.687,0,0,0-4.893,3.088Z" transform="translate(-0.001 -0.025)"/>
      </g>
    </g>
  </g>
</svg>
