<svg xmlns="http://www.w3.org/2000/svg" xmlns:xlink="http://www.w3.org/1999/xlink" width="113" height="113" viewBox="0 0 113 113">
  <defs>
    <filter id="Trazado_982547" x="0" y="0" width="113" height="113" filterUnits="userSpaceOnUse">
      <feOffset dy="3" input="SourceAlpha"/>
      <feGaussianBlur stdDeviation="3" result="blur"/>
      <feFlood flood-opacity="0.161"/>
      <feComposite operator="in" in2="blur"/>
      <feComposite in="SourceGraphic"/>
    </filter>
  </defs>
  <g id="Grupo_1226199" data-name="Grupo 1226199" transform="translate(-376 -1582.596)">
    <g id="Grupo_1225955" data-name="Grupo 1225955" transform="translate(385 1588.596)">
      <g id="Grupo_1208028" data-name="Grupo 1208028">
        <g id="Grupo_1177675" data-name="Grupo 1177675" transform="translate(0 0)">
          <g id="Grupo_1176928" data-name="Grupo 1176928">
            <g id="Grupo_1172322" data-name="Grupo 1172322">
              <g id="Grupo_1164700" data-name="Grupo 1164700">
                <g id="Grupo_1160931" data-name="Grupo 1160931">
                  <g id="Grupo_1160749" data-name="Grupo 1160749">
                    <g id="Grupo_1158891" data-name="Grupo 1158891">
                      <g id="Grupo_1157406" data-name="Grupo 1157406">
                        <g id="Grupo_1155793" data-name="Grupo 1155793">
                          <g id="Grupo_1154704" data-name="Grupo 1154704">
                            <g id="Grupo_1150790" data-name="Grupo 1150790">
                              <g id="Grupo_1154214" data-name="Grupo 1154214">
                                <g id="Grupo_1152583" data-name="Grupo 1152583">
                                  <g id="Grupo_1146973" data-name="Grupo 1146973">
                                    <g id="Grupo_1146954" data-name="Grupo 1146954">
                                      <g transform="matrix(1, 0, 0, 1, -9, -6)" filter="url(#Trazado_982547)">
                                        <g id="Trazado_982547-2" data-name="Trazado 982547" transform="translate(9 6)" fill="#f9e3d4">
                                          <path d="M 47.5000114440918 93.49987030029297 C 41.28938293457031 93.49987030029297 35.26534652709961 92.28384399414062 29.5951976776123 89.88558959960938 C 24.11773109436035 87.56881713867188 19.19814491271973 84.25183868408203 14.97310447692871 80.02680206298828 C 10.74805164337158 75.80176544189453 7.43107795715332 70.88218688964844 5.114304542541504 65.40472412109375 C 2.716038227081299 59.73458862304688 1.500011444091797 53.71054840087891 1.500011444091797 47.49993515014648 C 1.500011444091797 41.28932189941406 2.716038227081299 35.26528167724609 5.114304542541504 29.59514808654785 C 7.43107795715332 24.1176815032959 10.74805164337158 19.1981086730957 14.97310447692871 14.97306823730469 C 19.19814491271973 10.74802875518799 24.11773109436035 7.431055068969727 29.5951976776123 5.11428165435791 C 35.26534652709961 2.716028451919556 41.28938293457031 1.500001788139343 47.5000114440918 1.500001788139343 C 53.71063995361328 1.500001788139343 59.73467636108398 2.716028451919556 65.40482330322266 5.11428165435791 C 70.88229370117188 7.431055068969727 75.8018798828125 10.74802875518799 80.02691650390625 14.97306823730469 C 84.25196838378906 19.1981086730957 87.56894683837891 24.1176815032959 89.88571929931641 29.59514808654785 C 92.28398132324219 35.26528167724609 93.50001525878906 41.28932189941406 93.50001525878906 47.49993515014648 C 93.50001525878906 53.71054840087891 92.28398132324219 59.73458862304688 89.88571929931641 65.40472412109375 C 87.56894683837891 70.88218688964844 84.25196838378906 75.80176544189453 80.02691650390625 80.02680206298828 C 75.8018798828125 84.25183868408203 70.88229370117188 87.56881713867188 65.40482330322266 89.88558959960938 C 59.73467636108398 92.28384399414062 53.71063995361328 93.49987030029297 47.5000114440918 93.49987030029297 Z" stroke="none"/>
                                          <path d="M 47.5000114440918 3 C 41.49122619628906 3 35.66378021240234 4.1761474609375 30.17951965332031 6.495796203613281 C 24.880859375 8.7369384765625 20.12153625488281 11.94596862792969 16.03376770019531 16.03373718261719 C 11.94598388671875 20.12149047851562 8.736968994140625 24.88081359863281 6.495811462402344 30.17947387695312 C 4.176162719726562 35.66371917724609 3.000007629394531 41.49116516113281 3.000007629394531 47.49993515014648 C 3.000007629394531 53.50870513916016 4.176162719726562 59.33615112304688 6.495811462402344 64.82039642333984 C 8.736968994140625 70.11905670166016 11.94598388671875 74.87837982177734 16.03376770019531 78.96613311767578 C 20.12153625488281 83.05390167236328 24.880859375 86.26293182373047 30.17951965332031 88.50407409667969 C 35.66378021240234 90.82372283935547 41.49122619628906 91.99987030029297 47.5000114440918 91.99987030029297 C 53.50879669189453 91.99987030029297 59.33624267578125 90.82372283935547 64.82050323486328 88.50407409667969 C 70.11916351318359 86.26293182373047 74.87848663330078 83.05390167236328 78.96625518798828 78.96613311767578 C 83.05403900146484 74.87837982177734 86.2630615234375 70.11905670166016 88.50421142578125 64.82039642333984 C 90.82386016845703 59.33615112304688 92.00001525878906 53.50870513916016 92.00001525878906 47.49993515014648 C 92.00001525878906 41.49116516113281 90.82386016845703 35.66371917724609 88.50421142578125 30.17947387695312 C 86.2630615234375 24.88081359863281 83.05403900146484 20.12149047851562 78.96625518798828 16.03373718261719 C 74.87848663330078 11.94596862792969 70.11916351318359 8.7369384765625 64.82050323486328 6.495796203613281 C 59.33624267578125 4.1761474609375 53.50879669189453 3 47.5000114440918 3 M 47.5000114440918 0 C 73.73353576660156 0 95.00001525878906 21.26644134521484 95.00001525878906 47.49993515014648 C 95.00001525878906 73.73342895507812 73.73353576660156 94.99987030029297 47.5000114440918 94.99987030029297 C 21.26648712158203 94.99987030029297 7.62939453125e-06 73.73342895507812 7.62939453125e-06 47.49993515014648 C 7.62939453125e-06 21.26644134521484 21.26648712158203 0 47.5000114440918 0 Z" stroke="none" fill="#eca675"/>
                                        </g>
                                      </g>
                                    </g>
                                  </g>
                                </g>
                              </g>
                            </g>
                          </g>
                        </g>
                      </g>
                    </g>
                  </g>
                </g>
              </g>
            </g>
          </g>
        </g>
      </g>
    </g>
    <g id="documentos" transform="translate(374.669 1606.98)">
      <g id="Grupo_1226197" data-name="Grupo 1226197" transform="translate(33.258 0.848)">
        <path id="Trazado_1187466" data-name="Trazado 1187466" d="M424.9,136.5h-.008l-.338.2v5.857h5.132l.281-.239v-.75A5.082,5.082,0,0,0,424.9,136.5Z" transform="translate(-380.811 -121.825)" fill="#ffa90f"/>
        <path id="Trazado_1187467" data-name="Trazado 1187467" d="M156.67,8.272l-.363-.815H131.438a1.879,1.879,0,0,0-1.879,1.879V12.58l.781.64H151.19l6.845,6.653v8.473h4.872l.542-.4V14.6l-.845-.374Z" transform="translate(-119.367 -7.457)" fill="#62ddfc"/>
        <g id="Grupo_1226196" data-name="Grupo 1226196" transform="translate(10.192 0)">
          <path id="Trazado_1187468" data-name="Trazado 1187468" d="M135.387,9.336a1.879,1.879,0,0,1,1.879-1.879h-5.828a1.879,1.879,0,0,0-1.879,1.879V12.58l.781.64h5.828l-.781-.64V9.336Z" transform="translate(-129.559 -7.457)" fill="#00d2fc"/>
        </g>
        <path id="Trazado_1187469" data-name="Trazado 1187469" d="M45.02,136.5h-.1a4.985,4.985,0,0,0-4.971,4.971v.846l.491.136H45.4v-5.633Z" transform="translate(-39.945 -121.825)" fill="#ffa90f"/>
        <path id="Trazado_1187470" data-name="Trazado 1187470" d="M364.741,7.457v5.262A1.879,1.879,0,0,0,366.62,14.6h5.262Z" transform="translate(-327.801 -7.457)" fill="#00d2fc"/>
        <path id="Trazado_1187471" data-name="Trazado 1187471" d="M111.75,53.574l-.438-1.076H86.443a1.879,1.879,0,0,0-1.879,1.879V67.869l.737.737H116.43l2.024-.737v-8.23l-1.054-.492Z" transform="translate(-79.489 -47.375)" fill="#dbedff"/>
        <path id="Trazado_1187472" data-name="Trazado 1187472" d="M90.393,54.376A1.879,1.879,0,0,1,92.272,52.5H86.444a1.879,1.879,0,0,0-1.879,1.879V67.868l.737.737H91.13l-.737-.737Z" transform="translate(-79.49 -47.374)" fill="#b5dcff"/>
        <path id="Trazado_1187473" data-name="Trazado 1187473" d="M319.746,52.5V57.76a1.879,1.879,0,0,0,1.879,1.879h5.262Z" transform="translate(-287.923 -47.375)" fill="#b5dcff"/>
        <path id="Trazado_1187474" data-name="Trazado 1187474" d="M367.812,12.719V10.528l-3.071-3.071v5.262A1.879,1.879,0,0,0,366.62,14.6h3.071a1.879,1.879,0,0,1-1.879-1.879Z" transform="translate(-327.801 -7.457)" fill="#00c2fb"/>
        <path id="Trazado_1187475" data-name="Trazado 1187475" d="M322.817,57.76V55.569L319.746,52.5V57.76a1.879,1.879,0,0,0,1.879,1.879H324.7A1.879,1.879,0,0,1,322.817,57.76Z" transform="translate(-287.923 -47.375)" fill="#8bcaff"/>
        <path id="Trazado_1187476" data-name="Trazado 1187476" d="M89.1,187.649H39.945V222.17a1.511,1.511,0,0,0,1.511,1.511H87.59A1.511,1.511,0,0,0,89.1,222.17Z" transform="translate(-39.945 -167.155)" fill="#ffd086"/>
        <path id="Trazado_1187477" data-name="Trazado 1187477" d="M47.19,222.17V187.649H39.945V222.17a1.511,1.511,0,0,0,1.511,1.511H48.7A1.511,1.511,0,0,1,47.19,222.17Z" transform="translate(-39.945 -167.155)" fill="#ffc365"/>
        <path id="Trazado_1187478" data-name="Trazado 1187478" d="M275.115,320h-18.1a.967.967,0,0,0-.967.967v14.249a.967.967,0,0,0,.967.967h18.1a.967.967,0,0,0,.967-.967V320.969A.967.967,0,0,0,275.115,320Z" transform="translate(-231.468 -284.455)" fill="#dbedff"/>
        <path id="Trazado_1187479" data-name="Trazado 1187479" d="M260.589,335.218V320.969a.967.967,0,0,1,.967-.967h-4.543a.967.967,0,0,0-.967.967v14.249a.967.967,0,0,0,.967.967h4.543a.967.967,0,0,1-.967-.967Z" transform="translate(-231.468 -284.455)" fill="#b5dcff"/>
      </g>
      <g id="Grupo_1226198" data-name="Grupo 1226198" transform="translate(32.4 0)">
        <path id="Trazado_1187480" data-name="Trazado 1187480" d="M37.475,14.727A5.831,5.831,0,0,0,32.4,20.5V55.868a2.366,2.366,0,0,0,2.364,2.364H80.9a2.366,2.366,0,0,0,2.364-2.364V40.429a.853.853,0,1,0-1.706,0V55.868a.658.658,0,0,1-.658.658H34.764a.658.658,0,0,1-.657-.658V22.2h47.45V36.448a.853.853,0,1,0,1.706,0V20.6a5.928,5.928,0,0,0-5.075-5.859V7.994a.857.857,0,0,0-.25-.6L70.8.25a.861.861,0,0,0-.6-.25H45.324a2.735,2.735,0,0,0-2.732,2.732V5.123H40.207a2.735,2.735,0,0,0-2.732,2.732Zm0,5.767H34.106a4.125,4.125,0,0,1,3.369-4.043Zm40.713-4.026a4.221,4.221,0,0,1,3.368,4.026H78.187ZM71.046,2.912l4.229,4.229h-3.2a1.027,1.027,0,0,1-1.026-1.026ZM44.3,2.732a1.027,1.027,0,0,1,1.026-1.026H69.34V6.115a2.735,2.735,0,0,0,2.732,2.732h4.409V20.494H73.07V13.117a.857.857,0,0,0-.25-.6L65.679,5.372a.863.863,0,0,0-.6-.25H44.3Zm25.859,9.532h-3.2a1.027,1.027,0,0,1-1.026-1.026v-3.2ZM39.181,7.855a1.027,1.027,0,0,1,1.026-1.026H64.223v4.409a2.735,2.735,0,0,0,2.732,2.732h4.409v6.524H39.181Z" transform="translate(-32.4 0)"/>
        <path id="Trazado_1187481" data-name="Trazado 1187481" d="M296.49,425.126H284.434a.853.853,0,1,0,0,1.706H296.49a.853.853,0,1,0,0-1.706Z" transform="translate(-255.013 -376.775)"/>
        <path id="Trazado_1187482" data-name="Trazado 1187482" d="M296.49,397.5H284.434a.853.853,0,0,0,0,1.706H296.49a.853.853,0,0,0,0-1.706Z" transform="translate(-255.013 -352.29)"/>
        <path id="Trazado_1187483" data-name="Trazado 1187483" d="M296.49,369.873H284.434a.853.853,0,0,0,0,1.706H296.49a.853.853,0,0,0,0-1.706Z" transform="translate(-255.013 -327.806)"/>
        <path id="Trazado_1187484" data-name="Trazado 1187484" d="M296.49,342.246H284.434a.853.853,0,1,0,0,1.706H296.49a.853.853,0,1,0,0-1.706Z" transform="translate(-255.013 -303.321)"/>
        <path id="Trazado_1187485" data-name="Trazado 1187485" d="M142.909,149.617H119.443a.853.853,0,1,0,0,1.706h23.465a.853.853,0,0,0,0-1.706Z" transform="translate(-108.787 -132.6)"/>
        <path id="Trazado_1187486" data-name="Trazado 1187486" d="M119.442,123.7h19.75a.853.853,0,0,0,0-1.706h-19.75a.853.853,0,0,0,0,1.706Z" transform="translate(-108.786 -108.116)"/>
        <path id="Trazado_1187487" data-name="Trazado 1187487" d="M257.38,312.545H250.32a1.822,1.822,0,0,0-1.82,1.82v14.249a1.822,1.822,0,0,0,1.82,1.82h18.1a1.822,1.822,0,0,0,1.82-1.82V314.365a1.822,1.822,0,0,0-1.82-1.82h-7.061a.853.853,0,0,0,0,1.706h7.061a.114.114,0,0,1,.114.114v14.249a.114.114,0,0,1-.114.114h-18.1a.114.114,0,0,1-.114-.114V314.365a.114.114,0,0,1,.114-.114h7.061a.853.853,0,0,0,0-1.706Z" transform="translate(-223.922 -276.998)"/>
      </g>
    </g>
  </g>
</svg>
