<svg xmlns="http://www.w3.org/2000/svg" xmlns:xlink="http://www.w3.org/1999/xlink" width="113" height="113" viewBox="0 0 113 113">
  <defs>
    <filter id="Trazado_982547" x="0" y="0" width="113" height="113" filterUnits="userSpaceOnUse">
      <feOffset dy="3" input="SourceAlpha"/>
      <feGaussianBlur stdDeviation="3" result="blur"/>
      <feFlood flood-opacity="0.161"/>
      <feComposite operator="in" in2="blur"/>
      <feComposite in="SourceGraphic"/>
    </filter>
  </defs>
  <g id="Grupo_1226236" data-name="Grupo 1226236" transform="translate(1292 -1574.596)">
    <g id="Grupo_1225957" data-name="Grupo 1225957" transform="translate(-1283 1580.596)">
      <g id="Grupo_1208028" data-name="Grupo 1208028">
        <g id="Grupo_1177675" data-name="Grupo 1177675" transform="translate(0 0)">
          <g id="Grupo_1176928" data-name="Grupo 1176928">
            <g id="Grupo_1172322" data-name="Grupo 1172322">
              <g id="Grupo_1164700" data-name="Grupo 1164700">
                <g id="Grupo_1160931" data-name="Grupo 1160931">
                  <g id="Grupo_1160749" data-name="Grupo 1160749">
                    <g id="Grupo_1158891" data-name="Grupo 1158891">
                      <g id="Grupo_1157406" data-name="Grupo 1157406">
                        <g id="Grupo_1155793" data-name="Grupo 1155793">
                          <g id="Grupo_1154704" data-name="Grupo 1154704">
                            <g id="Grupo_1150790" data-name="Grupo 1150790">
                              <g id="Grupo_1154214" data-name="Grupo 1154214">
                                <g id="Grupo_1152583" data-name="Grupo 1152583">
                                  <g id="Grupo_1146973" data-name="Grupo 1146973">
                                    <g id="Grupo_1146954" data-name="Grupo 1146954">
                                      <g transform="matrix(1, 0, 0, 1, -9, -6)" filter="url(#Trazado_982547)">
                                        <g id="Trazado_982547-2" data-name="Trazado 982547" transform="translate(9 6)" fill="#f9e3d4">
                                          <path d="M 47.5000114440918 93.49987030029297 C 41.28938293457031 93.49987030029297 35.26534652709961 92.28384399414062 29.5951976776123 89.88558959960938 C 24.11773109436035 87.56881713867188 19.19814491271973 84.25183868408203 14.97310447692871 80.02680206298828 C 10.74805164337158 75.80176544189453 7.43107795715332 70.88218688964844 5.114304542541504 65.40472412109375 C 2.716038227081299 59.73458862304688 1.500011444091797 53.71054840087891 1.500011444091797 47.49993515014648 C 1.500011444091797 41.28932189941406 2.716038227081299 35.26528167724609 5.114304542541504 29.59514808654785 C 7.43107795715332 24.1176815032959 10.74805164337158 19.1981086730957 14.97310447692871 14.97306823730469 C 19.19814491271973 10.74802875518799 24.11773109436035 7.431055068969727 29.5951976776123 5.11428165435791 C 35.26534652709961 2.716028451919556 41.28938293457031 1.500001788139343 47.5000114440918 1.500001788139343 C 53.71063995361328 1.500001788139343 59.73467636108398 2.716028451919556 65.40482330322266 5.11428165435791 C 70.88229370117188 7.431055068969727 75.8018798828125 10.74802875518799 80.02691650390625 14.97306823730469 C 84.25196838378906 19.1981086730957 87.56894683837891 24.1176815032959 89.88571929931641 29.59514808654785 C 92.28398132324219 35.26528167724609 93.50001525878906 41.28932189941406 93.50001525878906 47.49993515014648 C 93.50001525878906 53.71054840087891 92.28398132324219 59.73458862304688 89.88571929931641 65.40472412109375 C 87.56894683837891 70.88218688964844 84.25196838378906 75.80176544189453 80.02691650390625 80.02680206298828 C 75.8018798828125 84.25183868408203 70.88229370117188 87.56881713867188 65.40482330322266 89.88558959960938 C 59.73467636108398 92.28384399414062 53.71063995361328 93.49987030029297 47.5000114440918 93.49987030029297 Z" stroke="none"/>
                                          <path d="M 47.5000114440918 3 C 41.49122619628906 3 35.66378021240234 4.1761474609375 30.17951965332031 6.495796203613281 C 24.880859375 8.7369384765625 20.12153625488281 11.94596862792969 16.03376770019531 16.03373718261719 C 11.94598388671875 20.12149047851562 8.736968994140625 24.88081359863281 6.495811462402344 30.17947387695312 C 4.176162719726562 35.66371917724609 3.000007629394531 41.49116516113281 3.000007629394531 47.49993515014648 C 3.000007629394531 53.50870513916016 4.176162719726562 59.33615112304688 6.495811462402344 64.82039642333984 C 8.736968994140625 70.11905670166016 11.94598388671875 74.87837982177734 16.03376770019531 78.96613311767578 C 20.12153625488281 83.05390167236328 24.880859375 86.26293182373047 30.17951965332031 88.50407409667969 C 35.66378021240234 90.82372283935547 41.49122619628906 91.99987030029297 47.5000114440918 91.99987030029297 C 53.50879669189453 91.99987030029297 59.33624267578125 90.82372283935547 64.82050323486328 88.50407409667969 C 70.11916351318359 86.26293182373047 74.87848663330078 83.05390167236328 78.96625518798828 78.96613311767578 C 83.05403900146484 74.87837982177734 86.2630615234375 70.11905670166016 88.50421142578125 64.82039642333984 C 90.82386016845703 59.33615112304688 92.00001525878906 53.50870513916016 92.00001525878906 47.49993515014648 C 92.00001525878906 41.49116516113281 90.82386016845703 35.66371917724609 88.50421142578125 30.17947387695312 C 86.2630615234375 24.88081359863281 83.05403900146484 20.12149047851562 78.96625518798828 16.03373718261719 C 74.87848663330078 11.94596862792969 70.11916351318359 8.7369384765625 64.82050323486328 6.495796203613281 C 59.33624267578125 4.1761474609375 53.50879669189453 3 47.5000114440918 3 M 47.5000114440918 0 C 73.73353576660156 0 95.00001525878906 21.26644134521484 95.00001525878906 47.49993515014648 C 95.00001525878906 73.73342895507812 73.73353576660156 94.99987030029297 47.5000114440918 94.99987030029297 C 21.26648712158203 94.99987030029297 7.62939453125e-06 73.73342895507812 7.62939453125e-06 47.49993515014648 C 7.62939453125e-06 21.26644134521484 21.26648712158203 0 47.5000114440918 0 Z" stroke="none" fill="#eca675"/>
                                        </g>
                                      </g>
                                    </g>
                                  </g>
                                </g>
                              </g>
                            </g>
                          </g>
                        </g>
                      </g>
                    </g>
                  </g>
                </g>
              </g>
            </g>
          </g>
        </g>
      </g>
    </g>
    <g id="ensenar" transform="translate(-1265.077 1598.591)">
      <g id="Grupo_1226217" data-name="Grupo 1226217" transform="translate(33.578 34.543)">
        <path id="Trazado_1187504" data-name="Trazado 1187504" d="M286.617,298.228l.432-2.447a3.684,3.684,0,0,1,1.028-1.969l.007-.007.669-.7a2.678,2.678,0,0,0-.062-3.773l-.226-.22a1.4,1.4,0,0,0-1.935-.019l-1.629,1.527a2.235,2.235,0,0,0-.636,1.287,2.778,2.778,0,0,1-.113.515l-1.651,4.909Z" transform="translate(-282.501 -288.716)" fill="#ffece4"/>
      </g>
      <g id="Grupo_1226235" data-name="Grupo 1226235" transform="translate(0 0.257)">
        <g id="Grupo_1226233" data-name="Grupo 1226233" transform="translate(0.891 0.891)">
          <path id="Trazado_1187505" data-name="Trazado 1187505" d="M200.665,49.148H165.154a1.32,1.32,0,0,1-1.32-1.32v-24h38.151v24A1.32,1.32,0,0,1,200.665,49.148Z" transform="translate(-145.252 -21.913)" fill="#bed8fb"/>
          <path id="Trazado_1187506" data-name="Trazado 1187506" d="M409.732,23.823v24a1.32,1.32,0,0,1-1.32,1.32h7.76a1.32,1.32,0,0,0,1.32-1.32v-24Z" transform="translate(-360.759 -21.913)" fill="#9dc6fb"/>
          <path id="Trazado_1187507" data-name="Trazado 1187507" d="M215.012,92.126h-5.321a1.108,1.108,0,0,1-1.108-1.108v-7.4a1.108,1.108,0,0,1,1.108-1.108h5.321a1.108,1.108,0,0,1,1.108,1.108v7.4A1.108,1.108,0,0,1,215.012,92.126Z" transform="translate(-184.682 -73.623)" fill="#fff"/>
          <g id="Grupo_1226218" data-name="Grupo 1226218" transform="translate(4.55 13.788)">
            <path id="Trazado_1187508" data-name="Trazado 1187508" d="M68.119,137.444V134.19a10.43,10.43,0,0,0-20.861,0v3.254a10.687,10.687,0,0,1-.971,4.5l-.027.059a5.208,5.208,0,0,0,3.988,7.322,7.5,7.5,0,0,0,1.02.07H64.109a7.481,7.481,0,0,0,1.02-.07A5.207,5.207,0,0,0,69.118,142l-.027-.059a10.685,10.685,0,0,1-.971-4.5Z" transform="translate(-45.783 -123.76)" fill="#89808c"/>
          </g>
          <path id="Trazado_1187509" data-name="Trazado 1187509" d="M128.619,142l-.027-.059a10.687,10.687,0,0,1-.971-4.5v-3.254a10.436,10.436,0,0,0-14.308-9.685,10.433,10.433,0,0,1,6.553,9.685v3.254a10.686,10.686,0,0,0,.971,4.5l.027.059a5.208,5.208,0,0,1-3.988,7.322,7.5,7.5,0,0,1-1.02.07h7.755a7.483,7.483,0,0,0,1.02-.07A5.208,5.208,0,0,0,128.619,142Z" transform="translate(-100.734 -109.973)" fill="#756e78"/>
          <g id="Grupo_1226232" data-name="Grupo 1226232">
            <g id="Grupo_1226220" data-name="Grupo 1226220" transform="translate(16.241 0)">
              <g id="Grupo_1226219" data-name="Grupo 1226219">
                <path id="Trazado_1187510" data-name="Trazado 1187510" d="M185.769,11.319H145.342a1.2,1.2,0,0,1-1.2-1.2V8.96a1.2,1.2,0,0,1,1.2-1.2h40.426a1.2,1.2,0,0,1,1.2,1.2v1.156A1.2,1.2,0,0,1,185.769,11.319Z" transform="translate(-144.139 -7.757)" fill="#88a8d8"/>
              </g>
            </g>
            <path id="Trazado_1187511" data-name="Trazado 1187511" d="M436.85,7.757h-7.76a1.2,1.2,0,0,1,1.2,1.2v1.156a1.2,1.2,0,0,1-1.2,1.2h7.76a1.2,1.2,0,0,0,1.2-1.2V8.96A1.2,1.2,0,0,0,436.85,7.757Z" transform="translate(-378.98 -7.757)" fill="#7296d1"/>
            <g id="Grupo_1226231" data-name="Grupo 1226231" transform="translate(0 24.965)">
              <path id="Trazado_1187512" data-name="Trazado 1187512" d="M44.067,289.478l-2.732-.772a.919.919,0,0,0-1.122.592L38.6,294.105a11.636,11.636,0,0,0-7.636-5.2l-1.079-.208a3.189,3.189,0,0,1-2.607-2.96c0-.049,0-.1,0-.147v-4.44H20.635v4.44c0,.049,0,.1,0,.147a3.189,3.189,0,0,1-2.608,2.96l-1.079.208A11.646,11.646,0,0,0,7.5,300.34v5.17a2.155,2.155,0,0,0,2.155,2.155H39a3.208,3.208,0,0,0,3.159-2.65l2.559-14.492a.92.92,0,0,0-.655-1.045Z" transform="translate(-7.5 -273.618)" fill="#ccf49f"/>
              <path id="Trazado_1187513" data-name="Trazado 1187513" d="M137.839,289.478l-2.732-.772a.919.919,0,0,0-1.122.592l-1.614,4.807a11.636,11.636,0,0,0-7.636-5.2l-1.079-.208a3.189,3.189,0,0,1-2.607-2.96c0-.049,0-.1,0-.147v-4.44h-6.638v4.44c0,.049,0,.1,0,.147a3.068,3.068,0,0,1-.483,1.523,3.252,3.252,0,0,0,2.125,1.437l1.079.208a11.646,11.646,0,0,1,9.445,11.437v3.86a3.465,3.465,0,0,1-3.465,3.465h9.67a3.208,3.208,0,0,0,3.159-2.65l2.559-14.492A.919.919,0,0,0,137.839,289.478Z" transform="translate(-101.273 -273.618)" fill="#b3e59f"/>
              <g id="Grupo_1226221" data-name="Grupo 1226221" transform="translate(12.112 7.53)">
                <path id="Trazado_1187514" data-name="Trazado 1187514" d="M117.819,287.619a3.088,3.088,0,0,1-.751-1.883c0-.049,0-.1,0-.147v-4.44h-6.638v4.44q0,.074,0,.147a3.087,3.087,0,0,1-.751,1.883,14.685,14.685,0,0,0-.078,5.152,10.831,10.831,0,0,0,8.3,0A14.674,14.674,0,0,0,117.819,287.619Z" transform="translate(-109.404 -281.149)" fill="#ffddce"/>
              </g>
              <g id="Grupo_1226229" data-name="Grupo 1226229" transform="translate(6.024)">
                <g id="Grupo_1226228" data-name="Grupo 1226228">
                  <g id="Grupo_1226227" data-name="Grupo 1226227">
                    <g id="Grupo_1226225" data-name="Grupo 1226225" transform="translate(6.66 18.542)">
                      <g id="Grupo_1226224" data-name="Grupo 1226224">
                        <g id="Grupo_1226223" data-name="Grupo 1226223">
                          <g id="Grupo_1226222" data-name="Grupo 1226222">
                            <path id="Trazado_1187515" data-name="Trazado 1187515" d="M114.472,375.015c1.156,4.4,2.738,6.789,3.512,9.321.774-2.533,2.356-4.925,3.512-9.321.106-.4.191-.811.258-1.221a9.836,9.836,0,0,1-7.54,0c.067.41.152.817.258,1.221Z" transform="translate(-114.214 -373.794)" fill="#fff"/>
                          </g>
                        </g>
                      </g>
                    </g>
                    <g id="Grupo_1226226" data-name="Grupo 1226226">
                      <path id="Trazado_1187516" data-name="Trazado 1187516" d="M197.83,217.8h-1.78v3.4a7.2,7.2,0,0,1-.211,1.622h1.991a2.51,2.51,0,0,0,0-5.019Z" transform="translate(-179.477 -217.797)" fill="#ffddce"/>
                      <path id="Trazado_1187517" data-name="Trazado 1187517" d="M62.455,221.255v-2.928a1.6,1.6,0,0,1,.065-.45H60.678a2.495,2.495,0,1,0,0,4.99h1.987A7.161,7.161,0,0,1,62.455,221.255Z" transform="translate(-58.183 -217.867)" fill="#ffddce"/>
                    </g>
                  </g>
                </g>
              </g>
              <g id="Grupo_1226230" data-name="Grupo 1226230" transform="translate(8.844 12.506)">
                <path id="Trazado_1187518" data-name="Trazado 1187518" d="M86.155,323.01l-3.63,1.809a1.112,1.112,0,0,0-.431,1.609l.661,1a1.112,1.112,0,0,1-.1,1.355l-.4.446a1.113,1.113,0,0,0-.242,1.043c.9,3.215,7.5,9.319,7.5,9.319-.774-2.533-2.356-4.924-3.512-9.321A13.343,13.343,0,0,1,86.155,323.01Z" transform="translate(-81.909 -323.01)" fill="#95d6a4"/>
                <path id="Trazado_1187519" data-name="Trazado 1187519" d="M149.3,323.01l3.63,1.809a1.112,1.112,0,0,1,.431,1.609l-.661,1a1.112,1.112,0,0,0,.1,1.355l.4.446a1.113,1.113,0,0,1,.242,1.043c-.9,3.215-7.5,9.319-7.5,9.319.774-2.533,2.356-4.924,3.512-9.321A13.343,13.343,0,0,0,149.3,323.01Z" transform="translate(-138.324 -323.01)" fill="#95d6a4"/>
              </g>
            </g>
          </g>
        </g>
        <path id="Trazado_1187520" data-name="Trazado 1187520" d="M99.666,182.737a15.515,15.515,0,0,1-1.423-1.774,2.581,2.581,0,0,0-3.937-.4,9.24,9.24,0,0,1-6.48,2.641q-.178,0-.354-.007A1.609,1.609,0,0,0,85.8,184.8v2.928a7.149,7.149,0,0,0,14.3,0v-3.9A1.6,1.6,0,0,0,99.666,182.737Z" transform="translate(-75.6 -158.485)" fill="#ffece4"/>
        <path id="Trazado_1187521" data-name="Trazado 1187521" d="M168.388,183.829a1.6,1.6,0,0,0-.427-1.091,15.5,15.5,0,0,1-1.423-1.774,2.59,2.59,0,0,0-3.232-.892,10.411,10.411,0,0,1,.61,3.524v3.254a10.687,10.687,0,0,0,.971,4.5l.027.059a5.189,5.189,0,0,1,.471,2.038,7.141,7.141,0,0,0,3-5.714Z" transform="translate(-143.894 -158.486)" fill="#ffddce"/>
        <g id="Grupo_1226234" data-name="Grupo 1226234" transform="translate(0 0)">
          <path id="Trazado_1187522" data-name="Trazado 1187522" d="M305.355,76.79h15.5a.891.891,0,0,0,0-1.783h-15.5a.891.891,0,0,0,0,1.783Z" transform="translate(-268.275 -66.122)"/>
          <path id="Trazado_1187523" data-name="Trazado 1187523" d="M305.355,117.251h15.5a.891.891,0,0,0,0-1.783h-15.5a.891.891,0,0,0,0,1.783Z" transform="translate(-268.275 -101.774)"/>
          <path id="Trazado_1187524" data-name="Trazado 1187524" d="M305.355,157.711h5.393a.891.891,0,1,0,0-1.783h-5.393a.891.891,0,0,0,0,1.783Z" transform="translate(-268.275 -137.425)"/>
          <path id="Trazado_1187525" data-name="Trazado 1187525" d="M58.762.257H18.336a2.1,2.1,0,0,0-2.095,2.095V3.507A2.1,2.1,0,0,0,18.336,5.6h.246v5.387a.891.891,0,1,0,1.783,0V5.6H56.733V27.063a.429.429,0,0,1-.429.429H42.585l1.8-4.761A.891.891,0,0,0,42.72,22.1l-2.041,5.392H31.943a.891.891,0,0,0,0,1.783H40L38.365,33.6A2.282,2.282,0,0,0,37,34.214L35.372,35.74l-.021.02a3.109,3.109,0,0,0-.889,1.8,22.254,22.254,0,0,1-.969,3.009,1.806,1.806,0,0,0-.734.944L31.69,44.7a12.447,12.447,0,0,0-5.368-3.687,6.114,6.114,0,0,0,3.267-8.2l-.031-.067c-1.275-2.748-.774-5.1-.89-7.375a11.254,11.254,0,0,0-1.081-4.824h3.635a2,2,0,0,0,2-2v-7.4a2,2,0,0,0-2-2H25.9a2,2,0,0,0-2,2v5A11.317,11.317,0,0,0,6.024,25.367v3.254A10.071,10.071,0,0,1,5.1,32.806a6.115,6.115,0,0,0,3.268,8.206A12.506,12.506,0,0,0,0,52.836v5.17a3.05,3.05,0,0,0,3.047,3.047H32.4a4.094,4.094,0,0,0,4.037-3.387l2.559-14.492a1.808,1.808,0,0,0-.081-.932l.1-.541a2.776,2.776,0,0,1,.778-1.491L39.8,40.2l.01-.01.669-.7a3.6,3.6,0,0,0-.412-5.338l1.848-4.88H56.3a2.214,2.214,0,0,0,2.212-2.212V5.6h.246a2.1,2.1,0,0,0,2.095-2.095V2.352A2.1,2.1,0,0,0,58.762.257ZM27.939,33.49l.026.057a4.3,4.3,0,0,1-.15,3.892A4.225,4.225,0,0,1,24.7,39.611l-3.14-1.565v-1.8a8.056,8.056,0,0,0,3.388-4.219,3.581,3.581,0,0,0,2.273-.614A11.165,11.165,0,0,0,27.939,33.49Zm-4.4,11.494c.319.4.5.461.447.653-.411,1.465-2.3,3.79-4.135,5.771a35.865,35.865,0,0,0,1.864-5.3A14.147,14.147,0,0,0,22,40.259l1.941.967a.215.215,0,0,1,.115.14.228.228,0,0,1,.007.074v.011a.215.215,0,0,1-.035.094l-.661,1a2,2,0,0,0,.177,2.441ZM11.325,42.543l-.661-1a.215.215,0,0,1-.035-.093v-.013a.231.231,0,0,1,.007-.073.217.217,0,0,1,.067-.109l0,0a.22.22,0,0,1,.043-.028l1.941-.967a14.149,14.149,0,0,0,.281,5.844,35.866,35.866,0,0,0,1.864,5.305C13,49.428,11.112,47.1,10.7,45.637c-.054-.192.13-.26.447-.653a2,2,0,0,0,.177-2.441Zm3.511-3.665a3.686,3.686,0,0,0,.083-.794V37.06a8.072,8.072,0,0,0,4.856,0v1.024a3.8,3.8,0,0,0,.083.794,12.513,12.513,0,0,1,.452,5.132,8.936,8.936,0,0,1-5.926,0A12.511,12.511,0,0,1,14.835,38.878Zm-3.746-9.384V26.573a.718.718,0,0,1,.749-.715,10.112,10.112,0,0,0,7.491-2.888,1.689,1.689,0,0,1,2.578.269,16.437,16.437,0,0,0,1.505,1.876.71.71,0,0,1,.189.485v3.894a6.257,6.257,0,0,1-12.513,0Zm3.7,16.5a10.743,10.743,0,0,0,5.116,0,38.55,38.55,0,0,1-2.141,5.752c-.142.322-.282.638-.417.952-.135-.314-.275-.63-.417-.952A38.543,38.543,0,0,1,14.788,45.989Zm12.1-17.357a1.613,1.613,0,0,1-1.546,1.606c.08-.764.03-1.073.044-3.227a1.619,1.619,0,0,1,1.5,1.6v.01s0,.007,0,.01Zm-1.2-17.49a.217.217,0,0,1,.217-.217h5.321a.217.217,0,0,1,.217.217v7.4a.217.217,0,0,1-.217.217H26.534a11.406,11.406,0,0,0-.851-1.044V11.142ZM7.807,25.367a9.539,9.539,0,1,1,19.078,0v.264a3.379,3.379,0,0,0-1.53-.407A2.482,2.482,0,0,0,24.72,23.9h0a14.648,14.648,0,0,1-1.342-1.672,3.473,3.473,0,0,0-5.295-.535,8.338,8.338,0,0,1-6.177,2.381A2.488,2.488,0,0,0,9.7,25.232a3.62,3.62,0,0,0-1.893.4Zm1.542,4.852a1.6,1.6,0,0,1-.043-3.2c.014,2.181-.034,2.445.043,3.2Zm-2.473,7.22c-1.336-2.43.093-3.928.6-6.041A3.594,3.594,0,0,0,9.741,32a8.01,8.01,0,0,0,1.96,3.113,8.092,8.092,0,0,0,1.434,1.125v1.8l-3.14,1.565A4.224,4.224,0,0,1,6.876,37.439Zm27.8,19.917A2.314,2.314,0,0,1,32.4,59.27H7.658V55.4a.891.891,0,0,0-1.783,0V59.27H3.047a1.265,1.265,0,0,1-1.264-1.264v-5.17a10.727,10.727,0,0,1,7.445-10.23l.61.922a.221.221,0,0,1-.019.269,2.375,2.375,0,0,0-.834,2.323C9.795,49,14.691,54,16.749,55.859a.891.891,0,0,0,1.2-.007c.695-.642,6.812-6.372,7.756-9.733a2.351,2.351,0,0,0-.834-2.323.221.221,0,0,1-.019-.269l.61-.921a10.693,10.693,0,0,1,5.542,4.129l-2.6,7.743a.891.891,0,1,0,1.69.567L34.45,42.078a.028.028,0,0,1,.034-.018l2.732.772a.028.028,0,0,1,.02.032Zm4.512-19.1-.662.689a4.544,4.544,0,0,0-1.192,2.067l-1.927-.545a15.893,15.893,0,0,0,.822-2.673,1.34,1.34,0,0,1,.374-.766l1.616-1.515a.507.507,0,0,1,.7.007l.226.22A1.789,1.789,0,0,1,39.188,38.257ZM59.074,3.507a.312.312,0,0,1-.312.312H18.336a.312.312,0,0,1-.312-.312V2.352a.312.312,0,0,1,.312-.312H58.762a.312.312,0,0,1,.312.312Z" transform="translate(0 -0.257)"/>
        </g>
      </g>
    </g>
  </g>
</svg>
